<svg width="260" height="79" viewBox="0 0 260 79" fill="none" xmlns="http://www.w3.org/2000/svg">
<path d="M226.38 50.068V79H233.723V47.2961L198.047 0H188.57L226.38 50.068Z" fill="white"/>
<path d="M118.088 79H108.277L66.4687 7.23239L72.3775 0L118.088 79Z" fill="white"/>
<path d="M0 78.8826V0.0804082H8.64257V44.557L18.5198 33.8779L24.5755 27.2475L49.5625 0.0804082H50.9735L25.1634 28.1863L56.9704 78.8826H46.7404L19.0489 34.7581L8.64257 46.0826V78.8826H0Z" fill="white"/>
<path d="M107.967 1.19526V0.139085H136.011V0.0804082H144.654V0.139085H172.639V1.19526H144.654V78.8826H136.011V1.19526H107.967Z" fill="white"/>
<path d="M248.936 0H249.848L251.805 6.05754H251.815L253.772 0H254.683L252.285 6.92982H251.335L248.936 0Z" fill="white"/>
<path d="M259.089 6.92982H258.225V5.35971H255.03V4.58435L258.225 0.232609H259.089V4.58435H260V5.35971H259.089V6.92982ZM258.225 1.44412L255.913 4.58435H258.225V1.44412Z" fill="white"/>
</svg>
