<svg xmlns="http://www.w3.org/2000/svg" width="400" height="50" viewBox="0 0 400 50"><g id="Groupe_3538" data-name="Groupe 3538" transform="translate(-225 -2762)"><g id="Groupe_3532" data-name="Groupe 3532" transform="translate(-3 82)"><text id="Html" fill="#fff" font-family="NeueMontreal-Regular, Neue Montreal" font-size="15" transform="translate(253 2711)"><tspan x="-14.932" y="0">Html</tspan></text><g id="Rectangle_469" fill="none" stroke="#fff" stroke-width="1" data-name="Rectangle 469" transform="translate(228 2680)"><rect width="50" height="50" stroke="none" rx="8"/><rect width="49" height="49" x=".5" y=".5" fill="none" rx="7.5"/></g></g><g id="Groupe_3533" data-name="Groupe 3533" transform="translate(67 82)"><text id="Css" fill="#fff" font-family="NeueMontreal-Regular, Neue Montreal" font-size="15" transform="translate(253 2711)"><tspan x="-12.502" y="0">Css</tspan></text><g id="Rectangle_469-2" fill="none" stroke="#fff" stroke-width="1" data-name="Rectangle 469" transform="translate(228 2680)"><rect width="50" height="50" stroke="none" rx="8"/><rect width="49" height="49" x=".5" y=".5" fill="none" rx="7.5"/></g></g><g id="Groupe_3534" data-name="Groupe 3534" transform="translate(137 82)"><text id="Js" fill="#fff" font-family="NeueMontreal-Regular, Neue Montreal" font-size="15" transform="translate(253 2711)"><tspan x="-7.32" y="0">Js</tspan></text><g id="Rectangle_469-3" fill="none" stroke="#fff" stroke-width="1" data-name="Rectangle 469" transform="translate(228 2680)"><rect width="50" height="50" stroke="none" rx="8"/><rect width="49" height="49" x=".5" y=".5" fill="none" rx="7.5"/></g></g><g id="Groupe_3535" data-name="Groupe 3535" transform="translate(207 82)"><text id="Vue" fill="#fff" font-family="NeueMontreal-Regular, Neue Montreal" font-size="15" transform="translate(253 2711)"><tspan x="-12.375" y="0">Vue</tspan></text><g id="Rectangle_469-4" fill="none" stroke="#fff" stroke-width="1" data-name="Rectangle 469" transform="translate(228 2680)"><rect width="50" height="50" stroke="none" rx="8"/><rect width="49" height="49" x=".5" y=".5" fill="none" rx="7.5"/></g></g><g id="Groupe_3536" data-name="Groupe 3536" transform="translate(277 82)"><g id="Rectangle_469-5" fill="none" stroke="#fff" stroke-width="1" data-name="Rectangle 469" transform="translate(228 2680)"><rect width="50" height="50" stroke="none" rx="8"/><rect width="49" height="49" x=".5" y=".5" fill="none" rx="7.5"/></g><path id="Icon_awesome-react" fill="#fff" d="M23.351,10.358q-.452-.151-.9-.285c.05-.207.095-.413.14-.62.687-3.328.235-6-1.29-6.885-1.468-.843-3.864.034-6.287,2.144-.24.207-.475.424-.7.642-.151-.145-.307-.29-.463-.43C11.307,2.669,8.761,1.72,7.236,2.608c-1.463.849-1.9,3.367-1.284,6.516.061.313.128.62.207.932-.357.1-.709.212-1.039.329C2.139,11.419,0,13.049,0,14.735c0,1.742,2.278,3.49,5.377,4.551.251.084.5.168.759.24-.084.335-.156.664-.223,1.005-.586,3.1-.128,5.556,1.334,6.4,1.508.871,4.043-.022,6.511-2.183.2-.173.391-.352.586-.542.246.24.5.469.759.692,2.39,2.055,4.752,2.887,6.209,2.044,1.508-.871,2-3.512,1.362-6.728q-.075-.369-.168-.754c.179-.05.352-.106.525-.162,3.222-1.066,5.556-2.792,5.556-4.562,0-1.692-2.2-3.333-5.237-4.378ZM15.8,5.617c2.077-1.809,4.015-2.518,4.9-2.01.944.542,1.307,2.73.715,5.606-.039.19-.078.374-.128.558a28.584,28.584,0,0,0-3.758-.592,28.211,28.211,0,0,0-2.379-2.965c.218-.207.43-.4.653-.6ZM9.336,17.633c.285.486.575.972.882,1.446a25.284,25.284,0,0,1-2.591-.419,26.083,26.083,0,0,1,.91-2.485C8.794,16.667,9.057,17.153,9.336,17.633ZM7.644,10.916c.8-.179,1.658-.324,2.546-.436-.3.463-.586.938-.86,1.418s-.542.96-.793,1.452C8.186,12.519,7.89,11.7,7.644,10.916Zm1.53,3.847c.369-.771.771-1.524,1.195-2.267s.882-1.463,1.362-2.172c.838-.061,1.692-.095,2.563-.095s1.731.034,2.563.095q.712,1.055,1.357,2.161t1.212,2.256q-.561,1.156-1.206,2.278c-.424.743-.877,1.463-1.351,2.178-.832.061-1.7.089-2.574.089s-1.725-.028-2.546-.078q-.729-1.064-1.374-2.178c-.43-.743-.826-1.5-1.2-2.267Zm10.084,2.859c.285-.491.553-.988.815-1.491a25.92,25.92,0,0,1,.944,2.474,24.526,24.526,0,0,1-2.624.447C18.694,18.582,18.979,18.1,19.258,17.622Zm.8-4.271c-.262-.491-.53-.983-.81-1.463s-.558-.944-.854-1.407a25.7,25.7,0,0,1,2.563.447,24.711,24.711,0,0,1-.9,2.423ZM14.305,7.069a24.519,24.519,0,0,1,1.653,2c-1.106-.05-2.217-.05-3.322,0C13.183,8.348,13.747,7.677,14.305,7.069ZM7.828,3.646c.938-.547,3.021.235,5.215,2.178.14.123.279.257.424.391a28.368,28.368,0,0,0-2.4,2.965A29.433,29.433,0,0,0,7.32,9.76c-.073-.285-.134-.575-.2-.865-.525-2.7-.179-4.741.7-5.249ZM6.46,18.365c-.235-.067-.463-.14-.692-.218A11.388,11.388,0,0,1,2.25,16.4a2.505,2.505,0,0,1-1.05-1.67c0-1.022,1.764-2.328,4.311-3.216.318-.112.642-.212.966-.307a29.691,29.691,0,0,0,1.368,3.551,30.522,30.522,0,0,0-1.385,3.6Zm6.511,5.472a10.22,10.22,0,0,1-3.149,1.971,2.471,2.471,0,0,1-1.971.073c-.888-.514-1.256-2.485-.754-5.137.061-.313.128-.625.207-.932a27.934,27.934,0,0,0,3.791.547,29.467,29.467,0,0,0,2.412,2.982C13.328,23.513,13.149,23.68,12.971,23.837Zm1.368-1.357c-.57-.614-1.139-1.3-1.692-2.027.536.022,1.089.034,1.647.034.575,0,1.139-.011,1.7-.039a24.08,24.08,0,0,1-1.653,2.032Zm7.3,1.675a2.482,2.482,0,0,1-.921,1.748c-.888.514-2.781-.156-4.824-1.91-.235-.2-.469-.419-.709-.642a27.622,27.622,0,0,0,2.356-2.993,27.525,27.525,0,0,0,3.808-.586c.056.229.106.458.151.681a10.179,10.179,0,0,1,.14,3.7Zm1.016-6c-.156.05-.313.1-.475.145a28.365,28.365,0,0,0-1.424-3.562,28.223,28.223,0,0,0,1.368-3.512c.29.084.57.173.838.262,2.6.893,4.428,2.222,4.428,3.239,0,1.094-1.949,2.507-4.735,3.428Zm-8.359-.838a2.557,2.557,0,1,0-2.557-2.557A2.557,2.557,0,0,0,14.294,17.315Z" data-name="Icon awesome-react" transform="translate(238.706 2690.241)"/></g><g id="Groupe_3537" data-name="Groupe 3537" opacity="0" transform="translate(347 82)"><g id="Rectangle_469-6" fill="none" stroke="#fff" stroke-width="1" data-name="Rectangle 469" transform="translate(228 2680)"><rect width="50" height="50" stroke="none" rx="8"/><rect width="49" height="49" x=".5" y=".5" fill="none" rx="7.5"/></g></g></g></svg>