<svg xmlns="http://www.w3.org/2000/svg" width="400" height="50" viewBox="0 0 400 50"><g id="Groupe_3531" data-name="Groupe 3531" transform="translate(-225 -2693)"><g id="Groupe_3279" data-name="Groupe 3279" transform="translate(-3 13)"><text id="Xd" fill="#fff" font-family="NeueMontreal-Regular, Neue Montreal" font-size="18" transform="translate(253 2712)"><tspan x="-10.251" y="0">Xd</tspan></text><g id="Rectangle_469" fill="none" stroke="#fff" stroke-width="1" data-name="Rectangle 469" transform="translate(228 2680)"><rect width="50" height="50" stroke="none" rx="8"/><rect width="49" height="49" x=".5" y=".5" fill="none" rx="7.5"/></g></g><g id="Groupe_3282" data-name="Groupe 3282" transform="translate(207 13)"><text id="Ai" fill="#fff" font-family="NeueMontreal-Regular, Neue Montreal" font-size="18" transform="translate(253 2712)"><tspan x="-7.713" y="0">Ai</tspan></text><g id="Rectangle_469-2" fill="none" stroke="#fff" stroke-width="1" data-name="Rectangle 469" transform="translate(228 2680)"><rect width="50" height="50" stroke="none" rx="8"/><rect width="49" height="49" x=".5" y=".5" fill="none" rx="7.5"/></g></g><g id="Groupe_3283" data-name="Groupe 3283" transform="translate(277 13)"><text id="Ps" fill="#fff" font-family="NeueMontreal-Regular, Neue Montreal" font-size="18" transform="translate(253 2712)"><tspan x="-9.648" y="0">Ps</tspan></text><g id="Rectangle_469-3" fill="none" stroke="#fff" stroke-width="1" data-name="Rectangle 469" transform="translate(228 2680)"><rect width="50" height="50" stroke="none" rx="8"/><rect width="49" height="49" x=".5" y=".5" fill="none" rx="7.5"/></g></g><g id="Groupe_3284" data-name="Groupe 3284" transform="translate(347 13)"><text id="Id" fill="#fff" font-family="NeueMontreal-Regular, Neue Montreal" font-size="18" transform="translate(253 2712)"><tspan x="-7.119" y="0">Id</tspan></text><g id="Rectangle_469-4" fill="none" stroke="#fff" stroke-width="1" data-name="Rectangle 469" transform="translate(228 2680)"><rect width="50" height="50" stroke="none" rx="8"/><rect width="49" height="49" x=".5" y=".5" fill="none" rx="7.5"/></g></g><g id="Groupe_3280" data-name="Groupe 3280" transform="translate(67 13)"><g id="Rectangle_469-5" fill="none" stroke="#fff" stroke-width="1" data-name="Rectangle 469" transform="translate(228 2680)"><rect width="50" height="50" stroke="none" rx="8"/><rect width="49" height="49" x=".5" y=".5" fill="none" rx="7.5"/></g><g id="Icon_feather-figma" data-name="Icon feather-figma" transform="translate(238.124 2690.937)"><path id="Tracé_281" fill="none" stroke="#fff" stroke-linecap="round" stroke-linejoin="round" stroke-width="1" d="M7.5,6.88A3.88,3.88,0,0,1,11.38,3h3.88v7.759H11.38A3.88,3.88,0,0,1,7.5,6.88Z" data-name="Tracé 281" transform="translate(0 0)"/><path id="Tracé_282" fill="none" stroke="#fff" stroke-linecap="round" stroke-linejoin="round" stroke-width="1" d="M18,3h3.88a3.88,3.88,0,1,1,0,7.759H18Z" data-name="Tracé 282" transform="translate(-2.741 0)"/><path id="Tracé_283" fill="none" stroke="#fff" stroke-linecap="round" stroke-linejoin="round" stroke-width="1" d="M18,17.38a3.88,3.88,0,1,1,3.88,3.88A3.88,3.88,0,0,1,18,17.38Z" data-name="Tracé 283" transform="translate(-2.741 -2.741)"/><path id="Tracé_284" fill="none" stroke="#fff" stroke-linecap="round" stroke-linejoin="round" stroke-width="1" d="M7.5,27.88A3.88,3.88,0,0,1,11.38,24h3.88v3.88a3.88,3.88,0,0,1-7.759,0Z" data-name="Tracé 284" transform="translate(0 -5.482)"/><path id="Tracé_285" fill="none" stroke="#fff" stroke-linecap="round" stroke-linejoin="round" stroke-width="1" d="M7.5,17.38a3.88,3.88,0,0,1,3.88-3.88h3.88v7.759H11.38A3.88,3.88,0,0,1,7.5,17.38Z" data-name="Tracé 285" transform="translate(0 -2.741)"/></g></g><g id="Groupe_3281" data-name="Groupe 3281" transform="translate(137 13)"><g id="Rectangle_469-6" fill="none" stroke="#fff" stroke-width="1" data-name="Rectangle 469" transform="translate(228 2680)"><rect width="50" height="50" stroke="none" rx="8"/><rect width="49" height="49" x=".5" y=".5" fill="none" rx="7.5"/></g><path id="Icon_awesome-sketch" fill="none" stroke="#fff" stroke-width="1" d="M1.625,9.236.633,10.572H5.489l.37-7.013ZM21.413,2.985l-6.9-.735,7.281,7.9-.381-7.163ZM6.17,12.246l-.6-1.18H.681L12.748,25.107Zm.107-1.674H21.515L17.142,5.823,13.9,2.3Zm15.952.488L15.045,25.107,27.106,11.066H22.229Zm.209-6.825-.5-.676.048.928.327,6.084h4.845ZM6.24,5.55l-.247,4.593L13.279,2.25l-6.9.735Zm15.437,5.51H6.116l2.275,4.448L13.9,26.287Z" data-name="Icon awesome-sketch" transform="translate(238.963 2691.736)"/></g></g></svg>