<svg xmlns="http://www.w3.org/2000/svg" width="400" height="50" viewBox="0 0 400 50">
  <g id="Groupe_3531" data-name="Groupe 3531" transform="translate(-225 -2693)">
    <g id="Groupe_3279" data-name="Groupe 3279" transform="translate(-3 13)">
      <text id="Xd" transform="translate(253 2712)" fill="#fff" font-size="18" font-family="NeueMontreal-Regular, Neue Montreal"><tspan x="-10.251" y="0">Xd</tspan></text>
      <g id="Rectangle_469" data-name="Rectangle 469" transform="translate(228 2680)" fill="none" stroke="#fff" stroke-width="1">
        <rect width="50" height="50" rx="8" stroke="none"/>
        <rect x="0.5" y="0.5" width="49" height="49" rx="7.5" fill="none"/>
      </g>
    </g>
    <g id="Groupe_3282" data-name="Groupe 3282" transform="translate(207 13)">
      <text id="Ai" transform="translate(253 2712)" fill="#fff" font-size="18" font-family="NeueMontreal-Regular, Neue Montreal"><tspan x="-7.713" y="0">Ai</tspan></text>
      <g id="Rectangle_469-2" data-name="Rectangle 469" transform="translate(228 2680)" fill="none" stroke="#fff" stroke-width="1">
        <rect width="50" height="50" rx="8" stroke="none"/>
        <rect x="0.5" y="0.5" width="49" height="49" rx="7.5" fill="none"/>
      </g>
    </g>
    <g id="Groupe_3283" data-name="Groupe 3283" transform="translate(277 13)">
      <text id="Ps" transform="translate(253 2712)" fill="#fff" font-size="18" font-family="NeueMontreal-Regular, Neue Montreal"><tspan x="-9.648" y="0">Ps</tspan></text>
      <g id="Rectangle_469-3" data-name="Rectangle 469" transform="translate(228 2680)" fill="none" stroke="#fff" stroke-width="1">
        <rect width="50" height="50" rx="8" stroke="none"/>
        <rect x="0.5" y="0.5" width="49" height="49" rx="7.5" fill="none"/>
      </g>
    </g>
    <g id="Groupe_3284" data-name="Groupe 3284" transform="translate(347 13)">
      <text id="Id" transform="translate(253 2712)" fill="#fff" font-size="18" font-family="NeueMontreal-Regular, Neue Montreal"><tspan x="-7.119" y="0">Id</tspan></text>
      <g id="Rectangle_469-4" data-name="Rectangle 469" transform="translate(228 2680)" fill="none" stroke="#fff" stroke-width="1">
        <rect width="50" height="50" rx="8" stroke="none"/>
        <rect x="0.5" y="0.5" width="49" height="49" rx="7.5" fill="none"/>
      </g>
    </g>
    <g id="Groupe_3280" data-name="Groupe 3280" transform="translate(67 13)">
      <g id="Rectangle_469-5" data-name="Rectangle 469" transform="translate(228 2680)" fill="none" stroke="#fff" stroke-width="1">
        <rect width="50" height="50" rx="8" stroke="none"/>
        <rect x="0.5" y="0.5" width="49" height="49" rx="7.5" fill="none"/>
      </g>
      <g id="Icon_feather-figma" data-name="Icon feather-figma" transform="translate(238.124 2690.937)">
        <path id="Tracé_281" data-name="Tracé 281" d="M7.5,6.88A3.88,3.88,0,0,1,11.38,3h3.88v7.759H11.38A3.88,3.88,0,0,1,7.5,6.88Z" transform="translate(0 0)" fill="none" stroke="#fff" stroke-linecap="round" stroke-linejoin="round" stroke-width="1"/>
        <path id="Tracé_282" data-name="Tracé 282" d="M18,3h3.88a3.88,3.88,0,1,1,0,7.759H18Z" transform="translate(-2.741 0)" fill="none" stroke="#fff" stroke-linecap="round" stroke-linejoin="round" stroke-width="1"/>
        <path id="Tracé_283" data-name="Tracé 283" d="M18,17.38a3.88,3.88,0,1,1,3.88,3.88A3.88,3.88,0,0,1,18,17.38Z" transform="translate(-2.741 -2.741)" fill="none" stroke="#fff" stroke-linecap="round" stroke-linejoin="round" stroke-width="1"/>
        <path id="Tracé_284" data-name="Tracé 284" d="M7.5,27.88A3.88,3.88,0,0,1,11.38,24h3.88v3.88a3.88,3.88,0,0,1-7.759,0Z" transform="translate(0 -5.482)" fill="none" stroke="#fff" stroke-linecap="round" stroke-linejoin="round" stroke-width="1"/>
        <path id="Tracé_285" data-name="Tracé 285" d="M7.5,17.38a3.88,3.88,0,0,1,3.88-3.88h3.88v7.759H11.38A3.88,3.88,0,0,1,7.5,17.38Z" transform="translate(0 -2.741)" fill="none" stroke="#fff" stroke-linecap="round" stroke-linejoin="round" stroke-width="1"/>
      </g>
    </g>
    <g id="Groupe_3281" data-name="Groupe 3281" transform="translate(137 13)">
      <g id="Rectangle_469-6" data-name="Rectangle 469" transform="translate(228 2680)" fill="none" stroke="#fff" stroke-width="1">
        <rect width="50" height="50" rx="8" stroke="none"/>
        <rect x="0.5" y="0.5" width="49" height="49" rx="7.5" fill="none"/>
      </g>
      <path id="Icon_awesome-sketch" data-name="Icon awesome-sketch" d="M1.625,9.236.633,10.572H5.489l.37-7.013ZM21.413,2.985l-6.9-.735,7.281,7.9-.381-7.163ZM6.17,12.246l-.6-1.18H.681L12.748,25.107Zm.107-1.674H21.515L17.142,5.823,13.9,2.3Zm15.952.488L15.045,25.107,27.106,11.066H22.229Zm.209-6.825-.5-.676.048.928.327,6.084h4.845ZM6.24,5.55l-.247,4.593L13.279,2.25l-6.9.735Zm15.437,5.51H6.116l2.275,4.448L13.9,26.287Z" transform="translate(238.963 2691.736)" fill="none" stroke="#fff" stroke-width="1"/>
    </g>
  </g>
</svg>
