<svg xmlns="http://www.w3.org/2000/svg" width="61.704" height="75.28" viewBox="0 0 61.704 75.28"><g id="Groupe_82" data-name="Groupe 82" transform="translate(-564.148 -323.22)"><text id="Casual" fill="#fff" font-family="NeueMontreal-Regular, Neue Montreal" font-size="8" transform="translate(595.424 396.5)"><tspan x="-11.728" y="0">Casual</tspan></text><g id="Groupe_32" data-name="Groupe 32" transform="translate(564.148 323.22)"><g id="Groupe_13" data-name="Groupe 13" transform="translate(0 0)"><path id="Tracé_17" fill="#222" d="M42.756,34.528c-.7,0-1.4.012-2.1-.01-.359-.012-.49.107-.478.473.024.7.008,1.4.01,2.106l-5.15.006c0-.7,0-1.407.018-2.11.006-.3-.054-.479-.415-.478q-3.454.014-6.908,0c-.308,0-.411.115-.4.415.017.725.012,1.45.015,2.175-.682,0-1.366.017-2.047-.017-.423-.021-.552.119-.544.542.023,1.344-.009,2.689.015,4.033.008.446-.124.587-.577.578-1.343-.027-2.687,0-4.03-.015-.412-.006-.57.116-.549.544.034.681.015,1.364.019,2.047-.7,0-1.407.01-2.109-.016-.365-.014-.478.112-.476.474q.019,3.391,0,6.782c0,.356.106.494.476.48.7-.027,1.407-.013,2.11-.016q0,2.577,0,5.155c-.7,0-1.407,0-2.109-.02-.362-.013-.491.12-.479.48.023.7.014,1.407.018,2.111-.724,0-1.447,0-2.17-.014-.3-.007-.42.1-.418.4q.012,2.173,0,4.346c0,.3.117.414.416.407.723-.017,1.448-.013,2.171-.017-.005.7,0,1.41-.021,2.114-.013.363.115.492.479.478.7-.026,1.409-.016,2.113-.021q0,2.576-.006,5.154c-.684,0-1.37.011-2.053-.013-.372-.013-.535.078-.532.494q.027,3.372,0,6.745c0,.412.158.512.531.5.684-.023,1.369-.013,2.053-.017,0,.682.014,1.366-.018,2.048-.02.425.129.548.547.541,1.322-.023,2.645.014,3.966-.019.512-.013.657.147.645.652-.033,1.322,0,2.646-.018,3.968-.007.42.12.562.546.539.68-.037,1.364-.016,2.046-.019,0,.7.008,1.408-.016,2.111-.012.362.12.483.479.481q3.39-.016,6.78,0c.367,0,.483-.128.471-.485-.025-.7-.014-1.407-.019-2.111l5.153,0c0,.7.01,1.406-.014,2.108-.012.36.11.5.474.483.7-.023,1.405-.014,2.108-.018,0,.7,0,1.406-.017,2.108-.011.361.124.483.483.479,1.4-.014,2.81-.017,4.215,0,.373,0,.482-.13.471-.482-.022-.7-.014-1.405-.018-2.108.7,0,1.41-.014,2.114.012.378.014.481-.137.467-.488-.021-.512.009-1.026-.008-1.539-.012-.359.077-.554.492-.55q2.115.024,4.231,0c.365,0,.42.157.411.463-.016.555.01,1.112,0,1.667-.009.333.123.452.452.451q3.43-.013,6.859,0c.3,0,.423-.1.416-.409-.016-.726-.011-1.453-.014-2.179.684,0,1.37-.014,2.053.022.431.022.546-.136.539-.551-.023-1.327.009-2.655-.018-3.982-.01-.479.15-.632.625-.623,1.326.024,2.654-.009,3.98.013.417.007.572-.111.552-.54-.033-.683-.016-1.368-.02-2.053.705,0,1.411-.008,2.115.017.371.013.473-.132.471-.486q-.016-3.371,0-6.742c0-.407-.166-.518-.535-.508-.684.02-1.368.013-2.052.017q0-2.577,0-5.155c.724,0,1.449,0,2.173.013.3.007.418-.113.412-.412-.015-.724-.012-1.449-.016-2.173.7.005,1.405,0,2.107.021.349.011.493-.093.488-.468-.018-1.407-.016-2.814,0-4.221,0-.36-.123-.491-.483-.479-.7.024-1.406.016-2.109.021.005-.7,0-1.409.022-2.112.013-.362-.117-.489-.481-.476-.7.026-1.407.013-2.111.016q0-2.577.006-5.154c.7,0,1.407,0,2.109.013.3.007.477-.051.475-.411q-.016-3.456,0-6.912c0-.3-.1-.411-.41-.4-.724.019-1.448.007-2.172.008,0-.683-.019-1.366.015-2.048.021-.424-.119-.55-.541-.543-1.344.023-2.689-.012-4.034.014-.454.009-.584-.133-.576-.579.025-1.345-.007-2.691.015-4.036.007-.423-.127-.563-.546-.543-.681.033-1.365.018-2.048.023,0-.725,0-1.45.016-2.175.007-.3-.1-.408-.407-.407q-3.455.014-6.911,0c-.306,0-.417.106-.409.408.017.725.013,1.45.018,2.175l-5.153,0c0-.7-.011-1.407.014-2.109.012-.363-.115-.49-.477-.478-.7.024-1.4.013-2.107.017,0-.7,0-1.4.016-2.107.006-.3-.044-.484-.409-.481-1.448.012-2.9.008-4.343,0-.3,0-.412.115-.406.416.015.723.008,1.447.01,2.171" data-name="Tracé 17" transform="translate(-14.472 -31.941)"/><path id="Tracé_19" fill="#222" d="M122.473,221.8c0,.726,0,1.453.014,2.179.007.308-.12.41-.416.409q-3.43-.009-6.859,0c-.329,0-.461-.118-.452-.451.015-.555-.011-1.112,0-1.667.009-.306-.046-.468-.411-.463q-2.115.027-4.231,0c-.415,0-.5.191-.492.55.017.512-.013,1.027.008,1.539.014.351-.089.5-.467.488-.7-.026-1.409-.01-2.114-.012l.008.007c-.006-.7-.005-1.407-.023-2.11-.009-.357.141-.5.5-.489.513.014,1.028-.023,1.54.008.429.025.543-.144.538-.553-.03-2.162-.048-4.324-.042-6.486,0-.506-.227-.6-.665-.6-2.909-.039-5.818-.033-8.728-.01-.62,0-.789.191-.785.8.015,2.289-.029,4.578-.051,6.868l.01-.009-5.153,0,.015.016-.043-.265a1.462,1.462,0,0,0,0-.765,9.7,9.7,0,0,0,.022-1.022c-.033-.425.129-.559.546-.547.637.018,1.275-.022,1.913-.037.078.032.1.008.067-.068.081-1.671.076-3.343,0-5.014q.023-1.291.046-2.581l2.318-.035a.693.693,0,0,0,.521.006l.5,0c1.362.112,2.726.044,4.089.041,1.768,0,3.538.069,5.305-.041l.749-.009,1.948.038q.021,1.288.041,2.576c-.063,1.672-.074,3.344.006,5.016-.032.08-.007.1.072.072.169.015.338.034.507.045.616.039,1.413-.26,1.8.112.421.4.148,1.218.128,1.846-.017.539.183.627.66.624,2.355-.016,4.71,0,7.064,0Z" data-name="Tracé 19" transform="translate(-73.643 -165.229)"/><path id="Tracé_20" fill="#222" d="M34.448,147.014q0-2.577.006-5.154l-.015.015.268-.04h.118c1.586.027,3.172.071,4.757-.024.7.012,1.4.015,2.107.038.327.011.462-.111.451-.446-.024-.7-.024-1.406-.035-2.109.068-1.713.08-3.426,0-5.138q.02-1.279.04-2.559l.064-.065a18.361,18.361,0,0,1,2.523.041q.018,1.3.036,2.595-.006,2.88-.011,5.76a1.519,1.519,0,0,0,0,.792q0,.375,0,.75c0,.05,0,.1,0,.149q0,.893.006,1.785a.242.242,0,0,0,0,.266q-.014.383-.027.765l-2.669.063q-2.4-.083-4.8,0c-.341.015-.244.233-.2.427q0,.806-.007,1.612v.036q-.038.2-.077.4l-.021-.018.016.022-1.28.08a.323.323,0,0,0-.319,0l-.573,0-.369-.061Z" data-name="Tracé 20" transform="translate(-29.295 -105.859)"/><path id="Tracé_21" fill="#222" d="M204.231,141.936q0,2.577,0,5.155l.008-.008c-.7.01-1.4.011-2.106.033-.352.011-.505-.117-.491-.482.019-.49-.023-.984.007-1.474.03-.471-.135-.637-.618-.627q-2.369.051-4.739.032a13.816,13.816,0,0,1-2.341-.042q-.018-1.23-.036-2.461,0-2.305.007-4.611a5.5,5.5,0,0,0,0-1.556q0-.186,0-.372,0-.136,0-.271,0-.5,0-1.009a22.959,22.959,0,0,0,.031-2.589,17.9,17.9,0,0,1,2.581.01l0,0,.041,2.565-.016.518a.424.424,0,0,0,0,.372c-.028,1.418-.058,2.835.018,4.253-.011.7-.008,1.408-.037,2.111-.014.343.118.449.447.438.7-.023,1.407-.02,2.11-.027l5.147.054Z" data-name="Tracé 21" transform="translate(-147.69 -105.934)"/><path id="Tracé_22" fill="#222" d="M211.729,221.591c0,.685-.013,1.37.02,2.053.021.429-.134.547-.551.54-1.326-.023-2.654.011-3.98-.014-.475-.009-.635.145-.625.624.026,1.327-.005,2.654.018,3.981.007.415-.108.573-.539.551-.683-.036-1.368-.017-2.053-.021l.015.015q-.006-3.862-.012-7.724l7.718.006-.01-.011" data-name="Tracé 22" transform="translate(-155.188 -172.733)"/><path id="Tracé_23" fill="#222" d="M34.42,59.636c0-.682.015-1.366-.019-2.047-.021-.428.137-.55.549-.544,1.343.02,2.688-.012,4.03.016.453.009.585-.133.577-.578-.024-1.344.008-2.689-.015-4.033-.007-.422.121-.563.544-.542.681.034,1.364.014,2.047.017l-.015-.016q.021,3.351.042,6.7l-.032.053.031.053-.03.92-7.718-.012Z" data-name="Tracé 23" transform="translate(-29.266 -46.763)"/><path id="Tracé_24" fill="#222" d="M42.131,229.174c-.682,0-1.366-.018-2.046.019-.426.023-.553-.118-.546-.539.022-1.322-.015-2.646.017-3.968.013-.505-.132-.665-.644-.652-1.321.034-2.644,0-3.966.019-.418.007-.567-.116-.547-.542.033-.681.015-1.365.018-2.047l-.008.009.372-.054,3.662,0,3.694.053q.011.2.021.4l-.032.05.031.051q-.02,3.609-.041,7.218Z" data-name="Tracé 24" transform="translate(-29.264 -172.603)"/><path id="Tracé_25" fill="#222" d="M203.94,51.907c.683-.005,1.366.009,2.048-.024.419-.02.554.12.546.543-.023,1.345.01,2.691-.015,4.036-.008.446.122.588.576.579,1.344-.027,2.689.009,4.034-.014.422-.007.562.118.541.542-.034.681-.013,1.365-.015,2.048l.009-.01-.372.056-7.1.009-.254-.06q-.01-.2-.019-.407c0-.076,0-.151-.005-.227l.042-7.087-.015.016" data-name="Tracé 25" transform="translate(-155.11 -46.745)"/><path id="Tracé_26" fill="#222" d="M211.618,111.692q0,2.577-.006,5.154l.016-.015-5.021.048-2.688-.033,0,0q-.026-1.262-.052-2.525c.843-.178,1.7,0,2.546-.109.7.011,1.4.014,2.1.035.376.011.538-.137.524-.525-.025-.657-.019-1.315-.026-1.972l.487-.093h.027l.347,0,.023.026.022-.026h1.358l.358.053Z" data-name="Tracé 26" transform="translate(-155.072 -91.114)"/><path id="Tracé_27" fill="#222" d="M94.108,51.934l5.15-.006-.007-.007c.021,2.133.051,4.266.056,6.4a4.288,4.288,0,0,1-.042,1.322L96.7,59.631c-.009-.275-.02-.55-.027-.825-.034-1.394.068-2.79-.054-4.183.032-.074.011-.094-.062-.061-.21-.017-.421-.045-.632-.05-.555-.014-1.236.178-1.635-.076-.491-.313-.072-1.068-.212-1.614q.021-.451.042-.9Z" data-name="Tracé 27" transform="translate(-73.547 -46.772)"/><path id="Tracé_28" fill="#222" d="M154.021,51.933l5.153,0-.015-.015c0,.705-.005,1.41.02,2.115.013.364-.117.486-.479.48-.659-.01-1.319.024-1.979.04-.08-.034-.1-.007-.067.068-.016.233-.044.466-.046.7-.014,1.433-.022,2.867-.032,4.3l-2.56.017c-.093-2.573,0-5.147.016-7.72Z" data-name="Tracé 28" transform="translate(-118.036 -46.775)"/><path id="Tracé_29" fill="#222" d="M34.453,116.908q0-2.578,0-5.155l-.009.008c.722-.009,1.444-.01,2.166-.03.377-.011.472.182.466.517-.01.491.027.983,0,1.472-.019.416.136.552.553.55,1.322-.007,2.644.036,3.967.033.42,0,.64.1.622.571-.026.658-.012,1.317-.015,1.976l-.065.066-2.559.042-5.143-.063Z" data-name="Tracé 29" transform="translate(-29.294 -91.175)"/><path id="Tracé_30" fill="#222" d="M27.024,199.358c-.684,0-1.37-.006-2.053.017-.372.013-.534-.088-.531-.5q.025-3.372,0-6.744c0-.416.16-.507.531-.494.684.024,1.369.011,2.053.014l-.008-.009.056.366q0,3.5,0,7-.026.177-.053.354Z" data-name="Tracé 30" transform="translate(-21.871 -150.495)"/><path id="Tracé_31" fill="#222" d="M27.027,89.565c-.7,0-1.407-.01-2.11.016-.369.014-.478-.125-.476-.48q.018-3.391,0-6.783c0-.362.112-.488.476-.474.7.026,1.406.013,2.108.016l-.009-.01q0,3.861,0,7.723Z" data-name="Tracé 31" transform="translate(-21.873 -68.987)"/><path id="Tracé_32" fill="#222" d="M233.833,81.88c.724,0,1.449.01,2.173-.008.307-.008.411.1.411.4q-.011,3.456,0,6.912c0,.361-.17.419-.475.412-.7-.017-1.406-.01-2.109-.013l.008.009q-.027-.177-.054-.354,0-3.508,0-7.017l.051-.354Z" data-name="Tracé 32" transform="translate(-177.288 -69.007)"/><path id="Tracé_33" fill="#222" d="M233.951,191.647c.684,0,1.368,0,2.052-.017.37-.011.538.1.536.507q-.023,3.371,0,6.742c0,.354-.1.5-.471.486-.7-.025-1.41-.013-2.115-.017l.01.01q0-3.86,0-7.72l-.008.008" data-name="Tracé 33" transform="translate(-177.406 -150.49)"/><path id="Tracé_34" fill="#222" d="M174.1,44.535c0-.725,0-1.45-.018-2.175-.007-.3.1-.41.409-.409q3.455.014,6.911,0c.309,0,.414.106.407.406-.017.725-.012,1.451-.017,2.176l.015-.016-.262.039a1.1,1.1,0,0,0-.635,0l-6.826-.039Z" data-name="Tracé 34" transform="translate(-132.966 -39.372)"/><path id="Tracé_35" fill="#222" d="M72.066,251.533c0,.7-.006,1.408.019,2.111.013.357-.1.487-.471.485q-3.39-.02-6.78,0c-.359,0-.491-.119-.479-.481.024-.7.013-1.407.016-2.111l-.015.016h7.725Z" data-name="Tracé 35" transform="translate(-51.504 -194.962)"/><path id="Tracé_36" fill="#222" d="M64.376,44.518c0-.725,0-1.45-.015-2.175-.007-.3.1-.416.4-.415q3.454.013,6.908,0c.362,0,.421.179.416.478-.015.7-.013,1.407-.018,2.11l.015-.015-.138.051c-.232-.012-.465-.034-.7-.035q-3.444-.011-6.888-.016Z" data-name="Tracé 36" transform="translate(-51.508 -39.355)"/><path id="Tracé_37" fill="#222" d="M129.34,261.447c0,.7,0,1.406.018,2.108.011.352-.1.487-.471.482-1.4-.019-2.81-.017-4.215,0-.359,0-.494-.118-.483-.479.022-.7.013-1.406.017-2.108l-.01.01c1.717-.059,3.434-.047,5.15,0Z" data-name="Tracé 37" transform="translate(-95.924 -202.299)"/><path id="Tracé_38" fill="#222" d="M243.847,141.747c.7-.005,1.406,0,2.109-.021.36-.012.486.118.483.479-.014,1.407-.015,2.814,0,4.221,0,.375-.139.479-.488.468-.7-.023-1.405-.016-2.108-.021l.016.015q-.02-2.444-.04-4.888l.041-.269Z" data-name="Tracé 38" transform="translate(-184.737 -113.442)"/><path id="Tracé_39" fill="#222" d="M17.06,146.889c-.724,0-1.448,0-2.171.017-.3.007-.418-.1-.416-.406q.012-2.173,0-4.346c0-.3.117-.412.418-.4.723.017,1.447.011,2.17.014l-.015-.016v5.157Z" data-name="Tracé 39" transform="translate(-14.472 -113.459)"/><path id="Tracé_40" fill="#222" d="M124.231,34.528c0-.724.005-1.448-.01-2.171-.007-.3.1-.418.406-.416,1.448.009,2.9.012,4.343,0,.365,0,.415.184.409.481-.015.7-.012,1.4-.016,2.107l.008-.009h-5.149l.009.009" data-name="Tracé 40" transform="translate(-95.948 -31.941)"/><path id="Tracé_41" fill="#222" d="M24.466,134.342c0-.7.005-1.408-.018-2.111-.012-.36.117-.492.479-.48.7.025,1.406.015,2.109.019l-.015-.015c.006.7,0,1.408.024,2.111.013.363-.126.492-.484.48-.7-.023-1.407-.015-2.11-.021Z" data-name="Tracé 41" transform="translate(-21.877 -106.038)"/><path id="Tracé_42" fill="#222" d="M236.442,161.6c0,.724,0,1.449.016,2.173.006.3-.109.419-.412.412-.724-.015-1.448-.01-2.173-.013l.016.015a17.269,17.269,0,0,0-.028-1.787c-.074-.654.172-.9.8-.826a.686.686,0,0,0,.5,0l.527,0a.728.728,0,0,0,.508.005l.264.038Z" data-name="Tracé 42" transform="translate(-177.333 -128.167)"/><path id="Tracé_43" fill="#222" d="M144.136,41.935c.7,0,1.405.007,2.107-.017.362-.012.489.115.477.478-.024.7-.011,1.406-.014,2.109l.01-.01c-.738.006-1.477.007-2.216.021-.268,0-.384-.1-.379-.374.014-.739.016-1.477.023-2.216l-.008.009" data-name="Tracé 43" transform="translate(-110.721 -39.347)"/><path id="Tracé_44" fill="#222" d="M233.876,131.778c.7,0,1.408.009,2.111-.016.363-.013.493.113.481.476-.024.7-.016,1.408-.022,2.112l.016-.016-1.159.044a8.02,8.02,0,0,0-.892-.019c-.421.036-.563-.123-.543-.544.027-.552-.007-1.106-.016-1.66,0-.042,0-.084,0-.126l.039-.265-.016.015" data-name="Tracé 44" transform="translate(-177.336 -106.046)"/><path id="Tracé_45" fill="#222" d="M27.025,164.2c-.7.005-1.409,0-2.113.021-.363.013-.492-.115-.479-.478.026-.7.016-1.41.021-2.115l-.015.016.91-.04h.25a5.818,5.818,0,0,0,.831.016c.486-.057.639.128.607.609-.043.66-.021,1.324-.027,1.987Z" data-name="Tracé 45" transform="translate(-21.866 -128.202)"/><path id="Tracé_46" fill="#222" d="M114.246,44.52c0-.7.014-1.4-.009-2.106-.012-.366.119-.485.478-.473.7.023,1.4.009,2.1.011l-.009-.01c.007.726.01,1.452.023,2.179,0,.3-.118.425-.421.418-.724-.018-1.448-.018-2.172-.026l.007.007" data-name="Tracé 46" transform="translate(-88.535 -39.364)"/><path id="Tracé_47" fill="#222" d="M116.815,254.049c-.7,0-1.406-.005-2.108.018-.364.012-.486-.123-.474-.483.024-.7.011-1.405.014-2.108l-.01.009c.718-.01,1.436-.012,2.153-.034.332-.01.457.133.45.453-.018.718-.023,1.436-.034,2.154Z" data-name="Tracé 47" transform="translate(-88.533 -194.901)"/><path id="Tracé_48" fill="#ffe093" d="M105.181,106q0,.186,0,.372a2.611,2.611,0,0,0,0,1.556q0,2.305-.008,4.611c-.394.021-.328.314-.334.565-.039,1.657-.039,1.657-1.7,1.511a.188.188,0,0,1-.064-.006c-.4-.195-.41.1-.455.356-.261.1-.216.333-.217.54,0,.36-.014.721,0,1.08.021.428-.149.63-.593.61-.423-.019-.847.007-1.27-.01-.27-.011-.456.055-.5.349-.559.144-.335.562-.284.886.168,1.072-.037,1.342-1.071,1.342-.257,0-.515.015-.771,0a.37.37,0,0,0-.442.349c-.307.038-.353.242-.344.506.014.406-.009.813.009,1.219.02.466-.171.645-.646.642-.309,0-.691-.2-.931.19l-.749.009c-.14-.138-.318-.1-.484-.1q-4.213,0-8.426,0c-.166,0-.344-.04-.484.1l-.5,0a.373.373,0,0,0-.521-.006l-2.318.035.016.013q.017-.321.033-.642c.092-.046.1-.093,0-.142q0-.445,0-.891c.105-.421.335-.911-.257-1.124a2.726,2.726,0,0,0-1.192-.143c-.683.078-.857-.19-.806-.823.04-.485.128-1.022-.354-1.391a.539.539,0,0,0-.547-.364c-.192-.013-.385,0-.577,0-1.209-.014-1.065.148-1.077-1.044,0-.257-.007-.514,0-.771.009-.279-.119-.394-.391-.357l-.009-.01c-.162-.307-.162-.307-.62-.059l-1.149,0c-.048-.095-.094-.09-.14,0l-.633.03.013.008q.014-.382.027-.765c.117-.089.115-.178,0-.266q0-.893-.006-1.785c.089-.052.086-.1,0-.149l0-.751a.723.723,0,0,0,0-.792q.005-2.88.011-5.76a1.38,1.38,0,0,0,.367-1.339c-.073-.745-.008-.84.739-.888.344-.022.775.231,1.033-.224l.133-.047c.036.074.1.139.17.085.044-.034.035-.135.049-.206a.211.211,0,0,1,.049-.106.832.832,0,0,0,.019-.9q.006-.888.012-1.777c.593-.114.312-.583.318-.885.025-1.266.006-1.267,1.3-1.2a2.332,2.332,0,0,1,.317.036c.662.127,1.018-.178.965-.847-.023-.3-.1-.587-.122-.882-.043-.526.163-.812.741-.758.34.031.684,0,1.026.011.242.007.428-.04.437-.332l.367-.008c.05.089.1.081.141,0h.246a.368.368,0,0,0,.522,0l1.016,0c.05.09.1.087.145,0,.329-.054.23-.332.277-.533.09-.046.093-.1,0-.146q-.012-.963-.023-1.926l-.014.014H94.94l-.014-.014c0,.682-.006,1.365,0,2.048,0,.219-.086.494.26.558a.249.249,0,0,0,.4,0l1.521,0c.05.09.1.094.153,0l.235,0a1.241,1.241,0,0,0,.976.347c1.227-.019,1.226,0,1.232,1.264,0,.358-.062.743.341.96.046.257.055.512.462.367a7.346,7.346,0,0,1,.883-.092c.64-.137.884.094.883.754,0,.342.019.684-.006,1.024a.585.585,0,0,0,.344.62q0,.507,0,1.014c-.09.051-.087.1,0,.147.006.233,0,.468.022.7.021.251-.129.577.266.686a2.308,2.308,0,0,0,1.391.172c.52-.136.739.09.612.6a6.957,6.957,0,0,0-.063,1.332.313.313,0,0,0,.333.371q0,.5,0,1.009c-.115.09-.114.181,0,.271m-9.872,11.586a.247.247,0,0,0,.4,0l.5,0c.048.091.1.087.143,0l.5,0c.048.088.1.088.143,0,.272-.015.57,0,.539-.41.088-.048.085-.1,0-.142q0-.763,0-1.526c.089-.05.089-.1,0-.148q-.013-.186-.025-.373l.373.024c.048.09.1.091.148,0,.677-.075,1.362.063,2.035-.077.011.125,0,.265.115.344a.176.176,0,0,0,.163-.039c.13-.145-.021-.218-.093-.312-.051-.066-.1-.136-.147-.2q0-1.858,0-3.716a.926.926,0,0,0,.007-.912c-.061-.348-.335-.265-.555-.265-6.474,0-12.947,0-19.421-.014-.52,0-.691.181-.643.657-.09.049-.089.1,0,.147,0,1.278.022,2.557.006,3.835-.005.411.115.567.544.545.68-.035,1.362-.013,2.044-.015q-.014.959-.028,1.918a.353.353,0,0,0,.008.518c.09.162.253.14.4.161a.254.254,0,0,0,.406,0h.879c.05.089.1.089.148,0l.765-.031q-.015.64-.03,1.281c-.094.179-.348.357,0,.538q0,.18,0,.359c-.088.047-.092.1,0,.148l.051.216c.087.448.45.383.754.384,2.522.006,5.045.034,7.566-.02a2.9,2.9,0,0,0,1.692-.3c.3-.05.257-.282.26-.489q.007-.474.015-.948a.258.258,0,0,0,0-.407c0-.078,0-.157,0-.235.092-.052.089-.1,0-.153q-.016-.188-.032-.377l.378.027M82.055,106.9l.01.255c-.105.06-.1.137-.012.2.058.042.121.019.154-.054l.255.008c.05.088.1.086.146,0l1.923-.006c.033.073.1.1.155.053.084-.062.093-.139-.011-.2,0-.084.007-.168.01-.252.089-.051.09-.1,0-.15q0-3.4,0-6.8a.306.306,0,0,0,.048-.407c-.049-.085-.135-.091-.2,0l-.635-.019c-.095-.225-.187-.219-.277,0l-1.518.053a.152.152,0,0,0-.014-.046c0-.007-.022-.006-.033-.009l.055.048-.049.362c-.09.049-.088.1,0,.147q0,.439,0,.878c-.09.051-.089.1,0,.151q0,2.817,0,5.635c-.09.049-.089.1,0,.148" data-name="Tracé 48" transform="translate(-58.945 -76.414)"/><path id="Tracé_49" fill="#7dd9e5" d="M116.82,232c.011-.718.016-1.436.034-2.154.008-.32-.117-.463-.449-.453-.717.022-1.435.024-2.153.034.022-2.29.066-4.579.051-6.868,0-.614.165-.8.785-.8,2.909-.023,5.818-.029,8.728.01.438.006.666.1.665.6-.006,2.162.012,4.324.042,6.486.006.409-.108.578-.538.553-.512-.03-1.027.007-1.54-.008-.355-.01-.5.133-.5.49.017.7.016,1.406.023,2.109-1.717-.045-3.434-.057-5.15,0" data-name="Tracé 49" transform="translate(-88.546 -172.838)"/><path id="Tracé_50" fill="#fefefe" d="M174.413,214.163q.006,3.862.012,7.725c-2.355,0-4.71-.021-7.065,0-.477,0-.677-.085-.66-.624.02-.628.294-1.443-.128-1.846-.389-.372-1.186-.073-1.8-.112-.169-.011-.338-.03-.507-.045l-.072-.072c-.08-1.672-.069-3.344-.006-5.016.662,0,1.325-.016,1.987,0,.383.007.538-.154.536-.535,0-.662.021-1.324.033-1.986l2.544-.064,2.564.028-.013-.014c0,.7.017,1.408,0,2.112-.012.366.12.487.479.476.7-.02,1.407,0,2.111,0Z" data-name="Tracé 50" transform="translate(-125.58 -165.301)"/><path id="Tracé_51" fill="#fefefe" d="M72.086,221.91H64.361q.02-3.609.04-7.218l.049-.024-.048-.077q-.011-.2-.021-.4l-.013.012c.7,0,1.407-.018,2.109,0,.366.011.488-.126.476-.483-.023-.7-.015-1.406-.02-2.109l.4.041c.038.081.075.073.112,0l1.942-.013c.709-.009,1.419-.008,2.128-.03.409-.013.583.16.572.567-.014.51.009,1.021-.012,1.531-.015.357.115.493.477.484.68-.018,1.36,0,2.04,0,.072,1.671.077,3.343,0,5.014l-.057.011-.01.057c-.638.015-1.276.054-1.913.037-.417-.012-.579.122-.546.547a9.622,9.622,0,0,1-.022,1.022.709.709,0,0,0,0,.765l.042.265" data-name="Tracé 51" transform="translate(-51.509 -165.322)"/><path id="Tracé_52" fill="#222" d="M89.084,206.8c-.68,0-1.361-.019-2.04,0-.362.01-.492-.127-.477-.484.022-.51,0-1.021.012-1.531.011-.406-.162-.58-.571-.567-.709.022-1.418.022-2.128.03A9.156,9.156,0,0,0,84,201.659l2.567,0-.009-.013c-.005.705,0,1.411-.02,2.116-.01.359.126.494.489.482.7-.023,1.41-.013,2.115-.017l-.016-.013q-.023,1.291-.046,2.581" data-name="Tracé 52" transform="translate(-65.999 -157.929)"/><path id="Tracé_53" fill="#222" d="M166.743,211.667c-.012.662-.036,1.324-.033,1.986,0,.38-.153.542-.536.535-.662-.012-1.324,0-1.987,0q-.021-1.288-.041-2.576l-.01.013,2.565-.018a.476.476,0,0,1,.042.056" data-name="Tracé 53" transform="translate(-125.58 -165.324)"/><path id="Tracé_54" fill="#ffe093" d="M156.61,204.113c.24-.39.622-.192.931-.19.474,0,.666-.176.646-.642-.018-.405.005-.813-.009-1.219-.01-.265.036-.468.344-.507l.061.058q-.017,1.275-.034,2.551l.009-.013-1.948-.038" data-name="Tracé 54" transform="translate(-119.993 -157.859)"/><path id="Tracé_55" fill="#ffe093" d="M117.234,211.222c.14-.137.318-.1.484-.1q4.213,0,8.426,0c.166,0,.344-.04.484.1-1.768.111-3.537.038-5.305.041-1.363,0-2.727.071-4.089-.041" data-name="Tracé 55" transform="translate(-90.761 -164.959)"/><path id="Tracé_56" fill="#222" d="M93.857,248.363a.709.709,0,0,1,0-.765,1.462,1.462,0,0,1,0,.765" data-name="Tracé 56" transform="translate(-73.322 -192.04)"/><path id="Tracé_57" fill="#ffe093" d="M113.259,211.187a.373.373,0,0,1,.521.006.692.692,0,0,1-.521-.006" data-name="Tracé 57" transform="translate(-87.81 -164.933)"/><path id="Tracé_58" fill="#222" d="M103.808,241.165l.01-.057.057-.011c.032.077.011.1-.067.068" data-name="Tracé 58" transform="translate(-80.793 -187.214)"/><path id="Tracé_59" fill="#222" d="M164.317,241.1l.072.072c-.079.031-.1.008-.072-.072" data-name="Tracé 59" transform="translate(-125.705 -187.216)"/><path id="Tracé_60" fill="#7dd9e5" d="M34.445,89.577q0-3.862,0-7.723l7.718.012-.007-.018c0,.719,0,1.438-.017,2.156-.009.332.119.454.446.444.717-.02,1.434-.018,2.151-.024-.008.72-.017,1.44-.023,2.161,0,.261.073.479.382.476.733-.007,1.465-.03,2.2-.047a12.329,12.329,0,0,0,0,2.564l.014-.005a13.521,13.521,0,0,0-2.286-.043c-.235-.006-.349.138-.347.364q.02,2.412.045,4.824l.013-.01a18.368,18.368,0,0,0-2.523-.041c0-.659-.011-1.318.015-1.976.018-.466-.2-.572-.622-.571-1.322,0-2.645-.04-3.967-.033-.417,0-.572-.134-.553-.55.022-.49-.015-.982,0-1.472.007-.335-.089-.527-.466-.516-.722.02-1.444.021-2.166.03" data-name="Tracé 60" transform="translate(-29.3 -68.991)"/><path id="Tracé_61" fill="#7dd9e5" d="M34.648,191.692q0-3.5,0-7a.3.3,0,0,0,.313-.306l.572,0c.106.123.213.28.319,0l1.28-.08.005-.005.077-.4.038-.034-.037,0q0-.807.007-1.612c.236-.064.168-.268.2-.428q2.4-.082,4.8,0c.3.463.749.279,1.139.244,1.064-.1,1.169-.017,1.168,1.044,0,.256-.007.512,0,.767.005.193.006.4.3.38l.143.147a2.776,2.776,0,0,0,1.586.207.418.418,0,0,1,.529.216c.537,1,.087,1.82-1.017,1.841a7.5,7.5,0,0,0-.766.025c-.16.02-.41-.048-.407.254l-.069.509c-.342.313-.161.623.007.933l0,.605a.533.533,0,0,0-.447.424l-1.087.007c-.017-.064-.031-.06-.042,0l-.354.006-.011-.045-.01.045-.516.052c-.007-.019-.008-.046-.021-.054s-.051,0-.056.006a.59.59,0,0,0-.02.616q0,.379,0,.758l-.036.033.035,0,0,.716a1.775,1.775,0,0,1-1.129.277c-.675-.022-1.351-.014-2.026,0-.163,0-.394-.121-.478.156l-3.661,0a.3.3,0,0,0-.319-.3" data-name="Tracé 61" transform="translate(-29.45 -143.175)"/><path id="Tracé_62" fill="#fefefe" d="M27.03,142.069c.006-.662-.017-1.327.027-1.986.032-.481-.121-.666-.607-.609a5.851,5.851,0,0,1-.831-.017c-.084-.115-.167-.114-.25,0l-.91.04v-5.157c.7.005,1.408,0,2.11.021.359.012.5-.117.484-.48-.024-.7-.018-1.407-.024-2.111l5.142.063c0,.679.021,1.358,0,2.036-.009.36.124.488.48.479.678-.017,1.357,0,2.035,0,.085,1.713.072,3.426,0,5.138-.678,0-1.357.019-2.034,0-.354-.008-.493.118-.485.478.016.678,0,1.357,0,2.035-1.585.1-3.171.051-4.757.024-.038-.077-.078-.076-.118,0l-.268.04" data-name="Tracé 62" transform="translate(-21.886 -106.052)"/><path id="Tracé_63" fill="#222" d="M56.918,134.413c-.679,0-1.357-.018-2.035,0-.356.009-.489-.119-.48-.479.018-.679,0-1.358,0-2.037l2.559-.041q-.02,1.279-.04,2.559" data-name="Tracé 63" transform="translate(-44.113 -106.114)"/><path id="Tracé_64" fill="#222" d="M54.4,164.247c0-.678.02-1.357,0-2.035-.008-.36.13-.486.485-.478.678.016,1.356,0,2.034,0,.01.7.011,1.406.035,2.109.012.335-.123.456-.451.446-.7-.023-1.4-.027-2.107-.038" data-name="Tracé 64" transform="translate(-44.115 -128.294)"/><path id="Tracé_65" fill="#7dd9e5" d="M66.663,184.165c-.29.023-.291-.187-.3-.38-.007-.256,0-.511,0-.767,0-1.062-.1-1.14-1.168-1.045-.389.035-.843.218-1.138-.244l2.67-.063-.013-.008q-.028,1.254-.055,2.507" data-name="Tracé 65" transform="translate(-51.286 -143.088)"/><path id="Tracé_66" fill="#ffe093" d="M76.513,131.9c-.258.455-.689.2-1.033.224-.747.048-.812.144-.739.888a1.38,1.38,0,0,1-.367,1.339l-.036-2.595-.013.011a7.682,7.682,0,0,1,2.188.134" data-name="Tracé 66" transform="translate(-58.906 -106.04)"/><path id="Tracé_67" fill="#7dd9e5" d="M44.706,181.933c-.029.16.039.364-.2.428-.047-.195-.145-.412.2-.428" data-name="Tracé 67" transform="translate(-36.734 -143.292)"/><path id="Tracé_68" fill="#7dd9e5" d="M34.811,191.72a.3.3,0,0,1-.313.306l-.056-.366.369.06" data-name="Tracé 68" transform="translate(-29.297 -150.513)"/><path id="Tracé_69" fill="#ffe093" d="M74.321,164.191a.724.724,0,0,1,0,.792,1.517,1.517,0,0,1,0-.792" data-name="Tracé 69" transform="translate(-58.865 -130.121)"/><path id="Tracé_70" fill="#7dd9e5" d="M38.412,191.761c-.106.281-.213.123-.319,0a.325.325,0,0,1,.319,0" data-name="Tracé 70" transform="translate(-32.008 -150.557)"/><path id="Tracé_71" fill="#ffe093" d="M74.414,177.688c.116.088.117.177,0,.266a.243.243,0,0,1,0-.266" data-name="Tracé 71" transform="translate(-58.943 -140.141)"/><path id="Tracé_72" fill="#ffe093" d="M44.26,191.5l-.005,0-.016-.022Z" data-name="Tracé 72" transform="translate(-36.57 -150.382)"/><path id="Tracé_73" fill="#222" d="M35.478,171.425c.04-.075.079-.076.118,0h-.118" data-name="Tracé 73" transform="translate(-30.066 -135.449)"/><path id="Tracé_74" fill="#ffe093" d="M74.489,170.18c.089.048.092.1,0,.149,0-.049,0-.1,0-.149" data-name="Tracé 74" transform="translate(-59.027 -134.567)"/><path id="Tracé_75" fill="#ffe093" d="M44.622,189.849l.037,0-.038.034v-.036" data-name="Tracé 75" transform="translate(-36.854 -149.169)"/><path id="Tracé_76" fill="#7dd9e5" d="M196.94,184.261q0,3.86,0,7.72l-7.718-.006.009.015c.01-.72.016-1.439.031-2.159.007-.32-.127-.458-.457-.449-.719.02-1.439.018-2.159.024l.014.014c0-.743,0-1.487.01-2.23,0-.26-.1-.4-.373-.4l-2.213.034.007.02a10.327,10.327,0,0,0,.007-2.58l-.012.012a13.961,13.961,0,0,0,2.259.042.334.334,0,0,0,.357-.364,12.409,12.409,0,0,0-.035-2.262l-.014.01a13.76,13.76,0,0,0,2.341.042q2.369.019,4.739-.032c.483-.01.647.156.618.627-.031.489.011.983-.007,1.474-.014.366.139.493.491.482.7-.022,1.4-.023,2.106-.033" data-name="Tracé 76" transform="translate(-140.388 -143.112)"/><path id="Tracé_77" fill="#fefefe" d="M211.776,131.767l-.039.265c-.089.042-.09.083,0,.126.008.554.042,1.108.016,1.66-.02.421.121.58.543.544a8,8,0,0,1,.892.019c.339.243.788-.06,1.118.225q.02,2.444.04,4.888l-.264-.038a.355.355,0,0,0-.508-.005l-.527,0a.347.347,0,0,0-.5,0c-.624-.07-.87.172-.8.826a17.189,17.189,0,0,1,.028,1.787l-5.146-.054c0-.68-.016-1.36,0-2.04.009-.357-.124-.495-.482-.486-.679.016-1.359,0-2.039,0-.075-1.417-.045-2.835-.017-4.253a.226.226,0,0,0,0-.372q.008-.259.016-.518c.662,0,1.325-.027,1.985,0,.433.018.562-.154.538-.562a6.992,6.992,0,0,1,.124-1.971l5.021-.048" data-name="Tracé 77" transform="translate(-155.22 -106.05)"/><path id="Tracé_78" fill="#222" d="M206.771,131.861a7,7,0,0,0-.125,1.971c.024.408-.1.58-.538.562-.661-.027-1.323,0-1.985,0q-.02-1.283-.041-2.565l2.688.033" data-name="Tracé 78" transform="translate(-155.236 -106.095)"/><path id="Tracé_79" fill="#222" d="M204.135,161.737c.68,0,1.359.013,2.039,0,.358-.009.491.129.482.486-.016.679,0,1.36,0,2.04-.7.007-1.407,0-2.11.027-.329.011-.461-.1-.447-.438.029-.7.027-1.407.037-2.111" data-name="Tracé 79" transform="translate(-155.246 -128.296)"/><path id="Tracé_80" fill="#7dd9e5" d="M189.169,106.81q.026,1.262.052,2.525a17.942,17.942,0,0,0-2.581-.01l.01.011c.008-1.574.01-3.148.027-4.722,0-.325-.115-.471-.444-.463-.721.017-1.443.021-2.164.03l.012.013c.012-.614.065-1.231.023-1.841-.04-.584.2-.722.733-.713a4.6,4.6,0,0,0,1.827-.105c-.186.419-.186.419-.924.421-1.4,0-1.43.044-1.325,1.441.025.33.153.459.469.454.427-.008.854-.011,1.281,0,.342.009.658.1.7.507a10.441,10.441,0,0,1,.135,1.459c-.036.875-.016,1.751-.014,2.627,0,.229-.029.463.305.537,1.224.272,1.6-.006,1.6-1.226,0-.235,0-.47,0-.7,0-.191.089-.274.281-.239" data-name="Tracé 80" transform="translate(-140.378 -83.606)"/><path id="Tracé_81" fill="#ffe093" d="M184,174.6c.045-.255.058-.551.455-.356a.194.194,0,0,0,.064.006c1.664.146,1.664.146,1.7-1.511.006-.251-.06-.544.334-.565l.036,2.46.014-.01-2.545.036L184,174.6" data-name="Tracé 81" transform="translate(-140.325 -136.05)"/><path id="Tracé_82" fill="#ffe093" d="M187.377,134.364a.314.314,0,0,1-.334-.371,6.974,6.974,0,0,1,.064-1.332c.126-.51-.092-.736-.612-.6a2.308,2.308,0,0,1-1.392-.172c.766-.154,1.547,0,2.315-.1l-.011-.011a22.916,22.916,0,0,1-.031,2.589" data-name="Tracé 82" transform="translate(-141.145 -106.056)"/><path id="Tracé_83" fill="#ffe093" d="M193.606,149.8a2.612,2.612,0,0,1,0-1.556,5.493,5.493,0,0,1,0,1.556" data-name="Tracé 83" transform="translate(-147.369 -118.28)"/><path id="Tracé_84" fill="#222" d="M204.054,143.8a.226.226,0,0,1,0,.373.424.424,0,0,1,0-.373" data-name="Tracé 84" transform="translate(-155.182 -114.98)"/><path id="Tracé_85" fill="#ffe093" d="M193.7,146.015c-.114-.09-.115-.181,0-.271,0,.09,0,.181,0,.271" data-name="Tracé 85" transform="translate(-147.462 -116.426)"/><path id="Tracé_86" fill="#fefefe" d="M64.362,51.919q3.444.007,6.888.016c.233,0,.465.022.7.035.035.284-.089.585.1.852.14.546-.279,1.3.212,1.614.4.254,1.079.062,1.635.076.211.005.421.033.632.05l.008.054.054.007c.122,1.393.02,2.789.054,4.184.007.275.018.549.027.824q-.007,1.266-.013,2.531l-2.458.024-2.8,0-1.437-.013c-.035-.074-.07-.077-.1,0l-.3,0c-.022-.069-.044-.075-.065,0h-.331c-.016-.1-.079-.116-.164-.082q-.01-.146-.019-.291l.049-.022-.049-.08v-.27c.091-.041.088-.082,0-.124q-.008-.778-.016-1.557c.074-.028.1-.091.058-.149-.061-.084-.137-.093-.193.015l-2.457.007.007.018q.015-.46.03-.92l.049-.025-.049-.082q-.021-3.351-.042-6.7" data-name="Tracé 86" transform="translate(-51.509 -46.772)"/><path id="Tracé_87" fill="#222" d="M64.432,77.934l.049.082-.05.024-.031-.054Z" data-name="Tracé 87" transform="translate(-51.538 -66.085)"/><path id="Tracé_88" fill="#7dd9e5" d="M50.1,220.16c.084-.276.316-.152.478-.156.675-.016,1.352-.024,2.027,0a1.772,1.772,0,0,0,1.129-.277q.024.25.047.5l.013-.012L50.1,220.16" data-name="Tracé 88" transform="translate(-40.921 -171.348)"/><path id="Tracé_89" fill="#7dd9e5" d="M34.5,220.27a.3.3,0,0,1,.319.3l-.373.054.053-.354" data-name="Tracé 89" transform="translate(-29.297 -171.753)"/><path id="Tracé_90" fill="#222" d="M64.428,223.185l.048.077-.049.024-.031-.05Z" data-name="Tracé 90" transform="translate(-51.535 -173.917)"/><path id="Tracé_91" fill="#7dd9e5" d="M190.057,92.372c-.192-.036-.281.048-.281.239,0,.235,0,.47,0,.7,0,1.22-.372,1.5-1.6,1.226-.335-.074-.3-.308-.305-.537,0-.876-.021-1.753.014-2.627a10.434,10.434,0,0,0-.135-1.459c-.039-.4-.356-.5-.7-.507-.427-.01-.854-.007-1.281,0-.316.006-.444-.124-.469-.454-.105-1.4-.078-1.437,1.325-1.441.738,0,.738,0,.924-.421q.015-.362.029-.723c.056.025.1.029.091-.053a.417.417,0,0,0-.091-.006q0-.679,0-1.357c.187-.032.375-.062.424-.293l.344-.006c.149.262.3.239.445,0H189.9c-.032.138.064.146.138.1s.213-.1.068-.217l.045-.506c.225-.229.269-.46.011-.7l0-1.062c.142.019.213-.033.185-.185l7.1-.009c.021.191.112.308.321.3q0,3.508,0,7.016a.278.278,0,0,0-.3.3H196.1c-.016-.066-.031-.066-.046,0l-.346,0c-.01-.057-.02-.061-.028,0l-.487.093a.6.6,0,0,0-.078-.076c-.006,0-.045.016-.047.029a9.419,9.419,0,0,0-.175,1.762c.019.386-.082.576-.561.5a2.586,2.586,0,0,0-1.734.249c-.845.111-1.7-.069-2.546.109" data-name="Tracé 91" transform="translate(-141.267 -69.168)"/><path id="Tracé_92" fill="#fefefe" d="M174.114,51.959l.262-.039q-.021,3.544-.042,7.087c-.111.078-.123.154.005.227q.009.2.019.407l.011-.011-2.455-.01c-.029-.075-.092-.1-.149-.056-.082.059-.1.135.013.192q-.007.65-.014,1.3a.505.505,0,0,0,0,.632q.021.264.041.528l-2.567.01-2.587,0-2.565-.068q-.009-1.267-.018-2.534c.01-1.434.018-2.867.032-4.3,0-.233.03-.466.046-.7l.057-.011.01-.057c.66-.016,1.32-.05,1.979-.04.362.005.492-.116.479-.48-.025-.7-.015-1.41-.02-2.115l6.826.039a.513.513,0,0,0,.636,0" data-name="Tracé 92" transform="translate(-125.531 -46.773)"/><path id="Tracé_93" fill="#7dd9e5" d="M232.873,82.224c-.208.01-.3-.107-.32-.3l.372-.056-.052.354" data-name="Tracé 93" transform="translate(-176.371 -69.007)"/><path id="Tracé_94" fill="#7dd9e5" d="M204.261,81.919c.028.151-.043.2-.185.185l-.058-.256-.012.011.254.059" data-name="Tracé 94" transform="translate(-155.179 -68.991)"/><path id="Tracé_95" fill="#222" d="M203.668,79.656c-.128-.073-.116-.149-.005-.227q0,.114.005.227" data-name="Tracé 95" transform="translate(-154.859 -67.195)"/><path id="Tracé_96" fill="#7dd9e5" d="M213.746,114.274a2.584,2.584,0,0,1,1.734-.249c.479.076.58-.113.561-.5a9.4,9.4,0,0,1,.175-1.762c0-.012.041-.033.047-.028a.586.586,0,0,1,.078.076c.006.658,0,1.316.026,1.972.015.389-.147.537-.524.525-.7-.021-1.4-.024-2.1-.035" data-name="Tracé 96" transform="translate(-162.409 -91.178)"/><path id="Tracé_97" fill="#7dd9e5" d="M232.607,110.779a.277.277,0,0,1,.3-.3l.053.355Z" data-name="Tracé 97" transform="translate(-176.411 -90.245)"/><path id="Tracé_98" fill="#ffe093" d="M227.159,111.51c.015-.066.03-.066.046,0l-.023.026Z" data-name="Tracé 98" transform="translate(-172.367 -90.974)"/><path id="Tracé_99" fill="#ffe093" d="M225.709,111.543c.008-.062.017-.057.027,0h-.027" data-name="Tracé 99" transform="translate(-171.291 -91.002)"/><path id="Tracé_100" fill="#7dd9e5" d="M114.24,44.518c.724.007,1.448.008,2.172.026.3.007.426-.123.421-.418-.012-.726-.015-1.452-.022-2.179h5.149c-.007.739-.008,1.477-.023,2.216-.005.273.111.379.379.374.738-.013,1.477-.014,2.216-.02-.015,2.573-.109,5.146-.016,7.72l.018,0c-.082-.09-.189-.074-.3-.073-2.661.029-5.322.09-7.984.023a7.571,7.571,0,0,0-2.016.051l.017,0a4.3,4.3,0,0,0,.042-1.322c-.006-2.133-.035-4.266-.056-6.4" data-name="Tracé 100" transform="translate(-88.536 -39.369)"/><path id="Tracé_101" fill="#222" d="M104.3,84.385q.007-1.266.013-2.531l2.564.012-.017,0q0,1.29,0,2.58l.015-.014-2.576-.043" data-name="Tracé 101" transform="translate(-81.161 -68.995)"/><path id="Tracé_102" fill="#222" d="M93.876,52.822c-.186-.267-.062-.568-.1-.852l.139-.051q-.021.451-.042.9" data-name="Tracé 102" transform="translate(-73.342 -46.772)"/><path id="Tracé_103" fill="#222" d="M103.862,62.2l-.054-.007-.008-.054c.073-.032.095-.013.062.061" data-name="Tracé 103" transform="translate(-80.787 -54.344)"/><path id="Tracé_104" fill="#222" d="M156.692,81.826q.009,1.267.018,2.534l-2.576.048.014.014,0-2.582-.018,0,2.56-.018" data-name="Tracé 104" transform="translate(-118.153 -68.975)"/><path id="Tracé_105" fill="#222" d="M164.4,62.112l-.011.057-.057.011c-.031-.075-.013-.1.067-.068" data-name="Tracé 105" transform="translate(-125.715 -54.328)"/><path id="Tracé_106" fill="#222" d="M201.228,51.939a.513.513,0,0,1-.636,0,1.1,1.1,0,0,1,.636,0" data-name="Tracé 106" transform="translate(-152.644 -46.752)"/><path id="Tracé_107" fill="#222" d="M240.6,142.017c-.331-.285-.779.018-1.118-.225l1.159-.044-.041.269" data-name="Tracé 107" transform="translate(-181.516 -113.459)"/><path id="Tracé_108" fill="#222" d="M236.987,161.3a.347.347,0,0,1,.5,0,.686.686,0,0,1-.5,0" data-name="Tracé 108" transform="translate(-179.663 -127.893)"/><path id="Tracé_109" fill="#222" d="M240.982,161.3a.355.355,0,0,1,.508,0,.728.728,0,0,1-.508,0" data-name="Tracé 109" transform="translate(-182.629 -127.895)"/><path id="Tracé_110" fill="#222" d="M233.663,132.923c-.089-.043-.088-.085,0-.126,0,.042,0,.084,0,.126" data-name="Tracé 110" transform="translate(-177.147 -106.814)"/><path id="Tracé_111" fill="#222" d="M27.991,161.361c.083-.115.166-.116.25,0h-.25" data-name="Tracé 111" transform="translate(-24.508 -127.955)"/><path id="Tracé_113" fill="#222" d="M124.458,191.666q.016.188.032.377v.153l0,.235a.468.468,0,0,0,0,.407q-.008.474-.015.948c0,.208.038.439-.26.489-.276-.016-.552-.047-.827-.048q-4.592-.013-9.184-.018l-.051-.216,0-.148q0-.18,0-.359a.785.785,0,0,0,0-.538q.015-.641.03-1.281l-.01.01h10.293Z" data-name="Tracé 113" transform="translate(-88.472 -150.518)"/><path id="Tracé_114" fill="#222" d="M124.532,81.616l0,2.582H114.238q0-1.29,0-2.58a7.594,7.594,0,0,1,2.016-.051c2.662.066,5.323.005,7.984-.023.106,0,.213-.017.3.073" data-name="Tracé 114" transform="translate(-88.535 -68.751)"/><path id="Tracé_115" fill="#222" d="M104.221,121.737l1.518-.053.277,0,.635.019.154.406q0,3.4,0,6.8c0,.05,0,.1,0,.15,0,.084-.007.168-.01.252l-.144.146-1.924.006-.146,0-.255-.008-.142-.145-.01-.255V128.9q0-2.817,0-5.635c0-.05,0-.1,0-.152q0-.439,0-.878c0-.049,0-.1,0-.148l.049-.362Z" data-name="Tracé 115" transform="translate(-81.067 -98.562)"/><path id="Tracé_224" fill="#222" d="M104.221,121.737l1.518-.053.277,0,.635.019.154.406q0,3.4,0,6.8c0,.05,0,.1,0,.15,0,.084-.007.168-.01.252l-.144.146-1.924.006-.146,0-.255-.008-.142-.145-.01-.255V128.9q0-2.817,0-5.635c0-.05,0-.1,0-.152q0-.439,0-.878c0-.049,0-.1,0-.148l.049-.362Z" data-name="Tracé 224" transform="translate(-68.247 -98.562)"/><path id="Tracé_116" fill="#222" d="M186.572,116.875c-.768.108-1.549-.05-2.315.1-.4-.108-.245-.434-.266-.685-.02-.232-.015-.467-.022-.7,0-.049,0-.1,0-.147q0-.507,0-1.014.014-1.356.027-2.711c.721-.009,1.443-.014,2.164-.03.329-.007.447.138.444.463-.017,1.574-.019,3.148-.027,4.722" data-name="Tracé 116" transform="translate(-140.3 -91.145)"/><path id="Tracé_117" fill="#222" d="M76.384,116.9a7.681,7.681,0,0,0-2.188-.134q-.023-2.412-.045-4.824a.316.316,0,0,1,.347-.363,13.522,13.522,0,0,1,2.286.043,12.132,12.132,0,0,0,.032,2.329q-.006.888-.012,1.777a2.559,2.559,0,0,0-.019.9.209.209,0,0,0-.049.106c-.1,0-.195-.006-.219.122l-.133.047" data-name="Tracé 117" transform="translate(-58.777 -91.037)"/><path id="Tracé_118" fill="#222" d="M154.115,91.712l2.576-.048,2.565.068q0,1.281,0,2.563l.011-.011-2.584.039-.235,0-.153,0-1.521,0a.463.463,0,0,0-.4,0c-.346-.064-.258-.339-.26-.558-.006-.682,0-1.365,0-2.048" data-name="Tracé 118" transform="translate(-118.134 -76.278)"/><path id="Tracé_119" fill="#222" d="M96.771,91.679l2.576.043q.012.963.023,1.926c0,.048,0,.1,0,.146-.047.2.052.479-.277.533l-.145,0-1.016,0a.731.731,0,0,0-.522,0h-.246l-.141,0-.367.008-2.459-.05.011.012a8.6,8.6,0,0,1,.108-2.6l2.459-.024" data-name="Tracé 119" transform="translate(-73.629 -76.289)"/><path id="Tracé_120" fill="#222" d="M74.163,184.067q.028-1.254.055-2.507l.633-.03h.14l1.149,0,.62.059.009.01q.007,1.275.013,2.549l.007-.007-2.483.078-.144-.148" data-name="Tracé 120" transform="translate(-58.786 -142.99)"/><path id="Tracé_123" fill="#222" d="M156.737,182.012q0,.763,0,1.526c0,.047,0,.095,0,.142.031.414-.267.395-.539.41h-.143l-.5,0h-.142l-.5,0a.487.487,0,0,0-.4,0l-.378-.027.009.009c-.006-.723-.016-1.446-.017-2.169,0-.217.008-.448.316-.451a11.885,11.885,0,0,1,2.271.048l0,0q.013.187.025.373c0,.049,0,.1,0,.148" data-name="Tracé 123" transform="translate(-118.149 -142.908)"/><path id="Tracé_126" fill="#222" d="M96.818,204.23c-.705,0-1.411-.006-2.115.017-.362.012-.5-.123-.489-.482.02-.7.015-1.41.02-2.116.7,0,1.394.023,2.09,0,.352-.009.513.1.484.466a2.29,2.29,0,0,0,.046.435q0,.446,0,.891c0,.048,0,.1,0,.143q-.016.321-.033.642" data-name="Tracé 126" transform="translate(-73.67 -157.929)"/><path id="Tracé_127" fill="#ffe093" d="M114.35,201.536q4.592.008,9.184.018c.276,0,.552.031.827.048a2.9,2.9,0,0,1-1.692.3c-2.521.054-5.044.026-7.567.02-.3,0-.666.065-.753-.384" data-name="Tracé 127" transform="translate(-88.62 -157.845)"/><path id="Tracé_128" fill="#ffe093" d="M86.812,101.828l2.459.05c-.009.292-.195.339-.437.332-.342-.01-.687.021-1.026-.011-.578-.053-.784.233-.741.758.024.3.1.587.122.882.053.669-.3.974-.965.847a2.294,2.294,0,0,0-.317-.036c-1.3-.068-1.277-.067-1.3,1.2-.006.3.275.771-.318.885a12.155,12.155,0,0,1-.032-2.329l-.014.005c.7,0,1.4-.022,2.1,0,.358.009.489-.119.479-.478-.019-.7-.005-1.4,0-2.1" data-name="Tracé 128" transform="translate(-66.247 -83.824)"/><path id="Tracé_129" fill="#ffe093" d="M176.6,111.741q-.013,1.356-.027,2.711a.585.585,0,0,1-.344-.62c.025-.34.006-.683.006-1.024,0-.661-.242-.891-.883-.754a7.356,7.356,0,0,0-.883.093c-.407.145-.417-.11-.462-.367l.06-.063,2.544.036Z" data-name="Tracé 129" transform="translate(-132.907 -91.165)"/><path id="Tracé_130" fill="#ffe093" d="M96.813,195.135a2.293,2.293,0,0,1-.046-.435c.028-.365-.132-.475-.484-.466-.7.018-1.393,0-2.09,0l.009.013q-.022-1.269-.044-2.539l.047-.049c.482.369.393.906.354,1.391-.052.633.122.9.806.823a2.723,2.723,0,0,1,1.192.143c.592.213.362.7.257,1.124" data-name="Tracé 130" transform="translate(-73.629 -150.509)"/><path id="Tracé_131" fill="#ffe093" d="M84.294,184.326q-.006-1.274-.013-2.549c.273-.037.4.078.391.357-.008.257,0,.513,0,.771.012,1.192-.132,1.03,1.077,1.044.193,0,.386-.008.578,0a.54.54,0,0,1,.547.363l-.047.049-2.532-.04" data-name="Tracé 131" transform="translate(-66.297 -143.171)"/><path id="Tracé_132" fill="#ffe093" d="M164.029,194.141a.37.37,0,0,1,.442-.349c.256.018.513,0,.771,0,1.035,0,1.24-.27,1.071-1.342-.051-.323-.275-.742.284-.886l.067.063-.037,2.547.013-.012-2.549.032-.061-.058" data-name="Tracé 132" transform="translate(-125.5 -150.445)"/><path id="Tracé_133" fill="#ffe093" d="M164.109,101.872l2.584-.039q.013,1.273.026,2.546l-.06.063c-.4-.217-.34-.6-.341-.96-.006-1.268-.006-1.283-1.232-1.264a1.241,1.241,0,0,1-.976-.347" data-name="Tracé 133" transform="translate(-125.56 -83.827)"/><path id="Tracé_134" fill="#ffe093" d="M174,184.164c.043-.294.23-.36.5-.349.423.017.848-.009,1.27.01.443.02.613-.181.592-.61-.017-.359,0-.72,0-1.08,0-.208-.044-.437.217-.54l.06.061q-.018,1.274-.036,2.548l.012-.012-2.546.036-.067-.063" data-name="Tracé 134" transform="translate(-132.9 -143.041)"/><path id="Tracé_135" fill="#ffe093" d="M174.077,180.9l.037-.211c.049.069.1.138.147.2.072.094.223.167.094.312a.176.176,0,0,1-.163.039c-.12-.079-.1-.219-.115-.344" data-name="Tracé 135" transform="translate(-132.96 -142.369)"/><path id="Tracé_136" fill="#ffe093" d="M82.459,181.07l-.62-.059c.458-.248.458-.248.62.059" data-name="Tracé 136" transform="translate(-64.484 -142.475)"/><path id="Tracé_137" fill="#ffe093" d="M174.091,163.636a2.091,2.091,0,0,1,.007-.912.927.927,0,0,1-.007.912" data-name="Tracé 137" transform="translate(-132.935 -129.032)"/><path id="Tracé_138" fill="#ffe093" d="M84.286,128.667a2.564,2.564,0,0,1,.019-.9.831.831,0,0,1-.019.9" data-name="Tracé 138" transform="translate(-66.278 -103.081)"/><path id="Tracé_139" fill="#ffe093" d="M113.934,121.966l-.154-.406c.067-.092.153-.087.2,0a.306.306,0,0,1-.048.407" data-name="Tracé 139" transform="translate(-88.196 -98.423)"/><path id="Tracé_140" fill="#ffe093" d="M113.65,196.64a.785.785,0,0,1,0,.538c-.345-.182-.09-.36,0-.538" data-name="Tracé 140" transform="translate(-87.968 -154.21)"/><path id="Tracé_141" fill="#ffe093" d="M103.86,189.155a.814.814,0,0,1,.008.518.353.353,0,0,1-.008-.518" data-name="Tracé 141" transform="translate(-80.751 -148.654)"/><path id="Tracé_142" fill="#ffe093" d="M113.792,151.423l.144-.147c.1.061.1.138.011.2-.058.043-.122.02-.155-.053" data-name="Tracé 142" transform="translate(-88.205 -120.533)"/><path id="Tracé_143" fill="#ffe093" d="M106.769,101.833a.732.732,0,0,1,.522,0,.369.369,0,0,1-.522,0" data-name="Tracé 143" transform="translate(-82.992 -83.792)"/><path id="Tracé_144" fill="#ffe093" d="M83.332,131.784c.025-.128.121-.126.22-.121-.015.071-.006.172-.05.206-.07.055-.134-.011-.17-.085" data-name="Tracé 144" transform="translate(-65.592 -105.971)"/><path id="Tracé_145" fill="#ffe093" d="M103.994,151.282l.142.145c-.033.073-.1.1-.154.054-.084-.062-.094-.138.012-.2" data-name="Tracé 145" transform="translate(-80.874 -120.537)"/><path id="Tracé_146" fill="#ffe093" d="M110.519,121.2l-.277,0c.09-.222.182-.228.277,0" data-name="Tracé 146" transform="translate(-85.57 -98.084)"/><path id="Tracé_147" fill="#ffe093" d="M155.148,101.84a.463.463,0,0,1,.4,0,.249.249,0,0,1-.4,0" data-name="Tracé 147" transform="translate(-118.907 -83.8)"/><path id="Tracé_148" fill="#ffe093" d="M105.755,191.659a.477.477,0,0,1,.405,0,.254.254,0,0,1-.405,0" data-name="Tracé 148" transform="translate(-82.239 -150.479)"/><path id="Tracé_149" fill="#ffe093" d="M155.625,191.65a.487.487,0,0,1,.4,0,.247.247,0,0,1-.4,0" data-name="Tracé 149" transform="translate(-119.261 -150.474)"/><path id="Tracé_150" fill="#ffe093" d="M154.142,195.042a.468.468,0,0,1,0-.407.257.257,0,0,1,0,.407" data-name="Tracé 150" transform="translate(-118.125 -152.722)"/><path id="Tracé_151" fill="#ffe093" d="M161.621,191.8h.144q-.071.133-.144,0" data-name="Tracé 151" transform="translate(-123.713 -150.616)"/><path id="Tracé_152" fill="#ffe093" d="M154.285,193.281v-.152c.09.05.093.1,0,.152" data-name="Tracé 152" transform="translate(-118.266 -151.604)"/><path id="Tracé_153" fill="#ffe093" d="M159.136,191.791h.143c-.047.088-.095.091-.143,0" data-name="Tracé 153" transform="translate(-121.868 -150.61)"/><path id="Tracé_154" fill="#ffe093" d="M76.974,181.334l-.14,0c.046-.092.092-.1.14,0" data-name="Tracé 154" transform="translate(-60.768 -142.796)"/><path id="Tracé_155" fill="#ffe093" d="M113.967,200.124l0,.147c-.089-.051-.085-.1,0-.147" data-name="Tracé 155" transform="translate(-88.285 -156.797)"/><path id="Tracé_156" fill="#ffe093" d="M183.787,126.269c0,.049,0,.1,0,.147-.089-.048-.092-.1,0-.147" data-name="Tracé 156" transform="translate(-140.119 -101.968)"/><path id="Tracé_157" fill="#ffe093" d="M103.986,127.26c0,.05,0,.1,0,.151-.09-.05-.09-.1,0-.151" data-name="Tracé 157" transform="translate(-80.876 -102.704)"/><path id="Tracé_158" fill="#ffe093" d="M104.219,121.735l-.055-.048c.012,0,.028,0,.033.009a.16.16,0,0,1,.014.046l.007-.007" data-name="Tracé 158" transform="translate(-81.058 -98.567)"/><path id="Tracé_159" fill="#ffe093" d="M110.74,191.789h.148c-.048.09-.1.09-.148,0" data-name="Tracé 159" transform="translate(-85.94 -150.608)"/><path id="Tracé_160" fill="#ffe093" d="M114.385,149.867c0-.05,0-.1,0-.15.091.049.09.1,0,.15" data-name="Tracé 160" transform="translate(-88.645 -119.376)"/><path id="Tracé_161" fill="#ffe093" d="M104.45,208.765c0-.047,0-.1,0-.142.095.049.09.1,0,.142" data-name="Tracé 161" transform="translate(-81.27 -163.106)"/><path id="Tracé_162" fill="#ffe093" d="M103.985,149.72c0,.049,0,.1,0,.148-.088-.05-.089-.1,0-.148" data-name="Tracé 162" transform="translate(-80.875 -119.378)"/><path id="Tracé_163" fill="#ffe093" d="M162.6,101.967l.153,0c-.052.092-.1.088-.153,0" data-name="Tracé 163" transform="translate(-124.441 -83.927)"/><path id="Tracé_164" fill="#ffe093" d="M112.738,101.959l.145,0c-.047.089-.1.092-.145,0" data-name="Tracé 164" transform="translate(-87.423 -83.919)"/><path id="Tracé_165" fill="#ffe093" d="M164.265,189.8c0-.047,0-.095,0-.142.086.047.09.094,0,.142" data-name="Tracé 165" transform="translate(-125.675 -149.025)"/><path id="Tracé_166" fill="#ffe093" d="M105.268,101.98l.141,0c-.044.086-.091.094-.141,0" data-name="Tracé 166" transform="translate(-81.877 -83.933)"/><path id="Tracé_167" fill="#ffe093" d="M94.023,164.2v.147c-.088-.049-.09-.1,0-.147" data-name="Tracé 167" transform="translate(-73.479 -130.124)"/><path id="Tracé_168" fill="#ffe093" d="M114.377,99.468c0-.049,0-.1,0-.146.089.051.086.1,0,.146" data-name="Tracé 168" transform="translate(-88.64 -81.963)"/><path id="Tracé_169" fill="#ffe093" d="M164.254,183.3c0-.049,0-.1,0-.148.091.048.09.1,0,.148" data-name="Tracé 169" transform="translate(-125.667 -144.201)"/><path id="Tracé_170" fill="#ffe093" d="M105.758,151.87l.146,0c-.047.088-.1.09-.146,0" data-name="Tracé 170" transform="translate(-82.241 -120.972)"/><path id="Tracé_171" fill="#ffe093" d="M165.6,181.8l.148,0c-.05.089-.1.088-.148,0" data-name="Tracé 171" transform="translate(-126.668 -143.196)"/><path id="Tracé_172" fill="#ffe093" d="M103.994,123.278c0,.049,0,.1,0,.148-.089-.049-.091-.1,0-.148" data-name="Tracé 172" transform="translate(-80.882 -99.748)"/><path id="Tracé_173" fill="#222" d="M194.014,211.563c.72-.007,1.439,0,2.159-.024.33-.009.464.129.457.449-.015.72-.021,1.44-.031,2.159-.7,0-1.408-.016-2.11,0-.359.01-.491-.111-.479-.477.022-.7.005-1.408,0-2.112" data-name="Tracé 173" transform="translate(-147.756 -165.27)"/><path id="Tracé_174" fill="#222" d="M184.083,201.516l2.213-.034c.271,0,.376.138.373.4-.007.743-.007,1.487-.01,2.23l-2.564-.028q-.006-1.284-.012-2.567" data-name="Tracé 174" transform="translate(-140.388 -157.805)"/><path id="Tracé_175" fill="#222" d="M176.665,201.614q.006,1.284.012,2.567l-2.544.064a.432.432,0,0,0-.043-.056q.009-1.283.019-2.566l-.013.013,2.576,0Z" data-name="Tracé 175" transform="translate(-132.97 -157.903)"/><path id="Tracé_176" fill="#222" d="M64.253,214.065q-.024-.25-.047-.5,0-.357,0-.715v-.03q0-.379,0-.757l.1-.568.515-.052h.021l.353-.006.022.024.02-.027,1.086-.007.5.061-.01-.011c0,.7,0,1.407.019,2.109.012.357-.109.494-.476.483-.7-.021-1.406,0-2.109,0" data-name="Tracé 176" transform="translate(-51.394 -165.187)"/><path id="Tracé_177" fill="#222" d="M74.159,202.078q.034-.255.068-.508a11.427,11.427,0,0,1,2.559-.041v0a9.137,9.137,0,0,1-.124,2.586l-1.942.013h-.112l-.4-.041.011.012q-.028-.243-.055-.485,0-.3,0-.6a2.283,2.283,0,0,0-.006-.933" data-name="Tracé 177" transform="translate(-58.783 -157.801)"/><path id="Tracé_178" fill="#222" d="M75.907,211.78h.112c-.037.074-.074.082-.112,0" data-name="Tracé 178" transform="translate(-60.08 -165.449)"/><path id="Tracé_179" fill="#222" d="M84.21,191.671l2.532.04q.022,1.269.044,2.539l-2.567,0v0a17.455,17.455,0,0,1,0-2.58Z" data-name="Tracé 179" transform="translate(-66.213 -150.516)"/><path id="Tracé_180" fill="#222" d="M166.719,201.653q-.009,1.283-.018,2.565l-2.565.018q.017-1.276.034-2.551l2.549-.033" data-name="Tracé 180" transform="translate(-125.58 -157.932)"/><path id="Tracé_181" fill="#222" d="M86.694,101.828c0,.7-.014,1.4,0,2.1.01.359-.121.487-.479.478-.7-.017-1.4,0-2.1,0a12.331,12.331,0,0,1,0-2.565l.009-.015,2.573.009Z" data-name="Tracé 181" transform="translate(-66.129 -83.824)"/><path id="Tracé_182" fill="#222" d="M66.919,81.955q.008.778.016,1.557v.124c0,.09,0,.18,0,.27l-.032.051.031.052q.01.145.019.29l-.058.117.013-.011c-.717.007-1.434,0-2.151.024-.327.009-.455-.113-.446-.444.019-.719.013-1.438.017-2.157l2.457-.007.135.134" data-name="Tracé 182" transform="translate(-51.47 -68.971)"/><path id="Tracé_183" fill="#222" d="M74.537,91.744h.331l.033.03.033-.031.3,0,.052.031.052-.032,1.436.013a8.825,8.825,0,0,1,.119,2.589l-.009.015c-.733.017-1.465.04-2.2.048-.309,0-.384-.215-.382-.476.006-.72.015-1.44.023-2.16l-.013.011.222-.035" data-name="Tracé 183" transform="translate(-58.891 -76.335)"/><path id="Tracé_184" fill="#7dd9e5" d="M76.983,191.663a17.464,17.464,0,0,0,0,2.58,11.446,11.446,0,0,0-2.559.042c0-.3.247-.236.407-.256A7.518,7.518,0,0,1,75.6,194c1.1-.021,1.554-.841,1.017-1.841a.418.418,0,0,0-.529-.215,2.779,2.779,0,0,1-1.586-.207l2.484-.078" data-name="Tracé 184" transform="translate(-58.979 -150.515)"/><path id="Tracé_185" fill="#7dd9e5" d="M73.6,203.811a2.283,2.283,0,0,1,.006.933c-.168-.31-.349-.62-.006-.933" data-name="Tracé 185" transform="translate(-58.223 -159.534)"/><path id="Tracé_186" fill="#7dd9e5" d="M72.884,209.782l.055.485-.5-.061a.534.534,0,0,1,.447-.423" data-name="Tracé 186" transform="translate(-57.504 -163.967)"/><path id="Tracé_187" fill="#7dd9e5" d="M64.093,211.518l-.1.568a.592.592,0,0,1,.02-.617c.005-.01.043-.014.056-.005s.015.035.021.054" data-name="Tracé 187" transform="translate(-51.179 -165.212)"/><path id="Tracé_188" fill="#ffe093" d="M66.622,211.353H66.6l.01-.046Z" data-name="Tracé 188" transform="translate(-53.171 -165.099)"/><path id="Tracé_189" fill="#ffe093" d="M68.1,211.319l-.02.027-.022-.025c.011-.062.025-.066.043,0" data-name="Tracé 189" transform="translate(-54.252 -165.074)"/><path id="Tracé_190" fill="#ffe093" d="M64.116,216.83v.03l-.035,0,.036-.033" data-name="Tracé 190" transform="translate(-51.3 -169.199)"/><path id="Tracé_191" fill="#222" d="M184.093,184.275q.018-1.274.036-2.548l2.545-.036a12.358,12.358,0,0,1,.035,2.262.333.333,0,0,1-.357.364,13.964,13.964,0,0,1-2.26-.042" data-name="Tracé 191" transform="translate(-140.396 -143.112)"/><path id="Tracé_192" fill="#222" d="M176.691,194.256l-2.576,0q.018-1.274.037-2.547l2.546-.035a10.314,10.314,0,0,1-.007,2.58" data-name="Tracé 192" transform="translate(-132.988 -150.525)"/><path id="Tracé_193" fill="#222" d="M174.135,96.969q-.013-1.273-.026-2.546l-.011.011c.681-.009,1.363-.029,2.044-.022.287,0,.373-.072.426-.382.124-.72.033-1.442.116-2.158l2.567-.01-.012-.011q.024.178.047.355,0,.679,0,1.357l-.026.029.026.03q-.015.361-.029.723a4.588,4.588,0,0,1-1.827.105c-.537-.009-.773.13-.733.713.042.61-.011,1.227-.023,1.841l-2.544-.036" data-name="Tracé 193" transform="translate(-132.975 -76.417)"/><path id="Tracé_194" fill="#222" d="M84.011,94.367a8.827,8.827,0,0,0-.119-2.589l2.8,0a8.6,8.6,0,0,0-.108,2.6l-2.572-.009" data-name="Tracé 194" transform="translate(-66.008 -76.36)"/><path id="Tracé_195" fill="#222" d="M74.049,81.727l-.135-.134c.057-.107.133-.1.193-.015.041.057.016.121-.058.149" data-name="Tracé 195" transform="translate(-58.601 -68.742)"/><path id="Tracé_196" fill="#222" d="M74.565,91.47l-.222.035.058-.116c.085-.034.147-.022.164.082" data-name="Tracé 196" transform="translate(-58.919 -76.061)"/><path id="Tracé_197" fill="#222" d="M76.556,91.6l-.033.031-.033-.03c.021-.076.043-.07.066,0" data-name="Tracé 197" transform="translate(-60.513 -76.192)"/><path id="Tracé_198" fill="#222" d="M78.015,91.578l-.052.031-.052-.031c.035-.077.069-.074.1,0" data-name="Tracé 198" transform="translate(-61.568 -76.173)"/><path id="Tracé_199" fill="#222" d="M74.406,90.014l-.031-.052.032-.051.049.08-.05.022" data-name="Tracé 199" transform="translate(-58.943 -74.977)"/><path id="Tracé_200" fill="#222" d="M74.5,88.506v-.124c.088.041.091.083,0,.124" data-name="Tracé 200" transform="translate(-59.036 -73.842)"/><path id="Tracé_201" fill="#222" d="M196.546,81.821l.058.256q0,.531,0,1.061a1.205,1.205,0,0,0-.011.7q-.022.253-.045.505l-.206.115h-1.113a.529.529,0,0,0-.445,0l-.343.006-.473-.063.012.011-.041-.528a1.025,1.025,0,0,0,0-.632q.007-.65.014-1.3l.136-.137,2.455.01" data-name="Tracé 201" transform="translate(-147.706 -68.963)"/><path id="Tracé_202" fill="#7dd9e5" d="M204.111,87.657a1.2,1.2,0,0,1,.011-.7c.258.237.214.468-.011.7" data-name="Tracé 202" transform="translate(-155.222 -72.786)"/><path id="Tracé_203" fill="#7dd9e5" d="M194.055,91.851l.473.063c-.05.231-.239.261-.425.293l-.047-.356" data-name="Tracé 203" transform="translate(-147.791 -76.417)"/><path id="Tracé_204" fill="#7dd9e5" d="M197.221,91.927a.529.529,0,0,1,.445,0c-.148.24-.3.263-.445,0" data-name="Tracé 204" transform="translate(-150.141 -76.437)"/><path id="Tracé_205" fill="#7dd9e5" d="M203.253,91.742l.206-.115c.144.123,0,.18-.068.218s-.17.035-.138-.1" data-name="Tracé 205" transform="translate(-154.615 -76.251)"/><path id="Tracé_206" fill="#7dd9e5" d="M194.182,98.556l-.026-.03.026-.029a.432.432,0,0,1,.09.007c.011.082-.035.078-.091.053" data-name="Tracé 206" transform="translate(-147.866 -81.35)"/><path id="Tracé_207" fill="#222" d="M176.681,91.929c-.083.716.007,1.439-.116,2.158-.053.309-.139.385-.426.382-.681-.008-1.362.013-2.044.022q0-1.282,0-2.563l2.587,0" data-name="Tracé 207" transform="translate(-132.972 -76.473)"/><path id="Tracé_208" fill="#222" d="M193.622,87.391a1.023,1.023,0,0,1,0,.632.505.505,0,0,1,0-.632" data-name="Tracé 208" transform="translate(-147.387 -73.106)"/><path id="Tracé_209" fill="#222" d="M193.906,81.592l-.136.137c-.109-.057-.1-.133-.013-.192.057-.041.12-.019.149.056" data-name="Tracé 209" transform="translate(-147.522 -68.744)"/><path id="Tracé_210" fill="#7dd9e5" d="M123.49,175.046" data-name="Tracé 210" transform="translate(-84.925 -136.459)"/><rect id="Rectangle_70" width="22.505" height="8.038" fill="#ffe093" data-name="Rectangle 70" transform="translate(20.045 32.676)"/><rect id="Rectangle_71" width="16.879" height="5.626" fill="#ffe093" data-name="Rectangle 71" transform="translate(22.456 37.499)"/><rect id="Rectangle_72" width="12.056" height="2.411" fill="#ffe093" data-name="Rectangle 72" transform="translate(24.867 42.321)"/><path id="Tracé_225" fill="#222" d="M119.724,194.352q.009-.194.017-.388v-.157l0-.242a.883.883,0,0,1,0-.419q0-.488-.008-.976c0-.214.021-.452-.141-.5a4.208,4.208,0,0,1-.447.049q-2.483.013-4.965.018l-.028.222,0,.152q0,.185,0,.37a1.507,1.507,0,0,1,0,.554q.008.66.016,1.319l-.006-.011h5.565Z" data-name="Tracé 225" transform="translate(-85.962 -153.022)"/><path id="Tracé_226" fill="#222" d="M116.826,194.352l.008-.388v-.4a1.818,1.818,0,0,1,0-.419q0-.488,0-.976c0-.214.01-.452-.068-.5a1.031,1.031,0,0,1-.215.049c-.795.009-1.589.013-2.384.018l-.013.222v.152q0,.185,0,.37a3.122,3.122,0,0,1,0,.554q0,.66.008,1.319l0-.011h2.671Z" data-name="Tracé 226" transform="translate(-88.584 -155.523)"/><path id="Tracé_227" fill="#222" d="M116.826,194.352l.008-.388v-.4a1.818,1.818,0,0,1,0-.419q0-.488,0-.976c0-.214.01-.452-.068-.5a1.031,1.031,0,0,1-.215.049c-.795.009-1.589.013-2.384.018l-.013.222v.152q0,.185,0,.37a3.122,3.122,0,0,1,0,.554q0,.66.008,1.319l0-.011h2.671Z" data-name="Tracé 227" transform="translate(-80.569 -155.514)"/></g></g></g></svg>