<svg width="15" height="15" viewBox="0 0 15 15" fill="none" xmlns="http://www.w3.org/2000/svg">
<g clip-path="url(#clip0_739_1085)">
<path fill-rule="evenodd" clip-rule="evenodd" d="M7.50003 0.876953C3.84235 0.876953 0.877197 3.8421 0.877197 7.49978C0.877197 11.1574 3.84234 14.1226 7.50003 14.1226C11.1577 14.1226 14.1228 11.1574 14.1228 7.49978C14.1228 3.8421 11.1576 0.876953 7.50003 0.876953ZM1.8272 7.49978C1.8272 4.36677 4.36702 1.82695 7.50003 1.82695C10.633 1.82695 13.1728 4.36677 13.1728 7.49978C13.1728 10.6327 10.633 13.1726 7.50003 13.1726C4.36702 13.1726 1.8272 10.6327 1.8272 7.49978ZM7.99994 4.49995C7.99994 4.22381 7.77608 3.99995 7.49994 3.99995C7.2238 3.99995 6.99994 4.22381 6.99994 4.49995V7.49995C6.99994 7.63256 7.05262 7.75974 7.14639 7.85351L9.14639 9.85351C9.34165 10.0487 9.65823 10.0487 9.85349 9.85351C10.0487 9.65825 10.0487 9.34166 9.85349 9.1464L7.99994 7.29285V4.49995Z" fill="#404040"/>
</g>
<defs>
<clipPath id="clip0_739_1085">
<rect width="15" height="15" fill="white"/>
</clipPath>
</defs>
</svg>
