<svg width="539" height="223" viewBox="0 0 539 223" fill="none" xmlns="http://www.w3.org/2000/svg">
<path d="M182.338 101.903L177.77 99.6941L174.864 98.1752C171.362 96.4216 168.732 95.0408 166.974 94.0328C158.489 99.2799 149.256 101.903 139.29 101.903C129.878 101.903 121.199 99.5975 113.268 94.9994C105.336 90.4013 99.0381 84.2015 94.3734 76.4275C89.7088 68.6536 87.3833 60.1617 87.3833 50.9517C87.3833 41.7417 89.7088 33.2498 94.3734 25.4758C99.0381 17.7019 105.336 11.5021 113.268 6.90402C121.199 2.30594 129.878 0 139.29 0C148.703 0 157.381 2.30594 165.313 6.90402C173.244 11.5021 179.542 17.7019 184.207 25.4758C188.871 33.2498 191.197 41.7417 191.197 50.9517C191.197 59.1399 189.328 66.8033 185.591 73.9421C181.854 81.0809 176.76 87.0321 170.296 91.8235L176.525 94.9994L182.061 97.8991C191.377 102.87 199.364 106.695 206.008 109.36C212.652 112.025 219.157 113.364 225.525 113.364C230.605 113.364 235.352 112.398 239.782 110.464C244.211 108.531 247.671 106.004 250.163 102.87L250.44 103.146C248.128 106.184 244.723 108.766 240.197 110.879C235.671 112.991 230.784 114.054 225.525 114.054C217.219 114.054 209.925 113.019 203.655 110.948C197.384 108.876 190.27 105.866 182.338 101.903ZM111.883 91.9616C110.499 90.1251 109.807 87.9573 109.807 85.4718C109.807 82.8069 110.914 80.4733 113.129 78.4988C115.344 76.5242 118.666 75.53 123.095 75.53C128.729 75.53 134.418 76.4552 140.19 78.2916C145.962 80.1281 152.343 82.7516 159.361 86.1622L168.358 90.7189C173.992 86.0242 178.435 80.1972 181.715 73.2517C184.996 66.3063 186.629 58.8637 186.629 50.9517C186.629 41.8384 184.511 33.4155 180.262 25.683C176.012 17.9505 170.268 11.8335 163.029 7.31826C155.79 2.80303 147.872 0.552321 139.29 0.552321C130.708 0.552321 122.915 2.80303 115.621 7.31826C108.326 11.8335 102.568 17.9505 98.3184 25.683C94.0689 33.4155 91.9511 41.8384 91.9511 50.9517C91.9511 59.2365 93.7506 66.9967 97.3494 74.2183C100.948 81.4399 105.793 87.3635 111.883 91.9616ZM139.29 101.351C148.799 101.351 157.464 98.5895 165.313 93.0663L162.821 91.6854C154.516 87.0874 147.042 83.3316 140.397 80.4319C133.753 77.5322 127.981 76.0823 123.095 76.0823C118.943 76.0823 115.787 77.0075 113.614 78.844C111.44 80.6804 110.361 82.8897 110.361 85.4718C110.361 88.3301 111.51 90.995 113.821 93.4805C121.753 98.7276 130.251 101.351 139.29 101.351ZM213.219 2.62353V2.89969C210.354 2.99635 208.471 3.45201 207.544 4.2805C206.617 5.10898 206.16 6.3517 206.16 8.00867V78.4297C206.16 85.9827 208.056 91.6855 211.835 95.5517C215.614 99.418 221.206 101.351 228.584 101.351C235.961 101.351 241.498 99.2523 245.747 95.0684C249.997 90.8846 252.115 85.0576 252.115 77.6012V8.00867C252.115 6.25505 251.672 4.99851 250.8 4.21145C249.928 3.4244 248.059 2.99635 245.194 2.89969V2.62353H259.589V2.89969C256.724 2.99635 254.855 3.45201 253.983 4.2805C253.111 5.10898 252.668 6.3517 252.668 8.00867V77.7393C252.668 85.2923 250.481 91.2022 246.094 95.4827C241.706 99.7632 235.823 101.903 228.445 101.903C220.14 101.903 213.773 99.8046 209.343 95.6207C204.914 91.4369 202.699 85.2371 202.699 77.0489V8.00867C202.699 6.25505 202.256 4.99851 201.384 4.21145C200.512 3.4244 198.644 2.99635 195.779 2.89969V2.62353H213.219Z" fill="#EEEEEE"/>
<path d="M274.248 93.8947V8.00867C274.248 6.25505 273.805 4.99851 272.933 4.21145C272.061 3.4244 270.192 2.99635 267.327 2.89969V2.62353H284.629V2.89969C281.764 2.99635 279.895 3.4244 279.023 4.21145C278.151 4.99851 277.708 6.25505 277.708 8.00867V93.8947C277.708 95.5517 278.151 96.7944 279.023 97.6229C279.895 98.4514 281.764 98.9071 284.629 99.0037V99.2799H267.327V99.0037C270.192 98.9071 272.061 98.4514 272.933 97.6229C273.805 96.7944 274.248 95.5517 274.248 93.8947Z" fill="#EEEEEE"/>
<path d="M298.125 76.6347C293.46 68.9022 291.135 60.3826 291.135 51.0898C291.135 41.797 293.46 33.3741 298.125 25.5449C302.79 17.7157 309.088 11.5021 317.019 6.90402C324.95 2.30594 333.629 0 343.042 0C349.132 0 355.056 1.10464 360.828 3.31393C366.6 5.52322 371.736 8.32625 376.262 11.7368C377.272 12.4687 378.241 12.8415 379.169 12.8415C379.722 12.8415 380.165 12.7034 380.484 12.4272C380.802 12.1511 380.968 11.7368 380.968 11.1845C380.968 10.7289 380.871 10.3146 380.691 9.94179H380.968L385.259 21.6786H384.982C380.276 15.4236 374.186 10.3284 366.711 6.42074C359.236 2.51306 351.347 0.552321 343.042 0.552321C334.736 0.552321 326.542 2.83065 319.303 7.38731C312.064 11.944 306.319 18.0885 302.07 25.821C297.82 33.5536 295.703 41.9765 295.703 51.0898C295.703 60.2031 297.848 68.5984 302.139 76.2895C306.43 83.9806 312.244 90.0699 319.58 94.5851C326.916 99.1004 334.972 101.351 343.734 101.351C351.388 101.351 358.364 99.8598 364.635 96.8635C370.905 93.8671 376.165 89.6833 380.414 84.2981C384.664 78.913 387.654 72.727 389.412 65.7263H390.104C387.238 76.4966 381.799 85.2233 373.77 91.8926C365.742 98.5619 355.734 101.903 343.734 101.903C334.044 101.903 325.186 99.6251 317.157 95.0684C309.129 90.5118 302.79 84.3672 298.125 76.6347Z" fill="#EEEEEE"/>
<path d="M403.669 93.8947V8.00867C403.669 6.25505 403.253 4.99851 402.423 4.21145C401.592 3.4244 399.696 2.99635 396.748 2.89969V2.62353H414.188V2.89969C411.24 2.99635 409.316 3.4244 408.444 4.21145C407.572 4.99851 407.129 6.25505 407.129 8.00867V49.709L442.703 9.94179C443.81 8.56099 444.364 7.41492 444.364 6.48978C444.364 4.28049 442.107 3.07919 437.581 2.89969V2.62353H455.575V2.89969C453.458 3.07919 451.464 3.68675 449.623 4.69474C447.783 5.70272 445.748 7.45634 443.533 9.94179L409.344 48.052L450.316 90.857C455.202 96.0074 459.548 98.7276 463.327 99.0037V99.2799H444.364V99.0037C447.782 98.9071 449.485 98.1338 449.485 96.6563C449.485 95.6484 448.558 94.1295 446.717 92.0997L407.129 50.8136V93.8947C407.129 95.5517 407.586 96.7944 408.513 97.6229C409.441 98.4514 411.323 98.9071 414.188 99.0037V99.2799H396.748V99.0037C399.613 98.9071 401.482 98.479 402.354 97.6919C403.226 96.9049 403.669 95.6484 403.669 93.8947Z" fill="#EEEEEE"/>
<path d="M6.99011 197.717C2.32542 189.985 0 181.465 0 172.173C0 162.88 2.32542 154.457 6.99011 146.628C11.6548 138.799 17.9528 132.585 25.8842 127.987C33.8155 123.389 42.4943 121.083 51.9068 121.083C57.9972 121.083 63.9215 122.187 69.6935 124.397C75.4655 126.606 80.6008 129.409 85.1271 132.82C86.1376 133.551 87.1065 133.924 88.0339 133.924C88.5876 133.924 89.0305 133.786 89.3489 133.51C89.6672 133.234 89.8333 132.82 89.8333 132.267C89.8333 131.812 89.7364 131.397 89.5565 131.025H89.8333L94.1243 142.761H93.8475C89.1412 136.506 83.0508 131.411 75.5763 127.504C68.1017 123.596 60.2119 121.635 51.9068 121.635C43.6017 121.635 35.4073 123.913 28.1681 128.47C20.9288 133.027 15.1845 139.171 10.935 146.904C6.68559 154.636 4.5678 163.059 4.5678 172.173C4.5678 181.286 6.71328 189.681 11.0042 197.372C15.2952 205.063 21.1088 211.153 28.4449 215.668C35.7811 220.183 43.837 222.434 52.5989 222.434C60.2534 222.434 67.2297 220.943 73.5 217.946C79.7703 214.95 85.0302 210.766 89.2797 205.381C93.5291 199.996 96.5189 193.81 98.2768 186.809H98.9689C96.1037 197.579 90.6638 206.306 82.6356 212.975C74.6073 219.645 64.5997 222.986 52.5989 222.986C42.9096 222.986 34.0508 220.708 26.0226 216.151C17.9944 211.595 11.6548 205.45 6.99011 197.717Z" fill="#EEEEEE"/>
<path d="M115.51 197.648C110.845 189.875 108.52 181.383 108.52 172.173C108.52 162.963 110.845 154.457 115.51 146.628C120.175 138.799 126.473 132.585 134.404 127.987C142.335 123.389 151.014 121.083 160.427 121.083C169.839 121.083 178.352 123.389 186.242 127.987C194.131 132.585 200.388 138.799 204.997 146.628C209.607 154.457 211.918 162.963 211.918 172.173C211.918 181.383 209.607 189.875 204.997 197.648C200.388 205.422 194.131 211.595 186.242 216.151C178.352 220.708 169.742 222.986 160.427 222.986C151.111 222.986 142.335 220.708 134.404 216.151C126.473 211.595 120.175 205.422 115.51 197.648ZM136.688 215.668C143.927 220.183 151.845 222.434 160.427 222.434C169.008 222.434 176.76 220.197 183.958 215.737C191.155 211.277 196.858 205.201 201.052 197.51C205.246 189.819 207.35 181.424 207.35 172.311C207.35 163.197 205.246 154.747 201.052 146.973C196.858 139.199 191.155 133.027 183.958 128.47C176.76 123.913 168.912 121.635 160.427 121.635C151.942 121.635 143.927 123.913 136.688 128.47C129.449 133.027 123.704 139.171 119.455 146.904C115.205 154.636 113.088 163.059 113.088 172.173C113.088 181.286 115.205 189.681 119.455 197.372C123.704 205.063 129.449 211.153 136.688 215.668Z" fill="#EEEEEE"/>
<path d="M226.59 198.27V129.091C226.59 127.338 226.147 126.081 225.275 125.294C224.403 124.507 222.576 124.079 219.808 123.982V123.706H236.972V123.982C234.107 124.079 232.238 124.507 231.366 125.294C230.494 126.081 230.051 127.338 230.051 129.091V199.789C230.051 207.148 232.016 212.768 235.934 216.635C239.851 220.501 245.554 222.434 253.028 222.434C260.046 222.434 265.597 220.321 269.708 216.082C273.819 211.843 275.867 206.182 275.867 199.098V129.091C275.867 127.338 275.424 126.081 274.552 125.294C273.68 124.507 271.812 124.079 268.946 123.982V123.706H283.203V123.982C280.338 124.079 278.497 124.507 277.667 125.294C276.836 126.081 276.421 127.338 276.421 129.091V199.098C276.421 206.555 274.248 212.395 269.915 216.635C265.583 220.874 259.769 222.986 252.475 222.986C244.17 222.986 237.775 220.874 233.304 216.635C228.833 212.395 226.59 206.278 226.59 198.27Z" fill="#EEEEEE"/>
<path d="M297.876 214.978V129.091C297.876 127.338 297.46 126.081 296.63 125.294C295.799 124.507 293.903 124.079 290.955 123.982V123.706H307.011C312.922 123.706 318.251 125.046 322.999 127.711C327.746 130.376 330.127 134.518 330.127 140.138C330.127 144.736 328.3 148.464 324.66 151.322C321.019 154.181 316.701 156.059 311.718 156.984L345.353 212.078C347.014 214.839 348.786 216.814 350.682 218.015C352.579 219.217 354.586 219.907 356.703 220.087V220.363H336.91V220.087C340.965 219.99 343 218.844 343 216.635C343 215.53 342.585 214.384 341.754 213.182L307.98 157.26H301.336V214.978C301.336 216.731 301.751 217.988 302.582 218.775C303.412 219.562 305.253 219.99 308.119 220.087V220.363H290.955V220.087C293.82 219.99 295.689 219.562 296.561 218.775C297.433 217.988 297.876 216.731 297.876 214.978ZM320.853 152.427C323.995 149.569 325.559 145.482 325.559 140.138C325.559 135.167 323.968 131.273 320.784 128.47C317.6 125.667 312.922 124.259 306.734 124.259H301.336V156.708H306.734C313.005 156.708 317.711 155.285 320.853 152.427Z" fill="#EEEEEE"/>
<path d="M368.054 217.339C366.49 216.234 365.424 215.682 364.87 215.682C364.136 215.682 363.666 215.999 363.486 216.648C363.306 217.297 363.168 218.54 363.071 220.376H362.794L361.548 204.221H361.686C363.347 209.371 366.144 213.68 370.061 217.132C373.978 220.584 378.393 222.31 383.28 222.31C387.432 222.31 391.211 221.025 394.63 218.443C398.049 215.861 399.751 211.815 399.751 206.292C399.751 202.053 398.575 197.635 396.222 193.037C393.869 188.438 390.339 182.542 385.633 175.362L375.251 159.621C371.832 154.471 369.272 149.997 367.569 146.227C365.867 142.458 365.008 138.591 365.008 134.628C365.008 130.389 366.434 127.075 369.299 124.687C372.165 122.298 375.667 121.097 379.819 121.097C381.757 121.097 384.29 121.649 387.432 122.754C389.827 123.485 391.349 123.858 392 123.858C392.554 123.858 392.969 123.817 393.246 123.72L396.568 134.767H396.153C394.671 131.08 392.374 127.973 389.232 125.446C386.09 122.919 382.961 121.649 379.819 121.649C376.677 121.649 374.033 122.643 371.86 124.618C369.687 126.592 368.607 129.561 368.607 133.524C368.607 137.487 369.41 141.229 371.03 145.054C372.649 148.878 375.113 153.269 378.435 158.24L388.955 173.705C398.464 187.61 403.212 198.325 403.212 205.878C403.212 211.125 401.246 215.295 397.329 218.374C393.412 221.453 388.719 223 383.28 223C380.138 223 377.369 222.475 374.975 221.412C372.58 220.349 370.268 218.996 368.054 217.339Z" fill="#EEEEEE"/>
<path d="M474.774 217.463C471.355 216.179 469.237 215.53 468.407 215.53C467.299 215.53 466.607 215.875 466.33 216.565C466.054 217.256 465.874 218.526 465.777 220.363H465.362L463.839 204.483H464.116C465.223 207.701 467.549 210.669 471.106 213.39C474.663 216.11 478.954 218.291 483.979 219.948C489.003 221.605 494.153 222.434 499.412 222.434C506.887 222.434 513.6 220.708 519.552 217.256C525.504 213.804 530.141 208.999 533.463 202.826C536.785 196.654 538.446 189.709 538.446 181.976C538.446 175.804 536.882 170.074 533.74 164.785C530.598 159.497 526.335 155.285 520.936 152.151C515.538 149.016 509.614 147.456 503.15 147.456C498.9 147.456 494.886 147.981 491.107 149.044C487.329 150.107 482.622 151.695 476.989 153.808C472.379 155.561 468.614 156.846 465.708 157.674C462.801 158.503 459.866 158.917 456.918 158.917C454.33 158.917 451.977 158.254 449.859 156.915C447.741 155.575 446.08 153.877 444.876 151.806C443.671 149.734 443.076 147.691 443.076 145.661C443.076 143.631 443.588 141.836 444.599 140.276C445.609 138.716 446.952 137.514 448.613 136.686C449.347 136.313 450.177 136.023 451.105 135.788L453.042 135.305C454.883 134.932 455.991 134.518 456.364 134.062C455.631 131.025 454.108 128.636 451.797 126.882C449.485 125.129 446.91 124.259 444.045 124.259H422.452V156.708H431.449C433.29 156.708 434.868 156.155 436.155 155.051C437.443 153.946 438.232 151.64 438.508 148.147H438.924V165.821H438.508C438.232 162.41 437.443 160.132 436.155 158.986C434.868 157.84 433.29 157.26 431.449 157.26H422.452V219.81H447.229C450.454 219.81 453.208 218.747 455.465 216.635C457.721 214.522 459.451 212.036 460.655 209.178H460.932L457.057 220.363H411.932V220.087C414.797 219.99 416.68 219.562 417.607 218.775C418.535 217.988 418.992 216.731 418.992 214.978V129.091C418.992 127.338 418.535 126.081 417.607 125.294C416.68 124.507 414.797 124.079 411.932 123.982V123.706H453.734L460.517 142.485L460.24 142.623C459.59 140.414 458.607 138.799 457.264 137.791C455.921 136.783 454.427 136.272 452.766 136.272C450.274 136.272 448.129 137.142 446.329 138.895C444.53 140.649 443.63 142.899 443.63 145.661C443.63 148.602 444.876 151.005 447.367 152.841C449.859 154.678 452.862 155.603 456.364 155.603C459.036 155.603 461.735 155.216 464.462 154.429C467.189 153.642 471.134 152.289 476.297 150.356C481.557 148.243 486.166 146.628 490.138 145.523C494.111 144.418 498.125 143.866 502.181 143.866C509.655 143.866 516.189 145.758 521.767 149.527C527.345 153.297 531.622 158.116 534.571 163.957C537.519 169.798 539 175.804 539 181.976C539 189.888 537.297 196.958 533.879 203.172C530.46 209.385 525.753 214.246 519.76 217.739C513.766 221.233 506.984 222.986 499.412 222.986C494.706 222.986 490.457 222.475 486.678 221.467C482.899 220.459 478.927 219.12 474.774 217.463Z" fill="#EEEEEE"/>
</svg>
