<svg width="9" height="9" viewBox="0 0 9 9" fill="none" xmlns="http://www.w3.org/2000/svg">
<path d="M4.33388 0.399571C4.39537 0.251738 4.60478 0.251738 4.66627 0.399571L5.64812 2.76021C5.67404 2.82253 5.73265 2.86511 5.79993 2.87051L8.34846 3.07483C8.50806 3.08762 8.57274 3.28679 8.45118 3.39095L6.50946 5.05422C6.45822 5.09813 6.43584 5.16703 6.4515 5.23268L7.04472 7.71958C7.08186 7.87534 6.91242 7.99846 6.7758 7.915L4.5939 6.58228C4.5363 6.54712 4.46385 6.54712 4.40625 6.58228L2.22437 7.915C2.08773 7.99846 1.91831 7.87534 1.95545 7.71958L2.54868 5.23268C2.56434 5.16703 2.54195 5.09813 2.49069 5.05422L0.548994 3.39095C0.427398 3.28679 0.492113 3.08762 0.651709 3.07483L3.20022 2.87051C3.2675 2.86511 3.32611 2.82253 3.35203 2.76021L4.33388 0.399571Z" fill="#404040"/>
</svg>
