<svg xmlns="http://www.w3.org/2000/svg" width="400" height="400" viewBox="0 0 400 400"><g transform="translate(-184 -2773)"><rect class="a" width="400" height="400" transform="translate(184 2773)"/><g transform="translate(221.068 2810.365)"><line class="b" y2="325.932" transform="translate(75.723)"/><line class="b" y2="325.932" transform="translate(106.829)"/><line class="b" y2="325.932" transform="translate(205.555)"/><line class="b" y2="325.932" transform="translate(250.179)"/><line class="b" y2="325.932" transform="translate(325.932 52.35) rotate(90)"/><line class="b" y2="325.932" transform="translate(325.932 111.18) rotate(90)"/><line class="b" y2="325.932" transform="translate(325.932 128.761) rotate(90)"/><line class="b" y2="325.932" transform="translate(325.932 211.259) rotate(90)"/><line class="b" y2="325.932" transform="translate(325.932 228.164) rotate(90)"/><line class="b" y2="325.932" transform="translate(176.478)"/><g transform="translate(75.753 52.35)"><path class="c" d="M4064.448-2036.092l-100.787,59.256v116.806l100.787,58.694v-38.746l-70.284-37.064v-81.936l70.284-37.437Z" transform="translate(-3963.662 2036.092)"/><path class="c" d="M16035.537,5805.594l44.757,18.04v81.176l-44.757,17.244Z" transform="translate(-15905.867 -5746.249)"/></g></g></g></svg>