<svg viewBox="0 0 16.518 24.278">
  <g transform="translate(-7 -2.5)">
    <path class="a" d="M7.5,6.88A3.88,3.88,0,0,1,11.38,3h3.88v7.759H11.38A3.88,3.88,0,0,1,7.5,6.88Z"
      transform="translate(0 0)" />
    <path class="a" d="M18,3h3.88a3.88,3.88,0,1,1,0,7.759H18Z" transform="translate(-2.741 0)" />
    <path class="a" d="M18,17.38a3.88,3.88,0,1,1,3.88,3.88A3.88,3.88,0,0,1,18,17.38Z"
      transform="translate(-2.741 -2.741)" />
    <path class="a" d="M7.5,27.88A3.88,3.88,0,0,1,11.38,24h3.88v3.88a3.88,3.88,0,0,1-7.759,0Z"
      transform="translate(0 -5.482)" />
    <path class="a" d="M7.5,17.38a3.88,3.88,0,0,1,3.88-3.88h3.88v7.759H11.38A3.88,3.88,0,0,1,7.5,17.38Z"
      transform="translate(0 -2.741)" />
  </g>
</svg>