<svg xmlns="http://www.w3.org/2000/svg" width="169" height="225" fill="none" viewBox="0 0 169 225"><path fill="#231F20" d="M11.3483 191.168C3.91488 180.217 0.18457 167.201 0.18457 152.174C0.18457 140.761 2.77128 130.38 7.9447 121.06C13.1181 111.739 19.8708 103.94 28.23 97.6902C36.5891 91.4402 45.5745 86.9565 55.1862 84.2391C49.1959 78.0707 44.4854 71.7391 41.0274 65.2174C37.5693 58.6957 35.8539 52.9076 35.8539 47.8261C35.8539 40.7609 38.2228 35.1087 42.9334 30.8424C47.6439 26.5761 53.3619 24.4565 60.0873 24.4565C64.0899 24.4565 67.6569 25.0543 70.8426 26.2228C74.0283 27.3913 77.4319 28.8859 81.0533 30.7065C83.5855 21.6576 88.7317 14.2663 96.4374 8.55977C104.143 2.85324 113.101 0 123.258 0C131.426 0 138.968 1.98369 145.857 5.97825C152.746 9.97282 158.192 15.4076 162.194 22.2826C166.197 29.1576 168.185 36.6032 168.185 44.5652C168.185 75.5435 148.035 93.8315 107.737 99.4565C101.556 100.353 95.675 101.902 90.0387 104.076L94.6676 103.804C104.47 103.804 113.537 106.304 121.896 111.277C130.255 116.25 136.817 122.826 141.637 130.978C146.456 139.13 148.852 147.826 148.852 157.065C148.852 168.832 145.857 179.946 139.867 190.353C133.877 200.761 125.164 209.158 113.728 215.489C102.292 221.821 88.8679 225 73.4293 225C62.1839 225 50.8841 222.092 39.5298 216.304C28.1755 210.516 18.7817 202.12 11.3483 191.168ZM43.7502 216.848C53.5525 221.549 63.4364 223.913 73.4293 223.913C89.2219 223.913 102.155 220.516 112.23 213.723C122.304 206.929 129.711 197.908 134.421 186.685C129.52 193.016 123.448 198.016 116.178 201.63C108.908 205.245 101.202 207.065 93.0338 207.065C83.5855 207.065 74.8724 204.755 66.8945 200.136C58.9165 195.516 52.5995 189.212 47.9706 181.25C43.3418 173.288 41.0274 164.674 41.0274 155.435C41.0274 146.196 43.5596 137.446 48.6514 128.125C53.7431 118.804 60.2779 111.603 68.2559 106.522C75.1447 102.174 81.5979 99.0489 87.5881 97.1467C93.5784 95.2446 100.304 93.6685 107.737 92.3913C119.908 90.4076 130.201 87.8261 138.642 84.6467C147.082 81.4674 153.944 76.6848 159.199 70.2446C164.454 63.8043 167.095 55.2445 167.095 44.5652C167.095 36.7663 165.135 29.538 161.241 22.8261C157.348 16.1141 152.038 10.8152 145.313 6.92934C138.587 3.04347 131.235 1.08694 123.258 1.08694C115.28 1.08694 108.01 2.93477 101.475 6.6576C94.9398 10.3804 89.7664 15.4348 85.9544 21.875C82.1424 28.3152 80.2364 35.4076 80.2364 43.2065C80.2364 49.375 81.734 54.9728 84.7291 60.0543C87.7243 65.1359 91.3185 69.2391 95.4844 72.4185C99.6504 75.5978 103.462 77.7174 106.92 78.8043L94.6676 81.7935C90.665 78.5326 87.098 73.0435 83.9123 65.3532C80.7265 57.663 79.1473 50.2717 79.1473 43.2065C79.1473 38.8587 77.1868 34.8369 73.2932 31.1141C69.3995 27.3913 64.9885 25.5435 60.0873 25.5435C54.8322 25.5435 50.5029 27.1195 47.1538 30.2989C43.8047 33.4782 42.1165 37.8533 42.1165 43.4783C42.1165 55.788 49.2776 68.75 63.627 82.3369V83.4239C48.733 85.9511 35.9356 92.8804 25.2348 104.212C14.534 115.543 9.16998 131.793 9.16998 152.989C9.16998 169.647 12.4919 183.288 19.1084 193.886C25.7249 204.484 33.9479 212.147 43.7502 216.848ZM67.3029 199.185C75.0086 203.723 83.5855 205.978 93.0338 205.978C101.938 205.978 110.188 203.804 117.812 199.457C125.436 195.109 131.508 189.212 136.055 181.793C138.587 174.375 139.867 166.114 139.867 157.065C139.867 148.016 137.906 138.94 134.013 130.978C130.119 123.016 124.701 116.712 117.812 112.092C110.923 107.473 103.299 105.163 94.9399 105.163C86.0361 105.163 77.5136 107.283 69.345 111.549C61.1765 115.815 54.5872 121.793 49.6043 129.484C44.6215 137.174 42.1165 145.842 42.1165 155.435C42.1165 164.484 44.3765 172.908 48.9236 180.707C53.4708 188.505 59.5972 194.647 67.3029 199.185Z"/></svg>