<svg xmlns="http://www.w3.org/2000/svg" width="10" height="10" fill="none" viewBox="0 0 10 10"><path fill="#A9B5E2" fill-rule="evenodd" d="M2.43095 2.43101C2.30077 2.56118 2.30077 2.77224 2.43095 2.90241L6.86191 7.33338H3.99998C3.81589 7.33338 3.66665 7.48265 3.66665 7.66672C3.66665 7.85078 3.81589 8.00005 3.99998 8.00005H7.66665C7.75505 8.00005 7.83985 7.96492 7.90238 7.90245C7.96485 7.83992 7.99998 7.75512 7.99998 7.66672V4.00004C7.99998 3.81595 7.85071 3.66671 7.66665 3.66671C7.48258 3.66671 7.33331 3.81595 7.33331 4.00004V6.86198L2.90235 2.431C2.77217 2.30083 2.56112 2.30083 2.43095 2.43101Z" clip-rule="evenodd"/></svg>