 <svg viewBox="0 0 28.603 25.821">
   <defs>
     <style>
       .a {
         fill: none;
       }
     </style>
   </defs>
   <path class="a"
     d="M1.625,9.236.633,10.572H5.489l.37-7.013ZM21.413,2.985l-6.9-.735,7.281,7.9-.381-7.163ZM6.17,12.246l-.6-1.18H.681L12.748,25.107Zm.107-1.674H21.515L17.142,5.823,13.9,2.3Zm15.952.488L15.045,25.107,27.106,11.066H22.229Zm.209-6.825-.5-.676.048.928.327,6.084h4.845ZM6.24,5.55l-.247,4.593L13.279,2.25l-6.9.735Zm15.437,5.51H6.116l2.275,4.448L13.9,26.287Z"
     transform="translate(0.408 -1.566)" />
 </svg>