<svg xmlns="http://www.w3.org/2000/svg" xmlns:xlink="http://www.w3.org/1999/xlink" width="1203" height="439" viewBox="0 0 1203 439"><defs><clipPath id="clip-step5"><rect width="1203" height="439"/></clipPath></defs><g id="step5" clip-path="url(#clip-step5)"><g id="Rectangle_604" fill="#fff" stroke="#707070" stroke-width=".5" data-name="Rectangle 604" opacity=".458" transform="matrix(0.985, 0.174, -0.174, 0.985, 220.313, 0.754)"><rect width="25.257" height="420.674" stroke="none" rx="3"/><rect width="24.757" height="420.174" x=".25" y=".25" fill="none" rx="2.75"/></g><g id="Groupe_4338" data-name="Groupe 4338" opacity=".579" transform="matrix(0.985, 0.174, -0.174, 0.985, 219.392, 8.363)"><path id="Tracé_22636" fill="#e5e2e2" d="M0,0,24.528,15.79v21.6L0,22.663Z" data-name="Tracé 22636" transform="translate(0 163.975)"/><path id="Tracé_22869" fill="#e5e2e2" d="M0,0,24.528,15.79v21.6L0,22.663Z" data-name="Tracé 22869" transform="translate(0 122.981)"/><path id="Tracé_22870" fill="#e5e2e2" d="M0,0,24.528,15.79v21.6L0,22.663Z" data-name="Tracé 22870" transform="translate(0 81.987)"/><path id="Tracé_22871" fill="#e5e2e2" d="M0,0,24.528,15.79v21.6L0,22.663Z" data-name="Tracé 22871" transform="translate(0 40.994)"/><path id="Tracé_22872" fill="#e5e2e2" d="M0,0,24.528,15.79v21.6L0,22.663Z" data-name="Tracé 22872" transform="translate(0 0)"/><path id="Tracé_22637" fill="#e5e2e2" d="M0,0,24.528,15.79v21.6L0,22.663Z" data-name="Tracé 22637" transform="translate(0 202.191)"/><path id="Tracé_22638" fill="#e5e2e2" d="M0,0,24.528,15.79v21.6L0,22.663Z" data-name="Tracé 22638" transform="translate(0 243.122)"/><path id="Tracé_22635" fill="#e5e2e2" d="M0,0,24.528,15.79v21.6L0,22.663Z" data-name="Tracé 22635" transform="translate(0 284.052)"/><path id="Tracé_22633" fill="#e5e2e2" d="M0,0,24.528,15.79v21.6L0,22.663Z" data-name="Tracé 22633" transform="translate(0 324.982)"/><path id="Tracé_22634" fill="#e5e2e2" d="M0,0,24.528,15.79v21.6L0,22.663Z" data-name="Tracé 22634" transform="translate(0 364.603)"/></g><g id="Groupe_4519" data-name="Groupe 4519" transform="translate(-5847 -2999)"><g id="Groupe_5417" data-name="Groupe 5417" transform="translate(5847 3053)"><g id="Rectangle_589" fill="none" stroke="#707070" stroke-width=".5" data-name="Rectangle 589" transform="translate(63 366)"><rect width="163" height="19" stroke="none"/><rect width="162.5" height="18.5" x=".25" y=".25" fill="none"/></g><g id="Rectangle_590" fill="none" stroke="#707070" stroke-width=".5" data-name="Rectangle 590"><rect width="291" height="19" stroke="none"/><rect width="290.5" height="18.5" x=".25" y=".25" fill="none"/></g><path id="Tracé_22624" fill="none" stroke="#707070" stroke-width=".5" d="M-15005.43-4745l39.524,347.649h182.39l43.885-347.649Z" data-name="Tracé 22624" transform="translate(15017.301 4764.307)"/></g><g id="Groupe_2983" data-name="Groupe 2983" transform="translate(5971.404 3206.756)"><path id="Tracé_121" fill="#fff" d="M3987.749-2036.091l-24.087,14.129v27.851l24.087,14v-9.238l-16.8-8.838v-19.538l16.8-8.927Z" data-name="Tracé 121" transform="translate(-3963.662 2036.091)"/></g><g id="Groupe_5419" data-name="Groupe 5419" opacity=".246" transform="translate(5168 -3058)"><circle id="Ellipse_434" cx="13.5" cy="13.5" r="13.5" fill="#efefef" data-name="Ellipse 434" transform="translate(731 6373)"/><circle id="Ellipse_435" cx="13.5" cy="13.5" r="13.5" fill="#efefef" data-name="Ellipse 435" transform="translate(752 6407)"/><circle id="Ellipse_436" cx="13.5" cy="13.5" r="13.5" fill="#efefef" data-name="Ellipse 436" transform="translate(788 6382)"/><circle id="Ellipse_437" cx="13.5" cy="13.5" r="13.5" fill="#efefef" data-name="Ellipse 437" transform="translate(798 6421)"/><circle id="Ellipse_441" cx="13.5" cy="13.5" r="13.5" fill="#efefef" data-name="Ellipse 441" transform="translate(761 6441)"/><circle id="Ellipse_438" cx="13.5" cy="13.5" r="13.5" fill="#efefef" data-name="Ellipse 438" transform="translate(827 6394)"/><circle id="Ellipse_439" cx="13.5" cy="13.5" r="13.5" fill="#efefef" data-name="Ellipse 439" transform="translate(884 6380)"/><circle id="Ellipse_440" cx="13.5" cy="13.5" r="13.5" fill="#efefef" data-name="Ellipse 440" transform="translate(863 6407)"/><circle id="Ellipse_443" cx="13.5" cy="13.5" r="13.5" fill="#efefef" data-name="Ellipse 443" transform="translate(875 6441)"/><circle id="Ellipse_442" cx="13.5" cy="13.5" r="13.5" fill="#efefef" data-name="Ellipse 442" transform="translate(827 6441)"/></g><path id="Tracé_22874" fill="#efefef" d="M-16072.124-2776.821h253.295l-36.547,300.812h-182.07Z" data-name="Tracé 22874" opacity=".495" transform="translate(21936.273 5895.725)"/><path id="Tracé_22877" fill="#c6c2c2" d="M-16820.047-3277.232h236.488l-10.223,72.549h-217.436Z" data-name="Tracé 22877" transform="translate(22693.031 6474.225)"/><g id="Groupe_2983-2" data-name="Groupe 2983" transform="translate(5971.404 3205.756)"><path id="Tracé_121-2" fill="#fff" d="M3987.749-2036.091l-24.087,14.129v27.851l24.087,14v-9.238l-16.8-8.838v-19.538l16.8-8.927Z" data-name="Tracé 121" transform="translate(-3963.662 2036.091)"/><path id="Tracé_143" fill="#fff" d="M16035.542,5805.6l10.672,4.3v19.356l-10.672,4.11Z" data-name="Tracé 143" transform="translate(-16004.622 -5791.45)"/></g></g><g id="Rectangle_604-2" fill="#fff" stroke="#707070" stroke-width=".5" data-name="Rectangle 604" transform="translate(401.922 79.396)"><rect width="24.043" height="334.3" stroke="none" rx="3"/><rect width="23.543" height="333.8" x=".25" y=".25" fill="none" rx="2.75"/></g><g id="Rectangle_604-3" fill="#fff" stroke="#707070" stroke-width=".5" data-name="Rectangle 604" transform="translate(693.31 79.396)"><rect width="24.043" height="334.3" stroke="none" rx="3"/><rect width="23.543" height="333.8" x=".25" y=".25" fill="none" rx="2.75"/></g><g id="Rectangle_604-4" fill="#fff" stroke="#707070" stroke-width=".5" data-name="Rectangle 604" transform="translate(984.698 79.396)"><rect width="24.043" height="334.3" stroke="none" rx="3"/><rect width="23.543" height="333.8" x=".25" y=".25" fill="none" rx="2.75"/></g><g id="Rectangle_604-5" fill="#fff" stroke="#707070" stroke-width=".5" data-name="Rectangle 604" transform="translate(499.051 79.396)"><rect width="24.043" height="334.3" stroke="none" rx="3"/><rect width="23.543" height="333.8" x=".25" y=".25" fill="none" rx="2.75"/></g><g id="Rectangle_604-6" fill="#fff" stroke="#707070" stroke-width=".5" data-name="Rectangle 604" transform="translate(790.44 79.396)"><rect width="24.043" height="334.3" stroke="none" rx="3"/><rect width="23.543" height="333.8" x=".25" y=".25" fill="none" rx="2.75"/></g><g id="Rectangle_604-7" fill="#d0c1e4" stroke="#707070" stroke-width=".5" data-name="Rectangle 604" transform="translate(1081.828 79.396)"><rect width="24.043" height="334.3" stroke="none" rx="3"/><rect width="23.543" height="333.8" x=".25" y=".25" fill="none" rx="2.75"/></g><g id="Rectangle_604-8" fill="#fff" stroke="#707070" stroke-width=".5" data-name="Rectangle 604" transform="translate(596.181 79.396)"><rect width="24.043" height="334.3" stroke="none" rx="3"/><rect width="23.543" height="333.8" x=".25" y=".25" fill="none" rx="2.75"/></g><g id="Rectangle_604-9" fill="#fff" stroke="#707070" stroke-width=".5" data-name="Rectangle 604" transform="translate(887.569 79.396)"><rect width="24.043" height="334.3" stroke="none" rx="3"/><rect width="23.543" height="333.8" x=".25" y=".25" fill="none" rx="2.75"/></g><g id="Rectangle_604-10" fill="#ffbfb2" stroke="#707070" stroke-width=".5" data-name="Rectangle 604" transform="translate(1178.957 79.396)"><rect width="24.043" height="334.3" stroke="none" rx="3"/><rect width="23.543" height="333.8" x=".25" y=".25" fill="none" rx="2.75"/></g><g id="Groupe_4338-2" data-name="Groupe 4338" transform="translate(402.261 84.028)"><path id="Tracé_22636-2" fill="#90a1d9" d="M-16735.477-639.994l23.471,12.529v17.136l-23.471-11.683Z" data-name="Tracé 22636" transform="translate(16735.477 770.105)"/><path id="Tracé_22869-2" fill="#90a1d9" d="M-16735.477-639.994l23.471,12.529v17.136l-23.471-11.683Z" data-name="Tracé 22869" transform="translate(16735.477 737.578)"/><path id="Tracé_22870-2" fill="#90a1d9" d="M-16735.477-639.994l23.471,12.529v17.136l-23.471-11.683Z" data-name="Tracé 22870" transform="translate(16735.477 705.05)"/><path id="Tracé_22871-2" fill="#90a1d9" d="M-16735.477-639.994l23.471,12.529v17.136l-23.471-11.683Z" data-name="Tracé 22871" transform="translate(16735.477 672.522)"/><path id="Tracé_22872-2" fill="#90a1d9" d="M-16735.477-639.994l23.471,12.529v17.136l-23.471-11.683Z" data-name="Tracé 22872" transform="translate(16735.477 639.994)"/><path id="Tracé_22637-2" fill="#90a1d9" d="M-16735.477-639.994l23.471,12.529v17.136l-23.471-11.683Z" data-name="Tracé 22637" transform="translate(16735.477 800.429)"/><path id="Tracé_22638-2" fill="#90a1d9" d="M-16735.477-639.994l23.471,12.529v17.136l-23.471-11.683Z" data-name="Tracé 22638" transform="translate(16735.477 832.907)"/><path id="Tracé_22635-2" fill="#90a1d9" d="M-16735.477-639.994l23.471,12.529v17.136l-23.471-11.683Z" data-name="Tracé 22635" transform="translate(16735.477 865.385)"/><path id="Tracé_22633-2" fill="#90a1d9" d="M-16735.477-639.994l23.471,12.529v17.136l-23.471-11.683Z" data-name="Tracé 22633" transform="translate(16735.477 897.862)"/><path id="Tracé_22634-2" fill="#90a1d9" d="M-16735.477-639.994l23.471,12.529v17.136l-23.471-11.683Z" data-name="Tracé 22634" transform="translate(16735.477 929.3)"/></g><g id="Groupe_4338-3" data-name="Groupe 4338" transform="translate(693.649 84.028)"><path id="Tracé_22636-3" fill="#ffbfb2" d="M-16735.477-639.994l23.471,12.529v17.136l-23.471-11.683Z" data-name="Tracé 22636" transform="translate(16735.477 770.105)"/><path id="Tracé_22869-3" fill="#ffbfb2" d="M-16735.477-639.994l23.471,12.529v17.136l-23.471-11.683Z" data-name="Tracé 22869" transform="translate(16735.477 737.578)"/><path id="Tracé_22870-3" fill="#ffbfb2" d="M-16735.477-639.994l23.471,12.529v17.136l-23.471-11.683Z" data-name="Tracé 22870" transform="translate(16735.477 705.05)"/><path id="Tracé_22871-3" fill="#ffbfb2" d="M-16735.477-639.994l23.471,12.529v17.136l-23.471-11.683Z" data-name="Tracé 22871" transform="translate(16735.477 672.522)"/><path id="Tracé_22872-3" fill="#ffbfb2" d="M-16735.477-639.994l23.471,12.529v17.136l-23.471-11.683Z" data-name="Tracé 22872" transform="translate(16735.477 639.994)"/><path id="Tracé_22637-3" fill="#ffbfb2" d="M-16735.477-639.994l23.471,12.529v17.136l-23.471-11.683Z" data-name="Tracé 22637" transform="translate(16735.477 800.429)"/><path id="Tracé_22638-3" fill="#ffbfb2" d="M-16735.477-639.994l23.471,12.529v17.136l-23.471-11.683Z" data-name="Tracé 22638" transform="translate(16735.477 832.907)"/><path id="Tracé_22635-3" fill="#ffbfb2" d="M-16735.477-639.994l23.471,12.529v17.136l-23.471-11.683Z" data-name="Tracé 22635" transform="translate(16735.477 865.385)"/><path id="Tracé_22633-3" fill="#ffbfb2" d="M-16735.477-639.994l23.471,12.529v17.136l-23.471-11.683Z" data-name="Tracé 22633" transform="translate(16735.477 897.862)"/><path id="Tracé_22634-3" fill="#ffbfb2" d="M-16735.477-639.994l23.471,12.529v17.136l-23.471-11.683Z" data-name="Tracé 22634" transform="translate(16735.477 929.3)"/></g><g id="Groupe_4338-4" data-name="Groupe 4338" transform="translate(985.038 84.028)"><path id="Tracé_22636-4" fill="#472714" d="M-16735.477-639.994l23.471,12.529v17.136l-23.471-11.683Z" data-name="Tracé 22636" transform="translate(16735.477 770.105)"/><path id="Tracé_22869-4" fill="#472714" d="M-16735.477-639.994l23.471,12.529v17.136l-23.471-11.683Z" data-name="Tracé 22869" transform="translate(16735.477 737.578)"/><path id="Tracé_22870-4" fill="#472714" d="M-16735.477-639.994l23.471,12.529v17.136l-23.471-11.683Z" data-name="Tracé 22870" transform="translate(16735.477 705.05)"/><path id="Tracé_22871-4" fill="#472714" d="M-16735.477-639.994l23.471,12.529v17.136l-23.471-11.683Z" data-name="Tracé 22871" transform="translate(16735.477 672.522)"/><path id="Tracé_22872-4" fill="#472714" d="M-16735.477-639.994l23.471,12.529v17.136l-23.471-11.683Z" data-name="Tracé 22872" transform="translate(16735.477 639.994)"/><path id="Tracé_22637-4" fill="#472714" d="M-16735.477-639.994l23.471,12.529v17.136l-23.471-11.683Z" data-name="Tracé 22637" transform="translate(16735.477 800.429)"/><path id="Tracé_22638-4" fill="#472714" d="M-16735.477-639.994l23.471,12.529v17.136l-23.471-11.683Z" data-name="Tracé 22638" transform="translate(16735.477 832.907)"/><path id="Tracé_22635-4" fill="#472714" d="M-16735.477-639.994l23.471,12.529v17.136l-23.471-11.683Z" data-name="Tracé 22635" transform="translate(16735.477 865.385)"/><path id="Tracé_22633-4" fill="#472714" d="M-16735.477-639.994l23.471,12.529v17.136l-23.471-11.683Z" data-name="Tracé 22633" transform="translate(16735.477 897.862)"/><path id="Tracé_22634-4" fill="#472714" d="M-16735.477-639.994l23.471,12.529v17.136l-23.471-11.683Z" data-name="Tracé 22634" transform="translate(16735.477 929.3)"/></g><g id="Groupe_4338-5" data-name="Groupe 4338" transform="translate(499.39 84.028)"><path id="Tracé_22636-5" fill="#d0c1e4" d="M-16735.477-639.994l23.471,12.529v17.136l-23.471-11.683Z" data-name="Tracé 22636" transform="translate(16735.477 770.105)"/><path id="Tracé_22869-5" fill="#d0c1e4" d="M-16735.477-639.994l23.471,12.529v17.136l-23.471-11.683Z" data-name="Tracé 22869" transform="translate(16735.477 737.578)"/><path id="Tracé_22870-5" fill="#d0c1e4" d="M-16735.477-639.994l23.471,12.529v17.136l-23.471-11.683Z" data-name="Tracé 22870" transform="translate(16735.477 705.05)"/><path id="Tracé_22871-5" fill="#d0c1e4" d="M-16735.477-639.994l23.471,12.529v17.136l-23.471-11.683Z" data-name="Tracé 22871" transform="translate(16735.477 672.522)"/><path id="Tracé_22872-5" fill="#d0c1e4" d="M-16735.477-639.994l23.471,12.529v17.136l-23.471-11.683Z" data-name="Tracé 22872" transform="translate(16735.477 639.994)"/><path id="Tracé_22637-5" fill="#d0c1e4" d="M-16735.477-639.994l23.471,12.529v17.136l-23.471-11.683Z" data-name="Tracé 22637" transform="translate(16735.477 800.429)"/><path id="Tracé_22638-5" fill="#d0c1e4" d="M-16735.477-639.994l23.471,12.529v17.136l-23.471-11.683Z" data-name="Tracé 22638" transform="translate(16735.477 832.907)"/><path id="Tracé_22635-5" fill="#d0c1e4" d="M-16735.477-639.994l23.471,12.529v17.136l-23.471-11.683Z" data-name="Tracé 22635" transform="translate(16735.477 865.385)"/><path id="Tracé_22633-5" fill="#d0c1e4" d="M-16735.477-639.994l23.471,12.529v17.136l-23.471-11.683Z" data-name="Tracé 22633" transform="translate(16735.477 897.862)"/><path id="Tracé_22634-5" fill="#d0c1e4" d="M-16735.477-639.994l23.471,12.529v17.136l-23.471-11.683Z" data-name="Tracé 22634" transform="translate(16735.477 929.3)"/></g><g id="Groupe_4338-6" data-name="Groupe 4338" transform="translate(790.779 84.028)"><path id="Tracé_22636-6" fill="#ff5c5b" d="M-16735.477-639.994l23.471,12.529v17.136l-23.471-11.683Z" data-name="Tracé 22636" transform="translate(16735.477 770.105)"/><path id="Tracé_22869-6" fill="#ff5c5b" d="M-16735.477-639.994l23.471,12.529v17.136l-23.471-11.683Z" data-name="Tracé 22869" transform="translate(16735.477 737.578)"/><path id="Tracé_22870-6" fill="#ff5c5b" d="M-16735.477-639.994l23.471,12.529v17.136l-23.471-11.683Z" data-name="Tracé 22870" transform="translate(16735.477 705.05)"/><path id="Tracé_22871-6" fill="#ff5c5b" d="M-16735.477-639.994l23.471,12.529v17.136l-23.471-11.683Z" data-name="Tracé 22871" transform="translate(16735.477 672.522)"/><path id="Tracé_22872-6" fill="#ff5c5b" d="M-16735.477-639.994l23.471,12.529v17.136l-23.471-11.683Z" data-name="Tracé 22872" transform="translate(16735.477 639.994)"/><path id="Tracé_22637-6" fill="#ff5c5b" d="M-16735.477-639.994l23.471,12.529v17.136l-23.471-11.683Z" data-name="Tracé 22637" transform="translate(16735.477 800.429)"/><path id="Tracé_22638-6" fill="#ff5c5b" d="M-16735.477-639.994l23.471,12.529v17.136l-23.471-11.683Z" data-name="Tracé 22638" transform="translate(16735.477 832.907)"/><path id="Tracé_22635-6" fill="#ff5c5b" d="M-16735.477-639.994l23.471,12.529v17.136l-23.471-11.683Z" data-name="Tracé 22635" transform="translate(16735.477 865.385)"/><path id="Tracé_22633-6" fill="#ff5c5b" d="M-16735.477-639.994l23.471,12.529v17.136l-23.471-11.683Z" data-name="Tracé 22633" transform="translate(16735.477 897.862)"/><path id="Tracé_22634-6" fill="#ff5c5b" d="M-16735.477-639.994l23.471,12.529v17.136l-23.471-11.683Z" data-name="Tracé 22634" transform="translate(16735.477 929.3)"/></g><g id="Groupe_4338-7" data-name="Groupe 4338" transform="translate(1082.167 84.028)"><path id="Tracé_22636-7" fill="#90a1d9" d="M-16735.477-639.994l23.471,12.529v17.136l-23.471-11.683Z" data-name="Tracé 22636" transform="translate(16735.477 770.105)"/><path id="Tracé_22869-7" fill="#90a1d9" d="M-16735.477-639.994l23.471,12.529v17.136l-23.471-11.683Z" data-name="Tracé 22869" transform="translate(16735.477 737.578)"/><path id="Tracé_22870-7" fill="#90a1d9" d="M-16735.477-639.994l23.471,12.529v17.136l-23.471-11.683Z" data-name="Tracé 22870" transform="translate(16735.477 705.05)"/><path id="Tracé_22871-7" fill="#90a1d9" d="M-16735.477-639.994l23.471,12.529v17.136l-23.471-11.683Z" data-name="Tracé 22871" transform="translate(16735.477 672.522)"/><path id="Tracé_22872-7" fill="#90a1d9" d="M-16735.477-639.994l23.471,12.529v17.136l-23.471-11.683Z" data-name="Tracé 22872" transform="translate(16735.477 639.994)"/><path id="Tracé_22637-7" fill="#90a1d9" d="M-16735.477-639.994l23.471,12.529v17.136l-23.471-11.683Z" data-name="Tracé 22637" transform="translate(16735.477 800.429)"/><path id="Tracé_22638-7" fill="#90a1d9" d="M-16735.477-639.994l23.471,12.529v17.136l-23.471-11.683Z" data-name="Tracé 22638" transform="translate(16735.477 832.907)"/><path id="Tracé_22635-7" fill="#90a1d9" d="M-16735.477-639.994l23.471,12.529v17.136l-23.471-11.683Z" data-name="Tracé 22635" transform="translate(16735.477 865.385)"/><path id="Tracé_22633-7" fill="#90a1d9" d="M-16735.477-639.994l23.471,12.529v17.136l-23.471-11.683Z" data-name="Tracé 22633" transform="translate(16735.477 897.862)"/><path id="Tracé_22634-7" fill="#90a1d9" d="M-16735.477-639.994l23.471,12.529v17.136l-23.471-11.683Z" data-name="Tracé 22634" transform="translate(16735.477 929.3)"/></g><g id="Groupe_4338-8" data-name="Groupe 4338" transform="translate(596.52 84.028)"><path id="Tracé_22636-8" fill="#ff9d40" d="M-16735.477-639.994l23.471,12.529v17.136l-23.471-11.683Z" data-name="Tracé 22636" transform="translate(16735.477 770.105)"/><path id="Tracé_22869-8" fill="#ff9d40" d="M-16735.477-639.994l23.471,12.529v17.136l-23.471-11.683Z" data-name="Tracé 22869" transform="translate(16735.477 737.578)"/><path id="Tracé_22870-8" fill="#ff9d40" d="M-16735.477-639.994l23.471,12.529v17.136l-23.471-11.683Z" data-name="Tracé 22870" transform="translate(16735.477 705.05)"/><path id="Tracé_22871-8" fill="#ff9d40" d="M-16735.477-639.994l23.471,12.529v17.136l-23.471-11.683Z" data-name="Tracé 22871" transform="translate(16735.477 672.522)"/><path id="Tracé_22872-8" fill="#ff9d40" d="M-16735.477-639.994l23.471,12.529v17.136l-23.471-11.683Z" data-name="Tracé 22872" transform="translate(16735.477 639.994)"/><path id="Tracé_22637-8" fill="#ff9d40" d="M-16735.477-639.994l23.471,12.529v17.136l-23.471-11.683Z" data-name="Tracé 22637" transform="translate(16735.477 800.429)"/><path id="Tracé_22638-8" fill="#ff9d40" d="M-16735.477-639.994l23.471,12.529v17.136l-23.471-11.683Z" data-name="Tracé 22638" transform="translate(16735.477 832.907)"/><path id="Tracé_22635-8" fill="#ff9d40" d="M-16735.477-639.994l23.471,12.529v17.136l-23.471-11.683Z" data-name="Tracé 22635" transform="translate(16735.477 865.385)"/><path id="Tracé_22633-8" fill="#ff9d40" d="M-16735.477-639.994l23.471,12.529v17.136l-23.471-11.683Z" data-name="Tracé 22633" transform="translate(16735.477 897.862)"/><path id="Tracé_22634-8" fill="#ff9d40" d="M-16735.477-639.994l23.471,12.529v17.136l-23.471-11.683Z" data-name="Tracé 22634" transform="translate(16735.477 929.3)"/></g><g id="Groupe_4338-9" data-name="Groupe 4338" transform="translate(887.908 84.028)"><path id="Tracé_22636-9" fill="#fa8fc5" d="M-16735.477-639.994l23.471,12.529v17.136l-23.471-11.683Z" data-name="Tracé 22636" transform="translate(16735.477 770.105)"/><path id="Tracé_22869-9" fill="#fa8fc5" d="M-16735.477-639.994l23.471,12.529v17.136l-23.471-11.683Z" data-name="Tracé 22869" transform="translate(16735.477 737.578)"/><path id="Tracé_22870-9" fill="#fa8fc5" d="M-16735.477-639.994l23.471,12.529v17.136l-23.471-11.683Z" data-name="Tracé 22870" transform="translate(16735.477 705.05)"/><path id="Tracé_22871-9" fill="#fa8fc5" d="M-16735.477-639.994l23.471,12.529v17.136l-23.471-11.683Z" data-name="Tracé 22871" transform="translate(16735.477 672.522)"/><path id="Tracé_22872-9" fill="#fa8fc5" d="M-16735.477-639.994l23.471,12.529v17.136l-23.471-11.683Z" data-name="Tracé 22872" transform="translate(16735.477 639.994)"/><path id="Tracé_22637-9" fill="#fa8fc5" d="M-16735.477-639.994l23.471,12.529v17.136l-23.471-11.683Z" data-name="Tracé 22637" transform="translate(16735.477 800.429)"/><path id="Tracé_22638-9" fill="#fa8fc5" d="M-16735.477-639.994l23.471,12.529v17.136l-23.471-11.683Z" data-name="Tracé 22638" transform="translate(16735.477 832.907)"/><path id="Tracé_22635-9" fill="#fa8fc5" d="M-16735.477-639.994l23.471,12.529v17.136l-23.471-11.683Z" data-name="Tracé 22635" transform="translate(16735.477 865.385)"/><path id="Tracé_22633-9" fill="#fa8fc5" d="M-16735.477-639.994l23.471,12.529v17.136l-23.471-11.683Z" data-name="Tracé 22633" transform="translate(16735.477 897.862)"/><path id="Tracé_22634-9" fill="#fa8fc5" d="M-16735.477-639.994l23.471,12.529v17.136l-23.471-11.683Z" data-name="Tracé 22634" transform="translate(16735.477 929.3)"/></g><g id="Groupe_4338-10" data-name="Groupe 4338" transform="translate(1179.296 84.028)"><path id="Tracé_22636-10" fill="#ff5c5b" d="M-16735.477-639.994l23.471,12.529v17.136l-23.471-11.683Z" data-name="Tracé 22636" transform="translate(16735.477 770.105)"/><path id="Tracé_22869-10" fill="#ff5c5b" d="M-16735.477-639.994l23.471,12.529v17.136l-23.471-11.683Z" data-name="Tracé 22869" transform="translate(16735.477 737.578)"/><path id="Tracé_22870-10" fill="#ff5c5b" d="M-16735.477-639.994l23.471,12.529v17.136l-23.471-11.683Z" data-name="Tracé 22870" transform="translate(16735.477 705.05)"/><path id="Tracé_22871-10" fill="#ff5c5b" d="M-16735.477-639.994l23.471,12.529v17.136l-23.471-11.683Z" data-name="Tracé 22871" transform="translate(16735.477 672.522)"/><path id="Tracé_22872-10" fill="#ff5c5b" d="M-16735.477-639.994l23.471,12.529v17.136l-23.471-11.683Z" data-name="Tracé 22872" transform="translate(16735.477 639.994)"/><path id="Tracé_22637-10" fill="#ff5c5b" d="M-16735.477-639.994l23.471,12.529v17.136l-23.471-11.683Z" data-name="Tracé 22637" transform="translate(16735.477 800.429)"/><path id="Tracé_22638-10" fill="#ff5c5b" d="M-16735.477-639.994l23.471,12.529v17.136l-23.471-11.683Z" data-name="Tracé 22638" transform="translate(16735.477 832.907)"/><path id="Tracé_22635-10" fill="#ff5c5b" d="M-16735.477-639.994l23.471,12.529v17.136l-23.471-11.683Z" data-name="Tracé 22635" transform="translate(16735.477 865.385)"/><path id="Tracé_22633-10" fill="#ff5c5b" d="M-16735.477-639.994l23.471,12.529v17.136l-23.471-11.683Z" data-name="Tracé 22633" transform="translate(16735.477 897.862)"/><path id="Tracé_22634-10" fill="#ff5c5b" d="M-16735.477-639.994l23.471,12.529v17.136l-23.471-11.683Z" data-name="Tracé 22634" transform="translate(16735.477 929.3)"/></g></g></svg>