<svg xmlns="http://www.w3.org/2000/svg" xmlns:xlink="http://www.w3.org/1999/xlink" width="1203" height="385" viewBox="0 0 1203 385">
  <defs>
    <clipPath id="clip-step2">
      <rect width="1203" height="385"/>
    </clipPath>
  </defs>
  <g id="step2" clip-path="url(#clip-step2)">
    <g id="Groupe_4516" data-name="Groupe 4516" transform="translate(-5847 -2319)">
      <g id="Groupe_4337" data-name="Groupe 4337" transform="translate(5847 2319)">
        <g id="Rectangle_589" data-name="Rectangle 589" transform="translate(63 365)" fill="none" stroke="#707070" stroke-width="0.5">
          <rect width="162" height="19" stroke="none"/>
          <rect x="0.25" y="0.25" width="161.5" height="18.5" fill="none"/>
        </g>
        <g id="Rectangle_590" data-name="Rectangle 590" fill="none" stroke="#707070" stroke-width="0.5">
          <rect width="290" height="19" stroke="none"/>
          <rect x="0.25" y="0.25" width="289.5" height="18.5" fill="none"/>
        </g>
        <path id="Tracé_22624" data-name="Tracé 22624" d="M-15005.43-4745l39.385,346.419h181.744l43.729-346.419Z" transform="translate(15017.259 4764.239)" fill="none" stroke="#707070" stroke-width="0.5"/>
      </g>
      <path id="Tracé_22626" data-name="Tracé 22626" d="M-16820.047-3277.232h235.652l-10.187,72.292h-216.666Z" transform="translate(22692.939 5740.711)" fill="#c6c2c2"/>
      <g id="Groupe_2983" data-name="Groupe 2983" transform="translate(5970.964 2472.212)">
        <path id="Tracé_121" data-name="Tracé 121" d="M3987.664-2036.091l-24,14.079v27.752l24,13.95v-9.205l-16.74-8.807v-19.469l16.74-8.9Z" transform="translate(-3963.662 2036.091)" fill="#fff"/>
        <path id="Tracé_143" data-name="Tracé 143" d="M16035.542,5805.6l10.634,4.285v19.288l-10.634,4.1Z" transform="translate(-16004.731 -5791.5)" fill="#fff"/>
      </g>
    </g>
    <rect id="Rectangle_510" data-name="Rectangle 510" width="231" height="69" rx="6" transform="translate(972 63)" fill="#ff9e40"/>
    <rect id="Rectangle_515" data-name="Rectangle 515" width="231" height="69" rx="6" transform="translate(972 222)" fill="#282324"/>
    <rect id="Rectangle_511" data-name="Rectangle 511" width="231" height="69" rx="6" transform="translate(687 63)" fill="#d0c1e4"/>
    <rect id="Rectangle_514" data-name="Rectangle 514" width="231" height="69" rx="6" transform="translate(687 222)" fill="#ff5c5b"/>
    <rect id="Rectangle_512" data-name="Rectangle 512" width="231" height="69" rx="6" transform="translate(402 63)" fill="#90a1d9"/>
    <rect id="Rectangle_513" data-name="Rectangle 513" width="231" height="69" rx="6" transform="translate(402 222)" fill="#ffbfb2"/>
    <path id="Large" d="M-49.6-5.922-50.778,0h-1.134a.721.721,0,0,1-.546-.238.862.862,0,0,1-.224-.616.744.744,0,0,1,.007-.1q.007-.049.021-.119l.994-4.844h-3.458l-.994,4.97a1.138,1.138,0,0,1-.427.735A1.24,1.24,0,0,1-57.26,0h-1.106l1.19-5.922H-59.22a.735.735,0,0,1-.5-.161.71.71,0,0,1-.182-.553q0-.07.007-.154t.021-.168l.112-.8h2.856L-56-12.32h-3.248l.182-1.036a.926.926,0,0,1,.322-.6,1.3,1.3,0,0,1,.8-.2h2.212l1.008-5.012a1.075,1.075,0,0,1,.385-.658,1.127,1.127,0,0,1,.721-.238h1.12l-1.176,5.908h3.458l1.176-5.908h1.106a.831.831,0,0,1,.581.21.7.7,0,0,1,.231.546.96.96,0,0,1-.014.182l-1.022,4.97h2.968l-.182,1.05a.884.884,0,0,1-.329.6,1.345,1.345,0,0,1-.791.189h-1.932l-.91,4.564h2.506a.757.757,0,0,1,.518.161.731.731,0,0,1,.182.567q0,.07-.007.147t-.021.161l-.126.8Zm-5.25-1.834h3.458l.91-4.564h-3.458Zm18.116-.476a6.107,6.107,0,0,1-2.149-.378A5.169,5.169,0,0,1-40.67-9.723a5.353,5.353,0,0,1-1.225-1.806,6.236,6.236,0,0,1-.455-2.457,6.21,6.21,0,0,1,.49-2.464,6.077,6.077,0,0,1,1.372-2,6.432,6.432,0,0,1,2.1-1.344,7.1,7.1,0,0,1,2.674-.49,6.919,6.919,0,0,1,2.618.476,5.888,5.888,0,0,1,2.016,1.33,5.858,5.858,0,0,1,1.3,2.044A7.315,7.315,0,0,1-29.33-13.8a8.1,8.1,0,0,1-.161,1.645,8.4,8.4,0,0,1-.469,1.519,12.422,12.422,0,0,1-.735,1.477q-.427.735-.973,1.519L-36.554-.588a1.28,1.28,0,0,1-.518.427,1.761,1.761,0,0,1-.77.161h-2.3l6.1-7.994q.308-.406.574-.77t.5-.728a5.577,5.577,0,0,1-1.736.938A6.421,6.421,0,0,1-36.736-8.232Zm5.012-5.866a4.6,4.6,0,0,0-.3-1.7,3.751,3.751,0,0,0-.833-1.3,3.641,3.641,0,0,0-1.267-.819,4.409,4.409,0,0,0-1.617-.287,4.56,4.56,0,0,0-1.687.3,3.826,3.826,0,0,0-1.3.833,3.66,3.66,0,0,0-.833,1.274,4.37,4.37,0,0,0-.294,1.624,4.946,4.946,0,0,0,.273,1.7A3.465,3.465,0,0,0-38.8-11.2a3.3,3.3,0,0,0,1.246.784,4.808,4.808,0,0,0,1.645.266,4.544,4.544,0,0,0,1.785-.329,3.953,3.953,0,0,0,1.309-.875A3.748,3.748,0,0,0-32-12.614,4.029,4.029,0,0,0-31.724-14.1Zm18.942,4.074a16.228,16.228,0,0,1-.567,4.557A9.519,9.519,0,0,1-14.9-2.282,6.216,6.216,0,0,1-17.213-.406,6.759,6.759,0,0,1-20.076.21a6.7,6.7,0,0,1-2.863-.616,6.248,6.248,0,0,1-2.3-1.876,9.425,9.425,0,0,1-1.54-3.185,16.419,16.419,0,0,1-.56-4.557,16.5,16.5,0,0,1,.56-4.564,9.5,9.5,0,0,1,1.54-3.2,6.223,6.223,0,0,1,2.3-1.883,6.7,6.7,0,0,1,2.863-.616,6.759,6.759,0,0,1,2.863.616A6.191,6.191,0,0,1-14.9-17.787a9.6,9.6,0,0,1,1.547,3.2A16.3,16.3,0,0,1-12.782-10.024Zm-2.59,0a16.4,16.4,0,0,0-.385-3.857,7.733,7.733,0,0,0-1.036-2.513A3.911,3.911,0,0,0-18.3-17.759a4.036,4.036,0,0,0-1.778-.413,4.036,4.036,0,0,0-1.778.413,3.862,3.862,0,0,0-1.5,1.365,7.839,7.839,0,0,0-1.029,2.513,16.4,16.4,0,0,0-.385,3.857,16.306,16.306,0,0,0,.385,3.85,7.84,7.84,0,0,0,1.029,2.506,3.862,3.862,0,0,0,1.5,1.365,4.036,4.036,0,0,0,1.778.413A4.036,4.036,0,0,0-18.3-2.3a3.911,3.911,0,0,0,1.505-1.365,7.733,7.733,0,0,0,1.036-2.506A16.306,16.306,0,0,0-15.372-10.024ZM7,0H4.9a.9.9,0,0,1-.588-.182,1.119,1.119,0,0,1-.336-.462L2.1-5.488h-9L-8.778-.644A1.094,1.094,0,0,1-9.114-.2.894.894,0,0,1-9.7,0h-2.1L-3.78-20.062h2.758ZM-6.146-7.448h7.49l-3.15-8.162a15.255,15.255,0,0,1-.6-1.89q-.154.574-.3,1.057T-3-15.6ZM11.116-1.9h4.312V-15.582q0-.616.042-1.246l-3.584,3.066a.96.96,0,0,1-.28.161.806.806,0,0,1-.266.049.781.781,0,0,1-.378-.091.688.688,0,0,1-.252-.217l-.784-1.078L15.89-20.1h2.03V-1.9h3.948V0H11.116Zm32.046-8.12a11.3,11.3,0,0,1-.714,4.1,9.1,9.1,0,0,1-2.016,3.164A8.988,8.988,0,0,1,37.31-.721,10.859,10.859,0,0,1,33.278,0h-7.5V-20.062h7.5a10.859,10.859,0,0,1,4.032.721A8.939,8.939,0,0,1,40.432-17.3a9.17,9.17,0,0,1,2.016,3.171A11.3,11.3,0,0,1,43.162-10.024Zm-2.786,0a10.069,10.069,0,0,0-.5-3.3,6.963,6.963,0,0,0-1.428-2.464,6.09,6.09,0,0,0-2.24-1.54,7.741,7.741,0,0,0-2.926-.532H28.5V-2.2h4.774A7.741,7.741,0,0,0,36.2-2.73a6.13,6.13,0,0,0,2.24-1.533A6.891,6.891,0,0,0,39.872-6.72,10.069,10.069,0,0,0,40.376-10.024ZM52.108-8.232a6.107,6.107,0,0,1-2.149-.378,5.169,5.169,0,0,1-1.785-1.113,5.353,5.353,0,0,1-1.225-1.806,6.236,6.236,0,0,1-.455-2.457,6.21,6.21,0,0,1,.49-2.464,6.077,6.077,0,0,1,1.372-2,6.432,6.432,0,0,1,2.1-1.344,7.1,7.1,0,0,1,2.674-.49,6.919,6.919,0,0,1,2.618.476,5.888,5.888,0,0,1,2.016,1.33,5.858,5.858,0,0,1,1.3,2.044,7.315,7.315,0,0,1,.455,2.632,8.1,8.1,0,0,1-.161,1.645,8.4,8.4,0,0,1-.469,1.519,12.422,12.422,0,0,1-.735,1.477q-.427.735-.973,1.519L52.29-.588a1.28,1.28,0,0,1-.518.427A1.761,1.761,0,0,1,51,0h-2.3l6.1-7.994q.308-.406.574-.77t.5-.728a5.577,5.577,0,0,1-1.736.938A6.421,6.421,0,0,1,52.108-8.232ZM57.12-14.1a4.6,4.6,0,0,0-.3-1.7,3.751,3.751,0,0,0-.833-1.3,3.641,3.641,0,0,0-1.267-.819A4.409,4.409,0,0,0,53.1-18.2a4.56,4.56,0,0,0-1.687.3,3.826,3.826,0,0,0-1.3.833,3.66,3.66,0,0,0-.833,1.274,4.37,4.37,0,0,0-.294,1.624,4.946,4.946,0,0,0,.273,1.7,3.465,3.465,0,0,0,.784,1.267,3.3,3.3,0,0,0,1.246.784,4.808,4.808,0,0,0,1.645.266,4.544,4.544,0,0,0,1.785-.329,3.953,3.953,0,0,0,1.309-.875,3.748,3.748,0,0,0,.812-1.26A4.029,4.029,0,0,0,57.12-14.1Z" transform="translate(462.984 175)" fill="#9a9a9a"/>
    <path id="Large-2" data-name="Large" d="M11.06-5.922,9.884,0H8.75A.721.721,0,0,1,8.2-.238.862.862,0,0,1,7.98-.854a.743.743,0,0,1,.007-.1q.007-.049.021-.119L9-5.922H5.544L4.55-.952a1.138,1.138,0,0,1-.427.735A1.24,1.24,0,0,1,3.4,0H2.3l1.19-5.922H1.442a.735.735,0,0,1-.5-.161.71.71,0,0,1-.182-.553q0-.07.007-.154t.021-.168l.112-.8H3.752l.91-4.564H1.414L1.6-13.356a.926.926,0,0,1,.322-.6,1.3,1.3,0,0,1,.8-.2H4.928l1.008-5.012a1.075,1.075,0,0,1,.385-.658,1.127,1.127,0,0,1,.721-.238h1.12L6.986-14.154h3.458l1.176-5.908h1.106a.831.831,0,0,1,.581.21.7.7,0,0,1,.231.546.96.96,0,0,1-.014.182L12.5-14.154H15.47l-.182,1.05a.884.884,0,0,1-.329.6,1.345,1.345,0,0,1-.791.189H12.236l-.91,4.564h2.506a.757.757,0,0,1,.518.161.731.731,0,0,1,.182.567q0,.07-.007.147T14.5-6.72l-.126.8ZM5.81-7.756H9.268l.91-4.564H6.72ZM31.038-20.062v2.212H21.406v7.014h8.232v2.212H21.406V0h-2.73V-20.062Zm15.848,0v2.212H37.254v7.014h8.232v2.212H37.254V0h-2.73V-20.062ZM50.372,0V-20.062h6.4a12.232,12.232,0,0,1,3.185.364,6.168,6.168,0,0,1,2.2,1.036,4.087,4.087,0,0,1,1.274,1.645,5.557,5.557,0,0,1,.413,2.191,4.445,4.445,0,0,1-.231,1.428,4.162,4.162,0,0,1-.7,1.274,4.949,4.949,0,0,1-1.176,1.05,6.551,6.551,0,0,1-1.659.756,6.186,6.186,0,0,1,3.318,1.582,4.145,4.145,0,0,1,1.12,3.024,5.635,5.635,0,0,1-.469,2.324,4.979,4.979,0,0,1-1.372,1.806A6.4,6.4,0,0,1,60.459-.413,9.93,9.93,0,0,1,57.47,0Zm2.716-9.142v6.986h4.34a6.6,6.6,0,0,0,1.995-.266A3.72,3.72,0,0,0,60.8-3.171a2.9,2.9,0,0,0,.791-1.148,4.1,4.1,0,0,0,.252-1.463,3.011,3.011,0,0,0-1.1-2.457,5.16,5.16,0,0,0-3.325-.9Zm0-1.932h3.584a6.958,6.958,0,0,0,1.988-.252,4.024,4.024,0,0,0,1.393-.7,2.737,2.737,0,0,0,.819-1.085,3.579,3.579,0,0,0,.266-1.393,3.074,3.074,0,0,0-1.064-2.59,5.377,5.377,0,0,0-3.3-.826H53.088ZM80.85-20.062v2.212H71.218v7.014H79.45v2.212H71.218V0h-2.73V-20.062ZM84.336,0V-20.062h6.4a12.232,12.232,0,0,1,3.185.364,6.168,6.168,0,0,1,2.2,1.036,4.087,4.087,0,0,1,1.274,1.645,5.557,5.557,0,0,1,.413,2.191,4.445,4.445,0,0,1-.231,1.428,4.162,4.162,0,0,1-.7,1.274,4.949,4.949,0,0,1-1.176,1.05,6.551,6.551,0,0,1-1.659.756,6.186,6.186,0,0,1,3.318,1.582,4.145,4.145,0,0,1,1.12,3.024,5.635,5.635,0,0,1-.469,2.324,4.979,4.979,0,0,1-1.372,1.806A6.4,6.4,0,0,1,94.423-.413,9.93,9.93,0,0,1,91.434,0Zm2.716-9.142v6.986h4.34a6.6,6.6,0,0,0,2-.266,3.72,3.72,0,0,0,1.372-.749,2.9,2.9,0,0,0,.791-1.148A4.1,4.1,0,0,0,95.8-5.782a3.011,3.011,0,0,0-1.1-2.457,5.16,5.16,0,0,0-3.325-.9Zm0-1.932h3.584a6.958,6.958,0,0,0,1.988-.252,4.024,4.024,0,0,0,1.393-.7,2.737,2.737,0,0,0,.819-1.085A3.579,3.579,0,0,0,95.1-14.5a3.074,3.074,0,0,0-1.064-2.59,5.377,5.377,0,0,0-3.3-.826H87.052Zm21.378-9.212a7.312,7.312,0,0,1,2.38.378,5.485,5.485,0,0,1,1.911,1.1,5.13,5.13,0,0,1,1.267,1.757,5.718,5.718,0,0,1,.462,2.352,6.185,6.185,0,0,1-.336,2.072,8.451,8.451,0,0,1-.91,1.827,13.418,13.418,0,0,1-1.323,1.694q-.749.819-1.589,1.673l-5.278,5.4a10.436,10.436,0,0,1,1.134-.245,7.065,7.065,0,0,1,1.106-.091h6.72a.87.87,0,0,1,.644.238.833.833,0,0,1,.238.616V0H101.472V-.854a1.55,1.55,0,0,1,.1-.546,1.455,1.455,0,0,1,.343-.518l6.426-6.454q.8-.812,1.456-1.561a11.379,11.379,0,0,0,1.127-1.5,7.013,7.013,0,0,0,.721-1.533,5.346,5.346,0,0,0,.252-1.659,3.962,3.962,0,0,0-.28-1.547,2.993,2.993,0,0,0-.77-1.1,3.239,3.239,0,0,0-1.148-.651,4.488,4.488,0,0,0-1.414-.217,4.234,4.234,0,0,0-1.4.224,3.8,3.8,0,0,0-1.141.623,3.783,3.783,0,0,0-.84.945,3.685,3.685,0,0,0-.483,1.2,1.116,1.116,0,0,1-.336.588.9.9,0,0,1-.588.182q-.07,0-.147-.007t-.175-.021l-1.3-.224a7.379,7.379,0,0,1,.756-2.429,5.79,5.79,0,0,1,1.421-1.771,6.064,6.064,0,0,1,1.974-1.085A7.547,7.547,0,0,1,108.43-20.286Z" transform="translate(401.984 334)" fill="#9a9a9a"/>
    <path id="Large-3" data-name="Large" d="M-49.686-5.922-50.862,0H-52a.721.721,0,0,1-.546-.238.862.862,0,0,1-.224-.616.744.744,0,0,1,.007-.1q.007-.049.021-.119l.994-4.844H-55.2L-56.2-.952a1.138,1.138,0,0,1-.427.735A1.24,1.24,0,0,1-57.344,0H-58.45l1.19-5.922H-59.3a.735.735,0,0,1-.5-.161.71.71,0,0,1-.182-.553q0-.07.007-.154t.021-.168l.112-.8h2.856l.91-4.564h-3.248l.182-1.036a.926.926,0,0,1,.322-.6,1.3,1.3,0,0,1,.8-.2h2.212l1.008-5.012a1.075,1.075,0,0,1,.385-.658,1.127,1.127,0,0,1,.721-.238h1.12l-1.176,5.908H-50.3l1.176-5.908h1.106a.831.831,0,0,1,.581.21.7.7,0,0,1,.231.546.96.96,0,0,1-.014.182l-1.022,4.97h2.968l-.182,1.05a.884.884,0,0,1-.329.6,1.345,1.345,0,0,1-.791.189H-48.51l-.91,4.564h2.506A.757.757,0,0,1-46.4-7.6a.731.731,0,0,1,.182.567q0,.07-.007.147t-.021.161l-.126.8Zm-5.25-1.834h3.458l.91-4.564h-3.458Zm30.254-2.268a11.3,11.3,0,0,1-.714,4.1,9.1,9.1,0,0,1-2.016,3.164A8.988,8.988,0,0,1-30.534-.721,10.859,10.859,0,0,1-34.566,0h-7.5V-20.062h7.5a10.859,10.859,0,0,1,4.032.721A8.939,8.939,0,0,1-27.412-17.3,9.17,9.17,0,0,1-25.4-14.126,11.3,11.3,0,0,1-24.682-10.024Zm-2.786,0a10.069,10.069,0,0,0-.5-3.3A6.963,6.963,0,0,0-29.4-15.792a6.09,6.09,0,0,0-2.24-1.54,7.741,7.741,0,0,0-2.926-.532H-39.34V-2.2h4.774A7.741,7.741,0,0,0-31.64-2.73,6.13,6.13,0,0,0-29.4-4.263,6.891,6.891,0,0,0-27.972-6.72,10.069,10.069,0,0,0-27.468-10.024Zm19.446,0a16.228,16.228,0,0,1-.567,4.557,9.519,9.519,0,0,1-1.547,3.185A6.216,6.216,0,0,1-12.453-.406,6.759,6.759,0,0,1-15.316.21a6.7,6.7,0,0,1-2.863-.616,6.248,6.248,0,0,1-2.3-1.876,9.425,9.425,0,0,1-1.54-3.185,16.419,16.419,0,0,1-.56-4.557,16.5,16.5,0,0,1,.56-4.564,9.5,9.5,0,0,1,1.54-3.2,6.223,6.223,0,0,1,2.3-1.883,6.7,6.7,0,0,1,2.863-.616,6.759,6.759,0,0,1,2.863.616,6.191,6.191,0,0,1,2.317,1.883,9.6,9.6,0,0,1,1.547,3.2A16.3,16.3,0,0,1-8.022-10.024Zm-2.59,0A16.4,16.4,0,0,0-11-13.881a7.733,7.733,0,0,0-1.036-2.513,3.911,3.911,0,0,0-1.505-1.365,4.036,4.036,0,0,0-1.778-.413,4.036,4.036,0,0,0-1.778.413,3.862,3.862,0,0,0-1.5,1.365,7.839,7.839,0,0,0-1.029,2.513,16.4,16.4,0,0,0-.385,3.857,16.306,16.306,0,0,0,.385,3.85,7.84,7.84,0,0,0,1.029,2.506,3.862,3.862,0,0,0,1.5,1.365,4.036,4.036,0,0,0,1.778.413A4.036,4.036,0,0,0-13.538-2.3a3.911,3.911,0,0,0,1.505-1.365A7.733,7.733,0,0,0-11-6.174,16.306,16.306,0,0,0-10.612-10.024ZM9.394-4.144a.562.562,0,0,1,.406.182L10.864-2.8A8.583,8.583,0,0,1,7.875-.574a10.192,10.192,0,0,1-4.235.8A9.97,9.97,0,0,1-.294-.525a8.622,8.622,0,0,1-3.01-2.1A9.493,9.493,0,0,1-5.236-5.866a12.107,12.107,0,0,1-.686-4.158,11.38,11.38,0,0,1,.735-4.158A9.5,9.5,0,0,1-3.122-17.43,9.241,9.241,0,0,1,.063-19.537a10.842,10.842,0,0,1,4.1-.749,9.657,9.657,0,0,1,3.815.686,9.641,9.641,0,0,1,2.849,1.862L9.94-16.492a.961.961,0,0,1-.224.231.616.616,0,0,1-.364.091.709.709,0,0,1-.385-.133q-.2-.133-.483-.329t-.658-.42a5.767,5.767,0,0,0-.9-.42,7.4,7.4,0,0,0-1.2-.329,8.381,8.381,0,0,0-1.582-.133,7.638,7.638,0,0,0-2.947.553,6.6,6.6,0,0,0-2.3,1.575,7.166,7.166,0,0,0-1.5,2.492,9.5,9.5,0,0,0-.539,3.29,9.679,9.679,0,0,0,.539,3.346,7.388,7.388,0,0,0,1.47,2.485A6.2,6.2,0,0,0,1.064-2.646a7.049,7.049,0,0,0,2.744.532,11.142,11.142,0,0,0,1.61-.105,6.612,6.612,0,0,0,1.323-.329,5.6,5.6,0,0,0,1.134-.567,8.868,8.868,0,0,0,1.057-.819A.712.712,0,0,1,9.394-4.144ZM16.016-1.9h4.312V-15.582q0-.616.042-1.246l-3.584,3.066a.96.96,0,0,1-.28.161.806.806,0,0,1-.266.049.781.781,0,0,1-.378-.091.688.688,0,0,1-.252-.217l-.784-1.078L20.79-20.1h2.03V-1.9h3.948V0H16.016Zm27.02-18.158v2.212H33.4v6.664h7.8v2.128H33.4v6.846h9.632V0H30.674V-20.062ZM57.148-7.238h3.038V-5.81a.558.558,0,0,1-.133.378.517.517,0,0,1-.413.154H57.148V0h-2.2V-5.278H46.06a.754.754,0,0,1-.483-.161.705.705,0,0,1-.259-.4l-.252-1.274,9.758-12.95h2.324Zm-2.2-8.274q0-.364.021-.784a8.316,8.316,0,0,1,.091-.868L47.768-7.238H54.95Z" transform="translate(747.984 175)" fill="#9a9a9a"/>
    <path id="Large-4" data-name="Large" d="M11.06-5.922,9.884,0H8.75A.721.721,0,0,1,8.2-.238.862.862,0,0,1,7.98-.854a.743.743,0,0,1,.007-.1q.007-.049.021-.119L9-5.922H5.544L4.55-.952a1.138,1.138,0,0,1-.427.735A1.24,1.24,0,0,1,3.4,0H2.3l1.19-5.922H1.442a.735.735,0,0,1-.5-.161.71.71,0,0,1-.182-.553q0-.07.007-.154t.021-.168l.112-.8H3.752l.91-4.564H1.414L1.6-13.356a.926.926,0,0,1,.322-.6,1.3,1.3,0,0,1,.8-.2H4.928l1.008-5.012a1.075,1.075,0,0,1,.385-.658,1.127,1.127,0,0,1,.721-.238h1.12L6.986-14.154h3.458l1.176-5.908h1.106a.831.831,0,0,1,.581.21.7.7,0,0,1,.231.546.96.96,0,0,1-.014.182L12.5-14.154H15.47l-.182,1.05a.884.884,0,0,1-.329.6,1.345,1.345,0,0,1-.791.189H12.236l-.91,4.564h2.506a.757.757,0,0,1,.518.161.731.731,0,0,1,.182.567q0,.07-.007.147T14.5-6.72l-.126.8ZM5.81-7.756H9.268l.91-4.564H6.72ZM31.038-20.062v2.212H21.406v7.014h8.232v2.212H21.406V0h-2.73V-20.062Zm15.848,0v2.212H37.254v7.014h8.232v2.212H37.254V0h-2.73V-20.062ZM61.628-18.97a1.2,1.2,0,0,1-.336.875,1.547,1.547,0,0,1-1.134.343h-6.3l-.924,5.264a13.9,13.9,0,0,1,2.9-.336,7.647,7.647,0,0,1,2.765.462,5.7,5.7,0,0,1,2.009,1.274A5.3,5.3,0,0,1,61.831-9.17a6.831,6.831,0,0,1,.413,2.408,7.161,7.161,0,0,1-.56,2.884,6.614,6.614,0,0,1-1.533,2.205A6.71,6.71,0,0,1,57.862-.266a8.081,8.081,0,0,1-2.842.49A8.021,8.021,0,0,1,53.326.049,8.547,8.547,0,0,1,51.814-.42a8.988,8.988,0,0,1-1.3-.672,7.527,7.527,0,0,1-1.064-.8L50.2-2.954a.78.78,0,0,1,.672-.364A1.248,1.248,0,0,1,51.5-3.1q.357.217.861.483a7.312,7.312,0,0,0,1.183.483,5.339,5.339,0,0,0,1.617.217,5.051,5.051,0,0,0,1.89-.336,4.021,4.021,0,0,0,1.435-.959A4.289,4.289,0,0,0,59.4-4.7a5.563,5.563,0,0,0,.322-1.946,4.962,4.962,0,0,0-.273-1.694,3.327,3.327,0,0,0-.826-1.288,3.789,3.789,0,0,0-1.379-.826,5.76,5.76,0,0,0-1.932-.294,10.227,10.227,0,0,0-1.568.126,10.949,10.949,0,0,0-1.68.406L50.5-10.682l1.624-9.38h9.506ZM80.752-4.144a.562.562,0,0,1,.406.182L82.222-2.8A8.583,8.583,0,0,1,79.233-.574,10.192,10.192,0,0,1,75,.224a9.97,9.97,0,0,1-3.934-.749,8.622,8.622,0,0,1-3.01-2.1,9.493,9.493,0,0,1-1.932-3.241,12.107,12.107,0,0,1-.686-4.158,11.38,11.38,0,0,1,.735-4.158,9.5,9.5,0,0,1,2.065-3.248,9.241,9.241,0,0,1,3.185-2.107,10.842,10.842,0,0,1,4.1-.749,9.657,9.657,0,0,1,3.815.686,9.641,9.641,0,0,1,2.849,1.862L81.3-16.492a.961.961,0,0,1-.224.231.616.616,0,0,1-.364.091.709.709,0,0,1-.385-.133q-.2-.133-.483-.329t-.658-.42a5.767,5.767,0,0,0-.9-.42,7.4,7.4,0,0,0-1.2-.329,8.381,8.381,0,0,0-1.582-.133,7.638,7.638,0,0,0-2.947.553,6.6,6.6,0,0,0-2.3,1.575,7.166,7.166,0,0,0-1.5,2.492,9.5,9.5,0,0,0-.539,3.29,9.679,9.679,0,0,0,.539,3.346,7.388,7.388,0,0,0,1.47,2.485,6.2,6.2,0,0,0,2.205,1.547,7.049,7.049,0,0,0,2.744.532,11.142,11.142,0,0,0,1.61-.105A6.612,6.612,0,0,0,78.1-2.548a5.6,5.6,0,0,0,1.134-.567,8.868,8.868,0,0,0,1.057-.819A.712.712,0,0,1,80.752-4.144Zm16.3-14.826a1.2,1.2,0,0,1-.336.875,1.547,1.547,0,0,1-1.134.343h-6.3l-.924,5.264a13.9,13.9,0,0,1,2.9-.336,7.648,7.648,0,0,1,2.765.462,5.7,5.7,0,0,1,2.009,1.274A5.3,5.3,0,0,1,97.251-9.17a6.831,6.831,0,0,1,.413,2.408,7.161,7.161,0,0,1-.56,2.884,6.614,6.614,0,0,1-1.533,2.205A6.71,6.71,0,0,1,93.282-.266a8.081,8.081,0,0,1-2.842.49A8.021,8.021,0,0,1,88.746.049,8.548,8.548,0,0,1,87.234-.42a8.988,8.988,0,0,1-1.3-.672,7.528,7.528,0,0,1-1.064-.8l.756-1.064a.78.78,0,0,1,.672-.364,1.248,1.248,0,0,1,.623.217q.357.217.861.483a7.312,7.312,0,0,0,1.183.483,5.339,5.339,0,0,0,1.617.217,5.051,5.051,0,0,0,1.89-.336A4.021,4.021,0,0,0,93.9-3.213,4.289,4.289,0,0,0,94.822-4.7a5.563,5.563,0,0,0,.322-1.946,4.962,4.962,0,0,0-.273-1.694,3.327,3.327,0,0,0-.826-1.288,3.789,3.789,0,0,0-1.379-.826,5.76,5.76,0,0,0-1.932-.294,10.227,10.227,0,0,0-1.568.126,10.949,10.949,0,0,0-1.68.406l-1.568-.462,1.624-9.38h9.506ZM102.032,0V-20.062h6.4a12.232,12.232,0,0,1,3.185.364,6.168,6.168,0,0,1,2.2,1.036,4.087,4.087,0,0,1,1.274,1.645,5.557,5.557,0,0,1,.413,2.191,4.445,4.445,0,0,1-.231,1.428,4.162,4.162,0,0,1-.7,1.274,4.949,4.949,0,0,1-1.176,1.05,6.551,6.551,0,0,1-1.659.756,6.186,6.186,0,0,1,3.318,1.582,4.145,4.145,0,0,1,1.12,3.024,5.635,5.635,0,0,1-.469,2.324,4.979,4.979,0,0,1-1.372,1.806,6.4,6.4,0,0,1-2.212,1.169A9.93,9.93,0,0,1,109.13,0Zm2.716-9.142v6.986h4.34a6.6,6.6,0,0,0,2-.266,3.72,3.72,0,0,0,1.372-.749,2.9,2.9,0,0,0,.791-1.148,4.1,4.1,0,0,0,.252-1.463,3.011,3.011,0,0,0-1.1-2.457,5.16,5.16,0,0,0-3.325-.9Zm0-1.932h3.584a6.958,6.958,0,0,0,1.988-.252,4.024,4.024,0,0,0,1.393-.7,2.737,2.737,0,0,0,.819-1.085A3.579,3.579,0,0,0,112.8-14.5a3.074,3.074,0,0,0-1.064-2.59,5.377,5.377,0,0,0-3.3-.826h-3.682Z" transform="translate(686.984 334)" fill="#9a9a9a"/>
    <path id="Large-5" data-name="Large" d="M11.06-5.922,9.884,0H8.75A.721.721,0,0,1,8.2-.238.862.862,0,0,1,7.98-.854a.743.743,0,0,1,.007-.1q.007-.049.021-.119L9-5.922H5.544L4.55-.952a1.138,1.138,0,0,1-.427.735A1.24,1.24,0,0,1,3.4,0H2.3l1.19-5.922H1.442a.735.735,0,0,1-.5-.161.71.71,0,0,1-.182-.553q0-.07.007-.154t.021-.168l.112-.8H3.752l.91-4.564H1.414L1.6-13.356a.926.926,0,0,1,.322-.6,1.3,1.3,0,0,1,.8-.2H4.928l1.008-5.012a1.075,1.075,0,0,1,.385-.658,1.127,1.127,0,0,1,.721-.238h1.12L6.986-14.154h3.458l1.176-5.908h1.106a.831.831,0,0,1,.581.21.7.7,0,0,1,.231.546.96.96,0,0,1-.014.182L12.5-14.154H15.47l-.182,1.05a.884.884,0,0,1-.329.6,1.345,1.345,0,0,1-.791.189H12.236l-.91,4.564h2.506a.757.757,0,0,1,.518.161.731.731,0,0,1,.182.567q0,.07-.007.147T14.5-6.72l-.126.8ZM5.81-7.756H9.268l.91-4.564H6.72ZM31.038-20.062v2.212H21.406v7.014h8.232v2.212H21.406V0h-2.73V-20.062Zm15.848,0v2.212H37.254v7.014h8.232v2.212H37.254V0h-2.73V-20.062Zm8.736,11.83a6.107,6.107,0,0,1-2.149-.378,5.169,5.169,0,0,1-1.785-1.113,5.353,5.353,0,0,1-1.225-1.806,6.236,6.236,0,0,1-.455-2.457,6.21,6.21,0,0,1,.49-2.464,6.077,6.077,0,0,1,1.372-2,6.432,6.432,0,0,1,2.1-1.344,7.1,7.1,0,0,1,2.674-.49,6.919,6.919,0,0,1,2.618.476,5.888,5.888,0,0,1,2.016,1.33,5.858,5.858,0,0,1,1.3,2.044,7.315,7.315,0,0,1,.455,2.632,8.1,8.1,0,0,1-.161,1.645A8.4,8.4,0,0,1,62.4-10.64a12.422,12.422,0,0,1-.735,1.477q-.427.735-.973,1.519L55.8-.588a1.28,1.28,0,0,1-.518.427,1.761,1.761,0,0,1-.77.161h-2.3l6.1-7.994q.308-.406.574-.77t.5-.728a5.577,5.577,0,0,1-1.736.938A6.421,6.421,0,0,1,55.622-8.232ZM60.634-14.1a4.6,4.6,0,0,0-.3-1.7,3.751,3.751,0,0,0-.833-1.3,3.641,3.641,0,0,0-1.267-.819,4.409,4.409,0,0,0-1.617-.287,4.56,4.56,0,0,0-1.687.3,3.826,3.826,0,0,0-1.3.833,3.66,3.66,0,0,0-.833,1.274,4.37,4.37,0,0,0-.294,1.624,4.946,4.946,0,0,0,.273,1.7,3.465,3.465,0,0,0,.784,1.267,3.3,3.3,0,0,0,1.246.784,4.808,4.808,0,0,0,1.645.266,4.544,4.544,0,0,0,1.785-.329,3.953,3.953,0,0,0,1.309-.875,3.748,3.748,0,0,0,.812-1.26A4.029,4.029,0,0,0,60.634-14.1Zm18.34-5.964v2.212H69.342v6.664h7.8v2.128h-7.8v6.846h9.632V0H66.612V-20.062ZM93.086-7.238h3.038V-5.81a.558.558,0,0,1-.133.378.517.517,0,0,1-.413.154H93.086V0h-2.2V-5.278H82a.754.754,0,0,1-.483-.161.705.705,0,0,1-.259-.4L81-7.112l9.758-12.95h2.324Zm-2.2-8.274q0-.364.021-.784A8.315,8.315,0,0,1,91-17.164L83.706-7.238h7.182Zm21.2,5.488a16.228,16.228,0,0,1-.567,4.557,9.519,9.519,0,0,1-1.547,3.185,6.216,6.216,0,0,1-2.317,1.876A6.759,6.759,0,0,1,104.79.21a6.7,6.7,0,0,1-2.863-.616,6.248,6.248,0,0,1-2.3-1.876,9.425,9.425,0,0,1-1.54-3.185,16.419,16.419,0,0,1-.56-4.557,16.5,16.5,0,0,1,.56-4.564,9.5,9.5,0,0,1,1.54-3.2,6.223,6.223,0,0,1,2.3-1.883,6.7,6.7,0,0,1,2.863-.616,6.759,6.759,0,0,1,2.863.616,6.191,6.191,0,0,1,2.317,1.883,9.6,9.6,0,0,1,1.547,3.2A16.3,16.3,0,0,1,112.084-10.024Zm-2.59,0a16.4,16.4,0,0,0-.385-3.857,7.733,7.733,0,0,0-1.036-2.513,3.911,3.911,0,0,0-1.5-1.365,4.036,4.036,0,0,0-1.778-.413,4.036,4.036,0,0,0-1.778.413,3.862,3.862,0,0,0-1.5,1.365,7.839,7.839,0,0,0-1.029,2.513,16.4,16.4,0,0,0-.385,3.857,16.306,16.306,0,0,0,.385,3.85,7.839,7.839,0,0,0,1.029,2.506,3.862,3.862,0,0,0,1.5,1.365,4.036,4.036,0,0,0,1.778.413,4.036,4.036,0,0,0,1.778-.413,3.911,3.911,0,0,0,1.5-1.365,7.733,7.733,0,0,0,1.036-2.506A16.307,16.307,0,0,0,109.494-10.024Z" transform="translate(971.984 175)" fill="#9a9a9a"/>
    <path id="Large-6" data-name="Large" d="M11.06-5.922,9.884,0H8.75A.721.721,0,0,1,8.2-.238.862.862,0,0,1,7.98-.854a.743.743,0,0,1,.007-.1q.007-.049.021-.119L9-5.922H5.544L4.55-.952a1.138,1.138,0,0,1-.427.735A1.24,1.24,0,0,1,3.4,0H2.3l1.19-5.922H1.442a.735.735,0,0,1-.5-.161.71.71,0,0,1-.182-.553q0-.07.007-.154t.021-.168l.112-.8H3.752l.91-4.564H1.414L1.6-13.356a.926.926,0,0,1,.322-.6,1.3,1.3,0,0,1,.8-.2H4.928l1.008-5.012a1.075,1.075,0,0,1,.385-.658,1.127,1.127,0,0,1,.721-.238h1.12L6.986-14.154h3.458l1.176-5.908h1.106a.831.831,0,0,1,.581.21.7.7,0,0,1,.231.546.96.96,0,0,1-.014.182L12.5-14.154H15.47l-.182,1.05a.884.884,0,0,1-.329.6,1.345,1.345,0,0,1-.791.189H12.236l-.91,4.564h2.506a.757.757,0,0,1,.518.161.731.731,0,0,1,.182.567q0,.07-.007.147T14.5-6.72l-.126.8ZM5.81-7.756H9.268l.91-4.564H6.72Zm18.844-12.53a7.312,7.312,0,0,1,2.38.378,5.485,5.485,0,0,1,1.911,1.1,5.13,5.13,0,0,1,1.267,1.757,5.718,5.718,0,0,1,.462,2.352,6.185,6.185,0,0,1-.336,2.072,8.451,8.451,0,0,1-.91,1.827A13.418,13.418,0,0,1,28.1-9.107q-.749.819-1.589,1.673l-5.278,5.4a10.436,10.436,0,0,1,1.134-.245,7.065,7.065,0,0,1,1.106-.091H30.2a.87.87,0,0,1,.644.238.834.834,0,0,1,.238.616V0H17.7V-.854A1.55,1.55,0,0,1,17.8-1.4a1.455,1.455,0,0,1,.343-.518L24.57-8.372q.8-.812,1.456-1.561a11.379,11.379,0,0,0,1.127-1.5,7.012,7.012,0,0,0,.721-1.533,5.346,5.346,0,0,0,.252-1.659,3.962,3.962,0,0,0-.28-1.547,2.993,2.993,0,0,0-.77-1.1,3.239,3.239,0,0,0-1.148-.651,4.488,4.488,0,0,0-1.414-.217,4.234,4.234,0,0,0-1.4.224,3.8,3.8,0,0,0-1.141.623,3.783,3.783,0,0,0-.84.945,3.685,3.685,0,0,0-.483,1.2,1.116,1.116,0,0,1-.336.588.9.9,0,0,1-.588.182q-.07,0-.147-.007t-.175-.021l-1.3-.224a7.379,7.379,0,0,1,.756-2.429,5.79,5.79,0,0,1,1.421-1.771,6.064,6.064,0,0,1,1.974-1.085A7.547,7.547,0,0,1,24.654-20.286ZM40.586.224a8.961,8.961,0,0,1-2.744-.4A6.355,6.355,0,0,1,35.7-1.316a5.083,5.083,0,0,1-1.386-1.8,5.577,5.577,0,0,1-.49-2.373,4.92,4.92,0,0,1,1.008-3.185,5.5,5.5,0,0,1,2.884-1.785,4.836,4.836,0,0,1-2.387-1.757,4.8,4.8,0,0,1-.805-2.793,5,5,0,0,1,.434-2.072,4.959,4.959,0,0,1,1.232-1.68A5.821,5.821,0,0,1,38.1-19.88a7.21,7.21,0,0,1,2.485-.406,7.226,7.226,0,0,1,2.478.406,5.808,5.808,0,0,1,1.918,1.12,4.959,4.959,0,0,1,1.232,1.68,5,5,0,0,1,.434,2.072,4.773,4.773,0,0,1-.812,2.793,4.88,4.88,0,0,1-2.38,1.757A5.5,5.5,0,0,1,46.34-8.673a4.92,4.92,0,0,1,1.008,3.185,5.51,5.51,0,0,1-.5,2.373,5.192,5.192,0,0,1-1.386,1.8A6.277,6.277,0,0,1,43.33-.175,8.961,8.961,0,0,1,40.586.224Zm0-1.988a5.28,5.28,0,0,0,1.757-.273,3.743,3.743,0,0,0,1.316-.77A3.331,3.331,0,0,0,44.485-4a3.969,3.969,0,0,0,.287-1.533A4.163,4.163,0,0,0,44.429-7.3a3.261,3.261,0,0,0-.924-1.2,3.813,3.813,0,0,0-1.337-.679,5.706,5.706,0,0,0-1.582-.217A5.706,5.706,0,0,0,39-9.177a3.813,3.813,0,0,0-1.337.679,3.261,3.261,0,0,0-.924,1.2A4.163,4.163,0,0,0,36.4-5.53,3.969,3.969,0,0,0,36.687-4a3.331,3.331,0,0,0,.826,1.19,3.743,3.743,0,0,0,1.316.77A5.28,5.28,0,0,0,40.586-1.764Zm0-9.632a4.188,4.188,0,0,0,1.673-.3,3.114,3.114,0,0,0,1.127-.8,3.075,3.075,0,0,0,.63-1.141,4.543,4.543,0,0,0,.2-1.33,3.717,3.717,0,0,0-.231-1.316,3.039,3.039,0,0,0-.686-1.078,3.208,3.208,0,0,0-1.134-.728,4.3,4.3,0,0,0-1.575-.266,4.3,4.3,0,0,0-1.575.266,3.208,3.208,0,0,0-1.134.728,3.039,3.039,0,0,0-.686,1.078,3.717,3.717,0,0,0-.231,1.316,4.543,4.543,0,0,0,.2,1.33,3.075,3.075,0,0,0,.63,1.141,3.114,3.114,0,0,0,1.127.8A4.188,4.188,0,0,0,40.586-11.4Zm16.548-8.89a7.312,7.312,0,0,1,2.38.378,5.485,5.485,0,0,1,1.911,1.1,5.13,5.13,0,0,1,1.267,1.757,5.718,5.718,0,0,1,.462,2.352,6.185,6.185,0,0,1-.336,2.072,8.451,8.451,0,0,1-.91,1.827,13.418,13.418,0,0,1-1.323,1.694Q59.836-8.288,59-7.434l-5.278,5.4a10.436,10.436,0,0,1,1.134-.245,7.065,7.065,0,0,1,1.106-.091h6.72a.87.87,0,0,1,.644.238.834.834,0,0,1,.238.616V0H50.176V-.854a1.55,1.55,0,0,1,.1-.546,1.455,1.455,0,0,1,.343-.518L57.05-8.372q.8-.812,1.456-1.561a11.379,11.379,0,0,0,1.127-1.5,7.012,7.012,0,0,0,.721-1.533,5.346,5.346,0,0,0,.252-1.659,3.962,3.962,0,0,0-.28-1.547,2.993,2.993,0,0,0-.77-1.1,3.239,3.239,0,0,0-1.148-.651,4.488,4.488,0,0,0-1.414-.217,4.234,4.234,0,0,0-1.4.224,3.8,3.8,0,0,0-1.141.623,3.783,3.783,0,0,0-.84.945,3.685,3.685,0,0,0-.483,1.2,1.115,1.115,0,0,1-.336.588.9.9,0,0,1-.588.182q-.07,0-.147-.007t-.175-.021l-1.3-.224a7.379,7.379,0,0,1,.756-2.429,5.79,5.79,0,0,1,1.421-1.771,6.064,6.064,0,0,1,1.974-1.085A7.547,7.547,0,0,1,57.134-20.286Zm16.506,0a7.31,7.31,0,0,1,2.352.364,5.478,5.478,0,0,1,1.855,1.036,4.694,4.694,0,0,1,1.211,1.624,5.037,5.037,0,0,1,.434,2.114,5.462,5.462,0,0,1-.245,1.7,4.133,4.133,0,0,1-.7,1.316,4.185,4.185,0,0,1-1.1.959,6.127,6.127,0,0,1-1.442.63,5.444,5.444,0,0,1,2.947,1.736,4.691,4.691,0,0,1,.987,3.052,5.74,5.74,0,0,1-.525,2.492A5.605,5.605,0,0,1,77.98-1.379a6.42,6.42,0,0,1-2.121,1.19,7.993,7.993,0,0,1-2.6.413,8.26,8.26,0,0,1-2.73-.4,5.662,5.662,0,0,1-1.918-1.1,5.851,5.851,0,0,1-1.288-1.659,12.424,12.424,0,0,1-.854-2.079l1.064-.448a1.482,1.482,0,0,1,.588-.126,1.017,1.017,0,0,1,.5.119.757.757,0,0,1,.329.371q.028.056.056.119t.056.133q.2.406.476.917a3.886,3.886,0,0,0,.756.959,4.089,4.089,0,0,0,1.183.756,4.406,4.406,0,0,0,1.757.308,4.6,4.6,0,0,0,1.841-.343,4.012,4.012,0,0,0,1.316-.889,3.725,3.725,0,0,0,.791-1.218,3.594,3.594,0,0,0,.266-1.33,4.81,4.81,0,0,0-.217-1.484,2.555,2.555,0,0,0-.784-1.162,4.036,4.036,0,0,0-1.568-.77,9.766,9.766,0,0,0-2.569-.28v-1.806a8.093,8.093,0,0,0,2.177-.28,4.244,4.244,0,0,0,1.477-.728A2.7,2.7,0,0,0,76.8-13.3a3.8,3.8,0,0,0,.259-1.428,3.853,3.853,0,0,0-.273-1.512,2.905,2.905,0,0,0-.749-1.064,3.134,3.134,0,0,0-1.127-.63,4.558,4.558,0,0,0-1.407-.21,4.234,4.234,0,0,0-1.4.224,3.8,3.8,0,0,0-1.141.623,3.622,3.622,0,0,0-.833.952,4.459,4.459,0,0,0-.5,1.2,1.116,1.116,0,0,1-.336.588.881.881,0,0,1-.574.182q-.07,0-.147-.007t-.175-.021l-1.3-.224a7.379,7.379,0,0,1,.756-2.429,5.79,5.79,0,0,1,1.421-1.771,6.064,6.064,0,0,1,1.974-1.085A7.547,7.547,0,0,1,73.64-20.286Zm15.974,0a7.311,7.311,0,0,1,2.38.378,5.485,5.485,0,0,1,1.911,1.1,5.13,5.13,0,0,1,1.267,1.757,5.718,5.718,0,0,1,.462,2.352,6.185,6.185,0,0,1-.336,2.072,8.451,8.451,0,0,1-.91,1.827,13.418,13.418,0,0,1-1.323,1.694q-.749.819-1.589,1.673L86.2-2.03a10.436,10.436,0,0,1,1.134-.245,7.065,7.065,0,0,1,1.106-.091h6.72a.87.87,0,0,1,.644.238.833.833,0,0,1,.238.616V0H82.656V-.854a1.55,1.55,0,0,1,.1-.546,1.455,1.455,0,0,1,.343-.518L89.53-8.372q.8-.812,1.456-1.561a11.379,11.379,0,0,0,1.127-1.5,7.012,7.012,0,0,0,.721-1.533,5.346,5.346,0,0,0,.252-1.659,3.962,3.962,0,0,0-.28-1.547,2.993,2.993,0,0,0-.77-1.1,3.239,3.239,0,0,0-1.148-.651,4.488,4.488,0,0,0-1.414-.217,4.234,4.234,0,0,0-1.4.224,3.8,3.8,0,0,0-1.141.623,3.783,3.783,0,0,0-.84.945,3.685,3.685,0,0,0-.483,1.2,1.116,1.116,0,0,1-.336.588.9.9,0,0,1-.588.182q-.07,0-.147-.007t-.175-.021l-1.3-.224a7.38,7.38,0,0,1,.756-2.429,5.79,5.79,0,0,1,1.421-1.771,6.064,6.064,0,0,1,1.974-1.085A7.547,7.547,0,0,1,89.614-20.286ZM110.082-7.238h3.038V-5.81a.558.558,0,0,1-.133.378.517.517,0,0,1-.413.154h-2.492V0h-2.2V-5.278h-8.89a.754.754,0,0,1-.483-.161.705.705,0,0,1-.259-.4L98-7.112l9.758-12.95h2.324Zm-2.2-8.274q0-.364.021-.784a8.315,8.315,0,0,1,.091-.868L100.7-7.238h7.182Z" transform="translate(971.984 334)" fill="#9a9a9a"/>
  </g>
</svg>
