<svg xmlns="http://www.w3.org/2000/svg" xmlns:xlink="http://www.w3.org/1999/xlink" width="1203" height="444" viewBox="0 0 1203 444"><defs><clipPath id="clip-step1"><rect width="1203" height="444"/></clipPath></defs><g id="step1" clip-path="url(#clip-step1)"><g id="Groupe_4507" data-name="Groupe 4507" transform="translate(-5847 -1495)"><path id="Large" fill="#9a9a9a" d="M-29.274-2.282h8.68V0h-11.4V-20.062h2.716ZM-7.574,0H-8.68a1.32,1.32,0,0,1-.588-.112.619.619,0,0,1-.294-.476L-9.842-1.9q-.56.5-1.092.9a6.25,6.25,0,0,1-1.12.672,5.8,5.8,0,0,1-1.253.413,7.186,7.186,0,0,1-1.477.14,5.042,5.042,0,0,1-1.547-.231A3.527,3.527,0,0,1-17.584-.7a3.3,3.3,0,0,1-.847-1.169,4.085,4.085,0,0,1-.315-1.673,3.12,3.12,0,0,1,.462-1.617,4.06,4.06,0,0,1,1.491-1.379,9.713,9.713,0,0,1,2.7-.987,20.532,20.532,0,0,1,4.074-.441V-9.072a3.818,3.818,0,0,0-.707-2.5,2.571,2.571,0,0,0-2.093-.847,4.437,4.437,0,0,0-1.533.231,5.8,5.8,0,0,0-1.078.518q-.455.287-.784.518a1.131,1.131,0,0,1-.651.231.747.747,0,0,1-.441-.133,1.013,1.013,0,0,1-.3-.329l-.448-.8a8.1,8.1,0,0,1,2.534-1.694,7.824,7.824,0,0,1,3.01-.56,5.371,5.371,0,0,1,2.114.392A4.335,4.335,0,0,1-8.848-12.95,4.625,4.625,0,0,1-7.9-11.256a7.055,7.055,0,0,1,.322,2.184Zm-6.468-1.526a5.087,5.087,0,0,0,1.2-.133,4.752,4.752,0,0,0,1.029-.378,5.453,5.453,0,0,0,.924-.595,8.005,8.005,0,0,0,.861-.8V-6.384a20.593,20.593,0,0,0-2.926.273,8.207,8.207,0,0,0-1.96.567,2.73,2.73,0,0,0-1.1.826,1.777,1.777,0,0,0-.343,1.064,2.348,2.348,0,0,0,.182.966,1.831,1.831,0,0,0,.49.665,1.934,1.934,0,0,0,.728.378A3.327,3.327,0,0,0-14.042-1.526ZM-3.794,0V-14.182h1.428a.788.788,0,0,1,.56.154.945.945,0,0,1,.21.532l.168,2.212A6.487,6.487,0,0,1,.371-13.6a3.974,3.974,0,0,1,2.513-.833,3.952,3.952,0,0,1,1.064.133,3.709,3.709,0,0,1,.882.371l-.322,1.862a.421.421,0,0,1-.434.35,2.178,2.178,0,0,1-.6-.133,3.8,3.8,0,0,0-1.134-.133,3.212,3.212,0,0,0-2.177.756A5.675,5.675,0,0,0-1.3-9.03V0ZM12.264-14.42a7.054,7.054,0,0,1,1.729.2,5.438,5.438,0,0,1,1.463.595h3.85v.924q0,.462-.588.588l-1.61.224a4.313,4.313,0,0,1,.476,2.03,4.364,4.364,0,0,1-.4,1.883,4.272,4.272,0,0,1-1.106,1.449A4.964,4.964,0,0,1,14.4-5.6a6.762,6.762,0,0,1-2.135.322,7.174,7.174,0,0,1-1.876-.238,2.357,2.357,0,0,0-.679.6,1.083,1.083,0,0,0-.231.63.848.848,0,0,0,.406.763,2.887,2.887,0,0,0,1.078.371,11.684,11.684,0,0,0,1.526.14q.854.028,1.743.091a16.313,16.313,0,0,1,1.743.217,5.334,5.334,0,0,1,1.526.5,2.836,2.836,0,0,1,1.078.966,2.851,2.851,0,0,1,.406,1.6,3.706,3.706,0,0,1-.455,1.764A4.773,4.773,0,0,1,17.22,3.647a6.745,6.745,0,0,1-2.086,1.064,9.024,9.024,0,0,1-2.786.4A10.75,10.75,0,0,1,9.625,4.8a6.369,6.369,0,0,1-1.939-.826,3.6,3.6,0,0,1-1.155-1.2,2.841,2.841,0,0,1-.385-1.421A2.566,2.566,0,0,1,6.811-.427,4.561,4.561,0,0,1,8.638-1.6a2.5,2.5,0,0,1-.959-.749A2.018,2.018,0,0,1,7.322-3.6a1.972,1.972,0,0,1,.112-.637,2.5,2.5,0,0,1,.343-.651A3.651,3.651,0,0,1,8.344-5.5a3.687,3.687,0,0,1,.784-.518A4.413,4.413,0,0,1,7.483-7.581a4.273,4.273,0,0,1-.6-2.275,4.364,4.364,0,0,1,.4-1.883A4.164,4.164,0,0,1,8.4-13.181a5.091,5.091,0,0,1,1.7-.917A6.941,6.941,0,0,1,12.264-14.42ZM16.688.77a1.217,1.217,0,0,0-.294-.854,1.9,1.9,0,0,0-.8-.5A5.791,5.791,0,0,0,14.434-.84q-.658-.084-1.386-.119t-1.484-.077a13.653,13.653,0,0,1-1.442-.154,4.092,4.092,0,0,0-1.295.924,1.868,1.868,0,0,0-.5,1.3,1.713,1.713,0,0,0,.245.889,2.088,2.088,0,0,0,.749.714,4.385,4.385,0,0,0,1.267.476,8.128,8.128,0,0,0,1.8.175A8.153,8.153,0,0,0,14.2,3.108a4.534,4.534,0,0,0,1.351-.518,2.543,2.543,0,0,0,.847-.8A1.865,1.865,0,0,0,16.688.77Zm-4.424-7.7A3.923,3.923,0,0,0,13.6-7.14a2.7,2.7,0,0,0,.973-.588,2.4,2.4,0,0,0,.588-.9,3.279,3.279,0,0,0,.2-1.155,2.759,2.759,0,0,0-.791-2.072,3.171,3.171,0,0,0-2.3-.77,3.15,3.15,0,0,0-2.289.77,2.759,2.759,0,0,0-.791,2.072,3.177,3.177,0,0,0,.2,1.155,2.479,2.479,0,0,0,.6.9,2.713,2.713,0,0,0,.966.588A3.817,3.817,0,0,0,12.264-6.93Zm15.148-7.476a6.331,6.331,0,0,1,2.352.427,5.279,5.279,0,0,1,1.862,1.232,5.617,5.617,0,0,1,1.225,1.988,7.68,7.68,0,0,1,.441,2.7,1.625,1.625,0,0,1-.126.784.523.523,0,0,1-.476.2H23.254a7.83,7.83,0,0,0,.364,2.338,4.781,4.781,0,0,0,.924,1.659,3.7,3.7,0,0,0,1.4.994,4.808,4.808,0,0,0,1.82.329,5.339,5.339,0,0,0,1.617-.217,7.693,7.693,0,0,0,1.169-.469,8.917,8.917,0,0,0,.819-.469,1.086,1.086,0,0,1,.567-.217.548.548,0,0,1,.476.238l.7.91A4.733,4.733,0,0,1,32-1.015a6.886,6.886,0,0,1-1.379.679,8.759,8.759,0,0,1-1.519.4A9.278,9.278,0,0,1,27.552.2a7.211,7.211,0,0,1-2.709-.5A5.946,5.946,0,0,1,22.7-1.757,6.679,6.679,0,0,1,21.294-4.13a9.649,9.649,0,0,1-.5-3.248,8.264,8.264,0,0,1,.455-2.772,6.534,6.534,0,0,1,1.309-2.233,6.026,6.026,0,0,1,2.086-1.484A6.848,6.848,0,0,1,27.412-14.406Zm.056,1.834a3.826,3.826,0,0,0-2.842,1.043,4.909,4.909,0,0,0-1.288,2.891h7.714a5.046,5.046,0,0,0-.238-1.589,3.541,3.541,0,0,0-.7-1.246,3.133,3.133,0,0,0-1.127-.812A3.8,3.8,0,0,0,27.468-12.572Z" transform="translate(5992.984 1928)"/><path id="Medium" fill="#9a9a9a" d="M-38.6-7.252a5.209,5.209,0,0,1,.343.707q.147.371.287.749.14-.392.294-.749t.35-.721l6.79-12.334a.806.806,0,0,1,.378-.392,1.741,1.741,0,0,1,.56-.07h2V0h-2.38V-14.742q0-.294.014-.63t.042-.686L-36.792-3.514a1.079,1.079,0,0,1-.98.63h-.392a1.079,1.079,0,0,1-.98-.63L-46.172-16.1q.042.364.063.714t.021.644V0h-2.38V-20.062h2a1.741,1.741,0,0,1,.56.07.806.806,0,0,1,.378.392Zm21.112-7.154a6.331,6.331,0,0,1,2.352.427,5.279,5.279,0,0,1,1.862,1.232,5.617,5.617,0,0,1,1.225,1.988,7.68,7.68,0,0,1,.441,2.7,1.625,1.625,0,0,1-.126.784.523.523,0,0,1-.476.2h-9.436a7.83,7.83,0,0,0,.364,2.338,4.781,4.781,0,0,0,.924,1.659,3.7,3.7,0,0,0,1.4.994,4.808,4.808,0,0,0,1.82.329,5.339,5.339,0,0,0,1.617-.217A7.693,7.693,0,0,0-14.35-2.45a8.917,8.917,0,0,0,.819-.469,1.086,1.086,0,0,1,.567-.217.548.548,0,0,1,.476.238l.7.91a4.733,4.733,0,0,1-1.106.973,6.886,6.886,0,0,1-1.379.679,8.759,8.759,0,0,1-1.519.4A9.278,9.278,0,0,1-17.346.2a7.211,7.211,0,0,1-2.709-.5A5.946,5.946,0,0,1-22.2-1.757,6.679,6.679,0,0,1-23.6-4.13a9.649,9.649,0,0,1-.5-3.248,8.264,8.264,0,0,1,.455-2.772,6.534,6.534,0,0,1,1.309-2.233,6.026,6.026,0,0,1,2.086-1.484A6.848,6.848,0,0,1-17.486-14.406Zm.056,1.834a3.826,3.826,0,0,0-2.842,1.043A4.909,4.909,0,0,0-21.56-8.638h7.714a5.046,5.046,0,0,0-.238-1.589,3.541,3.541,0,0,0-.7-1.246,3.133,3.133,0,0,0-1.127-.812A3.8,3.8,0,0,0-17.43-12.572ZM1.554,0A.635.635,0,0,1,.882-.518L.658-2.24A7.465,7.465,0,0,1-1.421-.469,5.326,5.326,0,0,1-4.1.2,5.119,5.119,0,0,1-6.314-.273,4.587,4.587,0,0,1-8.008-1.652,6.568,6.568,0,0,1-9.086-3.92a11.676,11.676,0,0,1-.378-3.122,9.786,9.786,0,0,1,.42-2.919,7.114,7.114,0,0,1,1.211-2.345,5.676,5.676,0,0,1,1.925-1.561,5.682,5.682,0,0,1,2.576-.567,5.132,5.132,0,0,1,2.226.441A5.337,5.337,0,0,1,.546-12.754v-7.868H3.038V0Zm-4.83-1.82a4.014,4.014,0,0,0,2.135-.56A6.154,6.154,0,0,0,.546-3.962v-6.86A3.943,3.943,0,0,0-.959-12.117a4.343,4.343,0,0,0-1.813-.371,3.59,3.59,0,0,0-3.052,1.414A6.6,6.6,0,0,0-6.888-7.042,10.253,10.253,0,0,0-6.65-4.669a4.566,4.566,0,0,0,.7,1.624,2.751,2.751,0,0,0,1.134.931A3.809,3.809,0,0,0-3.276-1.82ZM10-14.182V0H7.5V-14.182Zm.56-4.452a1.586,1.586,0,0,1-.147.679,1.955,1.955,0,0,1-.392.56,1.821,1.821,0,0,1-.567.385,1.7,1.7,0,0,1-.686.14,1.653,1.653,0,0,1-.679-.14,1.846,1.846,0,0,1-.56-.385,1.846,1.846,0,0,1-.385-.56A1.653,1.653,0,0,1,7-18.634a1.752,1.752,0,0,1,.14-.693,1.8,1.8,0,0,1,.385-.574,1.846,1.846,0,0,1,.56-.385,1.653,1.653,0,0,1,.679-.14,1.7,1.7,0,0,1,.686.14,1.821,1.821,0,0,1,.567.385,1.9,1.9,0,0,1,.392.574A1.68,1.68,0,0,1,10.556-18.634Zm5.992,4.452v9.044a3.763,3.763,0,0,0,.742,2.492,2.762,2.762,0,0,0,2.24.882,4.291,4.291,0,0,0,2.058-.518,6.4,6.4,0,0,0,1.778-1.442V-14.182h2.492V0H24.374A.635.635,0,0,1,23.7-.518l-.2-1.526A7.8,7.8,0,0,1,21.434-.4,5.43,5.43,0,0,1,18.8.224a5.121,5.121,0,0,1-2.051-.385A4.066,4.066,0,0,1,15.26-1.246a4.608,4.608,0,0,1-.9-1.694,7.563,7.563,0,0,1-.3-2.2v-9.044ZM29.96,0V-14.182h1.484a.635.635,0,0,1,.672.518l.182,1.456a7.276,7.276,0,0,1,1.757-1.582,4.136,4.136,0,0,1,2.261-.616,3.357,3.357,0,0,1,2.331.8,4.489,4.489,0,0,1,1.281,2.156,4.438,4.438,0,0,1,.777-1.33,4.513,4.513,0,0,1,1.085-.924,4.6,4.6,0,0,1,1.281-.532,5.72,5.72,0,0,1,1.379-.168,5.244,5.244,0,0,1,1.995.357,3.95,3.95,0,0,1,1.484,1.043,4.646,4.646,0,0,1,.931,1.687,7.47,7.47,0,0,1,.322,2.289V0H46.69V-9.03a3.822,3.822,0,0,0-.728-2.527,2.614,2.614,0,0,0-2.114-.861,3.171,3.171,0,0,0-1.169.217,2.817,2.817,0,0,0-.973.637,2.986,2.986,0,0,0-.665,1.057A4.1,4.1,0,0,0,40.8-9.03V0H38.3V-9.03a3.973,3.973,0,0,0-.686-2.548,2.434,2.434,0,0,0-2-.84,3.163,3.163,0,0,0-1.715.5,5.615,5.615,0,0,0-1.449,1.351V0Z" transform="translate(6448.736 1928)"/><path id="Small" fill="#9a9a9a" d="M-20.468-16.926a1.085,1.085,0,0,1-.266.315.591.591,0,0,1-.364.1.969.969,0,0,1-.553-.238,8.814,8.814,0,0,0-.8-.525,6.476,6.476,0,0,0-1.162-.525,5,5,0,0,0-1.645-.238,4.864,4.864,0,0,0-1.61.245,3.423,3.423,0,0,0-1.169.665,2.73,2.73,0,0,0-.707.987,3.133,3.133,0,0,0-.238,1.225,2.264,2.264,0,0,0,.413,1.393,3.558,3.558,0,0,0,1.092.945,8.366,8.366,0,0,0,1.54.679q.861.287,1.764.6t1.764.693a6.2,6.2,0,0,1,1.54.973A4.436,4.436,0,0,1-19.775-8.19a4.8,4.8,0,0,1,.413,2.1,6.773,6.773,0,0,1-.448,2.471A5.7,5.7,0,0,1-21.119-1.61,6.124,6.124,0,0,1-23.233-.266a7.776,7.776,0,0,1-2.849.49,8.7,8.7,0,0,1-3.549-.707,8.325,8.325,0,0,1-2.737-1.911l.784-1.288a1.031,1.031,0,0,1,.273-.259.64.64,0,0,1,.357-.1,1.114,1.114,0,0,1,.672.315,11.2,11.2,0,0,0,.945.693,7.218,7.218,0,0,0,1.372.693A5.415,5.415,0,0,0-26-2.03,5.172,5.172,0,0,0-24.276-2.3a3.657,3.657,0,0,0,1.281-.749A3.245,3.245,0,0,0-22.19-4.2a3.86,3.86,0,0,0,.28-1.5,2.514,2.514,0,0,0-.413-1.491,3.424,3.424,0,0,0-1.085-.973,7.584,7.584,0,0,0-1.533-.665l-1.764-.56a17.788,17.788,0,0,1-1.764-.665A5.733,5.733,0,0,1-30-11.032a4.5,4.5,0,0,1-1.085-1.505A5.36,5.36,0,0,1-31.5-14.77a5.314,5.314,0,0,1,.413-2.058,5.3,5.3,0,0,1,1.2-1.764,5.8,5.8,0,0,1,1.939-1.232,7.1,7.1,0,0,1,2.653-.462,8.492,8.492,0,0,1,3.066.532,7.061,7.061,0,0,1,2.422,1.54ZM-16.3,0V-14.182h1.484a.635.635,0,0,1,.672.518l.182,1.456A7.276,7.276,0,0,1-12.2-13.79a4.136,4.136,0,0,1,2.261-.616,3.357,3.357,0,0,1,2.331.8,4.489,4.489,0,0,1,1.281,2.156,4.438,4.438,0,0,1,.777-1.33,4.513,4.513,0,0,1,1.085-.924,4.6,4.6,0,0,1,1.281-.532,5.72,5.72,0,0,1,1.379-.168,5.244,5.244,0,0,1,2,.357,3.95,3.95,0,0,1,1.484,1.043A4.646,4.646,0,0,1,2.6-11.319,7.47,7.47,0,0,1,2.926-9.03V0H.434V-9.03a3.822,3.822,0,0,0-.728-2.527,2.614,2.614,0,0,0-2.114-.861,3.171,3.171,0,0,0-1.169.217,2.817,2.817,0,0,0-.973.637,2.986,2.986,0,0,0-.665,1.057A4.1,4.1,0,0,0-5.46-9.03V0H-7.952V-9.03a3.973,3.973,0,0,0-.686-2.548,2.434,2.434,0,0,0-2-.84,3.163,3.163,0,0,0-1.715.5A5.615,5.615,0,0,0-13.8-10.57V0Zm33.4,0H16a1.32,1.32,0,0,1-.588-.112.619.619,0,0,1-.294-.476L14.84-1.9q-.56.5-1.092.9a6.25,6.25,0,0,1-1.12.672,5.8,5.8,0,0,1-1.253.413A7.186,7.186,0,0,1,9.9.224,5.042,5.042,0,0,1,8.351-.007,3.527,3.527,0,0,1,7.1-.7a3.3,3.3,0,0,1-.847-1.169,4.085,4.085,0,0,1-.315-1.673A3.12,3.12,0,0,1,6.4-5.159,4.06,4.06,0,0,1,7.889-6.538a9.713,9.713,0,0,1,2.695-.987,20.532,20.532,0,0,1,4.074-.441V-9.072a3.818,3.818,0,0,0-.707-2.5,2.571,2.571,0,0,0-2.093-.847,4.437,4.437,0,0,0-1.533.231,5.8,5.8,0,0,0-1.078.518q-.455.287-.784.518a1.131,1.131,0,0,1-.651.231.747.747,0,0,1-.441-.133,1.013,1.013,0,0,1-.3-.329l-.448-.8a8.1,8.1,0,0,1,2.534-1.694,7.824,7.824,0,0,1,3.01-.56,5.371,5.371,0,0,1,2.114.392,4.335,4.335,0,0,1,1.554,1.092,4.625,4.625,0,0,1,.952,1.694,7.055,7.055,0,0,1,.322,2.184ZM10.64-1.526a5.087,5.087,0,0,0,1.2-.133,4.752,4.752,0,0,0,1.029-.378,5.453,5.453,0,0,0,.924-.595,8.005,8.005,0,0,0,.861-.8V-6.384a20.593,20.593,0,0,0-2.926.273,8.207,8.207,0,0,0-1.96.567,2.73,2.73,0,0,0-1.1.826A1.777,1.777,0,0,0,8.33-3.654a2.348,2.348,0,0,0,.182.966A1.831,1.831,0,0,0,9-2.023a1.934,1.934,0,0,0,.728.378A3.327,3.327,0,0,0,10.64-1.526Zm13.02-19.1V0H21.168V-20.622Zm7.168,0V0H28.336V-20.622Z" transform="translate(6903.121 1928)"/><g id="Groupe_4335" data-name="Groupe 4335" transform="translate(5847 1495)"><g id="Rectangle_589" fill="none" stroke="#707070" stroke-width=".5" data-name="Rectangle 589" transform="translate(64 364)"><rect width="162" height="19" stroke="none"/><rect width="161.5" height="18.5" x=".25" y=".25" fill="none"/></g><g id="Rectangle_590" fill="none" stroke="#707070" stroke-width=".5" data-name="Rectangle 590"><rect width="291" height="19" stroke="none"/><rect width="290.5" height="18.5" x=".25" y=".25" fill="none"/></g><path id="Tracé_22624" fill="none" stroke="#707070" stroke-width=".5" d="M-15005.43-4745l39.309,345.745h181.39l43.645-345.745Z" data-name="Tracé 22624" transform="translate(15018.147 4763.887)"/></g><g id="Groupe_4333" data-name="Groupe 4333" transform="translate(6305.227 1555.775)"><g id="Rectangle_592" fill="none" stroke="#707070" stroke-width=".5" data-name="Rectangle 592" transform="translate(61.774 303.225)"><rect width="163" height="19" stroke="none"/><rect width="162.5" height="18.5" x=".25" y=".25" fill="none"/></g><g id="Rectangle_591" fill="none" stroke="#707070" stroke-width=".5" data-name="Rectangle 591" transform="translate(-0.226 0.225)"><rect width="292" height="20" stroke="none"/><rect width="291.5" height="19.5" x=".25" y=".25" fill="none"/></g><path id="Tracé_22625" fill="none" stroke="#707070" stroke-width=".5" d="M-15005.43-4745l39.309,285.07h181.39l43.645-285.07Z" data-name="Tracé 22625" transform="translate(15017.282 4763.788)"/></g><g id="Groupe_4334" data-name="Groupe 4334" transform="translate(6757.664 1611.727)"><g id="Rectangle_592-2" fill="none" stroke="#707070" stroke-width=".5" data-name="Rectangle 592" transform="translate(63.335 247.273)"><rect width="162" height="19" stroke="none"/><rect width="161.5" height="18.5" x=".25" y=".25" fill="none"/></g><g id="Rectangle_591-2" fill="none" stroke="#707070" stroke-width=".5" data-name="Rectangle 591" transform="translate(0.335 0.273)"><rect width="291" height="19" stroke="none"/><rect width="290.5" height="18.5" x=".25" y=".25" fill="none"/></g><path id="Tracé_22625-2" fill="none" stroke="#707070" stroke-width=".5" d="M-15005.43-4745l39.309,228.607h181.39l43.645-228.607Z" data-name="Tracé 22625" transform="translate(15018.38 4764.298)"/></g></g></g></svg>