<svg xmlns="http://www.w3.org/2000/svg" xmlns:xlink="http://www.w3.org/1999/xlink" width="1203" height="385" viewBox="0 0 1203 385"><defs><clipPath id="clip-step4"><rect width="1203" height="385"/></clipPath></defs><g id="step4" clip-path="url(#clip-step4)"><path id="Rectangle_513" fill="#472714" d="M36,0H231a0,0,0,0,1,0,0V118a36,36,0,0,1-36,36H0a0,0,0,0,1,0,0V36A36,36,0,0,1,36,0Z" data-name="Rectangle 513" transform="translate(402 109)"/><path id="Large" fill="#9a9a9a" d="M16.1-20.062v2.282H9.618V0H6.9V-17.78H.392v-2.282ZM25.48,0H24.374a1.32,1.32,0,0,1-.588-.112.619.619,0,0,1-.294-.476L23.212-1.9q-.56.5-1.092.9A6.25,6.25,0,0,1,21-.329a5.8,5.8,0,0,1-1.253.413,7.186,7.186,0,0,1-1.477.14,5.042,5.042,0,0,1-1.547-.231A3.527,3.527,0,0,1,15.47-.7a3.3,3.3,0,0,1-.847-1.169,4.085,4.085,0,0,1-.315-1.673,3.12,3.12,0,0,1,.462-1.617,4.06,4.06,0,0,1,1.491-1.379,9.713,9.713,0,0,1,2.7-.987,20.532,20.532,0,0,1,4.074-.441V-9.072a3.818,3.818,0,0,0-.707-2.5,2.571,2.571,0,0,0-2.093-.847,4.437,4.437,0,0,0-1.533.231,5.8,5.8,0,0,0-1.078.518q-.455.287-.784.518a1.131,1.131,0,0,1-.651.231.747.747,0,0,1-.441-.133,1.013,1.013,0,0,1-.3-.329l-.448-.8a8.1,8.1,0,0,1,2.534-1.694,7.824,7.824,0,0,1,3.01-.56,5.371,5.371,0,0,1,2.114.392,4.335,4.335,0,0,1,1.554,1.092,4.625,4.625,0,0,1,.952,1.694,7.055,7.055,0,0,1,.322,2.184ZM19.012-1.526a5.087,5.087,0,0,0,1.2-.133,4.752,4.752,0,0,0,1.029-.378,5.453,5.453,0,0,0,.924-.595,8.005,8.005,0,0,0,.861-.8V-6.384a20.593,20.593,0,0,0-2.926.273,8.207,8.207,0,0,0-1.96.567,2.73,2.73,0,0,0-1.1.826A1.777,1.777,0,0,0,16.7-3.654a2.348,2.348,0,0,0,.182.966,1.831,1.831,0,0,0,.49.665,1.934,1.934,0,0,0,.728.378A3.327,3.327,0,0,0,19.012-1.526ZM29.26,4.8V-14.182h1.484a.635.635,0,0,1,.672.518l.21,1.68A7.572,7.572,0,0,1,33.7-13.762a5.311,5.311,0,0,1,2.7-.672,5.119,5.119,0,0,1,2.212.469,4.561,4.561,0,0,1,1.694,1.386A6.647,6.647,0,0,1,41.384-10.3a11.676,11.676,0,0,1,.378,3.122,9.785,9.785,0,0,1-.42,2.919,7.108,7.108,0,0,1-1.2,2.338A5.622,5.622,0,0,1,38.213-.371,5.694,5.694,0,0,1,35.644.2,5.287,5.287,0,0,1,33.4-.238,5.063,5.063,0,0,1,31.752-1.47V4.8Zm6.314-17.22a4.014,4.014,0,0,0-2.135.56,6.154,6.154,0,0,0-1.687,1.582v6.86a4.007,4.007,0,0,0,1.505,1.3,4.309,4.309,0,0,0,1.827.378A3.575,3.575,0,0,0,38.122-3.15a6.6,6.6,0,0,0,1.064-4.032,10.061,10.061,0,0,0-.245-2.38,4.654,4.654,0,0,0-.707-1.631,2.751,2.751,0,0,0-1.134-.931A3.772,3.772,0,0,0,35.574-12.418Zm11.914-1.764V0H45V-14.182Zm.56-4.452a1.586,1.586,0,0,1-.147.679,1.955,1.955,0,0,1-.392.56,1.821,1.821,0,0,1-.567.385,1.7,1.7,0,0,1-.686.14,1.653,1.653,0,0,1-.679-.14,1.846,1.846,0,0,1-.56-.385,1.846,1.846,0,0,1-.385-.56,1.653,1.653,0,0,1-.14-.679,1.752,1.752,0,0,1,.14-.693,1.8,1.8,0,0,1,.385-.574,1.846,1.846,0,0,1,.56-.385,1.653,1.653,0,0,1,.679-.14,1.7,1.7,0,0,1,.686.14,1.821,1.821,0,0,1,.567.385,1.9,1.9,0,0,1,.392.574A1.68,1.68,0,0,1,48.048-18.634Zm9.576,4.228a7.284,7.284,0,0,1,2.807.518,5.919,5.919,0,0,1,2.128,1.47,6.508,6.508,0,0,1,1.344,2.3A9.157,9.157,0,0,1,64.372-7.1,9.141,9.141,0,0,1,63.9-4.074a6.518,6.518,0,0,1-1.344,2.3A5.845,5.845,0,0,1,60.431-.315,7.372,7.372,0,0,1,57.624.2a7.372,7.372,0,0,1-2.807-.511,5.911,5.911,0,0,1-2.135-1.463,6.545,6.545,0,0,1-1.358-2.3A9.018,9.018,0,0,1,50.848-7.1a9.034,9.034,0,0,1,.476-3.017,6.535,6.535,0,0,1,1.358-2.3,5.986,5.986,0,0,1,2.135-1.47A7.284,7.284,0,0,1,57.624-14.406Zm0,12.656A3.641,3.641,0,0,0,60.76-3.157,6.515,6.515,0,0,0,61.8-7.084a6.574,6.574,0,0,0-1.036-3.948,3.634,3.634,0,0,0-3.136-1.414,4.352,4.352,0,0,0-1.848.364,3.459,3.459,0,0,0-1.309,1.05,4.664,4.664,0,0,0-.784,1.687,9.043,9.043,0,0,0-.259,2.261,8.959,8.959,0,0,0,.259,2.254,4.594,4.594,0,0,0,.784,1.673,3.486,3.486,0,0,0,1.309,1.043A4.352,4.352,0,0,0,57.624-1.75Zm19.5-9.912a1.113,1.113,0,0,1-.224.238.529.529,0,0,1-.322.084.8.8,0,0,1-.455-.175A6.632,6.632,0,0,0,75.5-11.9a5.216,5.216,0,0,0-.917-.385,4.327,4.327,0,0,0-1.323-.175,4.3,4.3,0,0,0-1.834.371,3.557,3.557,0,0,0-1.337,1.071,4.847,4.847,0,0,0-.812,1.694A8.4,8.4,0,0,0,69.006-7.1,8.133,8.133,0,0,0,69.3-4.809a4.96,4.96,0,0,0,.826,1.68,3.524,3.524,0,0,0,1.295,1.036,4,4,0,0,0,1.715.357,4.384,4.384,0,0,0,1.5-.217,4.564,4.564,0,0,0,.98-.483,7.183,7.183,0,0,0,.644-.483.776.776,0,0,1,.5-.217.527.527,0,0,1,.476.238l.7.91a5.388,5.388,0,0,1-2.31,1.659A8.19,8.19,0,0,1,72.7.2a6.2,6.2,0,0,1-2.471-.49A5.634,5.634,0,0,1,68.25-1.715,6.742,6.742,0,0,1,66.927-4,9.2,9.2,0,0,1,66.444-7.1a9.336,9.336,0,0,1,.441-2.926,6.629,6.629,0,0,1,1.288-2.317,5.838,5.838,0,0,1,2.093-1.519,7.054,7.054,0,0,1,2.856-.546,6.737,6.737,0,0,1,2.632.483,6.3,6.3,0,0,1,2.03,1.365ZM90.944,0H89.838a1.32,1.32,0,0,1-.588-.112.619.619,0,0,1-.294-.476L88.676-1.9q-.56.5-1.092.9a6.25,6.25,0,0,1-1.12.672,5.8,5.8,0,0,1-1.253.413,7.186,7.186,0,0,1-1.477.14,5.042,5.042,0,0,1-1.547-.231A3.527,3.527,0,0,1,80.934-.7a3.3,3.3,0,0,1-.847-1.169,4.085,4.085,0,0,1-.315-1.673,3.12,3.12,0,0,1,.462-1.617,4.06,4.06,0,0,1,1.491-1.379,9.713,9.713,0,0,1,2.695-.987,20.532,20.532,0,0,1,4.074-.441V-9.072a3.818,3.818,0,0,0-.707-2.5,2.571,2.571,0,0,0-2.093-.847,4.437,4.437,0,0,0-1.533.231,5.8,5.8,0,0,0-1.078.518q-.455.287-.784.518a1.131,1.131,0,0,1-.651.231.747.747,0,0,1-.441-.133,1.013,1.013,0,0,1-.3-.329l-.448-.8a8.1,8.1,0,0,1,2.534-1.694,7.824,7.824,0,0,1,3.01-.56,5.371,5.371,0,0,1,2.114.392A4.335,4.335,0,0,1,89.67-12.95a4.625,4.625,0,0,1,.952,1.694,7.055,7.055,0,0,1,.322,2.184ZM84.476-1.526a5.087,5.087,0,0,0,1.2-.133,4.752,4.752,0,0,0,1.029-.378,5.453,5.453,0,0,0,.924-.595,8.005,8.005,0,0,0,.861-.8V-6.384a20.593,20.593,0,0,0-2.926.273,8.207,8.207,0,0,0-1.96.567,2.73,2.73,0,0,0-1.1.826,1.777,1.777,0,0,0-.343,1.064,2.348,2.348,0,0,0,.182.966,1.831,1.831,0,0,0,.49.665,1.934,1.934,0,0,0,.728.378A3.327,3.327,0,0,0,84.476-1.526Z" transform="translate(401.984 306)"/><path id="Large-2" fill="#9a9a9a" d="M9.982-6.93a10.139,10.139,0,0,1-.413,3.01A6.093,6.093,0,0,1,8.351-1.673,5.313,5.313,0,0,1,6.37-.266a6.977,6.977,0,0,1-2.7.49A10.967,10.967,0,0,1,.84-.168q.028-.406.07-.8t.084-.791a.63.63,0,0,1,.175-.385A.6.6,0,0,1,1.61-2.3a2.481,2.481,0,0,1,.672.126,4.022,4.022,0,0,0,1.12.126,4.519,4.519,0,0,0,1.645-.28,2.985,2.985,0,0,0,1.218-.868A3.969,3.969,0,0,0,7.021-4.7,8.07,8.07,0,0,0,7.28-6.874V-20.062h2.7ZM20.09-14.406a6.331,6.331,0,0,1,2.352.427A5.279,5.279,0,0,1,24.3-12.747a5.617,5.617,0,0,1,1.225,1.988,7.68,7.68,0,0,1,.441,2.7,1.625,1.625,0,0,1-.126.784.523.523,0,0,1-.476.2H15.932A7.83,7.83,0,0,0,16.3-4.746a4.781,4.781,0,0,0,.924,1.659,3.7,3.7,0,0,0,1.4.994,4.808,4.808,0,0,0,1.82.329,5.339,5.339,0,0,0,1.617-.217,7.693,7.693,0,0,0,1.169-.469,8.917,8.917,0,0,0,.819-.469,1.086,1.086,0,0,1,.567-.217.548.548,0,0,1,.476.238l.7.91a4.733,4.733,0,0,1-1.106.973A6.886,6.886,0,0,1,23.3-.336a8.759,8.759,0,0,1-1.519.4A9.278,9.278,0,0,1,20.23.2a7.211,7.211,0,0,1-2.709-.5,5.946,5.946,0,0,1-2.142-1.456A6.679,6.679,0,0,1,13.972-4.13a9.649,9.649,0,0,1-.5-3.248,8.264,8.264,0,0,1,.455-2.772,6.534,6.534,0,0,1,1.309-2.233,6.026,6.026,0,0,1,2.086-1.484A6.848,6.848,0,0,1,20.09-14.406Zm.056,1.834A3.826,3.826,0,0,0,17.3-11.529a4.909,4.909,0,0,0-1.288,2.891H23.73a5.046,5.046,0,0,0-.238-1.589,3.541,3.541,0,0,0-.7-1.246,3.133,3.133,0,0,0-1.127-.812A3.8,3.8,0,0,0,20.146-12.572Zm11.774-8.05V0H29.428V-20.622Zm7.168,0V0H36.6V-20.622ZM47.642,4.186a1.3,1.3,0,0,1-.315.448.855.855,0,0,1-.581.168H44.9l2.59-5.628L41.636-14.182h2.156a.735.735,0,0,1,.5.161,1.007,1.007,0,0,1,.266.357l3.794,8.932a6.464,6.464,0,0,1,.217.616q.091.308.161.63.1-.322.2-.63t.224-.63l3.682-8.918a.8.8,0,0,1,.287-.371.736.736,0,0,1,.441-.147h1.988Z" data-name="Large" transform="translate(686.984 306)"/><path id="Large-3" fill="#9a9a9a" d="M2.436,0V-20.062h6.4a12.232,12.232,0,0,1,3.185.364,6.168,6.168,0,0,1,2.2,1.036,4.087,4.087,0,0,1,1.274,1.645,5.557,5.557,0,0,1,.413,2.191,4.444,4.444,0,0,1-.231,1.428,4.162,4.162,0,0,1-.7,1.274,4.949,4.949,0,0,1-1.176,1.05,6.551,6.551,0,0,1-1.659.756,6.186,6.186,0,0,1,3.318,1.582,4.145,4.145,0,0,1,1.12,3.024,5.635,5.635,0,0,1-.469,2.324,4.979,4.979,0,0,1-1.372,1.806A6.4,6.4,0,0,1,12.523-.413,9.93,9.93,0,0,1,9.534,0ZM5.152-9.142v6.986h4.34a6.6,6.6,0,0,0,2-.266,3.72,3.72,0,0,0,1.372-.749,2.9,2.9,0,0,0,.791-1.148A4.1,4.1,0,0,0,13.9-5.782a3.011,3.011,0,0,0-1.1-2.457,5.16,5.16,0,0,0-3.325-.9Zm0-1.932H8.736a6.958,6.958,0,0,0,1.988-.252,4.024,4.024,0,0,0,1.393-.7,2.737,2.737,0,0,0,.819-1.085A3.579,3.579,0,0,0,13.2-14.5a3.074,3.074,0,0,0-1.064-2.59,5.377,5.377,0,0,0-3.3-.826H5.152ZM25.9-14.406a7.284,7.284,0,0,1,2.807.518,5.919,5.919,0,0,1,2.128,1.47,6.508,6.508,0,0,1,1.344,2.3A9.157,9.157,0,0,1,32.648-7.1a9.141,9.141,0,0,1-.469,3.024,6.518,6.518,0,0,1-1.344,2.3A5.845,5.845,0,0,1,28.707-.315,7.372,7.372,0,0,1,25.9.2a7.372,7.372,0,0,1-2.807-.511,5.911,5.911,0,0,1-2.135-1.463,6.545,6.545,0,0,1-1.358-2.3A9.018,9.018,0,0,1,19.124-7.1a9.034,9.034,0,0,1,.476-3.017,6.535,6.535,0,0,1,1.358-2.3,5.986,5.986,0,0,1,2.135-1.47A7.284,7.284,0,0,1,25.9-14.406Zm0,12.656a3.641,3.641,0,0,0,3.136-1.407,6.515,6.515,0,0,0,1.036-3.927,6.574,6.574,0,0,0-1.036-3.948A3.634,3.634,0,0,0,25.9-12.446a4.352,4.352,0,0,0-1.848.364,3.459,3.459,0,0,0-1.309,1.05,4.664,4.664,0,0,0-.784,1.687A9.043,9.043,0,0,0,21.7-7.084a8.959,8.959,0,0,0,.259,2.254,4.594,4.594,0,0,0,.784,1.673,3.486,3.486,0,0,0,1.309,1.043A4.352,4.352,0,0,0,25.9-1.75ZM40.026.224a3.419,3.419,0,0,1-2.583-.938,3.743,3.743,0,0,1-.9-2.7V-12.1H34.832a.558.558,0,0,1-.378-.133.517.517,0,0,1-.154-.413v-.994l2.324-.294.574-4.382a.53.53,0,0,1,.182-.343.578.578,0,0,1,.392-.133h1.26V-13.9h4.06V-12.1h-4.06v8.512a1.811,1.811,0,0,0,.434,1.33,1.516,1.516,0,0,0,1.12.434,1.977,1.977,0,0,0,.679-.105,2.914,2.914,0,0,0,.5-.231q.21-.126.357-.231a.467.467,0,0,1,.259-.105.429.429,0,0,1,.35.238l.728,1.19A4.643,4.643,0,0,1,41.9-.119,5.277,5.277,0,0,1,40.026.224ZM46.172,0V-20.622h2.492v8.344a7.653,7.653,0,0,1,2.016-1.547,5.4,5.4,0,0,1,2.548-.581,5.121,5.121,0,0,1,2.051.385,3.968,3.968,0,0,1,1.484,1.092,4.823,4.823,0,0,1,.9,1.7,7.4,7.4,0,0,1,.308,2.2V0H55.482V-9.03a3.817,3.817,0,0,0-.735-2.5,2.748,2.748,0,0,0-2.247-.889,4.189,4.189,0,0,0-2.065.532,6.8,6.8,0,0,0-1.771,1.442V0Z" data-name="Large" transform="translate(971.984 306)"/><g id="Groupe_4519" data-name="Groupe 4519" transform="translate(-5847 -3053)"><g id="Groupe_5417" data-name="Groupe 5417" transform="translate(5847 3053)"><g id="Rectangle_589" fill="none" stroke="#707070" stroke-width=".5" data-name="Rectangle 589" transform="translate(63 366)"><rect width="163" height="19" stroke="none"/><rect width="162.5" height="18.5" x=".25" y=".25" fill="none"/></g><g id="Rectangle_590" fill="none" stroke="#707070" stroke-width=".5" data-name="Rectangle 590"><rect width="291" height="19" stroke="none"/><rect width="290.5" height="18.5" x=".25" y=".25" fill="none"/></g><path id="Tracé_22624" fill="none" stroke="#707070" stroke-width=".5" d="M-15005.43-4745l39.524,347.649h182.39l43.885-347.649Z" data-name="Tracé 22624" transform="translate(15017.301 4764.307)"/></g><g id="Groupe_2983" data-name="Groupe 2983" transform="translate(5971.404 3206.756)"><path id="Tracé_121" fill="#fff" d="M3987.749-2036.091l-24.087,14.129v27.851l24.087,14v-9.238l-16.8-8.838v-19.538l16.8-8.927Z" data-name="Tracé 121" transform="translate(-3963.662 2036.091)"/></g><g id="Groupe_5419" data-name="Groupe 5419" opacity=".246" transform="translate(5168 -3058)"><circle id="Ellipse_434" cx="13.5" cy="13.5" r="13.5" fill="#efefef" data-name="Ellipse 434" transform="translate(731 6373)"/><circle id="Ellipse_435" cx="13.5" cy="13.5" r="13.5" fill="#efefef" data-name="Ellipse 435" transform="translate(752 6407)"/><circle id="Ellipse_436" cx="13.5" cy="13.5" r="13.5" fill="#efefef" data-name="Ellipse 436" transform="translate(788 6382)"/><circle id="Ellipse_437" cx="13.5" cy="13.5" r="13.5" fill="#efefef" data-name="Ellipse 437" transform="translate(798 6421)"/><circle id="Ellipse_441" cx="13.5" cy="13.5" r="13.5" fill="#efefef" data-name="Ellipse 441" transform="translate(761 6441)"/><circle id="Ellipse_438" cx="13.5" cy="13.5" r="13.5" fill="#efefef" data-name="Ellipse 438" transform="translate(827 6394)"/><circle id="Ellipse_439" cx="13.5" cy="13.5" r="13.5" fill="#efefef" data-name="Ellipse 439" transform="translate(884 6380)"/><circle id="Ellipse_440" cx="13.5" cy="13.5" r="13.5" fill="#efefef" data-name="Ellipse 440" transform="translate(863 6407)"/><circle id="Ellipse_443" cx="13.5" cy="13.5" r="13.5" fill="#efefef" data-name="Ellipse 443" transform="translate(875 6441)"/><circle id="Ellipse_442" cx="13.5" cy="13.5" r="13.5" fill="#efefef" data-name="Ellipse 442" transform="translate(827 6441)"/></g><path id="Tracé_22874" fill="#efefef" d="M-16072.124-2776.821h253.295l-36.547,300.812h-182.07Z" data-name="Tracé 22874" opacity=".495" transform="translate(21936.273 5895.725)"/><path id="Tracé_22877" fill="#c6c2c2" d="M-16820.047-3277.232h236.488l-10.223,72.549h-217.436Z" data-name="Tracé 22877" transform="translate(22693.031 6474.225)"/><g id="Groupe_2983-2" data-name="Groupe 2983" transform="translate(5971.404 3205.756)"><path id="Tracé_121-2" fill="#fff" d="M3987.749-2036.091l-24.087,14.129v27.851l24.087,14v-9.238l-16.8-8.838v-19.538l16.8-8.927Z" data-name="Tracé 121" transform="translate(-3963.662 2036.091)"/><path id="Tracé_143" fill="#fff" d="M16035.542,5805.6l10.672,4.3v19.356l-10.672,4.11Z" data-name="Tracé 143" transform="translate(-16004.622 -5791.45)"/></g></g><path id="Rectangle_516" fill="#fa8fc5" d="M36,0H231a0,0,0,0,1,0,0V118a36,36,0,0,1-36,36H0a0,0,0,0,1,0,0V36A36,36,0,0,1,36,0Z" data-name="Rectangle 516" transform="translate(687 109)"/><path id="Rectangle_517" fill="#472714" d="M36,0H231a0,0,0,0,1,0,0V118a36,36,0,0,1-36,36H0a0,0,0,0,1,0,0V36A36,36,0,0,1,36,0Z" data-name="Rectangle 517" transform="translate(972 109)"/><path id="Tracé_13439" fill="#fa8fc5" d="M231,0V118a36,36,0,0,1-36,36H0Z" data-name="Tracé 13439" transform="translate(972 109)"/></g></svg>