<svg xmlns="http://www.w3.org/2000/svg" xmlns:xlink="http://www.w3.org/1999/xlink" width="1203" height="385" viewBox="0 0 1203 385"><defs><clipPath id="clip-step3"><rect width="1203" height="385"/></clipPath></defs><g id="step3" clip-path="url(#clip-step3)"><g id="Groupe_4518" data-name="Groupe 4518" transform="translate(-6758 -2319)"><g id="Groupe_5416" data-name="Groupe 5416" transform="translate(6757.807 2319)"><g id="Rectangle_589" fill="none" stroke="#707070" stroke-width=".5" data-name="Rectangle 589" transform="translate(63.193 366)"><rect width="163" height="19" stroke="none"/><rect width="162.5" height="18.5" x=".25" y=".25" fill="none"/></g><g id="Rectangle_590" fill="none" stroke="#707070" stroke-width=".5" data-name="Rectangle 590" transform="translate(0.193)"><rect width="291" height="19" stroke="none"/><rect width="290.5" height="18.5" x=".25" y=".25" fill="none"/></g><path id="Tracé_22624" fill="none" stroke="#707070" stroke-width=".5" d="M-15005.433-4745l39.541,347.776h182.454l43.9-347.776Z" data-name="Tracé 22624" transform="translate(15017.307 4763.719)"/></g><path id="Tracé_22868" fill="#efefef" d="M-16072.124-2776.821h253.295l-36.547,300.812h-182.07Z" data-name="Tracé 22868" opacity=".495" transform="translate(22847.273 5161.725)"/><path id="Tracé_22875" fill="#c6c2c2" d="M-16820.047-3277.232h236.488l-10.223,72.549h-217.436Z" data-name="Tracé 22875" transform="translate(23604.031 5741.225)"/><g id="Groupe_2983" data-name="Groupe 2983" transform="translate(6882.404 2472.756)"><path id="Tracé_121" fill="#fff" d="M3987.749-2036.091l-24.087,14.129v27.851l24.087,14v-9.238l-16.8-8.838v-19.538l16.8-8.927Z" data-name="Tracé 121" transform="translate(-3963.662 2036.091)"/><path id="Tracé_143" fill="#fff" d="M16035.542,5805.6l10.672,4.3v19.356l-10.672,4.11Z" data-name="Tracé 143" transform="translate(-16004.622 -5791.45)"/></g></g><rect id="Rectangle_510" width="231" height="69" fill="#ff9e40" data-name="Rectangle 510" rx="6" transform="translate(972 63)"/><rect id="Rectangle_515" width="231" height="69" fill="#90a1d9" data-name="Rectangle 515" rx="6" transform="translate(972 222)"/><rect id="Rectangle_511" width="231" height="69" fill="#d0c1e4" data-name="Rectangle 511" rx="6" transform="translate(687 63)"/><rect id="Rectangle_514" width="231" height="69" fill="#ff5c5b" data-name="Rectangle 514" rx="6" transform="translate(687 222)"/><rect id="Rectangle_512" width="231" height="69" fill="#a2cf7c" data-name="Rectangle 512" rx="6" transform="translate(402 63)"/><rect id="Rectangle_513" width="231" height="69" fill="#ffbfb2" data-name="Rectangle 513" rx="6" transform="translate(402 222)"/><path id="Large" fill="#9a9a9a" d="M12.306-7.252a5.208,5.208,0,0,1,.343.707q.147.371.287.749.14-.392.294-.749t.35-.721L20.37-19.6a.806.806,0,0,1,.378-.392,1.741,1.741,0,0,1,.56-.07h2V0H20.93V-14.742q0-.294.014-.63t.042-.686L14.112-3.514a1.079,1.079,0,0,1-.98.63H12.74a1.079,1.079,0,0,1-.98-.63L4.732-16.1q.042.364.063.714t.021.644V0H2.436V-20.062h2a1.741,1.741,0,0,1,.56.07.806.806,0,0,1,.378.392ZM38.22,0H37.114a1.32,1.32,0,0,1-.588-.112.619.619,0,0,1-.294-.476L35.952-1.9q-.56.5-1.092.9a6.25,6.25,0,0,1-1.12.672,5.8,5.8,0,0,1-1.253.413,7.186,7.186,0,0,1-1.477.14,5.042,5.042,0,0,1-1.547-.231A3.527,3.527,0,0,1,28.21-.7a3.3,3.3,0,0,1-.847-1.169,4.085,4.085,0,0,1-.315-1.673,3.12,3.12,0,0,1,.462-1.617A4.06,4.06,0,0,1,29-6.538,9.713,9.713,0,0,1,31.7-7.525a20.532,20.532,0,0,1,4.074-.441V-9.072a3.818,3.818,0,0,0-.707-2.5,2.571,2.571,0,0,0-2.093-.847,4.437,4.437,0,0,0-1.533.231,5.8,5.8,0,0,0-1.078.518q-.455.287-.784.518a1.131,1.131,0,0,1-.651.231.747.747,0,0,1-.441-.133,1.013,1.013,0,0,1-.3-.329l-.448-.8a8.1,8.1,0,0,1,2.534-1.694,7.824,7.824,0,0,1,3.01-.56,5.371,5.371,0,0,1,2.114.392,4.335,4.335,0,0,1,1.554,1.092,4.625,4.625,0,0,1,.952,1.694,7.055,7.055,0,0,1,.322,2.184ZM31.752-1.526a5.087,5.087,0,0,0,1.2-.133,4.752,4.752,0,0,0,1.029-.378,5.453,5.453,0,0,0,.924-.595,8.006,8.006,0,0,0,.861-.8V-6.384a20.593,20.593,0,0,0-2.926.273,8.207,8.207,0,0,0-1.96.567,2.73,2.73,0,0,0-1.1.826,1.777,1.777,0,0,0-.343,1.064,2.348,2.348,0,0,0,.182.966,1.831,1.831,0,0,0,.49.665,1.934,1.934,0,0,0,.728.378A3.327,3.327,0,0,0,31.752-1.526ZM46.3.224a3.419,3.419,0,0,1-2.583-.938,3.743,3.743,0,0,1-.9-2.7V-12.1H41.1a.558.558,0,0,1-.378-.133.517.517,0,0,1-.154-.413v-.994L42.9-13.93l.574-4.382a.53.53,0,0,1,.182-.343.578.578,0,0,1,.392-.133H45.3V-13.9h4.06V-12.1H45.3v8.512a1.811,1.811,0,0,0,.434,1.33,1.516,1.516,0,0,0,1.12.434,1.977,1.977,0,0,0,.679-.105,2.914,2.914,0,0,0,.5-.231q.21-.126.357-.231a.467.467,0,0,1,.259-.105.429.429,0,0,1,.35.238l.728,1.19a4.643,4.643,0,0,1-1.554.945A5.277,5.277,0,0,1,46.3.224Zm15.82-11.886a1.113,1.113,0,0,1-.224.238.529.529,0,0,1-.322.084.8.8,0,0,1-.455-.175,6.632,6.632,0,0,0-.623-.385,5.216,5.216,0,0,0-.917-.385,4.327,4.327,0,0,0-1.323-.175,4.3,4.3,0,0,0-1.834.371,3.557,3.557,0,0,0-1.337,1.071,4.847,4.847,0,0,0-.812,1.694A8.4,8.4,0,0,0,54-7.1a8.133,8.133,0,0,0,.294,2.289,4.96,4.96,0,0,0,.826,1.68,3.524,3.524,0,0,0,1.295,1.036,4,4,0,0,0,1.715.357,4.384,4.384,0,0,0,1.5-.217,4.564,4.564,0,0,0,.98-.483,7.182,7.182,0,0,0,.644-.483.776.776,0,0,1,.5-.217.527.527,0,0,1,.476.238l.7.91A5.388,5.388,0,0,1,60.62-.329,8.19,8.19,0,0,1,57.694.2a6.2,6.2,0,0,1-2.471-.49,5.634,5.634,0,0,1-1.981-1.421A6.742,6.742,0,0,1,51.919-4,9.2,9.2,0,0,1,51.436-7.1a9.336,9.336,0,0,1,.441-2.926,6.629,6.629,0,0,1,1.288-2.317,5.838,5.838,0,0,1,2.093-1.519,7.054,7.054,0,0,1,2.856-.546,6.737,6.737,0,0,1,2.632.483,6.3,6.3,0,0,1,2.03,1.365ZM65.52,0V-20.622h2.492v8.344a7.653,7.653,0,0,1,2.016-1.547,5.4,5.4,0,0,1,2.548-.581,5.121,5.121,0,0,1,2.051.385,3.968,3.968,0,0,1,1.484,1.092,4.823,4.823,0,0,1,.9,1.7,7.4,7.4,0,0,1,.308,2.2V0H74.83V-9.03a3.817,3.817,0,0,0-.735-2.5,2.748,2.748,0,0,0-2.247-.889,4.189,4.189,0,0,0-2.065.532,6.8,6.8,0,0,0-1.771,1.442V0ZM91.5,0H90.4a1.32,1.32,0,0,1-.588-.112.619.619,0,0,1-.294-.476L89.236-1.9q-.56.5-1.092.9a6.25,6.25,0,0,1-1.12.672,5.8,5.8,0,0,1-1.253.413,7.186,7.186,0,0,1-1.477.14,5.042,5.042,0,0,1-1.547-.231A3.527,3.527,0,0,1,81.494-.7a3.3,3.3,0,0,1-.847-1.169,4.085,4.085,0,0,1-.315-1.673,3.12,3.12,0,0,1,.462-1.617,4.06,4.06,0,0,1,1.491-1.379,9.713,9.713,0,0,1,2.695-.987,20.532,20.532,0,0,1,4.074-.441V-9.072a3.818,3.818,0,0,0-.707-2.5,2.571,2.571,0,0,0-2.093-.847,4.437,4.437,0,0,0-1.533.231,5.8,5.8,0,0,0-1.078.518q-.455.287-.784.518a1.131,1.131,0,0,1-.651.231.747.747,0,0,1-.441-.133,1.013,1.013,0,0,1-.3-.329l-.448-.8a8.1,8.1,0,0,1,2.534-1.694,7.824,7.824,0,0,1,3.01-.56,5.371,5.371,0,0,1,2.114.392A4.335,4.335,0,0,1,90.23-12.95a4.625,4.625,0,0,1,.952,1.694A7.055,7.055,0,0,1,91.5-9.072ZM85.036-1.526a5.087,5.087,0,0,0,1.2-.133,4.752,4.752,0,0,0,1.029-.378,5.453,5.453,0,0,0,.924-.595,8.005,8.005,0,0,0,.861-.8V-6.384a20.593,20.593,0,0,0-2.926.273,8.207,8.207,0,0,0-1.96.567,2.73,2.73,0,0,0-1.1.826,1.777,1.777,0,0,0-.343,1.064,2.348,2.348,0,0,0,.182.966,1.831,1.831,0,0,0,.49.665,1.934,1.934,0,0,0,.728.378A3.327,3.327,0,0,0,85.036-1.526Z" transform="translate(401.984 175)"/><path id="Large-2" fill="#9a9a9a" d="M5.152-2.282h8.68V0H2.436V-20.062H5.152Zm13.93,6.468a1.3,1.3,0,0,1-.315.448.855.855,0,0,1-.581.168H16.338l2.59-5.628L13.076-14.182h2.156a.735.735,0,0,1,.5.161,1.007,1.007,0,0,1,.266.357L19.8-4.732a6.464,6.464,0,0,1,.217.616q.091.308.161.63.1-.322.2-.63t.224-.63l3.682-8.918a.8.8,0,0,1,.287-.371A.736.736,0,0,1,25-14.182h1.988ZM38.57-11.662a1.113,1.113,0,0,1-.224.238.529.529,0,0,1-.322.084.8.8,0,0,1-.455-.175,6.632,6.632,0,0,0-.623-.385,5.216,5.216,0,0,0-.917-.385,4.327,4.327,0,0,0-1.323-.175,4.3,4.3,0,0,0-1.834.371,3.557,3.557,0,0,0-1.337,1.071,4.847,4.847,0,0,0-.812,1.694A8.4,8.4,0,0,0,30.45-7.1a8.133,8.133,0,0,0,.294,2.289,4.96,4.96,0,0,0,.826,1.68,3.524,3.524,0,0,0,1.295,1.036,4,4,0,0,0,1.715.357,4.384,4.384,0,0,0,1.5-.217,4.564,4.564,0,0,0,.98-.483,7.182,7.182,0,0,0,.644-.483.776.776,0,0,1,.5-.217.527.527,0,0,1,.476.238l.7.91a5.388,5.388,0,0,1-2.31,1.659A8.19,8.19,0,0,1,34.146.2a6.2,6.2,0,0,1-2.471-.49,5.634,5.634,0,0,1-1.981-1.421A6.742,6.742,0,0,1,28.371-4,9.2,9.2,0,0,1,27.888-7.1a9.336,9.336,0,0,1,.441-2.926,6.629,6.629,0,0,1,1.288-2.317A5.838,5.838,0,0,1,31.71-13.86a7.054,7.054,0,0,1,2.856-.546,6.737,6.737,0,0,1,2.632.483,6.3,6.3,0,0,1,2.03,1.365ZM41.972,0V-20.622h2.492v8.344a7.653,7.653,0,0,1,2.016-1.547,5.4,5.4,0,0,1,2.548-.581,5.121,5.121,0,0,1,2.051.385,3.968,3.968,0,0,1,1.484,1.092,4.823,4.823,0,0,1,.9,1.7,7.4,7.4,0,0,1,.308,2.2V0H51.282V-9.03a3.817,3.817,0,0,0-.735-2.5,2.748,2.748,0,0,0-2.247-.889,4.189,4.189,0,0,0-2.065.532,6.8,6.8,0,0,0-1.771,1.442V0ZM63.154-14.406a6.331,6.331,0,0,1,2.352.427,5.279,5.279,0,0,1,1.862,1.232,5.617,5.617,0,0,1,1.225,1.988,7.68,7.68,0,0,1,.441,2.7,1.625,1.625,0,0,1-.126.784.523.523,0,0,1-.476.2H59a7.83,7.83,0,0,0,.364,2.338,4.781,4.781,0,0,0,.924,1.659,3.7,3.7,0,0,0,1.4.994,4.808,4.808,0,0,0,1.82.329,5.339,5.339,0,0,0,1.617-.217A7.694,7.694,0,0,0,66.29-2.45a8.917,8.917,0,0,0,.819-.469,1.086,1.086,0,0,1,.567-.217.548.548,0,0,1,.476.238l.7.91a4.733,4.733,0,0,1-1.106.973,6.887,6.887,0,0,1-1.379.679,8.759,8.759,0,0,1-1.519.4A9.278,9.278,0,0,1,63.294.2a7.211,7.211,0,0,1-2.709-.5,5.946,5.946,0,0,1-2.142-1.456A6.679,6.679,0,0,1,57.036-4.13a9.649,9.649,0,0,1-.5-3.248,8.264,8.264,0,0,1,.455-2.772A6.534,6.534,0,0,1,58.3-12.383a6.026,6.026,0,0,1,2.086-1.484A6.848,6.848,0,0,1,63.154-14.406Zm.056,1.834a3.826,3.826,0,0,0-2.842,1.043A4.909,4.909,0,0,0,59.08-8.638h7.714a5.046,5.046,0,0,0-.238-1.589,3.541,3.541,0,0,0-.7-1.246,3.133,3.133,0,0,0-1.127-.812A3.8,3.8,0,0,0,63.21-12.572Zm14.616-1.834a6.331,6.331,0,0,1,2.352.427,5.279,5.279,0,0,1,1.862,1.232,5.617,5.617,0,0,1,1.225,1.988,7.68,7.68,0,0,1,.441,2.7,1.625,1.625,0,0,1-.126.784.523.523,0,0,1-.476.2H73.668a7.83,7.83,0,0,0,.364,2.338,4.78,4.78,0,0,0,.924,1.659,3.7,3.7,0,0,0,1.4.994,4.808,4.808,0,0,0,1.82.329,5.339,5.339,0,0,0,1.617-.217,7.693,7.693,0,0,0,1.169-.469,8.917,8.917,0,0,0,.819-.469,1.086,1.086,0,0,1,.567-.217.548.548,0,0,1,.476.238l.7.91a4.734,4.734,0,0,1-1.106.973,6.886,6.886,0,0,1-1.379.679,8.759,8.759,0,0,1-1.519.4A9.278,9.278,0,0,1,77.966.2a7.211,7.211,0,0,1-2.709-.5,5.946,5.946,0,0,1-2.142-1.456A6.679,6.679,0,0,1,71.708-4.13a9.649,9.649,0,0,1-.5-3.248,8.264,8.264,0,0,1,.455-2.772,6.534,6.534,0,0,1,1.309-2.233,6.026,6.026,0,0,1,2.086-1.484A6.848,6.848,0,0,1,77.826-14.406Zm.056,1.834a3.826,3.826,0,0,0-2.842,1.043,4.909,4.909,0,0,0-1.288,2.891h7.714a5.046,5.046,0,0,0-.238-1.589,3.541,3.541,0,0,0-.7-1.246,3.133,3.133,0,0,0-1.127-.812A3.8,3.8,0,0,0,77.882-12.572Z" data-name="Large" transform="translate(401.984 334)"/><path id="Large-3" fill="#9a9a9a" d="M16.1-20.062v2.282H9.618V0H6.9V-17.78H.392v-2.282ZM25.48,0H24.374a1.32,1.32,0,0,1-.588-.112.619.619,0,0,1-.294-.476L23.212-1.9q-.56.5-1.092.9A6.25,6.25,0,0,1,21-.329a5.8,5.8,0,0,1-1.253.413,7.186,7.186,0,0,1-1.477.14,5.042,5.042,0,0,1-1.547-.231A3.527,3.527,0,0,1,15.47-.7a3.3,3.3,0,0,1-.847-1.169,4.085,4.085,0,0,1-.315-1.673,3.12,3.12,0,0,1,.462-1.617,4.06,4.06,0,0,1,1.491-1.379,9.713,9.713,0,0,1,2.7-.987,20.532,20.532,0,0,1,4.074-.441V-9.072a3.818,3.818,0,0,0-.707-2.5,2.571,2.571,0,0,0-2.093-.847,4.437,4.437,0,0,0-1.533.231,5.8,5.8,0,0,0-1.078.518q-.455.287-.784.518a1.131,1.131,0,0,1-.651.231.747.747,0,0,1-.441-.133,1.013,1.013,0,0,1-.3-.329l-.448-.8a8.1,8.1,0,0,1,2.534-1.694,7.824,7.824,0,0,1,3.01-.56,5.371,5.371,0,0,1,2.114.392,4.335,4.335,0,0,1,1.554,1.092,4.625,4.625,0,0,1,.952,1.694,7.055,7.055,0,0,1,.322,2.184ZM19.012-1.526a5.087,5.087,0,0,0,1.2-.133,4.752,4.752,0,0,0,1.029-.378,5.453,5.453,0,0,0,.924-.595,8.005,8.005,0,0,0,.861-.8V-6.384a20.593,20.593,0,0,0-2.926.273,8.207,8.207,0,0,0-1.96.567,2.73,2.73,0,0,0-1.1.826A1.777,1.777,0,0,0,16.7-3.654a2.348,2.348,0,0,0,.182.966,1.831,1.831,0,0,0,.49.665,1.934,1.934,0,0,0,.728.378A3.327,3.327,0,0,0,19.012-1.526ZM29.26,0V-14.182h1.428a.788.788,0,0,1,.56.154.944.944,0,0,1,.21.532l.168,2.212a6.487,6.487,0,0,1,1.8-2.317,3.974,3.974,0,0,1,2.513-.833A3.952,3.952,0,0,1,37-14.3a3.709,3.709,0,0,1,.882.371l-.322,1.862a.421.421,0,0,1-.434.35,2.178,2.178,0,0,1-.6-.133,3.8,3.8,0,0,0-1.134-.133,3.212,3.212,0,0,0-2.177.756,5.675,5.675,0,0,0-1.463,2.2V0ZM46.284-14.406a7.284,7.284,0,0,1,2.807.518,5.919,5.919,0,0,1,2.128,1.47,6.508,6.508,0,0,1,1.344,2.3A9.157,9.157,0,0,1,53.032-7.1a9.141,9.141,0,0,1-.469,3.024,6.518,6.518,0,0,1-1.344,2.3A5.845,5.845,0,0,1,49.091-.315,7.372,7.372,0,0,1,46.284.2a7.372,7.372,0,0,1-2.807-.511,5.911,5.911,0,0,1-2.135-1.463,6.545,6.545,0,0,1-1.358-2.3A9.018,9.018,0,0,1,39.508-7.1a9.034,9.034,0,0,1,.476-3.017,6.535,6.535,0,0,1,1.358-2.3,5.986,5.986,0,0,1,2.135-1.47A7.284,7.284,0,0,1,46.284-14.406Zm0,12.656A3.641,3.641,0,0,0,49.42-3.157a6.515,6.515,0,0,0,1.036-3.927,6.574,6.574,0,0,0-1.036-3.948,3.634,3.634,0,0,0-3.136-1.414,4.352,4.352,0,0,0-1.848.364,3.459,3.459,0,0,0-1.309,1.05,4.664,4.664,0,0,0-.784,1.687,9.043,9.043,0,0,0-.259,2.261,8.959,8.959,0,0,0,.259,2.254,4.594,4.594,0,0,0,.784,1.673,3.486,3.486,0,0,0,1.309,1.043A4.352,4.352,0,0,0,46.284-1.75Z" data-name="Large" transform="translate(686.984 175)"/><path id="Large-4" fill="#9a9a9a" d="M16.576-4.144a.562.562,0,0,1,.406.182L18.046-2.8A8.583,8.583,0,0,1,15.057-.574a10.192,10.192,0,0,1-4.235.8A9.97,9.97,0,0,1,6.888-.525a8.622,8.622,0,0,1-3.01-2.1A9.493,9.493,0,0,1,1.946-5.866a12.107,12.107,0,0,1-.686-4.158A11.38,11.38,0,0,1,2-14.182,9.5,9.5,0,0,1,4.06-17.43a9.241,9.241,0,0,1,3.185-2.107,10.842,10.842,0,0,1,4.1-.749,9.657,9.657,0,0,1,3.815.686A9.641,9.641,0,0,1,18-17.738l-.882,1.246a.961.961,0,0,1-.224.231.616.616,0,0,1-.364.091.709.709,0,0,1-.385-.133q-.2-.133-.483-.329t-.658-.42a5.767,5.767,0,0,0-.9-.42,7.4,7.4,0,0,0-1.2-.329,8.381,8.381,0,0,0-1.582-.133,7.638,7.638,0,0,0-2.947.553,6.6,6.6,0,0,0-2.3,1.575,7.166,7.166,0,0,0-1.5,2.492,9.5,9.5,0,0,0-.539,3.29,9.679,9.679,0,0,0,.539,3.346,7.388,7.388,0,0,0,1.47,2.485A6.2,6.2,0,0,0,8.246-2.646a7.049,7.049,0,0,0,2.744.532,11.142,11.142,0,0,0,1.61-.105,6.612,6.612,0,0,0,1.323-.329,5.6,5.6,0,0,0,1.134-.567,8.868,8.868,0,0,0,1.057-.819A.712.712,0,0,1,16.576-4.144ZM21.224,0V-20.622h2.492v8.344a7.653,7.653,0,0,1,2.016-1.547,5.4,5.4,0,0,1,2.548-.581,5.121,5.121,0,0,1,2.051.385,3.968,3.968,0,0,1,1.484,1.092,4.823,4.823,0,0,1,.9,1.7,7.4,7.4,0,0,1,.308,2.2V0H30.534V-9.03a3.817,3.817,0,0,0-.735-2.5,2.748,2.748,0,0,0-2.247-.889,4.189,4.189,0,0,0-2.065.532,6.8,6.8,0,0,0-1.771,1.442V0ZM42.406-14.406a6.331,6.331,0,0,1,2.352.427,5.279,5.279,0,0,1,1.862,1.232,5.617,5.617,0,0,1,1.225,1.988,7.68,7.68,0,0,1,.441,2.7,1.625,1.625,0,0,1-.126.784.523.523,0,0,1-.476.2H38.248a7.83,7.83,0,0,0,.364,2.338,4.781,4.781,0,0,0,.924,1.659,3.7,3.7,0,0,0,1.4.994,4.808,4.808,0,0,0,1.82.329,5.339,5.339,0,0,0,1.617-.217,7.693,7.693,0,0,0,1.169-.469,8.917,8.917,0,0,0,.819-.469,1.086,1.086,0,0,1,.567-.217A.548.548,0,0,1,47.4-2.9l.7.91A4.733,4.733,0,0,1,47-1.015a6.886,6.886,0,0,1-1.379.679,8.759,8.759,0,0,1-1.519.4A9.278,9.278,0,0,1,42.546.2a7.211,7.211,0,0,1-2.709-.5,5.946,5.946,0,0,1-2.142-1.456A6.679,6.679,0,0,1,36.288-4.13a9.649,9.649,0,0,1-.5-3.248,8.264,8.264,0,0,1,.455-2.772,6.534,6.534,0,0,1,1.309-2.233,6.026,6.026,0,0,1,2.086-1.484A6.848,6.848,0,0,1,42.406-14.406Zm.056,1.834a3.826,3.826,0,0,0-2.842,1.043,4.909,4.909,0,0,0-1.288,2.891h7.714a5.046,5.046,0,0,0-.238-1.589,3.541,3.541,0,0,0-.7-1.246,3.133,3.133,0,0,0-1.127-.812A3.8,3.8,0,0,0,42.462-12.572ZM51.464,0V-14.182h1.428a.788.788,0,0,1,.56.154.944.944,0,0,1,.21.532l.168,2.212a6.487,6.487,0,0,1,1.8-2.317,3.974,3.974,0,0,1,2.513-.833,3.952,3.952,0,0,1,1.064.133,3.709,3.709,0,0,1,.882.371l-.322,1.862a.421.421,0,0,1-.434.35,2.178,2.178,0,0,1-.6-.133,3.8,3.8,0,0,0-1.134-.133,3.212,3.212,0,0,0-2.177.756,5.675,5.675,0,0,0-1.463,2.2V0ZM62.748,0V-14.182h1.428a.788.788,0,0,1,.56.154.944.944,0,0,1,.21.532l.168,2.212a6.487,6.487,0,0,1,1.8-2.317,3.974,3.974,0,0,1,2.513-.833,3.952,3.952,0,0,1,1.064.133,3.709,3.709,0,0,1,.882.371l-.322,1.862a.421.421,0,0,1-.434.35,2.178,2.178,0,0,1-.6-.133,3.8,3.8,0,0,0-1.134-.133,3.212,3.212,0,0,0-2.177.756,5.675,5.675,0,0,0-1.463,2.2V0ZM78.19,4.186a1.3,1.3,0,0,1-.315.448.855.855,0,0,1-.581.168H75.446l2.59-5.628L72.184-14.182H74.34a.735.735,0,0,1,.5.161,1.007,1.007,0,0,1,.266.357L78.9-4.732a6.465,6.465,0,0,1,.217.616q.091.308.161.63.1-.322.2-.63t.224-.63l3.682-8.918a.8.8,0,0,1,.287-.371.736.736,0,0,1,.441-.147H86.1Z" data-name="Large" transform="translate(686.984 334)"/><path id="Large-5" fill="#9a9a9a" d="M12.306-7.252a5.208,5.208,0,0,1,.343.707q.147.371.287.749.14-.392.294-.749t.35-.721L20.37-19.6a.806.806,0,0,1,.378-.392,1.741,1.741,0,0,1,.56-.07h2V0H20.93V-14.742q0-.294.014-.63t.042-.686L14.112-3.514a1.079,1.079,0,0,1-.98.63H12.74a1.079,1.079,0,0,1-.98-.63L4.732-16.1q.042.364.063.714t.021.644V0H2.436V-20.062h2a1.741,1.741,0,0,1,.56.07.806.806,0,0,1,.378.392ZM38.22,0H37.114a1.32,1.32,0,0,1-.588-.112.619.619,0,0,1-.294-.476L35.952-1.9q-.56.5-1.092.9a6.25,6.25,0,0,1-1.12.672,5.8,5.8,0,0,1-1.253.413,7.186,7.186,0,0,1-1.477.14,5.042,5.042,0,0,1-1.547-.231A3.527,3.527,0,0,1,28.21-.7a3.3,3.3,0,0,1-.847-1.169,4.085,4.085,0,0,1-.315-1.673,3.12,3.12,0,0,1,.462-1.617A4.06,4.06,0,0,1,29-6.538,9.713,9.713,0,0,1,31.7-7.525a20.532,20.532,0,0,1,4.074-.441V-9.072a3.818,3.818,0,0,0-.707-2.5,2.571,2.571,0,0,0-2.093-.847,4.437,4.437,0,0,0-1.533.231,5.8,5.8,0,0,0-1.078.518q-.455.287-.784.518a1.131,1.131,0,0,1-.651.231.747.747,0,0,1-.441-.133,1.013,1.013,0,0,1-.3-.329l-.448-.8a8.1,8.1,0,0,1,2.534-1.694,7.824,7.824,0,0,1,3.01-.56,5.371,5.371,0,0,1,2.114.392,4.335,4.335,0,0,1,1.554,1.092,4.625,4.625,0,0,1,.952,1.694,7.055,7.055,0,0,1,.322,2.184ZM31.752-1.526a5.087,5.087,0,0,0,1.2-.133,4.752,4.752,0,0,0,1.029-.378,5.453,5.453,0,0,0,.924-.595,8.006,8.006,0,0,0,.861-.8V-6.384a20.593,20.593,0,0,0-2.926.273,8.207,8.207,0,0,0-1.96.567,2.73,2.73,0,0,0-1.1.826,1.777,1.777,0,0,0-.343,1.064,2.348,2.348,0,0,0,.182.966,1.831,1.831,0,0,0,.49.665,1.934,1.934,0,0,0,.728.378A3.327,3.327,0,0,0,31.752-1.526ZM42,0V-14.182h1.484a.635.635,0,0,1,.672.518l.2,1.54a7.971,7.971,0,0,1,2.065-1.652,5.371,5.371,0,0,1,2.639-.63,5.121,5.121,0,0,1,2.051.385,3.968,3.968,0,0,1,1.484,1.092,4.823,4.823,0,0,1,.9,1.7,7.4,7.4,0,0,1,.308,2.2V0H51.31V-9.03a3.817,3.817,0,0,0-.735-2.5,2.748,2.748,0,0,0-2.247-.889,4.189,4.189,0,0,0-2.065.532,6.8,6.8,0,0,0-1.771,1.442V0ZM62.342-14.42a7.054,7.054,0,0,1,1.729.2,5.438,5.438,0,0,1,1.463.595h3.85v.924q0,.462-.588.588l-1.61.224a4.313,4.313,0,0,1,.476,2.03,4.364,4.364,0,0,1-.4,1.883,4.271,4.271,0,0,1-1.106,1.449,4.964,4.964,0,0,1-1.68.924,6.762,6.762,0,0,1-2.135.322,7.174,7.174,0,0,1-1.876-.238,2.357,2.357,0,0,0-.679.6,1.083,1.083,0,0,0-.231.63.848.848,0,0,0,.406.763,2.887,2.887,0,0,0,1.078.371,11.684,11.684,0,0,0,1.526.14q.854.028,1.743.091a16.313,16.313,0,0,1,1.743.217,5.334,5.334,0,0,1,1.526.5,2.836,2.836,0,0,1,1.078.966,2.851,2.851,0,0,1,.406,1.6,3.706,3.706,0,0,1-.455,1.764A4.773,4.773,0,0,1,67.3,3.647a6.745,6.745,0,0,1-2.086,1.064,9.024,9.024,0,0,1-2.786.4A10.75,10.75,0,0,1,59.7,4.8a6.368,6.368,0,0,1-1.939-.826,3.6,3.6,0,0,1-1.155-1.2,2.841,2.841,0,0,1-.385-1.421,2.566,2.566,0,0,1,.665-1.785A4.561,4.561,0,0,1,58.716-1.6a2.5,2.5,0,0,1-.959-.749A2.017,2.017,0,0,1,57.4-3.6a1.972,1.972,0,0,1,.112-.637,2.5,2.5,0,0,1,.343-.651,3.651,3.651,0,0,1,.567-.616,3.687,3.687,0,0,1,.784-.518,4.413,4.413,0,0,1-1.645-1.561,4.273,4.273,0,0,1-.595-2.275,4.364,4.364,0,0,1,.4-1.883,4.164,4.164,0,0,1,1.113-1.442,5.091,5.091,0,0,1,1.7-.917A6.941,6.941,0,0,1,62.342-14.42ZM66.766.77a1.217,1.217,0,0,0-.294-.854,1.9,1.9,0,0,0-.8-.5A5.791,5.791,0,0,0,64.512-.84q-.658-.084-1.386-.119t-1.484-.077A13.653,13.653,0,0,1,60.2-1.19,4.092,4.092,0,0,0,58.9-.266a1.868,1.868,0,0,0-.5,1.3,1.713,1.713,0,0,0,.245.889,2.088,2.088,0,0,0,.749.714,4.385,4.385,0,0,0,1.267.476,8.128,8.128,0,0,0,1.8.175,8.153,8.153,0,0,0,1.806-.182,4.534,4.534,0,0,0,1.351-.518,2.543,2.543,0,0,0,.847-.8A1.865,1.865,0,0,0,66.766.77Zm-4.424-7.7a3.923,3.923,0,0,0,1.337-.21,2.7,2.7,0,0,0,.973-.588,2.4,2.4,0,0,0,.588-.9,3.279,3.279,0,0,0,.2-1.155,2.759,2.759,0,0,0-.791-2.072,3.171,3.171,0,0,0-2.3-.77,3.15,3.15,0,0,0-2.289.77,2.759,2.759,0,0,0-.791,2.072,3.177,3.177,0,0,0,.2,1.155,2.479,2.479,0,0,0,.595.9,2.713,2.713,0,0,0,.966.588A3.817,3.817,0,0,0,62.342-6.93Zm15.274-7.476a7.284,7.284,0,0,1,2.807.518,5.919,5.919,0,0,1,2.128,1.47,6.508,6.508,0,0,1,1.344,2.3A9.157,9.157,0,0,1,84.364-7.1,9.141,9.141,0,0,1,83.9-4.074a6.518,6.518,0,0,1-1.344,2.3A5.845,5.845,0,0,1,80.423-.315,7.372,7.372,0,0,1,77.616.2a7.372,7.372,0,0,1-2.807-.511,5.911,5.911,0,0,1-2.135-1.463,6.545,6.545,0,0,1-1.358-2.3A9.018,9.018,0,0,1,70.84-7.1a9.034,9.034,0,0,1,.476-3.017,6.535,6.535,0,0,1,1.358-2.3,5.986,5.986,0,0,1,2.135-1.47A7.284,7.284,0,0,1,77.616-14.406Zm0,12.656a3.641,3.641,0,0,0,3.136-1.407,6.515,6.515,0,0,0,1.036-3.927,6.574,6.574,0,0,0-1.036-3.948,3.634,3.634,0,0,0-3.136-1.414,4.352,4.352,0,0,0-1.848.364,3.459,3.459,0,0,0-1.309,1.05,4.664,4.664,0,0,0-.784,1.687,9.043,9.043,0,0,0-.259,2.261,8.959,8.959,0,0,0,.259,2.254,4.594,4.594,0,0,0,.784,1.673,3.486,3.486,0,0,0,1.309,1.043A4.352,4.352,0,0,0,77.616-1.75Z" data-name="Large" transform="translate(971.984 175)"/><path id="Large-6" fill="#9a9a9a" d="M2.436,0V-20.062h6.4a12.232,12.232,0,0,1,3.185.364,6.168,6.168,0,0,1,2.2,1.036,4.087,4.087,0,0,1,1.274,1.645,5.557,5.557,0,0,1,.413,2.191,4.444,4.444,0,0,1-.231,1.428,4.162,4.162,0,0,1-.7,1.274,4.949,4.949,0,0,1-1.176,1.05,6.551,6.551,0,0,1-1.659.756,6.186,6.186,0,0,1,3.318,1.582,4.145,4.145,0,0,1,1.12,3.024,5.635,5.635,0,0,1-.469,2.324,4.979,4.979,0,0,1-1.372,1.806A6.4,6.4,0,0,1,12.523-.413,9.93,9.93,0,0,1,9.534,0ZM5.152-9.142v6.986h4.34a6.6,6.6,0,0,0,2-.266,3.72,3.72,0,0,0,1.372-.749,2.9,2.9,0,0,0,.791-1.148A4.1,4.1,0,0,0,13.9-5.782a3.011,3.011,0,0,0-1.1-2.457,5.16,5.16,0,0,0-3.325-.9Zm0-1.932H8.736a6.958,6.958,0,0,0,1.988-.252,4.024,4.024,0,0,0,1.393-.7,2.737,2.737,0,0,0,.819-1.085A3.579,3.579,0,0,0,13.2-14.5a3.074,3.074,0,0,0-1.064-2.59,5.377,5.377,0,0,0-3.3-.826H5.152Zm20.622-3.332a6.331,6.331,0,0,1,2.352.427,5.279,5.279,0,0,1,1.862,1.232,5.617,5.617,0,0,1,1.225,1.988,7.68,7.68,0,0,1,.441,2.7,1.625,1.625,0,0,1-.126.784.523.523,0,0,1-.476.2H21.616a7.83,7.83,0,0,0,.364,2.338A4.781,4.781,0,0,0,22.9-3.087a3.7,3.7,0,0,0,1.4.994,4.808,4.808,0,0,0,1.82.329,5.339,5.339,0,0,0,1.617-.217A7.693,7.693,0,0,0,28.91-2.45a8.917,8.917,0,0,0,.819-.469,1.086,1.086,0,0,1,.567-.217.548.548,0,0,1,.476.238l.7.91a4.733,4.733,0,0,1-1.106.973,6.886,6.886,0,0,1-1.379.679,8.759,8.759,0,0,1-1.519.4A9.278,9.278,0,0,1,25.914.2,7.211,7.211,0,0,1,23.2-.3a5.946,5.946,0,0,1-2.142-1.456A6.679,6.679,0,0,1,19.656-4.13a9.649,9.649,0,0,1-.5-3.248,8.264,8.264,0,0,1,.455-2.772,6.534,6.534,0,0,1,1.309-2.233A6.026,6.026,0,0,1,23-13.867,6.848,6.848,0,0,1,25.774-14.406Zm.056,1.834a3.826,3.826,0,0,0-2.842,1.043A4.909,4.909,0,0,0,21.7-8.638h7.714a5.046,5.046,0,0,0-.238-1.589,3.541,3.541,0,0,0-.7-1.246,3.133,3.133,0,0,0-1.127-.812A3.8,3.8,0,0,0,25.83-12.572ZM34.832,0V-14.182H36.26a.788.788,0,0,1,.56.154.945.945,0,0,1,.21.532l.168,2.212A6.487,6.487,0,0,1,39-13.6a3.974,3.974,0,0,1,2.513-.833,3.952,3.952,0,0,1,1.064.133,3.709,3.709,0,0,1,.882.371l-.322,1.862a.421.421,0,0,1-.434.35,2.178,2.178,0,0,1-.6-.133,3.8,3.8,0,0,0-1.134-.133,3.212,3.212,0,0,0-2.177.756,5.675,5.675,0,0,0-1.463,2.2V0ZM46.116,0V-14.182h1.428a.788.788,0,0,1,.56.154.944.944,0,0,1,.21.532l.168,2.212a6.487,6.487,0,0,1,1.8-2.317,3.974,3.974,0,0,1,2.513-.833,3.952,3.952,0,0,1,1.064.133,3.709,3.709,0,0,1,.882.371l-.322,1.862a.421.421,0,0,1-.434.35,2.178,2.178,0,0,1-.6-.133,3.8,3.8,0,0,0-1.134-.133,3.212,3.212,0,0,0-2.177.756,5.675,5.675,0,0,0-1.463,2.2V0ZM61.558,4.186a1.3,1.3,0,0,1-.315.448.855.855,0,0,1-.581.168H58.814L61.4-.826,55.552-14.182h2.156a.735.735,0,0,1,.5.161,1.007,1.007,0,0,1,.266.357l3.794,8.932a6.464,6.464,0,0,1,.217.616q.091.308.161.63.1-.322.2-.63t.224-.63l3.682-8.918a.8.8,0,0,1,.287-.371.736.736,0,0,1,.441-.147h1.988Z" data-name="Large" transform="translate(971.984 334)"/></g></svg>