<svg xmlns="http://www.w3.org/2000/svg" id="sangen" width="798" height="532" viewBox="0 0 798 532"><g id="Groupe_3561" data-name="Groupe 3561"><rect id="Rectangle_54" width="266" height="266" fill="#5760b1" data-name="Rectangle 54"/></g><g id="Groupe_3562" data-name="Groupe 3562"><rect id="Rectangle_55" width="266" height="266" fill="#cdcff8" data-name="Rectangle 55"/><path id="Tracé_283" fill="#29367c" d="M133,0A133,133,0,0,1,0,133V0Z" data-name="Tracé 283"/><path id="Tracé_284" fill="#5760b1" d="M133,266A133,133,0,0,1,266,133V266Z" data-name="Tracé 284"/><rect id="Rectangle_56" width="266" height="266" fill="#5760b1" data-name="Rectangle 56" transform="translate(266)"/><rect id="Rectangle_57" width="266" height="266" fill="#29367c" data-name="Rectangle 57" transform="translate(266)"/><rect id="Rectangle_66" width="266" height="266" fill="#5760b1" data-name="Rectangle 66" transform="translate(532 266)"/><path id="Tracé_285" fill="#5760b1" d="M399,0A133,133,0,0,1,266,133V0Z" data-name="Tracé 285"/><path id="Tracé_302" fill="#fff" d="M399,0A133,133,0,0,1,266,133V0Z" data-name="Tracé 302" transform="translate(266 266)"/><path id="Tracé_286" fill="#fff" d="M532,133A133,133,0,0,1,399,0H532Z" data-name="Tracé 286"/><path id="Tracé_301" fill="#cdcff8" d="M532,133A133,133,0,0,1,399,0H532Z" data-name="Tracé 301" transform="translate(266 266)"/><path id="Tracé_287" fill="#749fff" d="M266,133A133,133,0,0,1,399,266H266Z" data-name="Tracé 287"/><path id="Tracé_300" fill="#29367c" d="M266,133A133,133,0,0,1,399,266H266Z" data-name="Tracé 300" transform="translate(266 266)"/><path id="Tracé_288" fill="#cdcff8" d="M399,266A133,133,0,0,1,532,133V266Z" data-name="Tracé 288"/><path id="Tracé_299" fill="#749fff" d="M399,266A133,133,0,0,1,532,133V266Z" data-name="Tracé 299" transform="translate(266 266)"/><rect id="Rectangle_59" width="266" height="266" fill="#5760b1" data-name="Rectangle 59" transform="translate(0 266)"/><rect id="Rectangle_60" width="266" height="266" fill="#fff" data-name="Rectangle 60" transform="translate(0 266)"/><path id="Tracé_291" fill="#5760b1" d="M133,266A133,133,0,0,1,0,399V266Z" data-name="Tracé 291"/><path id="Tracé_292" fill="#cdcff8" d="M266,399A133,133,0,0,1,133,266H266Z" data-name="Tracé 292"/><path id="Tracé_293" fill="#749fff" d="M0,399A133,133,0,0,1,133,532H0Z" data-name="Tracé 293"/><path id="Tracé_294" fill="#29367c" d="M133,532A133,133,0,0,1,266,399V532Z" data-name="Tracé 294"/><rect id="Rectangle_61" width="266" height="266" fill="#5760b1" data-name="Rectangle 61" transform="translate(266 266)"/><rect id="Rectangle_62" width="133" height="133" fill="#29367c" data-name="Rectangle 62" transform="translate(266 266)"/><rect id="Rectangle_63" width="133" height="133" fill="#cdcff8" data-name="Rectangle 63" transform="translate(399 399)"/><rect id="Rectangle_65" width="266" height="266" fill="#5760b1" data-name="Rectangle 65" transform="translate(532)"/><path id="Tracé_297" fill="#749fff" d="M266,798c0-146.908,119.092-266,266-266V798Z" data-name="Tracé 297" transform="translate(266 -532)"/><path id="Tracé_298" fill="#5760b1" d="M399,798A133,133,0,0,1,532,665V798Z" data-name="Tracé 298" transform="translate(266 -532)"/></g></svg>