<svg width="79" height="64" viewBox="0 0 79 64" fill="none" xmlns="http://www.w3.org/2000/svg">
<path d="M4.91917 0C2.32832 0 0.228027 2.18046 0.228027 4.87019V54.7219C0.228027 57.4117 2.32832 59.5921 4.91916 59.5921H74.3089C76.8998 59.5921 79.0001 57.4117 79.0001 54.7219V11.2285C79.0001 8.53875 76.8998 6.3583 74.3089 6.3583H30.8507L27.0432 1.71373C26.1519 0.626471 24.846 0 23.4708 0H4.91917Z" fill="#AAAAAA"/>
<path d="M0.228027 15.2871C0.228027 12.5973 2.32832 10.4169 4.91917 10.4169H74.3089C76.8998 10.4169 79.0001 12.5973 79.0001 15.2871V58.7805C79.0001 61.4702 76.8998 63.6507 74.3089 63.6507H4.91916C2.32832 63.6507 0.228027 61.4702 0.228027 58.7805V15.2871Z" fill="#D9D9D9"/>
</svg>
