<svg width="1807" height="700" viewBox="0 0 1807 700" fill="none" xmlns="http://www.w3.org/2000/svg">
<path d="M38.4365 670.793C43.983 665.633 46.7076 656.481 46.7076 643.533V37.9694C46.7076 25.0209 43.983 15.8693 38.4365 10.7093C32.8899 5.54938 20.1427 2.62865 0 1.94715V0H122.607V1.94715C101.2 2.62865 87.2848 5.64673 80.7652 11.1961C74.2456 16.7455 71.0345 25.605 71.0345 37.9694V677.608H367.822C390.495 677.608 409.47 670.306 424.747 655.702C440.024 641.099 451.799 623.38 460.264 602.643H464.157L434.964 681.502H0V679.555C20.1427 678.873 32.8899 675.953 38.4365 670.793ZM585.791 652.295C585.791 647.719 584.137 640.612 580.926 630.876L442.749 235.605H357.119L257.865 497.496C255.238 503.338 253.973 509.471 253.973 515.994C253.973 534.2 271.196 544.228 305.546 546.175V548.122H180.992V546.175C197.826 544.228 212.617 539.652 225.267 532.545C237.917 525.438 247.453 513.366 253.973 496.523L398.961 113.908L359.065 0H386.311L604.28 622.114C612.064 643.533 621.6 658.331 632.985 666.412C644.37 674.492 658.48 678.873 675.314 679.555V681.502H537.137V679.555C553.972 678.873 566.33 676.634 574.114 672.74C581.899 668.846 585.791 662.031 585.791 652.295ZM400.907 120.723L359.065 231.711H440.803L400.907 120.723Z" fill="#D2D2D2"/>
<path d="M766.783 643.533V37.9694C766.783 25.605 763.669 16.7455 757.539 11.1961C751.408 5.64673 737.883 2.62865 717.156 1.94715V0H830.033C855.333 0 880.633 4.18636 905.933 12.6565C931.233 21.1266 952.154 34.3672 968.696 52.573C985.238 70.7789 993.509 93.1711 993.509 119.75C993.509 148.957 982.611 173.296 960.911 192.768C939.212 212.239 911.479 225.577 877.714 232.684C911.479 234.631 944.661 245.633 977.454 265.786C1010.25 285.939 1037.1 312.517 1058.22 345.619C1079.33 378.72 1089.84 414.451 1089.84 452.712C1089.84 503.338 1078.17 545.883 1054.81 580.25C1031.46 614.617 1001.59 640.125 965.29 656.676C928.995 673.227 891.337 681.502 852.414 681.502H717.156V679.555C737.883 678.873 751.408 675.855 757.539 670.306C763.669 664.757 766.783 655.897 766.783 643.533ZM903.013 219.541C919.848 210.779 933.86 197.83 944.856 180.598C955.851 163.366 961.398 143.115 961.398 119.75C961.398 84.701 950.013 56.662 927.34 35.5355C904.668 14.4089 871.583 3.89429 828.087 3.89429H791.11V232.684H852.414C869.248 232.684 886.179 228.303 903.013 219.541ZM965.777 645.967C996.623 624.84 1019.59 597.288 1034.87 563.213C1050.14 529.138 1057.73 492.337 1057.73 452.712C1057.73 413.088 1048.68 374.826 1030.49 341.725C1012.29 308.623 988.352 282.823 958.479 264.325C928.605 245.828 897.175 236.579 864.09 236.579H791.11V677.608H851.441C896.883 677.608 934.93 667.093 965.777 645.967Z" fill="#D2D2D2"/>
<path d="M1356.47 659.11C1333.79 650.056 1319.49 645.48 1313.65 645.48C1305.87 645.48 1300.71 648.206 1298.08 653.755C1295.45 659.305 1294.19 668.554 1294.19 681.502H1292.24L1281.54 570.515H1283.49C1290.59 592.615 1306.64 613.352 1331.65 632.823C1356.66 652.295 1386.63 667.677 1421.66 679.068C1456.69 690.459 1492.7 696.106 1529.67 696.106C1582.22 696.106 1629.22 683.936 1670.77 659.597C1712.32 635.257 1744.72 601.474 1768.08 558.345C1791.43 515.216 1803.11 466.634 1803.11 412.796C1803.11 368.693 1792.11 327.9 1770.02 290.612C1747.93 253.324 1718.16 223.63 1680.5 201.53C1642.84 179.43 1601.39 168.428 1555.95 168.428C1525.49 168.428 1496.39 172.128 1468.86 179.624C1441.32 187.121 1409.69 197.928 1373.98 212.239C1343.52 224.604 1317.35 233.853 1295.65 239.986C1273.95 246.12 1252.64 249.235 1231.91 249.235C1213.13 249.235 1196.2 244.562 1181.31 235.118C1166.42 225.675 1154.75 213.7 1146.28 199.096C1137.82 184.492 1133.63 170.083 1133.63 155.772C1133.63 141.46 1137.52 128.707 1145.31 117.316C1153.09 105.925 1162.53 97.6495 1173.53 92.4896C1178.69 89.2768 1187.15 86.356 1198.83 83.7274C1209.82 81.0987 1217.02 78.5674 1220.24 75.9388C1224.81 72.0445 1227.05 66.8846 1227.05 60.3616C1227.05 56.4673 1226.76 53.5466 1226.07 51.5994L1228.02 49.6523L1258.19 134.353H1256.24C1251.67 119.458 1244.27 108.067 1233.86 100.278C1223.45 92.4896 1212.74 88.5953 1201.75 88.5953C1184.91 89.8609 1169.93 96.8706 1156.99 109.527C1144.04 122.184 1137.52 137.566 1137.52 155.772C1137.52 176.509 1146.28 193.255 1163.8 205.911C1181.31 218.567 1202.72 224.896 1228.02 224.896C1247.48 224.896 1267.72 221.78 1288.84 215.647C1309.95 209.513 1336.03 200.264 1367.17 187.9C1406.77 173.004 1440.15 161.808 1467.4 154.312C1494.64 146.815 1522.57 143.115 1551.08 143.115C1602.95 143.115 1648.39 156.259 1687.31 182.545C1726.23 208.832 1755.91 242.712 1776.35 284.284C1796.78 325.855 1807 368.693 1807 412.796C1807 467.997 1795.13 517.455 1771.48 561.266C1747.84 605.076 1714.85 639.152 1672.72 663.491C1630.58 687.83 1582.9 700 1529.67 700C1496.59 700 1466.62 696.3 1439.66 688.804C1412.71 681.307 1384.98 671.474 1356.47 659.11Z" fill="#D2D2D2"/>
</svg>
