<svg width="458" height="88" viewBox="0 0 458 88" fill="none" xmlns="http://www.w3.org/2000/svg">
<path d="M14.8537 0.5H21.8537C15.0537 12.6 9.65369 25.8 9.65369 44.3C9.65369 62.4 15.0537 75.6 21.8537 87.7H14.8537C7.05369 77.6 0.653687 62.4 0.653687 44.3C0.653687 25.6 7.05369 10.6 14.8537 0.5Z" fill="#CDCDCD"/>
<path d="M50.6443 4.5H59.6443V42.8L95.5443 4.5H106.544L78.4443 34.2L108.544 76H98.0443L72.4443 40.4L59.6443 53.9V76H50.6443V4.5Z" fill="#CDCDCD"/>
<path d="M134.3 76V12.5H110.5V4.5H167.1V12.5H143.3V76H134.3Z" fill="#CDCDCD"/>
<path d="M170.251 76.7C167.151 76.7 164.751 74.6 164.751 71.2C164.751 67.9 167.151 65.7 170.251 65.7C173.351 65.7 175.751 67.9 175.751 71.2C175.751 74.6 173.351 76.7 170.251 76.7Z" fill="#CDCDCD"/>
<path d="M186.615 75.8936V4.41553H194.438V74.4566C203.061 74.6694 208.33 74.7227 210.299 74.7227H211.204C211.629 74.7227 212.321 74.6694 213.173 74.5098C213.226 74.5098 213.332 74.5098 213.439 74.5098C213.545 74.5098 213.599 74.4566 213.652 74.4566C222.061 73.2324 228.235 69.6133 232.12 63.5991V75.8936H186.615Z" fill="#CDCDCD"/>
<path d="M302.108 75.6807V59.3413C302.108 57.4785 302.161 54.0723 302.161 49.1758V31.1333C302.161 26.2368 302.108 22.8838 302.108 20.9678V4.62842L322.492 4.41553H323.29C332.338 4.41553 339.151 5.69288 343.675 8.24756C348.145 10.8023 350.434 15.1665 350.434 21.2339C350.434 26.1836 348.518 30.0689 344.739 32.8897C340.96 35.7637 335.851 37.5732 329.358 38.3716C336.33 38.9038 341.972 40.7134 346.283 43.8003C350.594 46.8872 352.776 51.0918 352.776 56.4141C352.776 69.4004 343.834 75.8936 325.952 75.8936H325.207L302.108 75.6807ZM310.198 14.794C310.198 15.752 310.198 17.9873 310.251 21.6065C310.251 25.2256 310.304 28.419 310.304 31.1333V38.0522H322.066C328.666 38.0522 333.562 36.7749 336.809 34.1138C340.002 31.5059 341.652 27.1948 341.652 21.1274C341.652 15.2197 340.056 11.1748 336.915 8.99268C333.775 6.81055 328.719 5.69288 321.747 5.69288H310.198V14.794ZM310.304 74.9888H324.408C331.221 74.9888 336.17 73.4985 339.311 70.4116C342.451 67.3779 344.047 62.6943 344.047 56.4141C344.047 50.5596 342.397 46.2485 339.151 43.4277C335.904 40.6069 330.635 39.1699 323.397 39.1699H310.304V74.9888Z" fill="#CDCDCD"/>
<path d="M360.493 22.9902C360.493 19.0518 361.558 15.5391 363.793 12.5054C366.028 9.52491 368.956 7.23633 372.575 5.69288C376.194 4.20264 380.186 3.4043 384.603 3.4043C391.735 3.4043 399.239 4.30909 407.063 6.06544C407.276 6.11866 407.542 6.2251 407.755 6.33155V20.2227C406.478 16.5503 404.455 13.4102 401.687 10.8555C397.43 7.02344 392.054 4.89454 385.667 4.46876H385.135L384.603 4.41553C378.589 4.41553 374.171 5.69288 371.297 8.19434C368.423 10.6958 366.986 13.9956 366.986 18.147C366.986 19.3711 367.093 20.542 367.412 21.6065C367.678 22.6709 368.157 23.6821 368.849 24.6401C369.488 25.5982 370.18 26.5029 370.818 27.2481C371.457 27.9932 372.415 28.7915 373.639 29.5898C374.863 30.3882 375.928 31.0269 376.779 31.5591C377.631 32.0913 378.855 32.73 380.452 33.4751C382.048 34.2202 383.326 34.8057 384.177 35.1782C385.029 35.5508 386.413 36.083 388.222 36.8281C390.245 37.6797 391.788 38.3716 392.853 38.8506C393.917 39.3296 395.301 40.0215 397.11 40.8731C398.867 41.7778 400.25 42.5762 401.262 43.2681C402.22 43.96 403.337 44.8115 404.615 45.876C405.839 46.9404 406.797 48.0049 407.436 49.0693C408.074 50.1338 408.606 51.3047 409.085 52.6885C409.511 54.0723 409.777 55.5625 409.777 57.106C409.777 62.9605 407.595 67.6973 403.284 71.3696C398.92 75.0952 393.598 76.9048 387.317 76.9048C382.102 76.9048 377.844 76.6919 374.491 76.2129C371.084 75.7339 367.359 74.9356 363.261 73.8179C362.782 73.7114 362.516 73.605 362.409 73.4985C362.303 73.3921 362.249 73.126 362.249 72.8066C362.249 72.168 362.196 70.0391 362.196 66.3667C362.143 62.7476 362.143 59.7139 362.143 57.3721C364.059 63.0137 367.04 67.4312 370.978 70.6245C371.83 71.3696 372.734 72.0083 373.799 72.5405C374.225 72.8599 374.491 73.0195 374.65 73.0728C374.704 73.126 374.757 73.1792 374.863 73.2324C374.97 73.2857 375.076 73.3389 375.183 73.3389C375.289 73.3921 375.342 73.4453 375.395 73.4453L376.034 73.7647C376.992 74.1904 378.11 74.6162 379.387 74.9888C381.782 75.6274 384.443 75.8936 387.317 75.8936C392.746 75.8936 396.844 74.6694 399.559 72.1148C402.22 69.6133 403.603 66.207 403.603 61.9492C403.603 60.0332 403.178 58.2769 402.433 56.6802C401.634 55.0835 400.676 53.6465 399.505 52.4756C398.334 51.3047 396.791 50.187 394.928 49.0693C393.012 48.0049 391.203 47.0469 389.499 46.2485C387.796 45.5034 385.774 44.5986 383.432 43.5874C383.272 43.5874 383.166 43.5342 383.06 43.481C382.953 43.4277 382.847 43.3745 382.74 43.3213C380.771 42.523 379.174 41.8843 378.003 41.3521C376.779 40.8198 375.289 40.1279 373.533 39.2764C371.776 38.4248 370.339 37.6265 369.275 36.8814C368.21 36.1362 367.04 35.2314 365.815 34.167C364.538 33.1025 363.58 32.0381 362.888 30.9736C362.196 29.9092 361.611 28.7383 361.185 27.3545C360.706 25.9707 360.493 24.5337 360.493 22.9902Z" fill="#CDCDCD"/>
<path d="M442.829 0.5C450.629 10.6 457.029 25.6 457.029 44.3C457.029 62.4 450.629 77.6 442.829 87.7H435.829C442.629 75.6 448.029 62.4 448.029 44.3C448.029 25.8 442.629 12.6 435.829 0.5H442.829Z" fill="#CDCDCD"/>
<path d="M291 76H281.877L243 10.5915L248.494 4L291 76Z" fill="#CDCDCD"/>
</svg>
