<svg width="258" height="304" viewBox="0 0 258 304" fill="none" xmlns="http://www.w3.org/2000/svg">
<path d="M228.451 256.407V304H241.503V256.407L188.138 185.407H173.963L228.451 256.407Z" fill="#ECECEC"/>
<path d="M252.009 118.593H237.334L174.797 10.8571L183.635 0L252.009 118.593Z" fill="#ECECEC"/>
<path d="M11.1687 118.417V0.120707H24.0962V66.8882L38.8706 50.857L47.9287 40.9035L85.3042 0.120707H87.4148L48.8081 42.3128L96.385 118.417H81.083L39.6621 52.1782L24.0962 69.1784V118.417H11.1687Z" fill="#ECECEC"/>
<path d="M0 187.201V185.615H41.9486V185.527H54.8761V185.615H96.7367V187.201H54.8761V303.824H41.9486V187.201H0Z" fill="#ECECEC"/>
<path d="M241.877 183.97H242.671V188.072H245.053V188.747H241.877V183.97Z" fill="#ECECEC"/>
<path d="M248.392 187.618H246.444L246.057 188.747H245.25L247.004 183.97H247.838L249.586 188.747H248.779L248.392 187.618ZM246.664 186.957H248.178L247.431 184.698H247.418L246.664 186.957Z" fill="#ECECEC"/>
<path d="M253.635 185.173C253.635 185.761 253.288 186.035 252.895 186.168V186.182C253.395 186.268 253.822 186.636 253.822 187.351C253.822 188.273 253.188 188.747 252.201 188.747H250.04V183.97H252.088C253.068 183.97 253.635 184.404 253.635 185.173ZM250.834 185.948H252.061C252.628 185.948 252.841 185.721 252.841 185.3C252.841 184.879 252.581 184.645 252.108 184.645H250.834V185.948ZM250.834 186.542V188.072H252.141C252.821 188.072 253.028 187.752 253.028 187.304C253.028 186.816 252.728 186.542 252.228 186.542H250.834Z" fill="#ECECEC"/>
<path d="M256.206 185.901C257.226 186.162 258 186.382 258 187.451C258 188.213 257.426 188.847 256.226 188.847C255.058 188.847 254.171 188.239 254.124 187.157H254.918C254.958 187.765 255.372 188.166 256.226 188.166C256.933 188.166 257.206 187.852 257.206 187.484C257.206 186.917 256.799 186.81 255.859 186.576C255.112 186.389 254.304 186.101 254.304 185.193C254.304 184.344 254.958 183.87 255.999 183.87C257.046 183.87 257.807 184.418 257.873 185.4H257.079C257.006 184.845 256.659 184.551 255.999 184.551C255.432 184.551 255.092 184.765 255.092 185.119C255.092 185.64 255.539 185.734 256.206 185.901Z" fill="#ECECEC"/>
</svg>
