<svg xmlns="http://www.w3.org/2000/svg" xmlns:xlink="http://www.w3.org/1999/xlink" width="500" height="500" viewBox="0 0 500 500"><defs><clipPath id="clip-path"><rect id="Rectangle_126" width="52.879" height="105.757" fill="#fff" data-name="Rectangle 126"/></clipPath><clipPath id="clip-path-2"><rect id="Rectangle_125" width="52.879" height="105.757" fill="#fff" stroke="#707070" stroke-width="1" data-name="Rectangle 125"/></clipPath><clipPath id="clip-grid2"><rect width="500" height="500"/></clipPath></defs><g id="grid2" clip-path="url(#clip-grid2)"><g id="Groupe_3132" data-name="Groupe 3132" opacity=".3" transform="translate(117.803 117.92)"><g id="Soustraction_117" fill="#3a69e2" data-name="Soustraction 117"><path stroke="none" d="M 119.6980743408203 241.3960418701172 C 107.9454116821289 240.1833343505859 96.52436828613281 237.2511138916016 85.60975646972656 232.6348114013672 C 71.3580322265625 226.6070861816406 58.5556640625 217.9747772216797 47.55830383300781 206.9777679443359 C 36.56216430664062 195.9812774658203 27.92962074279785 183.1791839599609 21.90084838867188 168.927490234375 C 15.66302967071533 154.1786346435547 12.49998378753662 138.5042724609375 12.49998378753662 122.3407287597656 C 12.49998378753662 98.13195037841797 19.68648338317871 74.81599426269531 33.28261947631836 54.91354370117188 C 39.27507019042969 46.14177322387695 46.39146423339844 38.21494293212891 54.46506500244141 31.31438827514648 C 53.88887786865234 35.16933441162109 53.59921264648438 39.07791900634766 53.59921264648438 43.02313232421875 C 53.59921264648438 51.67327117919922 54.99884796142578 60.180908203125 57.75921249389648 68.30972290039062 C 59.46120071411133 73.32057189941406 61.65938186645508 78.12937927246094 64.32565307617188 82.68309020996094 C 61.6597785949707 87.23573303222656 59.46173095703125 92.04360961914062 57.75975799560547 97.05331420898438 C 54.99889373779297 105.1825866699219 53.59921264648438 113.6900863647461 53.59921264648438 122.3407287597656 C 53.59921264648438 132.9454498291016 55.67903137207031 143.2398681640625 59.78089141845703 152.9380035400391 C 63.74102783203125 162.2999114990234 69.40675354003906 170.7043609619141 76.62080383300781 177.9183654785156 C 83.83502960205078 185.1326293945312 92.23934936523438 190.7981414794922 101.6003036499023 194.7574462890625 C 107.4377822875977 197.2265930175781 113.4906234741211 198.9629669189453 119.6980743408203 199.9542236328125 L 119.6980743408203 241.3960418701172 Z" transform="translate(0 9.856)"/><path fill="#3a69e2" stroke="none" d="M 107.1980819702148 226.6168670654297 L 107.1980819702148 209.9649047851562 C 103.6518173217773 208.9524841308594 100.1590423583984 207.7200622558594 96.73086547851562 206.2700042724609 C 85.87997436523438 201.6804351806641 76.14014434814453 195.1153869628906 67.78192138671875 186.7571716308594 C 59.42397308349609 178.3992767333984 52.85880661010742 168.6594390869141 48.26825332641602 157.8073272705078 C 43.51119613647461 146.5601043701172 41.09919738769531 134.6273803710938 41.09919738769531 122.3407211303711 C 41.09919738769531 112.3202209472656 42.72225189208984 102.460334777832 45.92414093017578 93.03221893310547 C 47.12748336791992 89.49028015136719 48.54423904418945 86.03604125976562 50.1673583984375 82.68278503417969 C 48.54391479492188 79.32846069335938 47.12652969360352 75.87224578857422 45.9229736328125 72.32888793945312 C 44.83264923095703 69.11805725097656 43.92538070678711 65.856689453125 43.2030143737793 62.55598449707031 C 31.29198455810547 80.24190521240234 25.00002861022949 100.8979721069336 25.00002861022949 122.3407211303711 C 25.00002861022949 136.8224487304688 27.83086204528809 150.8585510253906 33.41313934326172 164.0574951171875 C 38.81180572509766 176.8196105957031 46.54491806030273 188.2864379882812 56.39702987670898 198.1388244628906 C 66.25041961669922 207.9918823242188 77.71725463867188 215.724609375 90.47897338867188 221.1221618652344 C 95.91863250732422 223.4228515625 101.5014266967773 225.2564086914062 107.1980819702148 226.6168670654297 M 132.1980895996094 254.5359954833984 L 132.1953582763672 254.5359954833984 C 114.3493041992188 254.5356140136719 97.03764343261719 251.0402221679688 80.74053192138672 244.1474456787109 C 64.99813842773438 237.4892272949219 50.8604736328125 227.9572143554688 38.71963882446289 215.8167724609375 C 26.57952880859375 203.6763305664062 17.04758453369141 189.5390472412109 10.38852977752686 173.7974395751953 C 3.495418548583984 157.4992218017578 2.954101546492893e-05 140.1863861083984 2.954101546492893e-05 122.3407211303711 C 2.954101546492893e-05 95.60511016845703 7.939973831176758 69.85099792480469 22.96114158630371 47.86255264282227 C 30.20141792297363 37.26411056518555 38.92802810668945 27.7832202911377 48.89863967895508 19.68294143676758 C 58.94697570800781 11.51994228363037 70.08941650390625 4.897109031677246 82.01725006103516 -2.25830081035383e-06 C 76.98752593994141 5.861664295196533 73.05658721923828 12.48377513885498 70.33775329589844 19.68599700927734 C 67.52552795410156 27.1362190246582 66.09919738769531 34.98816299438477 66.09919738769531 43.02310943603516 C 66.09919738769531 50.30377578735352 67.27564239501953 57.45911026000977 69.59535980224609 64.29032897949219 C 71.83824920654297 70.89360809326172 75.10836029052734 77.08205413818359 79.31497192382812 82.68344116210938 C 75.10952758789062 88.28255462646484 71.83941650390625 94.46905517578125 69.59535980224609 101.0742721557617 C 67.27564239501953 107.9047164916992 66.09919738769531 115.0600509643555 66.09919738769531 122.3407211303711 C 66.09919738769531 131.2637786865234 67.84691619873047 139.9199371337891 71.29347229003906 148.0687255859375 C 74.62319946289062 155.9402770996094 79.38919830322266 163.0091094970703 85.45958709716797 169.0794982910156 C 91.52891540527344 175.1488342285156 98.59736633300781 179.9151611328125 106.4696960449219 183.2448883056641 C 114.6188049316406 186.6918334960938 123.2754211425781 188.4394989013672 132.1980895996094 188.4394989013672 L 132.1980895996094 254.5359954833984 Z" transform="translate(0 9.856)"/></g><g id="Soustraction_118" fill="#fff" data-name="Soustraction 118"><path stroke="none" d="M 77.7305908203125 223.2225646972656 C 78.30674743652344 219.3676147460938 78.59654235839844 215.4579925537109 78.59654235839844 211.5125122070312 C 78.59654235839844 202.8620147705078 77.19686126708984 194.3545074462891 74.43640899658203 186.2263336181641 C 72.73499298095703 181.2166137695312 70.53708648681641 176.4080352783203 67.87143707275391 171.8548736572266 C 70.53741455078125 167.3007965087891 72.73524475097656 162.4917144775391 74.43658447265625 157.4811859130859 C 77.19690704345703 149.3531494140625 78.59654235839844 140.8456878662109 78.59654235839844 132.1956481933594 C 78.59654235839844 121.5908737182617 76.5167236328125 111.2964630126953 72.41486358642578 101.5983734130859 C 68.45681762695312 92.23905181884766 62.79172515869141 83.83455657958984 55.57708740234375 76.61901092529297 C 48.36217880249023 69.40496063232422 39.9583625793457 63.74000930786133 30.59795188903809 59.78037261962891 C 24.76137733459473 57.31126022338867 18.70767593383789 55.57471466064453 12.49999713897705 54.58348083496094 L 12.49999713897705 13.13983345031738 C 24.25084686279297 14.35258769989014 35.67275238037109 17.28497505187988 46.58663558959961 21.90110015869141 C 60.83972549438477 27.93014526367188 73.64204406738281 36.56246566772461 84.63768005371094 47.55805587768555 C 95.63422393798828 58.55537414550781 104.2664489746094 71.35764312744141 110.2942276000977 85.60905456542969 C 116.5323638916016 100.3580093383789 119.6953582763672 116.0326919555664 119.6953582763672 132.1976013183594 C 119.6953582763672 156.4051971435547 112.5088119506836 179.7206420898438 98.91268157958984 199.6232757568359 C 92.92110443115234 208.3948516845703 85.80466461181641 216.3218078613281 77.7305908203125 223.2225646972656 Z" transform="translate(132.2 0.001)"/><path fill="#fff" stroke="none" d="M 88.99280548095703 191.9802093505859 C 100.9038391113281 174.2939300537109 107.1953430175781 153.6391143798828 107.1953430175781 132.1975708007812 C 107.1953430175781 117.7146835327148 104.3645706176758 103.6782455444336 98.78173828125 90.47846221923828 C 93.38401031494141 77.71685028076172 85.65129089355469 66.24996185302734 75.79884338378906 56.39690780639648 C 65.94712066650391 46.54518508911133 54.48017883300781 38.81240844726562 41.71734619140625 33.4136848449707 C 36.27761840820312 31.1129264831543 30.69642066955566 29.27968978881836 25.00001335144043 27.91924095153809 L 25.00001335144043 44.57265090942383 C 28.54688835144043 45.58518981933594 32.03944396972656 46.81764984130859 35.46790313720703 48.26802062988281 C 46.31773376464844 52.85774230957031 56.05667877197266 59.42201995849609 64.41645812988281 67.78068542480469 C 72.77495574951172 76.14024353027344 79.33956909179688 85.88029479980469 83.92734527587891 96.72891235351562 C 88.68445587158203 107.9759674072266 91.09651184082031 119.9087448120117 91.09651184082031 132.1956329345703 C 91.09651184082031 142.2158508300781 89.4735107421875 152.07568359375 86.27284240722656 161.5003051757812 C 85.06960296630859 165.0438690185547 83.65277862548828 168.4995727539062 82.02922058105469 171.8545684814453 C 83.65254974365234 175.2088012695312 85.06922149658203 178.6637268066406 86.27239990234375 182.2065124511719 C 87.36299896240234 185.4177093505859 88.27033233642578 188.678955078125 88.99280548095703 191.9802093505859 M 50.18884658813477 254.5329132080078 L 50.18618011474609 254.5286865234375 C 55.21590042114258 248.6651306152344 59.14301300048828 242.044189453125 61.85801315307617 234.8500213623047 C 64.67062377929688 227.3990173339844 66.09651184082031 219.5474700927734 66.09651184082031 211.5125122070312 C 66.09651184082031 204.2326354980469 64.92050933837891 197.0776824951172 62.60034561157227 190.2460784912109 C 60.35751342773438 183.6420135498047 57.08779144287109 177.4546813964844 52.8830680847168 171.8552398681641 C 57.08779144287109 166.2550201416016 60.35751342773438 160.0672912597656 62.60034561157227 153.4621276855469 C 64.92050933837891 146.630126953125 66.09651184082031 139.4755249023438 66.09651184082031 132.1956329345703 C 66.09651184082031 123.2730178833008 64.34884643554688 114.6164093017578 60.9022331237793 106.4676895141602 C 57.57373428344727 98.59690856933594 52.80812454223633 91.52846527099609 46.73767852783203 85.45724487304688 C 40.66762542724609 79.38796234130859 33.59917831420898 74.62235260009766 25.72801208496094 71.29268646240234 C 17.58001327514648 67.84574127197266 8.923401832580566 66.09841156005859 1.247151703864802e-05 66.09841156005859 L 1.247151703864802e-05 1.97889548871899e-05 C 17.84873390197754 1.97889548871899e-05 35.160400390625 3.496186494827271 51.45601272583008 10.38852024078369 C 67.19834899902344 17.04757499694824 81.33601379394531 26.5787410736084 93.47650909423828 38.71924209594727 C 105.6169586181641 50.86046600341797 115.148567199707 64.99774169921875 121.8068466186523 80.73968505859375 C 128.7003479003906 97.03835296630859 132.1953430175781 114.3515167236328 132.1953430175781 132.1975708007812 C 132.1953430175781 158.9313049316406 124.2557373046875 184.6850128173828 109.2342376708984 206.6742401123047 C 101.9947357177734 217.2726898193359 93.26811981201172 226.7535247802734 83.29712677001953 234.8538513183594 C 73.25223541259766 243.0141296386719 62.11328887939453 249.6350708007812 50.18884658813477 254.5329132080078 Z" transform="translate(132.2 0.001)"/></g><g id="Groupe_de_masques_59" clip-path="url(#clip-path)" data-name="Groupe de masques 59" transform="translate(132.451 158.636)"><circle id="Ellipse_253" cx="52.879" cy="52.879" r="52.879" fill="#3a69e2" data-name="Ellipse 253" transform="translate(-52.879)"/></g><g id="Groupe_de_masques_58" clip-path="url(#clip-path-2)" data-name="Groupe de masques 58" transform="translate(79.854 0)"><circle id="Ellipse_252" cx="52.879" cy="52.879" r="52.879" fill="#fff" data-name="Ellipse 252"/></g></g><g id="Ellipse_254" fill="none" stroke="#6e6e6e" stroke-width="1" data-name="Ellipse 254" opacity=".496" transform="translate(183.863 184.257)"><ellipse cx="66.137" cy="66.137" stroke="none" rx="66.137" ry="66.137"/><ellipse cx="66.137" cy="66.137" fill="none" rx="65.637" ry="65.637"/></g><g id="Ellipse_255" fill="none" stroke="#6e6e6e" stroke-width="1" data-name="Ellipse 255" opacity=".496" transform="translate(183.863 104.734)"><ellipse cx="66.137" cy="66.137" stroke="none" rx="66.137" ry="66.137"/><ellipse cx="66.137" cy="66.137" fill="none" rx="65.637" ry="65.637"/></g><g id="Ellipse_257" fill="none" stroke="#6e6e6e" stroke-width="1" data-name="Ellipse 257" opacity=".496" transform="translate(197.248 117.332)"><ellipse cx="53.933" cy="53.933" stroke="none" rx="53.933" ry="53.933"/><ellipse cx="53.933" cy="53.933" fill="none" rx="53.433" ry="53.433"/></g><g id="Ellipse_258" fill="none" stroke="#6e6e6e" stroke-width="1" data-name="Ellipse 258" opacity=".496" transform="translate(195.673 275.589)"><ellipse cx="53.933" cy="53.933" stroke="none" rx="53.933" ry="53.933"/><ellipse cx="53.933" cy="53.933" fill="none" rx="53.433" ry="53.433"/></g><g id="Ellipse_256" fill="none" stroke="#6e6e6e" stroke-width="1" data-name="Ellipse 256" opacity=".496" transform="translate(183.863 263.778)"><ellipse cx="66.137" cy="66.137" stroke="none" rx="66.137" ry="66.137"/><ellipse cx="66.137" cy="66.137" fill="none" rx="65.637" ry="65.637"/></g><g id="Ellipse_259" fill="none" stroke="#6e6e6e" stroke-width="1" data-name="Ellipse 259" opacity=".496" transform="translate(116.938 117.332)"><ellipse cx="133.062" cy="133.062" stroke="none" rx="133.062" ry="133.062"/><ellipse cx="133.062" cy="133.062" fill="none" rx="132.562" ry="132.562"/></g><line id="Ligne_26" y2="406.272" fill="none" stroke="#6e6e6e" stroke-width="1" data-name="Ligne 26" opacity=".496" transform="translate(251.181 46.864)"/></g></svg>