<svg xmlns="http://www.w3.org/2000/svg" width="361.232" height="186.756" viewBox="0 0 361.232 186.756">
  <g id="Groupe_3165" data-name="Groupe 3165" transform="translate(-827.384 -803.244)">
    <text id="Monochrome" transform="translate(872.384 987)" fill="#fff" font-size="12" font-family="NeueMontreal-Regular, Neue Montreal" opacity="0.4"><tspan x="-34.302" y="0">Monochrome</tspan></text>
    <text id="Variance_1" data-name="Variance 1" transform="translate(1143.151 987)" fill="#fff" font-size="12" font-family="NeueMontreal-Regular, Neue Montreal" opacity="0.4"><tspan x="-25.548" y="0">Variance 1</tspan></text>
    <g id="Groupe_3144" data-name="Groupe 3144" transform="translate(825.816 803.244)">
      <path id="Tracé_397" data-name="Tracé 397" d="M-1647,5975l.042,29.174h22.551Z" transform="translate(1648.568 -5886.684)" fill="#fff"/>
      <path id="Tracé_398" data-name="Tracé 398" d="M-1624.406,6004.287l-.042-29.287H-1647Z" transform="translate(1716.439 -5974.886)" fill="#fff"/>
      <path id="Tracé_399" data-name="Tracé 399" d="M14.644,0l-.028,45.244H0Z" transform="translate(46.788 14.758) rotate(-90)" fill="#fff"/>
      <path id="Tracé_400" data-name="Tracé 400" d="M-1647,6004.287l.042-29.287h22.551Z" transform="translate(1716.439 -5886.684)" fill="#fff"/>
      <path id="Tracé_401" data-name="Tracé 401" d="M-1624.406,5975l-.042,29.287H-1647Z" transform="translate(1648.568 -5975)" fill="#fff"/>
      <path id="Tracé_402" data-name="Tracé 402" d="M-1647,5835.512l67.923,65.927,22.518-6.73-67.67-66.827Z" transform="translate(1648.568 -5806.224)" fill="#fff"/>
      <text id="渋谷区" transform="translate(46.789 145.189)" font-size="14" font-family="PingFangSC-Regular, PingFang SC" letter-spacing="0.3em"><tspan x="-25.2" y="0">渋谷区</tspan></text>
      <text id="渋谷区-2" data-name="渋谷区" transform="translate(46.789 145.189)" fill="#fff" font-size="14" font-family="PingFangSC-Regular, PingFang SC" letter-spacing="0.3em"><tspan x="-25.2" y="0">渋谷区</tspan></text>
    </g>
    <g id="Groupe_3147" data-name="Groupe 3147" transform="translate(1096.583 803.244)">
      <path id="Tracé_397-2" data-name="Tracé 397" d="M-1647,5975l.042,29.174h22.551Z" transform="translate(1648.568 -5886.684)" fill="#4c6ef8"/>
      <path id="Tracé_398-2" data-name="Tracé 398" d="M-1624.406,6004.287l-.042-29.287H-1647Z" transform="translate(1716.439 -5974.886)" fill="#4c6ef8"/>
      <path id="Tracé_399-2" data-name="Tracé 399" d="M14.644,0l-.028,45.244H0Z" transform="translate(46.788 14.758) rotate(-90)" fill="#4c6ef8"/>
      <path id="Tracé_400-2" data-name="Tracé 400" d="M-1647,6004.287l.042-29.287h22.551Z" transform="translate(1716.439 -5886.684)" fill="#4c6ef8"/>
      <path id="Tracé_401-2" data-name="Tracé 401" d="M-1624.406,5975l-.042,29.287H-1647Z" transform="translate(1648.568 -5975)" fill="#4c6ef8"/>
      <path id="Tracé_402-2" data-name="Tracé 402" d="M-1647,5835.512l67.923,65.927,22.518-6.73-67.67-66.827Z" transform="translate(1648.568 -5806.224)" fill="#4c6ef8"/>
      <text id="渋谷区-3" data-name="渋谷区" transform="translate(46.789 145.189)" fill="#4c6ef8" font-size="14" font-family="PingFangSC-Regular, PingFang SC" letter-spacing="0.3em"><tspan x="-25.2" y="0">渋谷区</tspan></text>
      <text id="渋谷区-4" data-name="渋谷区" transform="translate(46.789 145.189)" fill="#4c6ef8" font-size="14" font-family="PingFangSC-Regular, PingFang SC" letter-spacing="0.3em"><tspan x="-25.2" y="0">渋谷区</tspan></text>
    </g>
  </g>
</svg>
