<svg xmlns="http://www.w3.org/2000/svg" width="364.033" height="183.756" viewBox="0 0 364.033 183.756"><g id="Groupe_3164" data-name="Groupe 3164" transform="translate(-825.984 -402.244)"><text id="Monochrome" fill="#fff" font-family="NeueMontreal-Regular, Neue Montreal" font-size="12" opacity=".4" transform="translate(872 583)"><tspan x="-34.302" y="0">Monochrome</tspan></text><text id="Variance_1" fill="#fff" data-name="Variance 1" font-family="NeueMontreal-Regular, Neue Montreal" font-size="12" opacity=".4" transform="translate(1143 583)"><tspan x="-25.548" y="0">Variance 1</tspan></text><g id="Groupe_3142" data-name="Groupe 3142" transform="translate(1097.984 402.244)"><path id="Tracé_397" fill="#4c6ef8" d="M-1647,5975l.042,29.174h22.551Z" data-name="Tracé 397" transform="translate(1648.568 -5886.684)"/><path id="Tracé_398" fill="#4c6ef8" d="M-1624.406,6004.287l-.042-29.287H-1647Z" data-name="Tracé 398" transform="translate(1716.439 -5974.886)"/><path id="Tracé_399" fill="#4c6ef8" d="M14.644,0l-.028,45.244H0Z" data-name="Tracé 399" transform="translate(46.788 14.758) rotate(-90)"/><path id="Tracé_400" fill="#4c6ef8" d="M-1647,6004.287l.042-29.287h22.551Z" data-name="Tracé 400" transform="translate(1716.439 -5886.684)"/><path id="Tracé_401" fill="#4c6ef8" d="M-1624.406,5975l-.042,29.287H-1647Z" data-name="Tracé 401" transform="translate(1648.568 -5975)"/><path id="Tracé_402" fill="#4c6ef8" d="M-1647,5835.512l67.923,65.927,22.518-6.73-67.67-66.827Z" data-name="Tracé 402" transform="translate(1648.568 -5806.224)"/><text id="SHIBUYA" fill="#4c6ef8" font-family="NeueMontreal-Regular, Neue Montreal" font-size="11" letter-spacing=".713em" transform="translate(0 145.19)"><tspan x="0" y="0">SHIBUYA</tspan></text></g><g id="Groupe_3146" data-name="Groupe 3146" transform="translate(825.984 402.244)"><path id="Tracé_397-2" fill="#fff" d="M-1647,5975l.042,29.174h22.551Z" data-name="Tracé 397" transform="translate(1648.568 -5886.684)"/><path id="Tracé_398-2" fill="#fff" d="M-1624.406,6004.287l-.042-29.287H-1647Z" data-name="Tracé 398" transform="translate(1716.439 -5974.886)"/><path id="Tracé_399-2" fill="#fff" d="M14.644,0l-.028,45.244H0Z" data-name="Tracé 399" transform="translate(46.788 14.758) rotate(-90)"/><path id="Tracé_400-2" fill="#fff" d="M-1647,6004.287l.042-29.287h22.551Z" data-name="Tracé 400" transform="translate(1716.439 -5886.684)"/><path id="Tracé_401-2" fill="#fff" d="M-1624.406,5975l-.042,29.287H-1647Z" data-name="Tracé 401" transform="translate(1648.568 -5975)"/><path id="Tracé_402-2" fill="#fff" d="M-1647,5835.512l67.923,65.927,22.518-6.73-67.67-66.827Z" data-name="Tracé 402" transform="translate(1648.568 -5806.224)"/><text id="SHIBUYA-2" fill="#fff" data-name="SHIBUYA" font-family="NeueMontreal-Regular, Neue Montreal" font-size="11" letter-spacing=".713em" transform="translate(0 145.19)"><tspan x="0" y="0">SHIBUYA</tspan></text></g></g></svg>