<svg xmlns="http://www.w3.org/2000/svg" width="364.033" height="183.756" viewBox="0 0 364.033 183.756">
  <g id="Groupe_3164" data-name="Groupe 3164" transform="translate(-825.984 -402.244)">
    <text id="Monochrome" transform="translate(872 583)" fill="#fff" font-size="12" font-family="NeueMontreal-Regular, Neue Montreal" opacity="0.4"><tspan x="-34.302" y="0">Monochrome</tspan></text>
    <text id="Variance_1" data-name="Variance 1" transform="translate(1143 583)" fill="#fff" font-size="12" font-family="NeueMontreal-Regular, Neue Montreal" opacity="0.4"><tspan x="-25.548" y="0">Variance 1</tspan></text>
    <g id="Groupe_3142" data-name="Groupe 3142" transform="translate(1097.984 402.244)">
      <path id="Tracé_397" data-name="Tracé 397" d="M-1647,5975l.042,29.174h22.551Z" transform="translate(1648.568 -5886.684)" fill="#4c6ef8"/>
      <path id="Tracé_398" data-name="Tracé 398" d="M-1624.406,6004.287l-.042-29.287H-1647Z" transform="translate(1716.439 -5974.886)" fill="#4c6ef8"/>
      <path id="Tracé_399" data-name="Tracé 399" d="M14.644,0l-.028,45.244H0Z" transform="translate(46.788 14.758) rotate(-90)" fill="#4c6ef8"/>
      <path id="Tracé_400" data-name="Tracé 400" d="M-1647,6004.287l.042-29.287h22.551Z" transform="translate(1716.439 -5886.684)" fill="#4c6ef8"/>
      <path id="Tracé_401" data-name="Tracé 401" d="M-1624.406,5975l-.042,29.287H-1647Z" transform="translate(1648.568 -5975)" fill="#4c6ef8"/>
      <path id="Tracé_402" data-name="Tracé 402" d="M-1647,5835.512l67.923,65.927,22.518-6.73-67.67-66.827Z" transform="translate(1648.568 -5806.224)" fill="#4c6ef8"/>
      <text id="SHIBUYA" transform="translate(0 145.19)" fill="#4c6ef8" font-size="11" font-family="NeueMontreal-Regular, Neue Montreal" letter-spacing="0.713em"><tspan x="0" y="0">SHIBUYA</tspan></text>
    </g>
    <g id="Groupe_3146" data-name="Groupe 3146" transform="translate(825.984 402.244)">
      <path id="Tracé_397-2" data-name="Tracé 397" d="M-1647,5975l.042,29.174h22.551Z" transform="translate(1648.568 -5886.684)" fill="#fff"/>
      <path id="Tracé_398-2" data-name="Tracé 398" d="M-1624.406,6004.287l-.042-29.287H-1647Z" transform="translate(1716.439 -5974.886)" fill="#fff"/>
      <path id="Tracé_399-2" data-name="Tracé 399" d="M14.644,0l-.028,45.244H0Z" transform="translate(46.788 14.758) rotate(-90)" fill="#fff"/>
      <path id="Tracé_400-2" data-name="Tracé 400" d="M-1647,6004.287l.042-29.287h22.551Z" transform="translate(1716.439 -5886.684)" fill="#fff"/>
      <path id="Tracé_401-2" data-name="Tracé 401" d="M-1624.406,5975l-.042,29.287H-1647Z" transform="translate(1648.568 -5975)" fill="#fff"/>
      <path id="Tracé_402-2" data-name="Tracé 402" d="M-1647,5835.512l67.923,65.927,22.518-6.73-67.67-66.827Z" transform="translate(1648.568 -5806.224)" fill="#fff"/>
      <text id="SHIBUYA-2" data-name="SHIBUYA" transform="translate(0 145.19)" fill="#fff" font-size="11" font-family="NeueMontreal-Regular, Neue Montreal" letter-spacing="0.713em"><tspan x="0" y="0">SHIBUYA</tspan></text>
    </g>
  </g>
</svg>
