<svg xmlns="http://www.w3.org/2000/svg" xmlns:xlink="http://www.w3.org/1999/xlink" width="500" height="500" viewBox="0 0 500 500"><defs><clipPath id="clip-grid5"><rect width="500" height="500"/></clipPath></defs><g id="grid5" clip-path="url(#clip-grid5)"><line id="Ligne_719" y2="400" fill="none" stroke="#6e6e6e" stroke-width=".5" data-name="Ligne 719" transform="translate(150 50)"/><line id="Ligne_720" y2="400" fill="none" stroke="#6e6e6e" stroke-width=".5" data-name="Ligne 720" transform="translate(350 50)"/><line id="Ligne_721" y2="400" fill="none" stroke="#6e6e6e" stroke-width=".5" data-name="Ligne 721" transform="translate(250 50)"/><line id="Ligne_722" y2="400" fill="none" stroke="#6e6e6e" stroke-width=".5" data-name="Ligne 722" transform="translate(300 50)"/><line id="Ligne_723" y2="400" fill="none" stroke="#6e6e6e" stroke-width=".5" data-name="Ligne 723" transform="translate(200 50)"/><path id="Tracé_498" fill="#cb3cff" d="M-1647,5844.749l150.165,145.753,49.782-14.878-149.606-147.742Z" data-name="Tracé 498" opacity=".5" transform="translate(1797 -5660.5)"/><line id="Ligne_743" y2="400" fill="none" stroke="#6e6e6e" stroke-width=".5" data-name="Ligne 743" transform="translate(450 249.5) rotate(90)"/><line id="Ligne_744" y2="400" fill="none" stroke="#6e6e6e" stroke-width=".5" data-name="Ligne 744" transform="translate(450 314.5) rotate(90)"/><line id="Ligne_745" y2="400" fill="none" stroke="#6e6e6e" stroke-width=".5" data-name="Ligne 745" transform="translate(450 184.5) rotate(90)"/><line id="Ligne_746" y2="400" fill="none" stroke="#6e6e6e" stroke-width=".5" data-name="Ligne 746" transform="translate(450 379.5) rotate(90)"/><line id="Ligne_747" y2="400" fill="none" stroke="#6e6e6e" stroke-width=".5" data-name="Ligne 747" transform="translate(450 119.5) rotate(90)"/><line id="Ligne_748" y2="400" fill="none" stroke="#6e6e6e" stroke-width=".5" data-name="Ligne 748" transform="translate(450 151.5) rotate(90)"/><line id="Ligne_749" y2="400" fill="none" stroke="#6e6e6e" stroke-width=".5" data-name="Ligne 749" transform="translate(450 134.5) rotate(90)"/><line id="Ligne_750" y2="400" fill="none" stroke="#6e6e6e" stroke-width=".5" data-name="Ligne 750" transform="translate(450 167.5) rotate(90)"/><line id="Ligne_751" y2="400" fill="none" stroke="#6e6e6e" stroke-width=".5" data-name="Ligne 751" transform="translate(450 330.5) rotate(90)"/><line id="Ligne_752" y2="400" fill="none" stroke="#6e6e6e" stroke-width=".5" data-name="Ligne 752" transform="translate(450 217.5) rotate(90)"/><line id="Ligne_753" y2="400" fill="none" stroke="#6e6e6e" stroke-width=".5" data-name="Ligne 753" transform="translate(450 282.5) rotate(90)"/><line id="Ligne_754" y2="400" fill="none" stroke="#6e6e6e" stroke-width=".5" data-name="Ligne 754" transform="translate(450 346.5) rotate(90)"/><line id="Ligne_755" y2="400" fill="none" stroke="#6e6e6e" stroke-width=".5" data-name="Ligne 755" transform="translate(450 362.5) rotate(90)"/><path id="Tracé_499" fill="#1c34e8" d="M-1647,5975l.094,64.5h49.856Z" data-name="Tracé 499" opacity=".598" transform="translate(1797 -5660.249)"/><path id="Tracé_500" fill="#1c34e8" d="M-1597.05,6039.748l-.094-64.749H-1647Z" data-name="Tracé 500" opacity=".598" transform="translate(1947.05 -5855.248)"/><path id="Tracé_501" fill="#60ff67" d="M32.375,0l-.061,100.027H0Z" data-name="Tracé 501" opacity=".5" transform="translate(249.973 152.126) rotate(-90)"/><path id="Tracé_502" fill="#1c34e8" d="M-1647,6039.748l.094-64.749h49.856Z" data-name="Tracé 502" opacity=".598" transform="translate(1947.05 -5660.248)"/><path id="Tracé_503" fill="#1c34e8" d="M-1597.05,5975l-.094,64.749H-1647Z" data-name="Tracé 503" opacity=".598" transform="translate(1797 -5855.5)"/><circle id="Ellipse_138" cx="4.5" cy="4.5" r="4.5" fill="red" data-name="Ellipse 138" transform="translate(246 245.5)"/><circle id="Ellipse_139" cx="3.5" cy="3.5" r="3.5" fill="#0ff" data-name="Ellipse 139" transform="translate(247 116.5)"/><circle id="Ellipse_140" cx="3.5" cy="3.5" r="3.5" fill="#0ff" data-name="Ellipse 140" transform="translate(346 116.5)"/><circle id="Ellipse_141" cx="3.5" cy="3.5" r="3.5" fill="#0ff" data-name="Ellipse 141" transform="translate(346 148.5)"/></g></svg>