<svg xmlns="http://www.w3.org/2000/svg" xmlns:xlink="http://www.w3.org/1999/xlink" width="500" height="500" viewBox="0 0 500 500"><defs><clipPath id="clip-grid2"><rect width="500" height="500"/></clipPath></defs><g id="grid2" clip-path="url(#clip-grid2)"><g id="Rectangle_136" fill="none" stroke="#707070" stroke-width=".5" data-name="Rectangle 136" transform="translate(149.977 119.225)"><rect width="200" height="260" stroke="none"/><rect width="199.5" height="259.5" x=".25" y=".25" fill="none"/></g><line id="Ligne_680" y2="387.5" fill="none" stroke="#6e6e6e" stroke-width=".5" data-name="Ligne 680" transform="translate(149.977 57.725)"/><line id="Ligne_681" y2="387.5" fill="none" stroke="#6e6e6e" stroke-width=".5" data-name="Ligne 681" transform="translate(349.977 57.725)"/><line id="Ligne_682" y2="400" fill="none" stroke="#6e6e6e" stroke-width=".5" data-name="Ligne 682" transform="translate(449.977 249.225) rotate(90)"/><line id="Ligne_683" y2="400" fill="none" stroke="#6e6e6e" stroke-width=".5" data-name="Ligne 683" transform="translate(449.977 314.225) rotate(90)"/><line id="Ligne_684" y2="400" fill="none" stroke="#6e6e6e" stroke-width=".5" data-name="Ligne 684" transform="translate(449.977 184.225) rotate(90)"/><line id="Ligne_685" y2="400" fill="none" stroke="#6e6e6e" stroke-width=".5" data-name="Ligne 685" transform="translate(449.977 379.225) rotate(90)"/><line id="Ligne_686" y2="400" fill="none" stroke="#6e6e6e" stroke-width=".5" data-name="Ligne 686" transform="translate(449.977 119.225) rotate(90)"/><line id="Ligne_687" y2="400" fill="none" stroke="#6e6e6e" stroke-width=".5" data-name="Ligne 687" transform="translate(449.977 151.225) rotate(90)"/><line id="Ligne_688" y2="400" fill="none" stroke="#6e6e6e" stroke-width=".5" data-name="Ligne 688" transform="translate(449.977 134.225) rotate(90)"/><line id="Ligne_689" y2="400" fill="none" stroke="#6e6e6e" stroke-width=".5" data-name="Ligne 689" transform="translate(449.977 167.225) rotate(90)"/><line id="Ligne_690" y2="400" fill="none" stroke="#6e6e6e" stroke-width=".5" data-name="Ligne 690" transform="translate(449.977 330.225) rotate(90)"/><line id="Ligne_691" y2="400" fill="none" stroke="#6e6e6e" stroke-width=".5" data-name="Ligne 691" transform="translate(449.977 217.225) rotate(90)"/><line id="Ligne_692" y2="400" fill="none" stroke="#6e6e6e" stroke-width=".5" data-name="Ligne 692" transform="translate(449.977 282.225) rotate(90)"/><line id="Ligne_693" y2="400" fill="none" stroke="#6e6e6e" stroke-width=".5" data-name="Ligne 693" transform="translate(449.977 346.225) rotate(90)"/><line id="Ligne_694" y2="400" fill="none" stroke="#6e6e6e" stroke-width=".5" data-name="Ligne 694" transform="translate(449.977 362.225) rotate(90)"/><line id="Ligne_695" y2="387.5" fill="none" stroke="#6e6e6e" stroke-width=".5" data-name="Ligne 695" transform="translate(249.977 57.725)"/><line id="Ligne_696" y2="387.5" fill="none" stroke="#6e6e6e" stroke-width=".5" data-name="Ligne 696" transform="translate(299.977 57.725)"/><line id="Ligne_697" y2="387.5" fill="none" stroke="#6e6e6e" stroke-width=".5" data-name="Ligne 697" transform="translate(199.977 57.725)"/><circle id="Ellipse_117" cx="4.5" cy="4.5" r="4.5" fill="red" data-name="Ellipse 117" transform="translate(245.977 244.725)"/><g id="Rectangle_137" fill="none" stroke="#1c34e8" stroke-width="1" data-name="Rectangle 137" transform="translate(149.977 119.225)"><rect width="200" height="260" stroke="none"/><rect width="199" height="259" x=".5" y=".5" fill="none"/></g><path id="Tracé_485" fill="#6c00ea" d="M32.95,52.046,32.888,0H0Z" data-name="Tracé 485" opacity=".598" transform="translate(349.977 284.124) rotate(-90)"/><path id="Tracé_486" fill="#6c00ea" d="M32.95,52.046,32.888,0H0Z" data-name="Tracé 486" opacity=".598" transform="translate(150.023 217.225) rotate(90)"/><path id="Tracé_487" fill="#6c00ea" d="M32.95,52.046,32.888,0H0Z" data-name="Tracé 487" opacity=".598" transform="translate(398.977 284.124) rotate(-90)"/><path id="Tracé_488" fill="#6c00ea" stroke="#6e6e6e" stroke-width="1" d="M-1614.05,5975l-.062,52.046H-1647Z" data-name="Tracé 488" transform="translate(6277.977 1732.773) rotate(90)"/><path id="Tracé_489" fill="#6c00ea" d="M32.95,52.046,32.888,0H0Z" data-name="Tracé 489" opacity=".598" transform="translate(250.977 410.224) rotate(90)"/><path id="Tracé_490" fill="#6c00ea" d="M-1614.05,5975l-.062,52.046H-1647Z" data-name="Tracé 490" opacity=".598" transform="translate(6277.977 1701.775) rotate(90)"/><path id="Tracé_491" fill="#6c00ea" d="M32.95,52.046,32.888,0H0Z" data-name="Tracé 491" opacity=".598" transform="translate(250.977 379.225) rotate(90)"/><path id="Tracé_492" fill="#6c00ea" d="M32.95,52.046,32.888,0H0Z" data-name="Tracé 492" opacity=".598" transform="translate(101.023 217.225) rotate(90)"/></g></svg>