<svg xmlns="http://www.w3.org/2000/svg" xmlns:xlink="http://www.w3.org/1999/xlink" width="500" height="500" viewBox="0 0 500 500"><defs><clipPath id="clip-grid4"><rect width="500" height="500"/></clipPath></defs><g id="grid4" clip-path="url(#clip-grid4)"><line id="Ligne_724" y2="400" fill="none" stroke="#6e6e6e" stroke-width=".5" data-name="Ligne 724" transform="translate(450 119.5) rotate(90)"/><path id="Tracé_493" fill="#cb3cff" d="M-1647,5844.749l150.165,145.753,49.782-14.878-149.606-147.742Z" data-name="Tracé 493" opacity=".5" transform="translate(1797 -5660.5)"/><line id="Ligne_726" y2="400" fill="none" stroke="#6e6e6e" stroke-width=".5" data-name="Ligne 726" transform="translate(150 50)"/><line id="Ligne_727" y2="400" fill="none" stroke="#6e6e6e" stroke-width=".5" data-name="Ligne 727" transform="translate(350 50)"/><line id="Ligne_728" y2="400" fill="none" stroke="#6e6e6e" stroke-width=".5" data-name="Ligne 728" transform="translate(450 249.5) rotate(90)"/><line id="Ligne_729" y2="400" fill="none" stroke="#6e6e6e" stroke-width=".5" data-name="Ligne 729" transform="translate(450 314.5) rotate(90)"/><line id="Ligne_730" y2="400" fill="none" stroke="#6e6e6e" stroke-width=".5" data-name="Ligne 730" transform="translate(450 184.5) rotate(90)"/><line id="Ligne_731" y2="400" fill="none" stroke="#6e6e6e" stroke-width=".5" data-name="Ligne 731" transform="translate(450 379.5) rotate(90)"/><line id="Ligne_732" y2="400" fill="none" stroke="#6e6e6e" stroke-width=".5" data-name="Ligne 732" transform="translate(450 151.5) rotate(90)"/><line id="Ligne_733" y2="400" fill="none" stroke="#6e6e6e" stroke-width=".5" data-name="Ligne 733" transform="translate(450 134.5) rotate(90)"/><line id="Ligne_734" y2="400" fill="none" stroke="#6e6e6e" stroke-width=".5" data-name="Ligne 734" transform="translate(450 167.5) rotate(90)"/><line id="Ligne_735" y2="400" fill="none" stroke="#6e6e6e" stroke-width=".5" data-name="Ligne 735" transform="translate(450 330.5) rotate(90)"/><line id="Ligne_736" y2="400" fill="none" stroke="#6e6e6e" stroke-width=".5" data-name="Ligne 736" transform="translate(450 217.5) rotate(90)"/><line id="Ligne_737" y2="400" fill="none" stroke="#6e6e6e" stroke-width=".5" data-name="Ligne 737" transform="translate(450 282.5) rotate(90)"/><line id="Ligne_738" y2="400" fill="none" stroke="#6e6e6e" stroke-width=".5" data-name="Ligne 738" transform="translate(450 346.5) rotate(90)"/><line id="Ligne_739" y2="400" fill="none" stroke="#6e6e6e" stroke-width=".5" data-name="Ligne 739" transform="translate(450 362.5) rotate(90)"/><line id="Ligne_740" y2="400" fill="none" stroke="#6e6e6e" stroke-width=".5" data-name="Ligne 740" transform="translate(250 50)"/><line id="Ligne_741" y2="400" fill="none" stroke="#6e6e6e" stroke-width=".5" data-name="Ligne 741" transform="translate(300 50)"/><line id="Ligne_742" y2="400" fill="none" stroke="#6e6e6e" stroke-width=".5" data-name="Ligne 742" transform="translate(200 50)"/><path id="Tracé_494" fill="#1c34e8" d="M-1647,5975l.094,64.5h49.856Z" data-name="Tracé 494" opacity=".5" transform="translate(1797 -5660.249)"/><path id="Tracé_495" fill="#1c34e8" d="M-1597.05,6039.748l-.094-64.749H-1647Z" data-name="Tracé 495" opacity=".5" transform="translate(1947.05 -5855.248)"/><path id="Tracé_496" fill="#1c34e8" d="M-1647,6039.748l.094-64.749h49.856Z" data-name="Tracé 496" opacity=".5" transform="translate(1947.05 -5660.248)"/><path id="Tracé_497" fill="#1c34e8" d="M-1597.05,5975l-.094,64.749H-1647Z" data-name="Tracé 497" opacity=".5" transform="translate(1797 -5855.5)"/><circle id="Ellipse_133" cx="4.5" cy="4.5" r="4.5" fill="red" data-name="Ellipse 133" transform="translate(246 245.5)"/><circle id="Ellipse_134" cx="3.5" cy="3.5" r="3.5" fill="#0ff" data-name="Ellipse 134" transform="translate(346 311.5)"/><circle id="Ellipse_135" cx="3.5" cy="3.5" r="3.5" fill="#0ff" data-name="Ellipse 135" transform="translate(297 327.5)"/><circle id="Ellipse_136" cx="3.5" cy="3.5" r="3.5" fill="#0ff" data-name="Ellipse 136" transform="translate(147 181.5)"/><circle id="Ellipse_137" cx="3.5" cy="3.5" r="3.5" fill="#0ff" data-name="Ellipse 137" transform="translate(197 164.5)"/></g></svg>