<svg xmlns="http://www.w3.org/2000/svg" xmlns:xlink="http://www.w3.org/1999/xlink" width="500" height="500" viewBox="0 0 500 500">
  <defs>
    <clipPath id="clip-grid3">
      <rect width="500" height="500"/>
    </clipPath>
  </defs>
  <g id="grid3" clip-path="url(#clip-grid3)">
    <line id="Ligne_679" data-name="Ligne 679" y2="400" transform="translate(450 119.5) rotate(90)" fill="none" stroke="#6e6e6e" stroke-width="0.5"/>
    <line id="Ligne_698" data-name="Ligne 698" y2="400" transform="translate(150 50)" fill="none" stroke="#6e6e6e" stroke-width="0.5"/>
    <line id="Ligne_699" data-name="Ligne 699" y2="400" transform="translate(350 50)" fill="none" stroke="#6e6e6e" stroke-width="0.5"/>
    <line id="Ligne_700" data-name="Ligne 700" y2="400" transform="translate(450 249.5) rotate(90)" fill="none" stroke="#6e6e6e" stroke-width="0.5"/>
    <line id="Ligne_701" data-name="Ligne 701" y2="400" transform="translate(450 314.5) rotate(90)" fill="none" stroke="#6e6e6e" stroke-width="0.5"/>
    <line id="Ligne_702" data-name="Ligne 702" y2="400" transform="translate(450 184.5) rotate(90)" fill="none" stroke="#6e6e6e" stroke-width="0.5"/>
    <line id="Ligne_703" data-name="Ligne 703" y2="400" transform="translate(450 379.5) rotate(90)" fill="none" stroke="#6e6e6e" stroke-width="0.5"/>
    <line id="Ligne_704" data-name="Ligne 704" y2="400" transform="translate(450 151.5) rotate(90)" fill="none" stroke="#6e6e6e" stroke-width="0.5"/>
    <line id="Ligne_705" data-name="Ligne 705" y2="400" transform="translate(450 134.5) rotate(90)" fill="none" stroke="#6e6e6e" stroke-width="0.5"/>
    <line id="Ligne_706" data-name="Ligne 706" y2="400" transform="translate(450 167.5) rotate(90)" fill="none" stroke="#6e6e6e" stroke-width="0.5"/>
    <line id="Ligne_707" data-name="Ligne 707" y2="400" transform="translate(450 330.5) rotate(90)" fill="none" stroke="#6e6e6e" stroke-width="0.5"/>
    <line id="Ligne_708" data-name="Ligne 708" y2="400" transform="translate(450 217.5) rotate(90)" fill="none" stroke="#6e6e6e" stroke-width="0.5"/>
    <line id="Ligne_709" data-name="Ligne 709" y2="400" transform="translate(450 282.5) rotate(90)" fill="none" stroke="#6e6e6e" stroke-width="0.5"/>
    <line id="Ligne_710" data-name="Ligne 710" y2="400" transform="translate(450 346.5) rotate(90)" fill="none" stroke="#6e6e6e" stroke-width="0.5"/>
    <line id="Ligne_711" data-name="Ligne 711" y2="400" transform="translate(450 362.5) rotate(90)" fill="none" stroke="#6e6e6e" stroke-width="0.5"/>
    <line id="Ligne_712" data-name="Ligne 712" y2="400" transform="translate(250 50)" fill="none" stroke="#6e6e6e" stroke-width="0.5"/>
    <line id="Ligne_713" data-name="Ligne 713" y2="400" transform="translate(300 50)" fill="none" stroke="#6e6e6e" stroke-width="0.5"/>
    <line id="Ligne_714" data-name="Ligne 714" y2="400" transform="translate(200 50)" fill="none" stroke="#6e6e6e" stroke-width="0.5"/>
    <path id="Tracé_479" data-name="Tracé 479" d="M-1647,5975l.094,64.5h49.856Z" transform="translate(1797 -5660.249)" fill="#1c34e8" opacity="0.598"/>
    <path id="Tracé_480" data-name="Tracé 480" d="M-1597.05,6039.748l-.094-64.749H-1647Z" transform="translate(1947.05 -5855.248)" fill="#1c34e8" opacity="0.598"/>
    <path id="Tracé_481" data-name="Tracé 481" d="M-1647,6039.748l.094-64.749h49.856Z" transform="translate(1947.05 -5660.248)" fill="#1c34e8" opacity="0.598"/>
    <path id="Tracé_482" data-name="Tracé 482" d="M-1597.05,5975l-.094,64.749H-1647Z" transform="translate(1797 -5855.5)" fill="#1c34e8" opacity="0.598"/>
    <circle id="Ellipse_116" data-name="Ellipse 116" cx="4.5" cy="4.5" r="4.5" transform="translate(246 245.5)" fill="red"/>
    <circle id="Ellipse_118" data-name="Ellipse 118" cx="3.5" cy="3.5" r="3.5" transform="translate(346 311.5)" fill="aqua"/>
    <circle id="Ellipse_119" data-name="Ellipse 119" cx="3.5" cy="3.5" r="3.5" transform="translate(297 311.5)" fill="aqua"/>
    <circle id="Ellipse_120" data-name="Ellipse 120" cx="3.5" cy="3.5" r="3.5" transform="translate(297 375.5)" fill="aqua"/>
    <circle id="Ellipse_121" data-name="Ellipse 121" cx="3.5" cy="3.5" r="3.5" transform="translate(196 375.5)" fill="aqua"/>
    <circle id="Ellipse_122" data-name="Ellipse 122" cx="3.5" cy="3.5" r="3.5" transform="translate(147 375.5)" fill="aqua"/>
    <circle id="Ellipse_123" data-name="Ellipse 123" cx="3.5" cy="3.5" r="3.5" transform="translate(147 310.5)" fill="aqua"/>
    <circle id="Ellipse_124" data-name="Ellipse 124" cx="3.5" cy="3.5" r="3.5" transform="translate(147 181.5)" fill="aqua"/>
    <circle id="Ellipse_125" data-name="Ellipse 125" cx="3.5" cy="3.5" r="3.5" transform="translate(197 180.5)" fill="aqua"/>
    <circle id="Ellipse_126" data-name="Ellipse 126" cx="3.5" cy="3.5" r="3.5" transform="translate(197 116.5)" fill="aqua"/>
    <circle id="Ellipse_127" data-name="Ellipse 127" cx="3.5" cy="3.5" r="3.5" transform="translate(297 116.5)" fill="aqua"/>
    <circle id="Ellipse_128" data-name="Ellipse 128" cx="3.5" cy="3.5" r="3.5" transform="translate(346 116.5)" fill="aqua"/>
    <circle id="Ellipse_129" data-name="Ellipse 129" cx="3.5" cy="3.5" r="3.5" transform="translate(346 180.5)" fill="aqua"/>
  </g>
</svg>
