<svg xmlns="http://www.w3.org/2000/svg" xmlns:xlink="http://www.w3.org/1999/xlink" width="500" height="500" viewBox="0 0 500 500">
  <defs>
    <clipPath id="clip-grid1">
      <rect width="500" height="500"/>
    </clipPath>
  </defs>
  <g id="grid1" clip-path="url(#clip-grid1)">
    <g id="Groupe_3171" data-name="Groupe 3171" transform="translate(50 47.5)">
      <line id="Ligne_592" data-name="Ligne 592" y2="387" transform="translate(100 8.5)" fill="none" stroke="#6e6e6e" stroke-width="0.5"/>
      <line id="Ligne_625" data-name="Ligne 625" y2="387" transform="translate(50 8.5)" fill="none" stroke="#6e6e6e" stroke-width="0.5"/>
      <line id="Ligne_627" data-name="Ligne 627" y2="387" transform="translate(0 8.5)" fill="none" stroke="#6e6e6e" stroke-width="0.5"/>
      <line id="Ligne_593" data-name="Ligne 593" y2="387" transform="translate(300 8.5)" fill="none" stroke="#6e6e6e" stroke-width="0.5"/>
      <line id="Ligne_626" data-name="Ligne 626" y2="387" transform="translate(350 8.5)" fill="none" stroke="#6e6e6e" stroke-width="0.5"/>
      <line id="Ligne_628" data-name="Ligne 628" y2="387" transform="translate(400 8.5)" fill="none" stroke="#6e6e6e" stroke-width="0.5"/>
      <line id="Ligne_597" data-name="Ligne 597" y2="400" transform="translate(400 200) rotate(90)" fill="none" stroke="#6e6e6e" stroke-width="0.5" opacity="0.5"/>
      <line id="Ligne_601" data-name="Ligne 601" y2="400" transform="translate(400 265) rotate(90)" fill="none" stroke="#6e6e6e" stroke-width="0.5"/>
      <line id="Ligne_598" data-name="Ligne 598" y2="400" transform="translate(400 135) rotate(90)" fill="none" stroke="#6e6e6e" stroke-width="0.5"/>
      <line id="Ligne_611" data-name="Ligne 611" y2="400" transform="translate(400 218) rotate(90)" fill="none" stroke="#6e6e6e" stroke-width="0.5"/>
      <line id="Ligne_600" data-name="Ligne 600" y2="400" transform="translate(400 330) rotate(90)" fill="none" stroke="#6e6e6e" stroke-width="0.5"/>
      <line id="Ligne_617" data-name="Ligne 617" y2="400" transform="translate(400 345) rotate(90)" fill="none" stroke="#6e6e6e" stroke-width="0.5"/>
      <line id="Ligne_618" data-name="Ligne 618" y2="400" transform="translate(400 362) rotate(90)" fill="none" stroke="#6e6e6e" stroke-width="0.5"/>
      <line id="Ligne_619" data-name="Ligne 619" y2="400" transform="translate(400 380) rotate(90)" fill="none" stroke="#6e6e6e" stroke-width="0.5"/>
      <line id="Ligne_624" data-name="Ligne 624" y2="400" transform="translate(400 395) rotate(90)" fill="none" stroke="#6e6e6e" stroke-width="0.5"/>
      <line id="Ligne_599" data-name="Ligne 599" y2="400" transform="translate(400 70) rotate(90)" fill="none" stroke="#6e6e6e" stroke-width="0.5"/>
      <line id="Ligne_620" data-name="Ligne 620" y2="400" transform="translate(400 23) rotate(90)" fill="none" stroke="#6e6e6e" stroke-width="0.5"/>
      <line id="Ligne_623" data-name="Ligne 623" y2="400" transform="translate(400 8) rotate(90)" fill="none" stroke="#6e6e6e" stroke-width="0.5"/>
      <line id="Ligne_615" data-name="Ligne 615" y2="400" transform="translate(400 153) rotate(90)" fill="none" stroke="#6e6e6e" stroke-width="0.5"/>
      <line id="Ligne_602" data-name="Ligne 602" y2="400" transform="translate(400 102) rotate(90)" fill="none" stroke="#6e6e6e" stroke-width="0.5"/>
      <line id="Ligne_622" data-name="Ligne 622" y2="400" transform="translate(400 55) rotate(90)" fill="none" stroke="#6e6e6e" stroke-width="0.5"/>
      <line id="Ligne_613" data-name="Ligne 613" y2="400" transform="translate(400 185) rotate(90)" fill="none" stroke="#6e6e6e" stroke-width="0.5"/>
      <line id="Ligne_608" data-name="Ligne 608" y2="400" transform="translate(400 85) rotate(90)" fill="none" stroke="#6e6e6e" stroke-width="0.5"/>
      <line id="Ligne_621" data-name="Ligne 621" y2="400" transform="translate(400 38) rotate(90)" fill="none" stroke="#6e6e6e" stroke-width="0.5"/>
      <line id="Ligne_614" data-name="Ligne 614" y2="400" transform="translate(400 168) rotate(90)" fill="none" stroke="#6e6e6e" stroke-width="0.5"/>
      <line id="Ligne_606" data-name="Ligne 606" y2="400" transform="translate(400 118) rotate(90)" fill="none" stroke="#6e6e6e" stroke-width="0.5"/>
      <line id="Ligne_607" data-name="Ligne 607" y2="400" transform="translate(400 281) rotate(90)" fill="none" stroke="#6e6e6e" stroke-width="0.5"/>
      <line id="Ligne_603" data-name="Ligne 603" y2="400" transform="translate(400 168) rotate(90)" fill="none" stroke="#6e6e6e" stroke-width="0.5" opacity="0.5"/>
      <line id="Ligne_604" data-name="Ligne 604" y2="400" transform="translate(400 233) rotate(90)" fill="none" stroke="#6e6e6e" stroke-width="0.5" opacity="0.5"/>
      <line id="Ligne_616" data-name="Ligne 616" y2="400" transform="translate(400 248) rotate(90)" fill="none" stroke="#6e6e6e" stroke-width="0.5" opacity="0.5"/>
      <line id="Ligne_605" data-name="Ligne 605" y2="400" transform="translate(400 297) rotate(90)" fill="none" stroke="#6e6e6e" stroke-width="0.5"/>
      <line id="Ligne_609" data-name="Ligne 609" y2="400" transform="translate(400 313) rotate(90)" fill="none" stroke="#6e6e6e" stroke-width="0.5"/>
      <line id="Ligne_595" data-name="Ligne 595" y2="387" transform="translate(250 8.5)" fill="none" stroke="#6e6e6e" stroke-width="0.5"/>
      <line id="Ligne_596" data-name="Ligne 596" y2="387" transform="translate(150 8.5)" fill="none" stroke="#6e6e6e" stroke-width="0.5"/>
    </g>
    <circle id="Ellipse_130" data-name="Ellipse 130" cx="4.5" cy="4.5" r="4.5" transform="translate(245.5 244.5)" fill="red"/>
    <line id="Ligne_717" data-name="Ligne 717" y2="400" transform="translate(450 248.5) rotate(90)" fill="none" stroke="#6e6e6e" stroke-width="1"/>
    <line id="Ligne_718" data-name="Ligne 718" y2="387" transform="translate(250 56)" fill="none" stroke="#6e6e6e" stroke-width="1"/>
    <circle id="Ellipse_132" data-name="Ellipse 132" cx="4.5" cy="4.5" r="4.5" transform="translate(245.5 244.5)" fill="red"/>
    <text id="_1px" data-name="1px" transform="translate(20 67)" fill="#6e6e6e" font-size="12" font-family="NeueMontreal-Regular, Neue Montreal" letter-spacing="0.02em"><tspan x="-8.52" y="0">1px</tspan></text>
    <text id="_3px" data-name="3px" transform="translate(76 34)" fill="#6e6e6e" font-size="12" font-family="NeueMontreal-Regular, Neue Montreal" letter-spacing="0.02em"><tspan x="-9.858" y="0">3px</tspan></text>
    <path id="Tracé_483" data-name="Tracé 483" d="M270,8016.819v-5h50.428v5" transform="translate(-220 -7968)" fill="none" stroke="#1c34e8" stroke-width="0.6"/>
    <path id="Tracé_484" data-name="Tracé 484" d="M0,0V5H14.694V0" transform="translate(43.161 55.912) rotate(90)" fill="none" stroke="#1c34e8" stroke-width="0.6"/>
  </g>
</svg>
