<svg xmlns="http://www.w3.org/2000/svg" xmlns:xlink="http://www.w3.org/1999/xlink" width="500" height="500" viewBox="0 0 500 500"><defs><clipPath id="clip-grid1"><rect width="500" height="500"/></clipPath></defs><g id="grid1" clip-path="url(#clip-grid1)"><g id="Groupe_3171" data-name="Groupe 3171" transform="translate(50 47.5)"><line id="Ligne_592" y2="387" fill="none" stroke="#6e6e6e" stroke-width=".5" data-name="Ligne 592" transform="translate(100 8.5)"/><line id="Ligne_625" y2="387" fill="none" stroke="#6e6e6e" stroke-width=".5" data-name="Ligne 625" transform="translate(50 8.5)"/><line id="Ligne_627" y2="387" fill="none" stroke="#6e6e6e" stroke-width=".5" data-name="Ligne 627" transform="translate(0 8.5)"/><line id="Ligne_593" y2="387" fill="none" stroke="#6e6e6e" stroke-width=".5" data-name="Ligne 593" transform="translate(300 8.5)"/><line id="Ligne_626" y2="387" fill="none" stroke="#6e6e6e" stroke-width=".5" data-name="Ligne 626" transform="translate(350 8.5)"/><line id="Ligne_628" y2="387" fill="none" stroke="#6e6e6e" stroke-width=".5" data-name="Ligne 628" transform="translate(400 8.5)"/><line id="Ligne_597" y2="400" fill="none" stroke="#6e6e6e" stroke-width=".5" data-name="Ligne 597" opacity=".5" transform="translate(400 200) rotate(90)"/><line id="Ligne_601" y2="400" fill="none" stroke="#6e6e6e" stroke-width=".5" data-name="Ligne 601" transform="translate(400 265) rotate(90)"/><line id="Ligne_598" y2="400" fill="none" stroke="#6e6e6e" stroke-width=".5" data-name="Ligne 598" transform="translate(400 135) rotate(90)"/><line id="Ligne_611" y2="400" fill="none" stroke="#6e6e6e" stroke-width=".5" data-name="Ligne 611" transform="translate(400 218) rotate(90)"/><line id="Ligne_600" y2="400" fill="none" stroke="#6e6e6e" stroke-width=".5" data-name="Ligne 600" transform="translate(400 330) rotate(90)"/><line id="Ligne_617" y2="400" fill="none" stroke="#6e6e6e" stroke-width=".5" data-name="Ligne 617" transform="translate(400 345) rotate(90)"/><line id="Ligne_618" y2="400" fill="none" stroke="#6e6e6e" stroke-width=".5" data-name="Ligne 618" transform="translate(400 362) rotate(90)"/><line id="Ligne_619" y2="400" fill="none" stroke="#6e6e6e" stroke-width=".5" data-name="Ligne 619" transform="translate(400 380) rotate(90)"/><line id="Ligne_624" y2="400" fill="none" stroke="#6e6e6e" stroke-width=".5" data-name="Ligne 624" transform="translate(400 395) rotate(90)"/><line id="Ligne_599" y2="400" fill="none" stroke="#6e6e6e" stroke-width=".5" data-name="Ligne 599" transform="translate(400 70) rotate(90)"/><line id="Ligne_620" y2="400" fill="none" stroke="#6e6e6e" stroke-width=".5" data-name="Ligne 620" transform="translate(400 23) rotate(90)"/><line id="Ligne_623" y2="400" fill="none" stroke="#6e6e6e" stroke-width=".5" data-name="Ligne 623" transform="translate(400 8) rotate(90)"/><line id="Ligne_615" y2="400" fill="none" stroke="#6e6e6e" stroke-width=".5" data-name="Ligne 615" transform="translate(400 153) rotate(90)"/><line id="Ligne_602" y2="400" fill="none" stroke="#6e6e6e" stroke-width=".5" data-name="Ligne 602" transform="translate(400 102) rotate(90)"/><line id="Ligne_622" y2="400" fill="none" stroke="#6e6e6e" stroke-width=".5" data-name="Ligne 622" transform="translate(400 55) rotate(90)"/><line id="Ligne_613" y2="400" fill="none" stroke="#6e6e6e" stroke-width=".5" data-name="Ligne 613" transform="translate(400 185) rotate(90)"/><line id="Ligne_608" y2="400" fill="none" stroke="#6e6e6e" stroke-width=".5" data-name="Ligne 608" transform="translate(400 85) rotate(90)"/><line id="Ligne_621" y2="400" fill="none" stroke="#6e6e6e" stroke-width=".5" data-name="Ligne 621" transform="translate(400 38) rotate(90)"/><line id="Ligne_614" y2="400" fill="none" stroke="#6e6e6e" stroke-width=".5" data-name="Ligne 614" transform="translate(400 168) rotate(90)"/><line id="Ligne_606" y2="400" fill="none" stroke="#6e6e6e" stroke-width=".5" data-name="Ligne 606" transform="translate(400 118) rotate(90)"/><line id="Ligne_607" y2="400" fill="none" stroke="#6e6e6e" stroke-width=".5" data-name="Ligne 607" transform="translate(400 281) rotate(90)"/><line id="Ligne_603" y2="400" fill="none" stroke="#6e6e6e" stroke-width=".5" data-name="Ligne 603" opacity=".5" transform="translate(400 168) rotate(90)"/><line id="Ligne_604" y2="400" fill="none" stroke="#6e6e6e" stroke-width=".5" data-name="Ligne 604" opacity=".5" transform="translate(400 233) rotate(90)"/><line id="Ligne_616" y2="400" fill="none" stroke="#6e6e6e" stroke-width=".5" data-name="Ligne 616" opacity=".5" transform="translate(400 248) rotate(90)"/><line id="Ligne_605" y2="400" fill="none" stroke="#6e6e6e" stroke-width=".5" data-name="Ligne 605" transform="translate(400 297) rotate(90)"/><line id="Ligne_609" y2="400" fill="none" stroke="#6e6e6e" stroke-width=".5" data-name="Ligne 609" transform="translate(400 313) rotate(90)"/><line id="Ligne_595" y2="387" fill="none" stroke="#6e6e6e" stroke-width=".5" data-name="Ligne 595" transform="translate(250 8.5)"/><line id="Ligne_596" y2="387" fill="none" stroke="#6e6e6e" stroke-width=".5" data-name="Ligne 596" transform="translate(150 8.5)"/></g><circle id="Ellipse_130" cx="4.5" cy="4.5" r="4.5" fill="red" data-name="Ellipse 130" transform="translate(245.5 244.5)"/><line id="Ligne_717" y2="400" fill="none" stroke="#6e6e6e" stroke-width="1" data-name="Ligne 717" transform="translate(450 248.5) rotate(90)"/><line id="Ligne_718" y2="387" fill="none" stroke="#6e6e6e" stroke-width="1" data-name="Ligne 718" transform="translate(250 56)"/><circle id="Ellipse_132" cx="4.5" cy="4.5" r="4.5" fill="red" data-name="Ellipse 132" transform="translate(245.5 244.5)"/><text id="_1px" fill="#6e6e6e" data-name="1" font-family="NeueMontreal-Regular, Neue Montreal" font-size="12" letter-spacing=".02em" transform="translate(20 67)"><tspan x="-8.52" y="0">1px</tspan></text><text id="_3px" fill="#6e6e6e" data-name="3" font-family="NeueMontreal-Regular, Neue Montreal" font-size="12" letter-spacing=".02em" transform="translate(76 34)"><tspan x="-9.858" y="0">3px</tspan></text><path id="Tracé_483" fill="none" stroke="#1c34e8" stroke-width=".6" d="M270,8016.819v-5h50.428v5" data-name="Tracé 483" transform="translate(-220 -7968)"/><path id="Tracé_484" fill="none" stroke="#1c34e8" stroke-width=".6" d="M0,0V5H14.694V0" data-name="Tracé 484" transform="translate(43.161 55.912) rotate(90)"/></g></svg>