<svg xmlns="http://www.w3.org/2000/svg" xmlns:xlink="http://www.w3.org/1999/xlink" width="500" height="500" viewBox="0 0 500 500"><defs><clipPath id="clip-grid6"><rect width="500" height="500"/></clipPath></defs><g id="grid6" clip-path="url(#clip-grid6)"><line id="Ligne_725" y2="400" fill="none" stroke="#6e6e6e" stroke-width=".5" data-name="Ligne 725" transform="translate(450 119.5) rotate(90)"/><path id="Tracé_504" fill="#6c7be6" d="M-1647,5844.749l150.165,145.753,49.782-14.878-149.606-147.742Z" data-name="Tracé 504" transform="translate(1797 -5660.5)"/><line id="Ligne_756" y2="400" fill="none" stroke="#6e6e6e" stroke-width=".5" data-name="Ligne 756" transform="translate(150 50)"/><line id="Ligne_757" y2="400" fill="none" stroke="#6e6e6e" stroke-width=".5" data-name="Ligne 757" transform="translate(350 50)"/><line id="Ligne_758" y2="400" fill="none" stroke="#6e6e6e" stroke-width=".5" data-name="Ligne 758" transform="translate(450 249.5) rotate(90)"/><line id="Ligne_759" y2="400" fill="none" stroke="#6e6e6e" stroke-width=".5" data-name="Ligne 759" transform="translate(450 314.5) rotate(90)"/><line id="Ligne_760" y2="400" fill="none" stroke="#6e6e6e" stroke-width=".5" data-name="Ligne 760" transform="translate(450 184.5) rotate(90)"/><line id="Ligne_761" y2="400" fill="none" stroke="#6e6e6e" stroke-width=".5" data-name="Ligne 761" transform="translate(450 379.5) rotate(90)"/><line id="Ligne_762" y2="400" fill="none" stroke="#6e6e6e" stroke-width=".5" data-name="Ligne 762" transform="translate(450 151.5) rotate(90)"/><line id="Ligne_763" y2="400" fill="none" stroke="#6e6e6e" stroke-width=".5" data-name="Ligne 763" transform="translate(450 134.5) rotate(90)"/><line id="Ligne_764" y2="400" fill="none" stroke="#6e6e6e" stroke-width=".5" data-name="Ligne 764" transform="translate(450 167.5) rotate(90)"/><line id="Ligne_765" y2="400" fill="none" stroke="#6e6e6e" stroke-width=".5" data-name="Ligne 765" transform="translate(450 330.5) rotate(90)"/><line id="Ligne_766" y2="400" fill="none" stroke="#6e6e6e" stroke-width=".5" data-name="Ligne 766" transform="translate(450 217.5) rotate(90)"/><line id="Ligne_767" y2="400" fill="none" stroke="#6e6e6e" stroke-width=".5" data-name="Ligne 767" transform="translate(450 282.5) rotate(90)"/><line id="Ligne_768" y2="400" fill="none" stroke="#6e6e6e" stroke-width=".5" data-name="Ligne 768" transform="translate(450 346.5) rotate(90)"/><line id="Ligne_769" y2="400" fill="none" stroke="#6e6e6e" stroke-width=".5" data-name="Ligne 769" transform="translate(450 362.5) rotate(90)"/><line id="Ligne_772" y2="400" fill="none" stroke="#6e6e6e" stroke-width=".5" data-name="Ligne 772" transform="translate(250 50)"/><line id="Ligne_773" y2="400" fill="none" stroke="#6e6e6e" stroke-width=".5" data-name="Ligne 773" transform="translate(300 50)"/><line id="Ligne_774" y2="400" fill="none" stroke="#6e6e6e" stroke-width=".5" data-name="Ligne 774" transform="translate(200 50)"/><path id="Tracé_505" fill="#6c7be6" d="M-1647,5975l.094,64.5h49.856Z" data-name="Tracé 505" transform="translate(1797 -5660.249)"/><path id="Tracé_506" fill="#6c7be6" d="M-1597.05,6039.748l-.094-64.749H-1647Z" data-name="Tracé 506" transform="translate(1947.05 -5855.248)"/><path id="Tracé_507" fill="#6c7be6" d="M32.375,0l-.061,100.027H0Z" data-name="Tracé 507" transform="translate(249.973 152.126) rotate(-90)"/><path id="Tracé_508" fill="#6c7be6" d="M-1647,6039.748l.094-64.749h49.856Z" data-name="Tracé 508" transform="translate(1947.05 -5660.248)"/><path id="Tracé_509" fill="#6c7be6" d="M-1597.05,5975l-.094,64.749H-1647Z" data-name="Tracé 509" transform="translate(1797 -5855.5)"/></g></svg>