<svg xmlns="http://www.w3.org/2000/svg" xmlns:xlink="http://www.w3.org/1999/xlink" width="500" height="500" viewBox="0 0 500 500">
  <defs>
    <clipPath id="clip-grid2">
      <rect width="500" height="500"/>
    </clipPath>
  </defs>
  <g id="grid2" clip-path="url(#clip-grid2)">
    <g id="Rectangle_136" data-name="Rectangle 136" transform="translate(149.977 119.225)" fill="none" stroke="#707070" stroke-width="0.5">
      <rect width="200" height="260" stroke="none"/>
      <rect x="0.25" y="0.25" width="199.5" height="259.5" fill="none"/>
    </g>
    <line id="Ligne_680" data-name="Ligne 680" y2="387.5" transform="translate(149.977 57.725)" fill="none" stroke="#6e6e6e" stroke-width="0.5"/>
    <line id="Ligne_681" data-name="Ligne 681" y2="387.5" transform="translate(349.977 57.725)" fill="none" stroke="#6e6e6e" stroke-width="0.5"/>
    <line id="Ligne_682" data-name="Ligne 682" y2="400" transform="translate(449.977 249.225) rotate(90)" fill="none" stroke="#6e6e6e" stroke-width="0.5"/>
    <line id="Ligne_683" data-name="Ligne 683" y2="400" transform="translate(449.977 314.225) rotate(90)" fill="none" stroke="#6e6e6e" stroke-width="0.5"/>
    <line id="Ligne_684" data-name="Ligne 684" y2="400" transform="translate(449.977 184.225) rotate(90)" fill="none" stroke="#6e6e6e" stroke-width="0.5"/>
    <line id="Ligne_685" data-name="Ligne 685" y2="400" transform="translate(449.977 379.225) rotate(90)" fill="none" stroke="#6e6e6e" stroke-width="0.5"/>
    <line id="Ligne_686" data-name="Ligne 686" y2="400" transform="translate(449.977 119.225) rotate(90)" fill="none" stroke="#6e6e6e" stroke-width="0.5"/>
    <line id="Ligne_687" data-name="Ligne 687" y2="400" transform="translate(449.977 151.225) rotate(90)" fill="none" stroke="#6e6e6e" stroke-width="0.5"/>
    <line id="Ligne_688" data-name="Ligne 688" y2="400" transform="translate(449.977 134.225) rotate(90)" fill="none" stroke="#6e6e6e" stroke-width="0.5"/>
    <line id="Ligne_689" data-name="Ligne 689" y2="400" transform="translate(449.977 167.225) rotate(90)" fill="none" stroke="#6e6e6e" stroke-width="0.5"/>
    <line id="Ligne_690" data-name="Ligne 690" y2="400" transform="translate(449.977 330.225) rotate(90)" fill="none" stroke="#6e6e6e" stroke-width="0.5"/>
    <line id="Ligne_691" data-name="Ligne 691" y2="400" transform="translate(449.977 217.225) rotate(90)" fill="none" stroke="#6e6e6e" stroke-width="0.5"/>
    <line id="Ligne_692" data-name="Ligne 692" y2="400" transform="translate(449.977 282.225) rotate(90)" fill="none" stroke="#6e6e6e" stroke-width="0.5"/>
    <line id="Ligne_693" data-name="Ligne 693" y2="400" transform="translate(449.977 346.225) rotate(90)" fill="none" stroke="#6e6e6e" stroke-width="0.5"/>
    <line id="Ligne_694" data-name="Ligne 694" y2="400" transform="translate(449.977 362.225) rotate(90)" fill="none" stroke="#6e6e6e" stroke-width="0.5"/>
    <line id="Ligne_695" data-name="Ligne 695" y2="387.5" transform="translate(249.977 57.725)" fill="none" stroke="#6e6e6e" stroke-width="0.5"/>
    <line id="Ligne_696" data-name="Ligne 696" y2="387.5" transform="translate(299.977 57.725)" fill="none" stroke="#6e6e6e" stroke-width="0.5"/>
    <line id="Ligne_697" data-name="Ligne 697" y2="387.5" transform="translate(199.977 57.725)" fill="none" stroke="#6e6e6e" stroke-width="0.5"/>
    <circle id="Ellipse_117" data-name="Ellipse 117" cx="4.5" cy="4.5" r="4.5" transform="translate(245.977 244.725)" fill="red"/>
    <g id="Rectangle_137" data-name="Rectangle 137" transform="translate(149.977 119.225)" fill="none" stroke="#1c34e8" stroke-width="1">
      <rect width="200" height="260" stroke="none"/>
      <rect x="0.5" y="0.5" width="199" height="259" fill="none"/>
    </g>
    <path id="Tracé_485" data-name="Tracé 485" d="M32.95,52.046,32.888,0H0Z" transform="translate(349.977 284.124) rotate(-90)" fill="#6c00ea" opacity="0.598"/>
    <path id="Tracé_486" data-name="Tracé 486" d="M32.95,52.046,32.888,0H0Z" transform="translate(150.023 217.225) rotate(90)" fill="#6c00ea" opacity="0.598"/>
    <path id="Tracé_487" data-name="Tracé 487" d="M32.95,52.046,32.888,0H0Z" transform="translate(398.977 284.124) rotate(-90)" fill="#6c00ea" opacity="0.598"/>
    <path id="Tracé_488" data-name="Tracé 488" d="M-1614.05,5975l-.062,52.046H-1647Z" transform="translate(6277.977 1732.773) rotate(90)" fill="#6c00ea" stroke="#6e6e6e" stroke-width="1"/>
    <path id="Tracé_489" data-name="Tracé 489" d="M32.95,52.046,32.888,0H0Z" transform="translate(250.977 410.224) rotate(90)" fill="#6c00ea" opacity="0.598"/>
    <path id="Tracé_490" data-name="Tracé 490" d="M-1614.05,5975l-.062,52.046H-1647Z" transform="translate(6277.977 1701.775) rotate(90)" fill="#6c00ea" opacity="0.598"/>
    <path id="Tracé_491" data-name="Tracé 491" d="M32.95,52.046,32.888,0H0Z" transform="translate(250.977 379.225) rotate(90)" fill="#6c00ea" opacity="0.598"/>
    <path id="Tracé_492" data-name="Tracé 492" d="M32.95,52.046,32.888,0H0Z" transform="translate(101.023 217.225) rotate(90)" fill="#6c00ea" opacity="0.598"/>
  </g>
</svg>
