<svg xmlns="http://www.w3.org/2000/svg" xmlns:xlink="http://www.w3.org/1999/xlink" width="500" height="500" viewBox="0 0 500 500"><defs><clipPath id="clip-grid3"><rect width="500" height="500"/></clipPath></defs><g id="grid3" clip-path="url(#clip-grid3)"><line id="Ligne_679" y2="400" fill="none" stroke="#6e6e6e" stroke-width=".5" data-name="Ligne 679" transform="translate(450 119.5) rotate(90)"/><line id="Ligne_698" y2="400" fill="none" stroke="#6e6e6e" stroke-width=".5" data-name="Ligne 698" transform="translate(150 50)"/><line id="Ligne_699" y2="400" fill="none" stroke="#6e6e6e" stroke-width=".5" data-name="Ligne 699" transform="translate(350 50)"/><line id="Ligne_700" y2="400" fill="none" stroke="#6e6e6e" stroke-width=".5" data-name="Ligne 700" transform="translate(450 249.5) rotate(90)"/><line id="Ligne_701" y2="400" fill="none" stroke="#6e6e6e" stroke-width=".5" data-name="Ligne 701" transform="translate(450 314.5) rotate(90)"/><line id="Ligne_702" y2="400" fill="none" stroke="#6e6e6e" stroke-width=".5" data-name="Ligne 702" transform="translate(450 184.5) rotate(90)"/><line id="Ligne_703" y2="400" fill="none" stroke="#6e6e6e" stroke-width=".5" data-name="Ligne 703" transform="translate(450 379.5) rotate(90)"/><line id="Ligne_704" y2="400" fill="none" stroke="#6e6e6e" stroke-width=".5" data-name="Ligne 704" transform="translate(450 151.5) rotate(90)"/><line id="Ligne_705" y2="400" fill="none" stroke="#6e6e6e" stroke-width=".5" data-name="Ligne 705" transform="translate(450 134.5) rotate(90)"/><line id="Ligne_706" y2="400" fill="none" stroke="#6e6e6e" stroke-width=".5" data-name="Ligne 706" transform="translate(450 167.5) rotate(90)"/><line id="Ligne_707" y2="400" fill="none" stroke="#6e6e6e" stroke-width=".5" data-name="Ligne 707" transform="translate(450 330.5) rotate(90)"/><line id="Ligne_708" y2="400" fill="none" stroke="#6e6e6e" stroke-width=".5" data-name="Ligne 708" transform="translate(450 217.5) rotate(90)"/><line id="Ligne_709" y2="400" fill="none" stroke="#6e6e6e" stroke-width=".5" data-name="Ligne 709" transform="translate(450 282.5) rotate(90)"/><line id="Ligne_710" y2="400" fill="none" stroke="#6e6e6e" stroke-width=".5" data-name="Ligne 710" transform="translate(450 346.5) rotate(90)"/><line id="Ligne_711" y2="400" fill="none" stroke="#6e6e6e" stroke-width=".5" data-name="Ligne 711" transform="translate(450 362.5) rotate(90)"/><line id="Ligne_712" y2="400" fill="none" stroke="#6e6e6e" stroke-width=".5" data-name="Ligne 712" transform="translate(250 50)"/><line id="Ligne_713" y2="400" fill="none" stroke="#6e6e6e" stroke-width=".5" data-name="Ligne 713" transform="translate(300 50)"/><line id="Ligne_714" y2="400" fill="none" stroke="#6e6e6e" stroke-width=".5" data-name="Ligne 714" transform="translate(200 50)"/><path id="Tracé_479" fill="#1c34e8" d="M-1647,5975l.094,64.5h49.856Z" data-name="Tracé 479" opacity=".598" transform="translate(1797 -5660.249)"/><path id="Tracé_480" fill="#1c34e8" d="M-1597.05,6039.748l-.094-64.749H-1647Z" data-name="Tracé 480" opacity=".598" transform="translate(1947.05 -5855.248)"/><path id="Tracé_481" fill="#1c34e8" d="M-1647,6039.748l.094-64.749h49.856Z" data-name="Tracé 481" opacity=".598" transform="translate(1947.05 -5660.248)"/><path id="Tracé_482" fill="#1c34e8" d="M-1597.05,5975l-.094,64.749H-1647Z" data-name="Tracé 482" opacity=".598" transform="translate(1797 -5855.5)"/><circle id="Ellipse_116" cx="4.5" cy="4.5" r="4.5" fill="red" data-name="Ellipse 116" transform="translate(246 245.5)"/><circle id="Ellipse_118" cx="3.5" cy="3.5" r="3.5" fill="#0ff" data-name="Ellipse 118" transform="translate(346 311.5)"/><circle id="Ellipse_119" cx="3.5" cy="3.5" r="3.5" fill="#0ff" data-name="Ellipse 119" transform="translate(297 311.5)"/><circle id="Ellipse_120" cx="3.5" cy="3.5" r="3.5" fill="#0ff" data-name="Ellipse 120" transform="translate(297 375.5)"/><circle id="Ellipse_121" cx="3.5" cy="3.5" r="3.5" fill="#0ff" data-name="Ellipse 121" transform="translate(196 375.5)"/><circle id="Ellipse_122" cx="3.5" cy="3.5" r="3.5" fill="#0ff" data-name="Ellipse 122" transform="translate(147 375.5)"/><circle id="Ellipse_123" cx="3.5" cy="3.5" r="3.5" fill="#0ff" data-name="Ellipse 123" transform="translate(147 310.5)"/><circle id="Ellipse_124" cx="3.5" cy="3.5" r="3.5" fill="#0ff" data-name="Ellipse 124" transform="translate(147 181.5)"/><circle id="Ellipse_125" cx="3.5" cy="3.5" r="3.5" fill="#0ff" data-name="Ellipse 125" transform="translate(197 180.5)"/><circle id="Ellipse_126" cx="3.5" cy="3.5" r="3.5" fill="#0ff" data-name="Ellipse 126" transform="translate(197 116.5)"/><circle id="Ellipse_127" cx="3.5" cy="3.5" r="3.5" fill="#0ff" data-name="Ellipse 127" transform="translate(297 116.5)"/><circle id="Ellipse_128" cx="3.5" cy="3.5" r="3.5" fill="#0ff" data-name="Ellipse 128" transform="translate(346 116.5)"/><circle id="Ellipse_129" cx="3.5" cy="3.5" r="3.5" fill="#0ff" data-name="Ellipse 129" transform="translate(346 180.5)"/></g></svg>