<svg xmlns="http://www.w3.org/2000/svg" xmlns:xlink="http://www.w3.org/1999/xlink" width="500" height="500" viewBox="0 0 500 500">
  <defs>
    <clipPath id="clip-grid6">
      <rect width="500" height="500"/>
    </clipPath>
  </defs>
  <g id="grid6" clip-path="url(#clip-grid6)">
    <line id="Ligne_725" data-name="Ligne 725" y2="400" transform="translate(450 119.5) rotate(90)" fill="none" stroke="#6e6e6e" stroke-width="0.5"/>
    <path id="Tracé_504" data-name="Tracé 504" d="M-1647,5844.749l150.165,145.753,49.782-14.878-149.606-147.742Z" transform="translate(1797 -5660.5)" fill="#6c7be6"/>
    <line id="Ligne_756" data-name="Ligne 756" y2="400" transform="translate(150 50)" fill="none" stroke="#6e6e6e" stroke-width="0.5"/>
    <line id="Ligne_757" data-name="Ligne 757" y2="400" transform="translate(350 50)" fill="none" stroke="#6e6e6e" stroke-width="0.5"/>
    <line id="Ligne_758" data-name="Ligne 758" y2="400" transform="translate(450 249.5) rotate(90)" fill="none" stroke="#6e6e6e" stroke-width="0.5"/>
    <line id="Ligne_759" data-name="Ligne 759" y2="400" transform="translate(450 314.5) rotate(90)" fill="none" stroke="#6e6e6e" stroke-width="0.5"/>
    <line id="Ligne_760" data-name="Ligne 760" y2="400" transform="translate(450 184.5) rotate(90)" fill="none" stroke="#6e6e6e" stroke-width="0.5"/>
    <line id="Ligne_761" data-name="Ligne 761" y2="400" transform="translate(450 379.5) rotate(90)" fill="none" stroke="#6e6e6e" stroke-width="0.5"/>
    <line id="Ligne_762" data-name="Ligne 762" y2="400" transform="translate(450 151.5) rotate(90)" fill="none" stroke="#6e6e6e" stroke-width="0.5"/>
    <line id="Ligne_763" data-name="Ligne 763" y2="400" transform="translate(450 134.5) rotate(90)" fill="none" stroke="#6e6e6e" stroke-width="0.5"/>
    <line id="Ligne_764" data-name="Ligne 764" y2="400" transform="translate(450 167.5) rotate(90)" fill="none" stroke="#6e6e6e" stroke-width="0.5"/>
    <line id="Ligne_765" data-name="Ligne 765" y2="400" transform="translate(450 330.5) rotate(90)" fill="none" stroke="#6e6e6e" stroke-width="0.5"/>
    <line id="Ligne_766" data-name="Ligne 766" y2="400" transform="translate(450 217.5) rotate(90)" fill="none" stroke="#6e6e6e" stroke-width="0.5"/>
    <line id="Ligne_767" data-name="Ligne 767" y2="400" transform="translate(450 282.5) rotate(90)" fill="none" stroke="#6e6e6e" stroke-width="0.5"/>
    <line id="Ligne_768" data-name="Ligne 768" y2="400" transform="translate(450 346.5) rotate(90)" fill="none" stroke="#6e6e6e" stroke-width="0.5"/>
    <line id="Ligne_769" data-name="Ligne 769" y2="400" transform="translate(450 362.5) rotate(90)" fill="none" stroke="#6e6e6e" stroke-width="0.5"/>
    <line id="Ligne_772" data-name="Ligne 772" y2="400" transform="translate(250 50)" fill="none" stroke="#6e6e6e" stroke-width="0.5"/>
    <line id="Ligne_773" data-name="Ligne 773" y2="400" transform="translate(300 50)" fill="none" stroke="#6e6e6e" stroke-width="0.5"/>
    <line id="Ligne_774" data-name="Ligne 774" y2="400" transform="translate(200 50)" fill="none" stroke="#6e6e6e" stroke-width="0.5"/>
    <path id="Tracé_505" data-name="Tracé 505" d="M-1647,5975l.094,64.5h49.856Z" transform="translate(1797 -5660.249)" fill="#6c7be6"/>
    <path id="Tracé_506" data-name="Tracé 506" d="M-1597.05,6039.748l-.094-64.749H-1647Z" transform="translate(1947.05 -5855.248)" fill="#6c7be6"/>
    <path id="Tracé_507" data-name="Tracé 507" d="M32.375,0l-.061,100.027H0Z" transform="translate(249.973 152.126) rotate(-90)" fill="#6c7be6"/>
    <path id="Tracé_508" data-name="Tracé 508" d="M-1647,6039.748l.094-64.749h49.856Z" transform="translate(1947.05 -5660.248)" fill="#6c7be6"/>
    <path id="Tracé_509" data-name="Tracé 509" d="M-1597.05,5975l-.094,64.749H-1647Z" transform="translate(1797 -5855.5)" fill="#6c7be6"/>
  </g>
</svg>
